%TF.GenerationSoftware,KiCad,Pcbnew,(6.0.5)*%
%TF.CreationDate,2023-02-01T20:47:26-08:00*%
%TF.ProjectId,USBHub,55534248-7562-42e6-9b69-6361645f7063,rev?*%
%TF.SameCoordinates,Original*%
%TF.FileFunction,Paste,Top*%
%TF.FilePolarity,Positive*%
%FSLAX46Y46*%
G04 Gerber Fmt 4.6, Leading zero omitted, Abs format (unit mm)*
G04 Created by KiCad (PCBNEW (6.0.5)) date 2023-02-01 20:47:26*
%MOMM*%
%LPD*%
G01*
G04 APERTURE LIST*
G04 Aperture macros list*
%AMRoundRect*
0 Rectangle with rounded corners*
0 $1 Rounding radius*
0 $2 $3 $4 $5 $6 $7 $8 $9 X,Y pos of 4 corners*
0 Add a 4 corners polygon primitive as box body*
4,1,4,$2,$3,$4,$5,$6,$7,$8,$9,$2,$3,0*
0 Add four circle primitives for the rounded corners*
1,1,$1+$1,$2,$3*
1,1,$1+$1,$4,$5*
1,1,$1+$1,$6,$7*
1,1,$1+$1,$8,$9*
0 Add four rect primitives between the rounded corners*
20,1,$1+$1,$2,$3,$4,$5,0*
20,1,$1+$1,$4,$5,$6,$7,0*
20,1,$1+$1,$6,$7,$8,$9,0*
20,1,$1+$1,$8,$9,$2,$3,0*%
G04 Aperture macros list end*
%ADD10R,3.325000X2.500000*%
%ADD11R,0.700000X1.650000*%
%ADD12O,1.500000X0.250000*%
%ADD13O,0.250000X1.500000*%
%ADD14RoundRect,0.237500X-0.250000X-0.237500X0.250000X-0.237500X0.250000X0.237500X-0.250000X0.237500X0*%
%ADD15RoundRect,0.237500X-0.237500X0.250000X-0.237500X-0.250000X0.237500X-0.250000X0.237500X0.250000X0*%
%ADD16RoundRect,0.237500X0.237500X-0.250000X0.237500X0.250000X-0.237500X0.250000X-0.237500X-0.250000X0*%
%ADD17RoundRect,0.237500X-0.300000X-0.237500X0.300000X-0.237500X0.300000X0.237500X-0.300000X0.237500X0*%
%ADD18RoundRect,0.237500X-0.237500X0.300000X-0.237500X-0.300000X0.237500X-0.300000X0.237500X0.300000X0*%
%ADD19RoundRect,0.237500X0.300000X0.237500X-0.300000X0.237500X-0.300000X-0.237500X0.300000X-0.237500X0*%
%ADD20RoundRect,0.237500X0.237500X-0.300000X0.237500X0.300000X-0.237500X0.300000X-0.237500X-0.300000X0*%
G04 APERTURE END LIST*
D10*
%TO.C,Y1*%
X147087500Y-74000000D03*
X152912500Y-74000000D03*
%TD*%
D11*
%TO.C,U2*%
X170905000Y-89200000D03*
X170905000Y-83800000D03*
X169635000Y-89200000D03*
X169635000Y-83800000D03*
X168365000Y-89200000D03*
X168365000Y-83800000D03*
X167095000Y-89200000D03*
X167095000Y-83800000D03*
%TD*%
D12*
%TO.C,U1*%
X157500000Y-83250000D03*
X157500000Y-83750000D03*
X157500000Y-84250000D03*
X157500000Y-84750000D03*
X157500000Y-85250000D03*
X157500000Y-85750000D03*
X157500000Y-86250000D03*
X157500000Y-86750000D03*
X157500000Y-87250000D03*
X157500000Y-87750000D03*
X157500000Y-88250000D03*
X157500000Y-88750000D03*
D13*
X155750000Y-90500000D03*
X155250000Y-90500000D03*
X154750000Y-90500000D03*
X154250000Y-90500000D03*
X153750000Y-90500000D03*
X153250000Y-90500000D03*
X152750000Y-90500000D03*
X152250000Y-90500000D03*
X151750000Y-90500000D03*
X151250000Y-90500000D03*
X150750000Y-90500000D03*
X150250000Y-90500000D03*
D12*
X148500000Y-88750000D03*
X148500000Y-88250000D03*
X148500000Y-87750000D03*
X148500000Y-87250000D03*
X148500000Y-86750000D03*
X148500000Y-86250000D03*
X148500000Y-85750000D03*
X148500000Y-85250000D03*
X148500000Y-84750000D03*
X148500000Y-84250000D03*
X148500000Y-83750000D03*
X148500000Y-83250000D03*
D13*
X150250000Y-81500000D03*
X150750000Y-81500000D03*
X151250000Y-81500000D03*
X151750000Y-81500000D03*
X152250000Y-81500000D03*
X152750000Y-81500000D03*
X153250000Y-81500000D03*
X153750000Y-81500000D03*
X154250000Y-81500000D03*
X154750000Y-81500000D03*
X155250000Y-81500000D03*
X155750000Y-81500000D03*
%TD*%
D14*
%TO.C,R6*%
X162912500Y-84000000D03*
X161087500Y-84000000D03*
%TD*%
D15*
%TO.C,R5*%
X159900000Y-80612500D03*
X159900000Y-78787500D03*
%TD*%
D16*
%TO.C,R4*%
X161800000Y-78787500D03*
X161800000Y-80612500D03*
%TD*%
%TO.C,R3*%
X163300000Y-93787500D03*
X163300000Y-95612500D03*
%TD*%
%TO.C,R2*%
X161200000Y-93787500D03*
X161200000Y-95612500D03*
%TD*%
D15*
%TO.C,R1*%
X148600000Y-96012500D03*
X148600000Y-94187500D03*
%TD*%
D17*
%TO.C,C18*%
X162862500Y-86000000D03*
X161137500Y-86000000D03*
%TD*%
%TO.C,C17*%
X148162500Y-79600000D03*
X146437500Y-79600000D03*
%TD*%
%TO.C,C16*%
X153962500Y-78800000D03*
X152237500Y-78800000D03*
%TD*%
D18*
%TO.C,C15*%
X159200000Y-95562500D03*
X159200000Y-93837500D03*
%TD*%
%TO.C,C14*%
X152400000Y-95962500D03*
X152400000Y-94237500D03*
%TD*%
%TO.C,C13*%
X144400000Y-95962500D03*
X144400000Y-94237500D03*
%TD*%
D17*
%TO.C,C12*%
X157662500Y-78800000D03*
X155937500Y-78800000D03*
%TD*%
D18*
%TO.C,C11*%
X150500000Y-95962500D03*
X150500000Y-94237500D03*
%TD*%
D17*
%TO.C,C10*%
X162862500Y-90000000D03*
X161137500Y-90000000D03*
%TD*%
D19*
%TO.C,C9*%
X165837500Y-79300000D03*
X167562500Y-79300000D03*
%TD*%
%TO.C,C8*%
X165837500Y-81300000D03*
X167562500Y-81300000D03*
%TD*%
%TO.C,C7*%
X166637500Y-93500000D03*
X168362500Y-93500000D03*
%TD*%
D20*
%TO.C,C6*%
X136000000Y-64137500D03*
X136000000Y-65862500D03*
%TD*%
%TO.C,C5*%
X135700000Y-90137500D03*
X135700000Y-91862500D03*
%TD*%
%TO.C,C4*%
X134000000Y-64137500D03*
X134000000Y-65862500D03*
%TD*%
%TO.C,C3*%
X133900000Y-90137500D03*
X133900000Y-91862500D03*
%TD*%
D18*
%TO.C,C2*%
X146700000Y-95962500D03*
X146700000Y-94237500D03*
%TD*%
D17*
%TO.C,C1*%
X162862500Y-88000000D03*
X161137500Y-88000000D03*
%TD*%
M02*
