%TF.GenerationSoftware,KiCad,Pcbnew,(6.0.5)*%
%TF.CreationDate,2023-02-01T20:47:26-08:00*%
%TF.ProjectId,USBHub,55534248-7562-42e6-9b69-6361645f7063,rev?*%
%TF.SameCoordinates,Original*%
%TF.FileFunction,Soldermask,Bot*%
%TF.FilePolarity,Negative*%
%FSLAX46Y46*%
G04 Gerber Fmt 4.6, Leading zero omitted, Abs format (unit mm)*
G04 Created by KiCad (PCBNEW (6.0.5)) date 2023-02-01 20:47:26*
%MOMM*%
%LPD*%
G01*
G04 APERTURE LIST*
G04 Aperture macros list*
%AMRoundRect*
0 Rectangle with rounded corners*
0 $1 Rounding radius*
0 $2 $3 $4 $5 $6 $7 $8 $9 X,Y pos of 4 corners*
0 Add a 4 corners polygon primitive as box body*
4,1,4,$2,$3,$4,$5,$6,$7,$8,$9,$2,$3,0*
0 Add four circle primitives for the rounded corners*
1,1,$1+$1,$2,$3*
1,1,$1+$1,$4,$5*
1,1,$1+$1,$6,$7*
1,1,$1+$1,$8,$9*
0 Add four rect primitives between the rounded corners*
20,1,$1+$1,$2,$3,$4,$5,0*
20,1,$1+$1,$4,$5,$6,$7,0*
20,1,$1+$1,$6,$7,$8,$9,0*
20,1,$1+$1,$8,$9,$2,$3,0*%
G04 Aperture macros list end*
%ADD10O,2.000000X1.700000*%
%ADD11RoundRect,0.250000X0.750000X-0.600000X0.750000X0.600000X-0.750000X0.600000X-0.750000X-0.600000X0*%
%ADD12C,3.500000*%
%ADD13C,1.700000*%
%ADD14R,1.700000X1.700000*%
%ADD15C,3.000000*%
%ADD16R,1.500000X1.500000*%
%ADD17C,1.500000*%
%ADD18C,0.800000*%
%ADD19C,6.400000*%
G04 APERTURE END LIST*
D10*
%TO.C,J6*%
X174500000Y-93000000D03*
D11*
X174500000Y-95500000D03*
%TD*%
D12*
%TO.C,J3*%
X167710000Y-113770000D03*
X167710000Y-101730000D03*
D13*
X165000000Y-106500000D03*
X165000000Y-109000000D03*
X163000000Y-109000000D03*
D14*
X163000000Y-106500000D03*
%TD*%
D15*
%TO.C,J1*%
X137350000Y-82070000D03*
X137350000Y-68930000D03*
D16*
X137000000Y-72000000D03*
D17*
X137000000Y-74500000D03*
X137000000Y-76500000D03*
X137000000Y-79000000D03*
D15*
X131670000Y-68930000D03*
X131670000Y-82070000D03*
D17*
X134380000Y-72000000D03*
X134380000Y-74500000D03*
X134380000Y-76500000D03*
X134380000Y-79000000D03*
%TD*%
D15*
%TO.C,J2*%
X137350000Y-108070000D03*
X137350000Y-94930000D03*
D16*
X137000000Y-98000000D03*
D17*
X137000000Y-100500000D03*
X137000000Y-102500000D03*
X137000000Y-105000000D03*
D15*
X131670000Y-94930000D03*
X131670000Y-108070000D03*
D17*
X134380000Y-98000000D03*
X134380000Y-100500000D03*
X134380000Y-102500000D03*
X134380000Y-105000000D03*
%TD*%
D18*
%TO.C,H4*%
X158697056Y-110802944D03*
X157000000Y-110100000D03*
X155302944Y-110802944D03*
X154600000Y-112500000D03*
X155302944Y-114197056D03*
X157000000Y-114900000D03*
X158697056Y-114197056D03*
X159400000Y-112500000D03*
D19*
X157000000Y-112500000D03*
%TD*%
D18*
%TO.C,H3*%
X128697056Y-110802944D03*
X127000000Y-110100000D03*
X125302944Y-110802944D03*
X124600000Y-112500000D03*
X125302944Y-114197056D03*
X127000000Y-114900000D03*
X128697056Y-114197056D03*
X129400000Y-112500000D03*
D19*
X127000000Y-112500000D03*
%TD*%
D18*
%TO.C,H2*%
X176197056Y-78302944D03*
X174500000Y-77600000D03*
X172802944Y-78302944D03*
X172100000Y-80000000D03*
X172802944Y-81697056D03*
X174500000Y-82400000D03*
X176197056Y-81697056D03*
X176900000Y-80000000D03*
D19*
X174500000Y-80000000D03*
%TD*%
D18*
%TO.C,H1*%
X128697056Y-62302944D03*
X127000000Y-61600000D03*
X125302944Y-62302944D03*
X124600000Y-64000000D03*
X125302944Y-65697056D03*
X127000000Y-66400000D03*
X128697056Y-65697056D03*
X129400000Y-64000000D03*
D19*
X127000000Y-64000000D03*
%TD*%
M02*
