%TF.GenerationSoftware,KiCad,Pcbnew,(5.1.10)-1*%
%TF.CreationDate,2021-06-30T06:41:13-07:00*%
%TF.ProjectId,USBHub,55534248-7562-42e6-9b69-6361645f7063,rev?*%
%TF.SameCoordinates,Original*%
%TF.FileFunction,Soldermask,Bot*%
%TF.FilePolarity,Negative*%
%FSLAX46Y46*%
G04 Gerber Fmt 4.6, Leading zero omitted, Abs format (unit mm)*
G04 Created by KiCad (PCBNEW (5.1.10)-1) date 2021-06-30 06:41:13*
%MOMM*%
%LPD*%
G01*
G04 APERTURE LIST*
%ADD10C,0.800000*%
%ADD11C,6.400000*%
%ADD12C,3.000000*%
%ADD13R,1.500000X1.500000*%
%ADD14C,1.500000*%
%ADD15C,1.100000*%
%ADD16C,2.200000*%
%ADD17R,2.200000X2.200000*%
%ADD18C,3.500000*%
%ADD19C,1.700000*%
%ADD20R,1.700000X1.700000*%
G04 APERTURE END LIST*
D10*
%TO.C,H4*%
X158697056Y-110802944D03*
X157000000Y-110100000D03*
X155302944Y-110802944D03*
X154600000Y-112500000D03*
X155302944Y-114197056D03*
X157000000Y-114900000D03*
X158697056Y-114197056D03*
X159400000Y-112500000D03*
D11*
X157000000Y-112500000D03*
%TD*%
D10*
%TO.C,H3*%
X128697056Y-110802944D03*
X127000000Y-110100000D03*
X125302944Y-110802944D03*
X124600000Y-112500000D03*
X125302944Y-114197056D03*
X127000000Y-114900000D03*
X128697056Y-114197056D03*
X129400000Y-112500000D03*
D11*
X127000000Y-112500000D03*
%TD*%
D10*
%TO.C,H2*%
X176197056Y-78302944D03*
X174500000Y-77600000D03*
X172802944Y-78302944D03*
X172100000Y-80000000D03*
X172802944Y-81697056D03*
X174500000Y-82400000D03*
X176197056Y-81697056D03*
X176900000Y-80000000D03*
D11*
X174500000Y-80000000D03*
%TD*%
D10*
%TO.C,H1*%
X128697056Y-62302944D03*
X127000000Y-61600000D03*
X125302944Y-62302944D03*
X124600000Y-64000000D03*
X125302944Y-65697056D03*
X127000000Y-66400000D03*
X128697056Y-65697056D03*
X129400000Y-64000000D03*
D11*
X127000000Y-64000000D03*
%TD*%
D12*
%TO.C,J2*%
X137350000Y-108070000D03*
X137350000Y-94930000D03*
D13*
X137000000Y-98000000D03*
D14*
X137000000Y-100500000D03*
X137000000Y-102500000D03*
X137000000Y-105000000D03*
D12*
X131670000Y-94930000D03*
X131670000Y-108070000D03*
D14*
X134380000Y-98000000D03*
X134380000Y-100500000D03*
X134380000Y-102500000D03*
X134380000Y-105000000D03*
%TD*%
D12*
%TO.C,J1*%
X137350000Y-82070000D03*
X137350000Y-68930000D03*
D13*
X137000000Y-72000000D03*
D14*
X137000000Y-74500000D03*
X137000000Y-76500000D03*
X137000000Y-79000000D03*
D12*
X131670000Y-68930000D03*
X131670000Y-82070000D03*
D14*
X134380000Y-72000000D03*
X134380000Y-74500000D03*
X134380000Y-76500000D03*
X134380000Y-79000000D03*
%TD*%
D15*
%TO.C,J6*%
X177040000Y-92960000D03*
D16*
X174500000Y-92960000D03*
D15*
X177040000Y-95500000D03*
D17*
X174500000Y-95500000D03*
%TD*%
D18*
%TO.C,J3*%
X167710000Y-113770000D03*
X167710000Y-101730000D03*
D19*
X165000000Y-106500000D03*
X165000000Y-109000000D03*
X163000000Y-109000000D03*
D20*
X163000000Y-106500000D03*
%TD*%
M02*
