M48
; DRILL file {KiCad (5.1.10)-1} date 06/30/21 06:40:58
; FORMAT={-:-/ absolute / inch / decimal}
; #@! TF.CreationDate,2021-06-30T06:40:58-07:00
; #@! TF.GenerationSoftware,Kicad,Pcbnew,(5.1.10)-1
FMAT,2
INCH
T1C0.0157
T2C0.0197
T3C0.0362
T4C0.0433
T5C0.0906
T6C0.0917
T7C0.1260
T8C0.0433
%
G90
G05
T1
X5.0916Y-3.5168
X5.1772Y-3.6024
X5.1944Y-3.0133
X5.2047Y-3.9773
X5.2165Y-2.5394
X5.2165Y-3.5709
X5.3898Y-3.5354
X5.4134Y-2.5
X5.6496Y-3.8228
X5.7244Y-3.8228
X5.7874Y-3.0748
X5.8346Y-3.8307
X5.8898Y-3.6496
X5.9055Y-3.3465
X5.9055Y-3.4449
X5.9094Y-3.8386
X5.9252Y-3.5039
X5.9449Y-3.2638
X5.9606Y-3.6496
X5.9843Y-3.8346
X6.0039Y-3.2756
X6.0079Y-3.4409
X6.0079Y-3.5039
X6.0236Y-3.1496
X6.0394Y-3.2756
X6.063Y-3.1496
X6.0748Y-3.0512
X6.0837Y-3.5079
X6.0945Y-3.4055
X6.1181Y-3.4833
X6.1417Y-3.4016
X6.1496Y-3.1496
X6.2323Y-3.0472
X6.252Y-3.5157
X6.2598Y-3.378
X6.2598Y-3.8228
X6.2795Y-3.3268
X6.3071Y-3.0512
X6.4685Y-3.4488
X6.4685Y-3.5276
X6.4764Y-3.1299
X6.4764Y-3.2283
X6.4764Y-3.3465
X6.5354Y-3.563
X6.5945Y-3.6024
X6.6142Y-3.4341
T2
X4.9055Y-2.5197
X4.9055Y-4.4291
X4.9332Y-2.4529
X4.9332Y-2.5865
X4.9332Y-4.3623
X4.9332Y-4.4959
X5.0Y-2.4252
X5.0Y-2.6142
X5.0Y-4.3346
X5.0Y-4.5236
X5.0668Y-2.4529
X5.0668Y-2.5865
X5.0668Y-4.3623
X5.0668Y-4.4959
X5.0945Y-2.5197
X5.0945Y-4.4291
X6.0866Y-4.4291
X6.1143Y-4.3623
X6.1143Y-4.4959
X6.1811Y-4.3346
X6.1811Y-4.5236
X6.2479Y-4.3623
X6.2479Y-4.4959
X6.2756Y-4.4291
X6.7756Y-3.1496
X6.8033Y-3.0828
X6.8033Y-3.2164
X6.8701Y-3.0551
X6.8701Y-3.2441
X6.9369Y-3.0828
X6.9369Y-3.2164
X6.9646Y-3.1496
T3
X5.2906Y-2.8346
X5.2906Y-2.9331
X5.2906Y-3.0118
X5.2906Y-3.1102
X5.2906Y-3.8583
X5.2906Y-3.9567
X5.2906Y-4.0354
X5.2906Y-4.1339
X5.3937Y-2.8346
X5.3937Y-2.9331
X5.3937Y-3.0118
X5.3937Y-3.1102
X5.3937Y-3.8583
X5.3937Y-3.9567
X5.3937Y-4.0354
X5.3937Y-4.1339
X6.4173Y-4.1929
X6.4173Y-4.2913
X6.4961Y-4.1929
X6.4961Y-4.2913
T4
X6.8701Y-3.6598
X6.8701Y-3.7598
T5
X5.1839Y-2.7138
X5.1839Y-3.2311
X5.1839Y-3.7374
X5.1839Y-4.2547
X5.4075Y-2.7138
X5.4075Y-3.2311
X5.4075Y-3.7374
X5.4075Y-4.2547
T6
X6.6028Y-4.0051
X6.6028Y-4.4791
T7
X5.0Y-2.5197
X5.0Y-4.4291
X6.1811Y-4.4291
X6.8701Y-3.1496
T8
X6.9701Y-3.6598
X6.9701Y-3.7598
T0
M30
