%TF.GenerationSoftware,KiCad,Pcbnew,(5.1.10)-1*%
%TF.CreationDate,2021-06-30T06:41:13-07:00*%
%TF.ProjectId,USBHub,55534248-7562-42e6-9b69-6361645f7063,rev?*%
%TF.SameCoordinates,Original*%
%TF.FileFunction,Paste,Top*%
%TF.FilePolarity,Positive*%
%FSLAX46Y46*%
G04 Gerber Fmt 4.6, Leading zero omitted, Abs format (unit mm)*
G04 Created by KiCad (PCBNEW (5.1.10)-1) date 2021-06-30 06:41:13*
%MOMM*%
%LPD*%
G01*
G04 APERTURE LIST*
%ADD10R,3.325000X2.500000*%
%ADD11R,0.700000X1.650000*%
%ADD12O,1.500000X0.250000*%
%ADD13O,0.250000X1.500000*%
G04 APERTURE END LIST*
D10*
%TO.C,Y1*%
X147087500Y-74000000D03*
X152912500Y-74000000D03*
%TD*%
D11*
%TO.C,U2*%
X170905000Y-89200000D03*
X170905000Y-83800000D03*
X169635000Y-89200000D03*
X169635000Y-83800000D03*
X168365000Y-89200000D03*
X168365000Y-83800000D03*
X167095000Y-89200000D03*
X167095000Y-83800000D03*
%TD*%
D12*
%TO.C,U1*%
X157500000Y-83250000D03*
X157500000Y-83750000D03*
X157500000Y-84250000D03*
X157500000Y-84750000D03*
X157500000Y-85250000D03*
X157500000Y-85750000D03*
X157500000Y-86250000D03*
X157500000Y-86750000D03*
X157500000Y-87250000D03*
X157500000Y-87750000D03*
X157500000Y-88250000D03*
X157500000Y-88750000D03*
D13*
X155750000Y-90500000D03*
X155250000Y-90500000D03*
X154750000Y-90500000D03*
X154250000Y-90500000D03*
X153750000Y-90500000D03*
X153250000Y-90500000D03*
X152750000Y-90500000D03*
X152250000Y-90500000D03*
X151750000Y-90500000D03*
X151250000Y-90500000D03*
X150750000Y-90500000D03*
X150250000Y-90500000D03*
D12*
X148500000Y-88750000D03*
X148500000Y-88250000D03*
X148500000Y-87750000D03*
X148500000Y-87250000D03*
X148500000Y-86750000D03*
X148500000Y-86250000D03*
X148500000Y-85750000D03*
X148500000Y-85250000D03*
X148500000Y-84750000D03*
X148500000Y-84250000D03*
X148500000Y-83750000D03*
X148500000Y-83250000D03*
D13*
X150250000Y-81500000D03*
X150750000Y-81500000D03*
X151250000Y-81500000D03*
X151750000Y-81500000D03*
X152250000Y-81500000D03*
X152750000Y-81500000D03*
X153250000Y-81500000D03*
X153750000Y-81500000D03*
X154250000Y-81500000D03*
X154750000Y-81500000D03*
X155250000Y-81500000D03*
X155750000Y-81500000D03*
%TD*%
%TO.C,R6*%
G36*
G01*
X162425000Y-84237500D02*
X162425000Y-83762500D01*
G75*
G02*
X162662500Y-83525000I237500J0D01*
G01*
X163162500Y-83525000D01*
G75*
G02*
X163400000Y-83762500I0J-237500D01*
G01*
X163400000Y-84237500D01*
G75*
G02*
X163162500Y-84475000I-237500J0D01*
G01*
X162662500Y-84475000D01*
G75*
G02*
X162425000Y-84237500I0J237500D01*
G01*
G37*
G36*
G01*
X160600000Y-84237500D02*
X160600000Y-83762500D01*
G75*
G02*
X160837500Y-83525000I237500J0D01*
G01*
X161337500Y-83525000D01*
G75*
G02*
X161575000Y-83762500I0J-237500D01*
G01*
X161575000Y-84237500D01*
G75*
G02*
X161337500Y-84475000I-237500J0D01*
G01*
X160837500Y-84475000D01*
G75*
G02*
X160600000Y-84237500I0J237500D01*
G01*
G37*
%TD*%
%TO.C,R5*%
G36*
G01*
X159662500Y-80125000D02*
X160137500Y-80125000D01*
G75*
G02*
X160375000Y-80362500I0J-237500D01*
G01*
X160375000Y-80862500D01*
G75*
G02*
X160137500Y-81100000I-237500J0D01*
G01*
X159662500Y-81100000D01*
G75*
G02*
X159425000Y-80862500I0J237500D01*
G01*
X159425000Y-80362500D01*
G75*
G02*
X159662500Y-80125000I237500J0D01*
G01*
G37*
G36*
G01*
X159662500Y-78300000D02*
X160137500Y-78300000D01*
G75*
G02*
X160375000Y-78537500I0J-237500D01*
G01*
X160375000Y-79037500D01*
G75*
G02*
X160137500Y-79275000I-237500J0D01*
G01*
X159662500Y-79275000D01*
G75*
G02*
X159425000Y-79037500I0J237500D01*
G01*
X159425000Y-78537500D01*
G75*
G02*
X159662500Y-78300000I237500J0D01*
G01*
G37*
%TD*%
%TO.C,R4*%
G36*
G01*
X162037500Y-79275000D02*
X161562500Y-79275000D01*
G75*
G02*
X161325000Y-79037500I0J237500D01*
G01*
X161325000Y-78537500D01*
G75*
G02*
X161562500Y-78300000I237500J0D01*
G01*
X162037500Y-78300000D01*
G75*
G02*
X162275000Y-78537500I0J-237500D01*
G01*
X162275000Y-79037500D01*
G75*
G02*
X162037500Y-79275000I-237500J0D01*
G01*
G37*
G36*
G01*
X162037500Y-81100000D02*
X161562500Y-81100000D01*
G75*
G02*
X161325000Y-80862500I0J237500D01*
G01*
X161325000Y-80362500D01*
G75*
G02*
X161562500Y-80125000I237500J0D01*
G01*
X162037500Y-80125000D01*
G75*
G02*
X162275000Y-80362500I0J-237500D01*
G01*
X162275000Y-80862500D01*
G75*
G02*
X162037500Y-81100000I-237500J0D01*
G01*
G37*
%TD*%
%TO.C,R3*%
G36*
G01*
X163537500Y-94275000D02*
X163062500Y-94275000D01*
G75*
G02*
X162825000Y-94037500I0J237500D01*
G01*
X162825000Y-93537500D01*
G75*
G02*
X163062500Y-93300000I237500J0D01*
G01*
X163537500Y-93300000D01*
G75*
G02*
X163775000Y-93537500I0J-237500D01*
G01*
X163775000Y-94037500D01*
G75*
G02*
X163537500Y-94275000I-237500J0D01*
G01*
G37*
G36*
G01*
X163537500Y-96100000D02*
X163062500Y-96100000D01*
G75*
G02*
X162825000Y-95862500I0J237500D01*
G01*
X162825000Y-95362500D01*
G75*
G02*
X163062500Y-95125000I237500J0D01*
G01*
X163537500Y-95125000D01*
G75*
G02*
X163775000Y-95362500I0J-237500D01*
G01*
X163775000Y-95862500D01*
G75*
G02*
X163537500Y-96100000I-237500J0D01*
G01*
G37*
%TD*%
%TO.C,R2*%
G36*
G01*
X161437500Y-94275000D02*
X160962500Y-94275000D01*
G75*
G02*
X160725000Y-94037500I0J237500D01*
G01*
X160725000Y-93537500D01*
G75*
G02*
X160962500Y-93300000I237500J0D01*
G01*
X161437500Y-93300000D01*
G75*
G02*
X161675000Y-93537500I0J-237500D01*
G01*
X161675000Y-94037500D01*
G75*
G02*
X161437500Y-94275000I-237500J0D01*
G01*
G37*
G36*
G01*
X161437500Y-96100000D02*
X160962500Y-96100000D01*
G75*
G02*
X160725000Y-95862500I0J237500D01*
G01*
X160725000Y-95362500D01*
G75*
G02*
X160962500Y-95125000I237500J0D01*
G01*
X161437500Y-95125000D01*
G75*
G02*
X161675000Y-95362500I0J-237500D01*
G01*
X161675000Y-95862500D01*
G75*
G02*
X161437500Y-96100000I-237500J0D01*
G01*
G37*
%TD*%
%TO.C,R1*%
G36*
G01*
X148362500Y-95525000D02*
X148837500Y-95525000D01*
G75*
G02*
X149075000Y-95762500I0J-237500D01*
G01*
X149075000Y-96262500D01*
G75*
G02*
X148837500Y-96500000I-237500J0D01*
G01*
X148362500Y-96500000D01*
G75*
G02*
X148125000Y-96262500I0J237500D01*
G01*
X148125000Y-95762500D01*
G75*
G02*
X148362500Y-95525000I237500J0D01*
G01*
G37*
G36*
G01*
X148362500Y-93700000D02*
X148837500Y-93700000D01*
G75*
G02*
X149075000Y-93937500I0J-237500D01*
G01*
X149075000Y-94437500D01*
G75*
G02*
X148837500Y-94675000I-237500J0D01*
G01*
X148362500Y-94675000D01*
G75*
G02*
X148125000Y-94437500I0J237500D01*
G01*
X148125000Y-93937500D01*
G75*
G02*
X148362500Y-93700000I237500J0D01*
G01*
G37*
%TD*%
%TO.C,C18*%
G36*
G01*
X162325000Y-86237500D02*
X162325000Y-85762500D01*
G75*
G02*
X162562500Y-85525000I237500J0D01*
G01*
X163162500Y-85525000D01*
G75*
G02*
X163400000Y-85762500I0J-237500D01*
G01*
X163400000Y-86237500D01*
G75*
G02*
X163162500Y-86475000I-237500J0D01*
G01*
X162562500Y-86475000D01*
G75*
G02*
X162325000Y-86237500I0J237500D01*
G01*
G37*
G36*
G01*
X160600000Y-86237500D02*
X160600000Y-85762500D01*
G75*
G02*
X160837500Y-85525000I237500J0D01*
G01*
X161437500Y-85525000D01*
G75*
G02*
X161675000Y-85762500I0J-237500D01*
G01*
X161675000Y-86237500D01*
G75*
G02*
X161437500Y-86475000I-237500J0D01*
G01*
X160837500Y-86475000D01*
G75*
G02*
X160600000Y-86237500I0J237500D01*
G01*
G37*
%TD*%
%TO.C,C17*%
G36*
G01*
X147625000Y-79837500D02*
X147625000Y-79362500D01*
G75*
G02*
X147862500Y-79125000I237500J0D01*
G01*
X148462500Y-79125000D01*
G75*
G02*
X148700000Y-79362500I0J-237500D01*
G01*
X148700000Y-79837500D01*
G75*
G02*
X148462500Y-80075000I-237500J0D01*
G01*
X147862500Y-80075000D01*
G75*
G02*
X147625000Y-79837500I0J237500D01*
G01*
G37*
G36*
G01*
X145900000Y-79837500D02*
X145900000Y-79362500D01*
G75*
G02*
X146137500Y-79125000I237500J0D01*
G01*
X146737500Y-79125000D01*
G75*
G02*
X146975000Y-79362500I0J-237500D01*
G01*
X146975000Y-79837500D01*
G75*
G02*
X146737500Y-80075000I-237500J0D01*
G01*
X146137500Y-80075000D01*
G75*
G02*
X145900000Y-79837500I0J237500D01*
G01*
G37*
%TD*%
%TO.C,C16*%
G36*
G01*
X153425000Y-79037500D02*
X153425000Y-78562500D01*
G75*
G02*
X153662500Y-78325000I237500J0D01*
G01*
X154262500Y-78325000D01*
G75*
G02*
X154500000Y-78562500I0J-237500D01*
G01*
X154500000Y-79037500D01*
G75*
G02*
X154262500Y-79275000I-237500J0D01*
G01*
X153662500Y-79275000D01*
G75*
G02*
X153425000Y-79037500I0J237500D01*
G01*
G37*
G36*
G01*
X151700000Y-79037500D02*
X151700000Y-78562500D01*
G75*
G02*
X151937500Y-78325000I237500J0D01*
G01*
X152537500Y-78325000D01*
G75*
G02*
X152775000Y-78562500I0J-237500D01*
G01*
X152775000Y-79037500D01*
G75*
G02*
X152537500Y-79275000I-237500J0D01*
G01*
X151937500Y-79275000D01*
G75*
G02*
X151700000Y-79037500I0J237500D01*
G01*
G37*
%TD*%
%TO.C,C15*%
G36*
G01*
X158962500Y-95025000D02*
X159437500Y-95025000D01*
G75*
G02*
X159675000Y-95262500I0J-237500D01*
G01*
X159675000Y-95862500D01*
G75*
G02*
X159437500Y-96100000I-237500J0D01*
G01*
X158962500Y-96100000D01*
G75*
G02*
X158725000Y-95862500I0J237500D01*
G01*
X158725000Y-95262500D01*
G75*
G02*
X158962500Y-95025000I237500J0D01*
G01*
G37*
G36*
G01*
X158962500Y-93300000D02*
X159437500Y-93300000D01*
G75*
G02*
X159675000Y-93537500I0J-237500D01*
G01*
X159675000Y-94137500D01*
G75*
G02*
X159437500Y-94375000I-237500J0D01*
G01*
X158962500Y-94375000D01*
G75*
G02*
X158725000Y-94137500I0J237500D01*
G01*
X158725000Y-93537500D01*
G75*
G02*
X158962500Y-93300000I237500J0D01*
G01*
G37*
%TD*%
%TO.C,C14*%
G36*
G01*
X152162500Y-95425000D02*
X152637500Y-95425000D01*
G75*
G02*
X152875000Y-95662500I0J-237500D01*
G01*
X152875000Y-96262500D01*
G75*
G02*
X152637500Y-96500000I-237500J0D01*
G01*
X152162500Y-96500000D01*
G75*
G02*
X151925000Y-96262500I0J237500D01*
G01*
X151925000Y-95662500D01*
G75*
G02*
X152162500Y-95425000I237500J0D01*
G01*
G37*
G36*
G01*
X152162500Y-93700000D02*
X152637500Y-93700000D01*
G75*
G02*
X152875000Y-93937500I0J-237500D01*
G01*
X152875000Y-94537500D01*
G75*
G02*
X152637500Y-94775000I-237500J0D01*
G01*
X152162500Y-94775000D01*
G75*
G02*
X151925000Y-94537500I0J237500D01*
G01*
X151925000Y-93937500D01*
G75*
G02*
X152162500Y-93700000I237500J0D01*
G01*
G37*
%TD*%
%TO.C,C13*%
G36*
G01*
X144162500Y-95425000D02*
X144637500Y-95425000D01*
G75*
G02*
X144875000Y-95662500I0J-237500D01*
G01*
X144875000Y-96262500D01*
G75*
G02*
X144637500Y-96500000I-237500J0D01*
G01*
X144162500Y-96500000D01*
G75*
G02*
X143925000Y-96262500I0J237500D01*
G01*
X143925000Y-95662500D01*
G75*
G02*
X144162500Y-95425000I237500J0D01*
G01*
G37*
G36*
G01*
X144162500Y-93700000D02*
X144637500Y-93700000D01*
G75*
G02*
X144875000Y-93937500I0J-237500D01*
G01*
X144875000Y-94537500D01*
G75*
G02*
X144637500Y-94775000I-237500J0D01*
G01*
X144162500Y-94775000D01*
G75*
G02*
X143925000Y-94537500I0J237500D01*
G01*
X143925000Y-93937500D01*
G75*
G02*
X144162500Y-93700000I237500J0D01*
G01*
G37*
%TD*%
%TO.C,C12*%
G36*
G01*
X157125000Y-79037500D02*
X157125000Y-78562500D01*
G75*
G02*
X157362500Y-78325000I237500J0D01*
G01*
X157962500Y-78325000D01*
G75*
G02*
X158200000Y-78562500I0J-237500D01*
G01*
X158200000Y-79037500D01*
G75*
G02*
X157962500Y-79275000I-237500J0D01*
G01*
X157362500Y-79275000D01*
G75*
G02*
X157125000Y-79037500I0J237500D01*
G01*
G37*
G36*
G01*
X155400000Y-79037500D02*
X155400000Y-78562500D01*
G75*
G02*
X155637500Y-78325000I237500J0D01*
G01*
X156237500Y-78325000D01*
G75*
G02*
X156475000Y-78562500I0J-237500D01*
G01*
X156475000Y-79037500D01*
G75*
G02*
X156237500Y-79275000I-237500J0D01*
G01*
X155637500Y-79275000D01*
G75*
G02*
X155400000Y-79037500I0J237500D01*
G01*
G37*
%TD*%
%TO.C,C11*%
G36*
G01*
X150262500Y-95425000D02*
X150737500Y-95425000D01*
G75*
G02*
X150975000Y-95662500I0J-237500D01*
G01*
X150975000Y-96262500D01*
G75*
G02*
X150737500Y-96500000I-237500J0D01*
G01*
X150262500Y-96500000D01*
G75*
G02*
X150025000Y-96262500I0J237500D01*
G01*
X150025000Y-95662500D01*
G75*
G02*
X150262500Y-95425000I237500J0D01*
G01*
G37*
G36*
G01*
X150262500Y-93700000D02*
X150737500Y-93700000D01*
G75*
G02*
X150975000Y-93937500I0J-237500D01*
G01*
X150975000Y-94537500D01*
G75*
G02*
X150737500Y-94775000I-237500J0D01*
G01*
X150262500Y-94775000D01*
G75*
G02*
X150025000Y-94537500I0J237500D01*
G01*
X150025000Y-93937500D01*
G75*
G02*
X150262500Y-93700000I237500J0D01*
G01*
G37*
%TD*%
%TO.C,C10*%
G36*
G01*
X162325000Y-90237500D02*
X162325000Y-89762500D01*
G75*
G02*
X162562500Y-89525000I237500J0D01*
G01*
X163162500Y-89525000D01*
G75*
G02*
X163400000Y-89762500I0J-237500D01*
G01*
X163400000Y-90237500D01*
G75*
G02*
X163162500Y-90475000I-237500J0D01*
G01*
X162562500Y-90475000D01*
G75*
G02*
X162325000Y-90237500I0J237500D01*
G01*
G37*
G36*
G01*
X160600000Y-90237500D02*
X160600000Y-89762500D01*
G75*
G02*
X160837500Y-89525000I237500J0D01*
G01*
X161437500Y-89525000D01*
G75*
G02*
X161675000Y-89762500I0J-237500D01*
G01*
X161675000Y-90237500D01*
G75*
G02*
X161437500Y-90475000I-237500J0D01*
G01*
X160837500Y-90475000D01*
G75*
G02*
X160600000Y-90237500I0J237500D01*
G01*
G37*
%TD*%
%TO.C,C9*%
G36*
G01*
X166375000Y-79062500D02*
X166375000Y-79537500D01*
G75*
G02*
X166137500Y-79775000I-237500J0D01*
G01*
X165537500Y-79775000D01*
G75*
G02*
X165300000Y-79537500I0J237500D01*
G01*
X165300000Y-79062500D01*
G75*
G02*
X165537500Y-78825000I237500J0D01*
G01*
X166137500Y-78825000D01*
G75*
G02*
X166375000Y-79062500I0J-237500D01*
G01*
G37*
G36*
G01*
X168100000Y-79062500D02*
X168100000Y-79537500D01*
G75*
G02*
X167862500Y-79775000I-237500J0D01*
G01*
X167262500Y-79775000D01*
G75*
G02*
X167025000Y-79537500I0J237500D01*
G01*
X167025000Y-79062500D01*
G75*
G02*
X167262500Y-78825000I237500J0D01*
G01*
X167862500Y-78825000D01*
G75*
G02*
X168100000Y-79062500I0J-237500D01*
G01*
G37*
%TD*%
%TO.C,C8*%
G36*
G01*
X166375000Y-81062500D02*
X166375000Y-81537500D01*
G75*
G02*
X166137500Y-81775000I-237500J0D01*
G01*
X165537500Y-81775000D01*
G75*
G02*
X165300000Y-81537500I0J237500D01*
G01*
X165300000Y-81062500D01*
G75*
G02*
X165537500Y-80825000I237500J0D01*
G01*
X166137500Y-80825000D01*
G75*
G02*
X166375000Y-81062500I0J-237500D01*
G01*
G37*
G36*
G01*
X168100000Y-81062500D02*
X168100000Y-81537500D01*
G75*
G02*
X167862500Y-81775000I-237500J0D01*
G01*
X167262500Y-81775000D01*
G75*
G02*
X167025000Y-81537500I0J237500D01*
G01*
X167025000Y-81062500D01*
G75*
G02*
X167262500Y-80825000I237500J0D01*
G01*
X167862500Y-80825000D01*
G75*
G02*
X168100000Y-81062500I0J-237500D01*
G01*
G37*
%TD*%
%TO.C,C7*%
G36*
G01*
X167175000Y-93262500D02*
X167175000Y-93737500D01*
G75*
G02*
X166937500Y-93975000I-237500J0D01*
G01*
X166337500Y-93975000D01*
G75*
G02*
X166100000Y-93737500I0J237500D01*
G01*
X166100000Y-93262500D01*
G75*
G02*
X166337500Y-93025000I237500J0D01*
G01*
X166937500Y-93025000D01*
G75*
G02*
X167175000Y-93262500I0J-237500D01*
G01*
G37*
G36*
G01*
X168900000Y-93262500D02*
X168900000Y-93737500D01*
G75*
G02*
X168662500Y-93975000I-237500J0D01*
G01*
X168062500Y-93975000D01*
G75*
G02*
X167825000Y-93737500I0J237500D01*
G01*
X167825000Y-93262500D01*
G75*
G02*
X168062500Y-93025000I237500J0D01*
G01*
X168662500Y-93025000D01*
G75*
G02*
X168900000Y-93262500I0J-237500D01*
G01*
G37*
%TD*%
%TO.C,C6*%
G36*
G01*
X136237500Y-64675000D02*
X135762500Y-64675000D01*
G75*
G02*
X135525000Y-64437500I0J237500D01*
G01*
X135525000Y-63837500D01*
G75*
G02*
X135762500Y-63600000I237500J0D01*
G01*
X136237500Y-63600000D01*
G75*
G02*
X136475000Y-63837500I0J-237500D01*
G01*
X136475000Y-64437500D01*
G75*
G02*
X136237500Y-64675000I-237500J0D01*
G01*
G37*
G36*
G01*
X136237500Y-66400000D02*
X135762500Y-66400000D01*
G75*
G02*
X135525000Y-66162500I0J237500D01*
G01*
X135525000Y-65562500D01*
G75*
G02*
X135762500Y-65325000I237500J0D01*
G01*
X136237500Y-65325000D01*
G75*
G02*
X136475000Y-65562500I0J-237500D01*
G01*
X136475000Y-66162500D01*
G75*
G02*
X136237500Y-66400000I-237500J0D01*
G01*
G37*
%TD*%
%TO.C,C5*%
G36*
G01*
X135937500Y-90675000D02*
X135462500Y-90675000D01*
G75*
G02*
X135225000Y-90437500I0J237500D01*
G01*
X135225000Y-89837500D01*
G75*
G02*
X135462500Y-89600000I237500J0D01*
G01*
X135937500Y-89600000D01*
G75*
G02*
X136175000Y-89837500I0J-237500D01*
G01*
X136175000Y-90437500D01*
G75*
G02*
X135937500Y-90675000I-237500J0D01*
G01*
G37*
G36*
G01*
X135937500Y-92400000D02*
X135462500Y-92400000D01*
G75*
G02*
X135225000Y-92162500I0J237500D01*
G01*
X135225000Y-91562500D01*
G75*
G02*
X135462500Y-91325000I237500J0D01*
G01*
X135937500Y-91325000D01*
G75*
G02*
X136175000Y-91562500I0J-237500D01*
G01*
X136175000Y-92162500D01*
G75*
G02*
X135937500Y-92400000I-237500J0D01*
G01*
G37*
%TD*%
%TO.C,C4*%
G36*
G01*
X134237500Y-64675000D02*
X133762500Y-64675000D01*
G75*
G02*
X133525000Y-64437500I0J237500D01*
G01*
X133525000Y-63837500D01*
G75*
G02*
X133762500Y-63600000I237500J0D01*
G01*
X134237500Y-63600000D01*
G75*
G02*
X134475000Y-63837500I0J-237500D01*
G01*
X134475000Y-64437500D01*
G75*
G02*
X134237500Y-64675000I-237500J0D01*
G01*
G37*
G36*
G01*
X134237500Y-66400000D02*
X133762500Y-66400000D01*
G75*
G02*
X133525000Y-66162500I0J237500D01*
G01*
X133525000Y-65562500D01*
G75*
G02*
X133762500Y-65325000I237500J0D01*
G01*
X134237500Y-65325000D01*
G75*
G02*
X134475000Y-65562500I0J-237500D01*
G01*
X134475000Y-66162500D01*
G75*
G02*
X134237500Y-66400000I-237500J0D01*
G01*
G37*
%TD*%
%TO.C,C3*%
G36*
G01*
X134137500Y-90675000D02*
X133662500Y-90675000D01*
G75*
G02*
X133425000Y-90437500I0J237500D01*
G01*
X133425000Y-89837500D01*
G75*
G02*
X133662500Y-89600000I237500J0D01*
G01*
X134137500Y-89600000D01*
G75*
G02*
X134375000Y-89837500I0J-237500D01*
G01*
X134375000Y-90437500D01*
G75*
G02*
X134137500Y-90675000I-237500J0D01*
G01*
G37*
G36*
G01*
X134137500Y-92400000D02*
X133662500Y-92400000D01*
G75*
G02*
X133425000Y-92162500I0J237500D01*
G01*
X133425000Y-91562500D01*
G75*
G02*
X133662500Y-91325000I237500J0D01*
G01*
X134137500Y-91325000D01*
G75*
G02*
X134375000Y-91562500I0J-237500D01*
G01*
X134375000Y-92162500D01*
G75*
G02*
X134137500Y-92400000I-237500J0D01*
G01*
G37*
%TD*%
%TO.C,C2*%
G36*
G01*
X146462500Y-95425000D02*
X146937500Y-95425000D01*
G75*
G02*
X147175000Y-95662500I0J-237500D01*
G01*
X147175000Y-96262500D01*
G75*
G02*
X146937500Y-96500000I-237500J0D01*
G01*
X146462500Y-96500000D01*
G75*
G02*
X146225000Y-96262500I0J237500D01*
G01*
X146225000Y-95662500D01*
G75*
G02*
X146462500Y-95425000I237500J0D01*
G01*
G37*
G36*
G01*
X146462500Y-93700000D02*
X146937500Y-93700000D01*
G75*
G02*
X147175000Y-93937500I0J-237500D01*
G01*
X147175000Y-94537500D01*
G75*
G02*
X146937500Y-94775000I-237500J0D01*
G01*
X146462500Y-94775000D01*
G75*
G02*
X146225000Y-94537500I0J237500D01*
G01*
X146225000Y-93937500D01*
G75*
G02*
X146462500Y-93700000I237500J0D01*
G01*
G37*
%TD*%
%TO.C,C1*%
G36*
G01*
X162325000Y-88237500D02*
X162325000Y-87762500D01*
G75*
G02*
X162562500Y-87525000I237500J0D01*
G01*
X163162500Y-87525000D01*
G75*
G02*
X163400000Y-87762500I0J-237500D01*
G01*
X163400000Y-88237500D01*
G75*
G02*
X163162500Y-88475000I-237500J0D01*
G01*
X162562500Y-88475000D01*
G75*
G02*
X162325000Y-88237500I0J237500D01*
G01*
G37*
G36*
G01*
X160600000Y-88237500D02*
X160600000Y-87762500D01*
G75*
G02*
X160837500Y-87525000I237500J0D01*
G01*
X161437500Y-87525000D01*
G75*
G02*
X161675000Y-87762500I0J-237500D01*
G01*
X161675000Y-88237500D01*
G75*
G02*
X161437500Y-88475000I-237500J0D01*
G01*
X160837500Y-88475000D01*
G75*
G02*
X160600000Y-88237500I0J237500D01*
G01*
G37*
%TD*%
M02*
