%TF.GenerationSoftware,KiCad,Pcbnew,(6.0.5)*%
%TF.CreationDate,2023-02-01T20:47:26-08:00*%
%TF.ProjectId,USBHub,55534248-7562-42e6-9b69-6361645f7063,rev?*%
%TF.SameCoordinates,Original*%
%TF.FileFunction,Copper,L2,Bot*%
%TF.FilePolarity,Positive*%
%FSLAX46Y46*%
G04 Gerber Fmt 4.6, Leading zero omitted, Abs format (unit mm)*
G04 Created by KiCad (PCBNEW (6.0.5)) date 2023-02-01 20:47:26*
%MOMM*%
%LPD*%
G01*
G04 APERTURE LIST*
G04 Aperture macros list*
%AMRoundRect*
0 Rectangle with rounded corners*
0 $1 Rounding radius*
0 $2 $3 $4 $5 $6 $7 $8 $9 X,Y pos of 4 corners*
0 Add a 4 corners polygon primitive as box body*
4,1,4,$2,$3,$4,$5,$6,$7,$8,$9,$2,$3,0*
0 Add four circle primitives for the rounded corners*
1,1,$1+$1,$2,$3*
1,1,$1+$1,$4,$5*
1,1,$1+$1,$6,$7*
1,1,$1+$1,$8,$9*
0 Add four rect primitives between the rounded corners*
20,1,$1+$1,$2,$3,$4,$5,0*
20,1,$1+$1,$4,$5,$6,$7,0*
20,1,$1+$1,$6,$7,$8,$9,0*
20,1,$1+$1,$8,$9,$2,$3,0*%
G04 Aperture macros list end*
%TA.AperFunction,ComponentPad*%
%ADD10O,2.000000X1.700000*%
%TD*%
%TA.AperFunction,ComponentPad*%
%ADD11RoundRect,0.250000X0.750000X-0.600000X0.750000X0.600000X-0.750000X0.600000X-0.750000X-0.600000X0*%
%TD*%
%TA.AperFunction,ComponentPad*%
%ADD12C,3.500000*%
%TD*%
%TA.AperFunction,ComponentPad*%
%ADD13C,1.700000*%
%TD*%
%TA.AperFunction,ComponentPad*%
%ADD14R,1.700000X1.700000*%
%TD*%
%TA.AperFunction,ComponentPad*%
%ADD15C,3.000000*%
%TD*%
%TA.AperFunction,ComponentPad*%
%ADD16R,1.500000X1.500000*%
%TD*%
%TA.AperFunction,ComponentPad*%
%ADD17C,1.500000*%
%TD*%
%TA.AperFunction,ComponentPad*%
%ADD18C,0.800000*%
%TD*%
%TA.AperFunction,ComponentPad*%
%ADD19C,6.400000*%
%TD*%
%TA.AperFunction,ViaPad*%
%ADD20C,0.800000*%
%TD*%
%TA.AperFunction,Conductor*%
%ADD21C,0.250000*%
%TD*%
%TA.AperFunction,Conductor*%
%ADD22C,0.700000*%
%TD*%
G04 APERTURE END LIST*
D10*
%TO.P,J6,2*%
%TO.N,VD5*%
X174500000Y-93000000D03*
D11*
%TO.P,J6,1*%
%TO.N,GND*%
X174500000Y-95500000D03*
%TD*%
D12*
%TO.P,J3,5*%
%TO.N,GND*%
X167710000Y-113770000D03*
X167710000Y-101730000D03*
D13*
%TO.P,J3,4*%
X165000000Y-106500000D03*
%TO.P,J3,3*%
%TO.N,/DU+*%
X165000000Y-109000000D03*
%TO.P,J3,2*%
%TO.N,/DU-*%
X163000000Y-109000000D03*
D14*
%TO.P,J3,1*%
%TO.N,N/C*%
X163000000Y-106500000D03*
%TD*%
D15*
%TO.P,J1,9*%
%TO.N,GND*%
X137350000Y-82070000D03*
X137350000Y-68930000D03*
D16*
%TO.P,J1,1*%
%TO.N,VBUS*%
X137000000Y-72000000D03*
D17*
%TO.P,J1,2*%
%TO.N,/D4-*%
X137000000Y-74500000D03*
%TO.P,J1,3*%
%TO.N,/D4+*%
X137000000Y-76500000D03*
%TO.P,J1,4*%
%TO.N,GND*%
X137000000Y-79000000D03*
D15*
%TO.P,J1,9*%
X131670000Y-68930000D03*
X131670000Y-82070000D03*
D17*
%TO.P,J1,5*%
%TO.N,VBUS*%
X134380000Y-72000000D03*
%TO.P,J1,6*%
%TO.N,/D3-*%
X134380000Y-74500000D03*
%TO.P,J1,7*%
%TO.N,/D3+*%
X134380000Y-76500000D03*
%TO.P,J1,8*%
%TO.N,GND*%
X134380000Y-79000000D03*
%TD*%
D15*
%TO.P,J2,9*%
%TO.N,GND*%
X137350000Y-108070000D03*
X137350000Y-94930000D03*
D16*
%TO.P,J2,1*%
%TO.N,VBUS*%
X137000000Y-98000000D03*
D17*
%TO.P,J2,2*%
%TO.N,/D1-*%
X137000000Y-100500000D03*
%TO.P,J2,3*%
%TO.N,/D1+*%
X137000000Y-102500000D03*
%TO.P,J2,4*%
%TO.N,GND*%
X137000000Y-105000000D03*
D15*
%TO.P,J2,9*%
X131670000Y-94930000D03*
X131670000Y-108070000D03*
D17*
%TO.P,J2,5*%
%TO.N,VBUS*%
X134380000Y-98000000D03*
%TO.P,J2,6*%
%TO.N,/D2-*%
X134380000Y-100500000D03*
%TO.P,J2,7*%
%TO.N,/D2+*%
X134380000Y-102500000D03*
%TO.P,J2,8*%
%TO.N,GND*%
X134380000Y-105000000D03*
%TD*%
D18*
%TO.P,H4,1*%
%TO.N,GND*%
X158697056Y-110802944D03*
X157000000Y-110100000D03*
X155302944Y-110802944D03*
X154600000Y-112500000D03*
X155302944Y-114197056D03*
X157000000Y-114900000D03*
X158697056Y-114197056D03*
X159400000Y-112500000D03*
D19*
X157000000Y-112500000D03*
%TD*%
D18*
%TO.P,H3,1*%
%TO.N,GND*%
X128697056Y-110802944D03*
X127000000Y-110100000D03*
X125302944Y-110802944D03*
X124600000Y-112500000D03*
X125302944Y-114197056D03*
X127000000Y-114900000D03*
X128697056Y-114197056D03*
X129400000Y-112500000D03*
D19*
X127000000Y-112500000D03*
%TD*%
D18*
%TO.P,H2,1*%
%TO.N,GND*%
X176197056Y-78302944D03*
X174500000Y-77600000D03*
X172802944Y-78302944D03*
X172100000Y-80000000D03*
X172802944Y-81697056D03*
X174500000Y-82400000D03*
X176197056Y-81697056D03*
X176900000Y-80000000D03*
D19*
X174500000Y-80000000D03*
%TD*%
D18*
%TO.P,H1,1*%
%TO.N,GND*%
X128697056Y-62302944D03*
X127000000Y-61600000D03*
X125302944Y-62302944D03*
X124600000Y-64000000D03*
X125302944Y-65697056D03*
X127000000Y-66400000D03*
X128697056Y-65697056D03*
X129400000Y-64000000D03*
D19*
X127000000Y-64000000D03*
%TD*%
D20*
%TO.N,GND*%
X167500000Y-91500000D03*
X132500000Y-90700000D03*
X136900000Y-89800000D03*
X132500000Y-64500000D03*
X137500000Y-63500000D03*
X164500000Y-85000000D03*
X164300000Y-87600000D03*
X164300000Y-89600000D03*
X160200000Y-77500000D03*
X150500000Y-89000000D03*
X150000000Y-87500000D03*
X150000000Y-85000000D03*
X151000000Y-82900000D03*
X152500000Y-83200000D03*
X153000000Y-80000000D03*
X153400000Y-83200000D03*
X154000000Y-80000000D03*
X156200000Y-80000000D03*
X154300000Y-77500000D03*
X145400000Y-97100000D03*
X148200000Y-97300000D03*
X152000000Y-97400000D03*
X150100000Y-97500000D03*
X159000000Y-97100000D03*
X158800000Y-89300000D03*
X154525000Y-89100000D03*
X159000000Y-85800000D03*
X156000000Y-86400000D03*
X147000000Y-78100000D03*
X158300000Y-77400000D03*
X143500000Y-97100000D03*
X164500000Y-82000000D03*
X164500000Y-79500000D03*
X166000000Y-90500000D03*
%TO.N,VD18*%
X152600000Y-89000000D03*
X152600000Y-87400000D03*
%TO.N,VBUS*%
X131500000Y-91500000D03*
X129327381Y-89327381D03*
%TO.N,Net-(R1-Pad1)*%
X151400000Y-92700000D03*
X149600000Y-92700000D03*
%TO.N,VBUSM*%
X155400000Y-88475000D03*
X154800000Y-86500000D03*
%TO.N,POWER_EN*%
X162000000Y-86900000D03*
X160265348Y-85151152D03*
%TO.N,/D3-*%
X131936724Y-76536724D03*
%TO.N,/D2+*%
X132200000Y-101023800D03*
%TD*%
D21*
%TO.N,VD18*%
X152600000Y-89000000D02*
X152600000Y-87400000D01*
D22*
%TO.N,VBUS*%
X129327381Y-89327381D02*
X131500000Y-91500000D01*
D21*
%TO.N,Net-(R1-Pad1)*%
X151400000Y-92700000D02*
X149600000Y-92700000D01*
%TO.N,VBUSM*%
X155400000Y-88475000D02*
X154800000Y-87875000D01*
X154800000Y-87875000D02*
X154800000Y-86500000D01*
%TO.N,POWER_EN*%
X162000000Y-86885804D02*
X160265348Y-85151152D01*
X162000000Y-86900000D02*
X162000000Y-86885804D01*
%TO.N,/D3-*%
X133973448Y-74500000D02*
X134380000Y-74500000D01*
X131936724Y-76536724D02*
X133973448Y-74500000D01*
%TO.N,/D2+*%
X132903800Y-101023800D02*
X134380000Y-102500000D01*
X132200000Y-101023800D02*
X132903800Y-101023800D01*
%TD*%
%TA.AperFunction,Conductor*%
%TO.N,GND*%
G36*
X140305303Y-60028502D02*
G01*
X140326278Y-60045405D01*
X140666254Y-60385382D01*
X140666269Y-60385396D01*
X145590180Y-65309308D01*
X145597800Y-65318845D01*
X145598169Y-65318531D01*
X145603984Y-65325364D01*
X145608776Y-65332958D01*
X145649116Y-65368585D01*
X145654803Y-65373931D01*
X145666255Y-65385383D01*
X145669846Y-65388074D01*
X145669848Y-65388076D01*
X145674630Y-65391660D01*
X145682473Y-65398045D01*
X145717951Y-65429378D01*
X145726078Y-65433194D01*
X145728534Y-65434807D01*
X145743547Y-65443829D01*
X145746118Y-65445237D01*
X145753296Y-65450616D01*
X145761696Y-65453765D01*
X145761698Y-65453766D01*
X145797640Y-65467239D01*
X145806943Y-65471159D01*
X145849800Y-65491281D01*
X145858669Y-65492662D01*
X145861495Y-65493526D01*
X145878399Y-65497960D01*
X145881275Y-65498592D01*
X145889684Y-65501745D01*
X145898634Y-65502410D01*
X145936906Y-65505254D01*
X145946952Y-65506408D01*
X145955575Y-65507751D01*
X145955578Y-65507751D01*
X145960386Y-65508500D01*
X145975906Y-65508500D01*
X145985243Y-65508846D01*
X146034941Y-65512539D01*
X146043720Y-65510665D01*
X146051978Y-65510102D01*
X146067161Y-65508500D01*
X153737183Y-65508500D01*
X153805304Y-65528502D01*
X153826278Y-65545405D01*
X164090177Y-75809304D01*
X164097800Y-75818844D01*
X164098168Y-75818530D01*
X164103986Y-75825366D01*
X164108776Y-75832958D01*
X164115504Y-75838900D01*
X164149125Y-75868593D01*
X164154812Y-75873939D01*
X164166255Y-75885382D01*
X164173780Y-75891022D01*
X164174630Y-75891659D01*
X164182459Y-75898033D01*
X164217951Y-75929378D01*
X164226074Y-75933192D01*
X164228562Y-75934826D01*
X164243523Y-75943814D01*
X164246109Y-75945230D01*
X164253295Y-75950616D01*
X164297650Y-75967244D01*
X164306948Y-75971162D01*
X164349800Y-75991281D01*
X164358666Y-75992662D01*
X164361467Y-75993518D01*
X164378404Y-75997962D01*
X164381284Y-75998595D01*
X164389684Y-76001744D01*
X164398629Y-76002409D01*
X164398630Y-76002409D01*
X164436889Y-76005252D01*
X164446937Y-76006406D01*
X164451588Y-76007130D01*
X164460386Y-76008500D01*
X164475923Y-76008500D01*
X164485261Y-76008847D01*
X164525990Y-76011874D01*
X164525991Y-76011874D01*
X164534941Y-76012539D01*
X164543716Y-76010666D01*
X164551973Y-76010103D01*
X164567162Y-76008500D01*
X178365500Y-76008500D01*
X178433621Y-76028502D01*
X178480114Y-76082158D01*
X178491500Y-76134500D01*
X178491500Y-116365500D01*
X178471498Y-116433621D01*
X178417842Y-116480114D01*
X178365500Y-116491500D01*
X123134500Y-116491500D01*
X123066379Y-116471498D01*
X123019886Y-116417842D01*
X123008500Y-116365500D01*
X123008500Y-115297386D01*
X124567759Y-115297386D01*
X124575216Y-115307753D01*
X124814935Y-115501874D01*
X124820272Y-115505751D01*
X125140685Y-115713830D01*
X125146394Y-115717127D01*
X125486811Y-115890578D01*
X125492836Y-115893260D01*
X125849502Y-116030171D01*
X125855784Y-116032212D01*
X126224816Y-116131094D01*
X126231266Y-116132465D01*
X126608629Y-116192234D01*
X126615167Y-116192920D01*
X126996699Y-116212916D01*
X127003301Y-116212916D01*
X127384833Y-116192920D01*
X127391371Y-116192234D01*
X127768734Y-116132465D01*
X127775184Y-116131094D01*
X128144216Y-116032212D01*
X128150498Y-116030171D01*
X128507164Y-115893260D01*
X128513189Y-115890578D01*
X128853606Y-115717127D01*
X128859315Y-115713830D01*
X129179728Y-115505751D01*
X129185065Y-115501874D01*
X129423835Y-115308522D01*
X129431527Y-115297386D01*
X154567759Y-115297386D01*
X154575216Y-115307753D01*
X154814935Y-115501874D01*
X154820272Y-115505751D01*
X155140685Y-115713830D01*
X155146394Y-115717127D01*
X155486811Y-115890578D01*
X155492836Y-115893260D01*
X155849502Y-116030171D01*
X155855784Y-116032212D01*
X156224816Y-116131094D01*
X156231266Y-116132465D01*
X156608629Y-116192234D01*
X156615167Y-116192920D01*
X156996699Y-116212916D01*
X157003301Y-116212916D01*
X157384833Y-116192920D01*
X157391371Y-116192234D01*
X157768734Y-116132465D01*
X157775184Y-116131094D01*
X158144216Y-116032212D01*
X158150498Y-116030171D01*
X158507164Y-115893260D01*
X158513189Y-115890578D01*
X158853606Y-115717127D01*
X158859315Y-115713830D01*
X159128751Y-115538856D01*
X166306601Y-115538856D01*
X166313059Y-115548216D01*
X166329361Y-115562512D01*
X166335901Y-115567530D01*
X166575144Y-115727387D01*
X166582281Y-115731508D01*
X166840349Y-115858772D01*
X166847953Y-115861922D01*
X167120420Y-115954412D01*
X167128383Y-115956546D01*
X167410600Y-116012683D01*
X167418751Y-116013756D01*
X167705881Y-116032575D01*
X167714119Y-116032575D01*
X168001249Y-116013756D01*
X168009400Y-116012683D01*
X168291617Y-115956546D01*
X168299580Y-115954412D01*
X168572047Y-115861922D01*
X168579651Y-115858772D01*
X168837719Y-115731508D01*
X168844856Y-115727387D01*
X169084099Y-115567530D01*
X169090639Y-115562512D01*
X169105074Y-115549853D01*
X169113472Y-115536614D01*
X169107638Y-115526849D01*
X167722810Y-114142020D01*
X167708869Y-114134408D01*
X167707034Y-114134539D01*
X167700420Y-114138790D01*
X166314116Y-115525095D01*
X166306601Y-115538856D01*
X159128751Y-115538856D01*
X159179728Y-115505751D01*
X159185065Y-115501874D01*
X159423835Y-115308522D01*
X159432300Y-115296267D01*
X159425966Y-115285176D01*
X157012812Y-112872022D01*
X156998868Y-112864408D01*
X156997035Y-112864539D01*
X156990420Y-112868790D01*
X154574900Y-115284310D01*
X154567759Y-115297386D01*
X129431527Y-115297386D01*
X129432300Y-115296267D01*
X129425966Y-115285176D01*
X127012812Y-112872022D01*
X126998868Y-112864408D01*
X126997035Y-112864539D01*
X126990420Y-112868790D01*
X124574900Y-115284310D01*
X124567759Y-115297386D01*
X123008500Y-115297386D01*
X123008500Y-112503301D01*
X123287084Y-112503301D01*
X123307080Y-112884833D01*
X123307766Y-112891371D01*
X123367535Y-113268734D01*
X123368906Y-113275184D01*
X123467788Y-113644216D01*
X123469829Y-113650498D01*
X123606740Y-114007164D01*
X123609422Y-114013189D01*
X123782872Y-114353603D01*
X123786169Y-114359313D01*
X123994253Y-114679735D01*
X123998123Y-114685061D01*
X124191478Y-114923835D01*
X124203733Y-114932300D01*
X124214824Y-114925966D01*
X126627978Y-112512812D01*
X126634356Y-112501132D01*
X127364408Y-112501132D01*
X127364539Y-112502965D01*
X127368790Y-112509580D01*
X129784310Y-114925100D01*
X129797386Y-114932241D01*
X129807753Y-114924784D01*
X130001877Y-114685061D01*
X130005747Y-114679735D01*
X130213831Y-114359313D01*
X130217128Y-114353603D01*
X130390578Y-114013189D01*
X130393260Y-114007164D01*
X130530171Y-113650498D01*
X130532212Y-113644216D01*
X130631094Y-113275184D01*
X130632465Y-113268734D01*
X130692234Y-112891371D01*
X130692920Y-112884833D01*
X130712916Y-112503301D01*
X153287084Y-112503301D01*
X153307080Y-112884833D01*
X153307766Y-112891371D01*
X153367535Y-113268734D01*
X153368906Y-113275184D01*
X153467788Y-113644216D01*
X153469829Y-113650498D01*
X153606740Y-114007164D01*
X153609422Y-114013189D01*
X153782872Y-114353603D01*
X153786169Y-114359313D01*
X153994253Y-114679735D01*
X153998123Y-114685061D01*
X154191478Y-114923835D01*
X154203733Y-114932300D01*
X154214824Y-114925966D01*
X156627978Y-112512812D01*
X156634356Y-112501132D01*
X157364408Y-112501132D01*
X157364539Y-112502965D01*
X157368790Y-112509580D01*
X159784310Y-114925100D01*
X159797386Y-114932241D01*
X159807753Y-114924784D01*
X160001877Y-114685061D01*
X160005747Y-114679735D01*
X160213831Y-114359313D01*
X160217128Y-114353603D01*
X160390578Y-114013189D01*
X160393260Y-114007164D01*
X160482717Y-113774119D01*
X165447425Y-113774119D01*
X165466244Y-114061249D01*
X165467317Y-114069400D01*
X165523454Y-114351617D01*
X165525588Y-114359580D01*
X165618078Y-114632047D01*
X165621228Y-114639651D01*
X165748492Y-114897718D01*
X165752613Y-114904855D01*
X165912470Y-115144099D01*
X165917488Y-115150639D01*
X165930147Y-115165074D01*
X165943386Y-115173472D01*
X165953151Y-115167638D01*
X167337980Y-113782810D01*
X167344357Y-113771131D01*
X168074408Y-113771131D01*
X168074539Y-113772966D01*
X168078790Y-113779580D01*
X169465095Y-115165884D01*
X169478856Y-115173399D01*
X169488216Y-115166941D01*
X169502512Y-115150639D01*
X169507530Y-115144099D01*
X169667387Y-114904855D01*
X169671508Y-114897718D01*
X169798772Y-114639651D01*
X169801922Y-114632047D01*
X169894412Y-114359580D01*
X169896546Y-114351617D01*
X169952683Y-114069400D01*
X169953756Y-114061249D01*
X169972575Y-113774119D01*
X169972575Y-113765881D01*
X169953756Y-113478751D01*
X169952683Y-113470600D01*
X169896546Y-113188383D01*
X169894412Y-113180420D01*
X169801922Y-112907953D01*
X169798772Y-112900349D01*
X169671508Y-112642282D01*
X169667387Y-112635145D01*
X169507530Y-112395901D01*
X169502512Y-112389361D01*
X169489853Y-112374926D01*
X169476614Y-112366528D01*
X169466849Y-112372362D01*
X168082020Y-113757190D01*
X168074408Y-113771131D01*
X167344357Y-113771131D01*
X167345592Y-113768869D01*
X167345461Y-113767034D01*
X167341210Y-113760420D01*
X165954905Y-112374116D01*
X165941144Y-112366601D01*
X165931784Y-112373059D01*
X165917488Y-112389361D01*
X165912470Y-112395901D01*
X165752613Y-112635145D01*
X165748492Y-112642282D01*
X165621228Y-112900349D01*
X165618078Y-112907953D01*
X165525588Y-113180420D01*
X165523454Y-113188383D01*
X165467317Y-113470600D01*
X165466244Y-113478751D01*
X165447425Y-113765881D01*
X165447425Y-113774119D01*
X160482717Y-113774119D01*
X160530171Y-113650498D01*
X160532212Y-113644216D01*
X160631094Y-113275184D01*
X160632465Y-113268734D01*
X160692234Y-112891371D01*
X160692920Y-112884833D01*
X160712916Y-112503301D01*
X160712916Y-112496699D01*
X160692920Y-112115167D01*
X160692234Y-112108629D01*
X160675565Y-112003386D01*
X166306528Y-112003386D01*
X166312362Y-112013151D01*
X167697190Y-113397980D01*
X167711131Y-113405592D01*
X167712966Y-113405461D01*
X167719580Y-113401210D01*
X169105884Y-112014905D01*
X169113399Y-112001144D01*
X169106941Y-111991784D01*
X169090639Y-111977488D01*
X169084099Y-111972470D01*
X168844856Y-111812613D01*
X168837719Y-111808492D01*
X168579651Y-111681228D01*
X168572047Y-111678078D01*
X168299580Y-111585588D01*
X168291617Y-111583454D01*
X168009400Y-111527317D01*
X168001249Y-111526244D01*
X167714119Y-111507425D01*
X167705881Y-111507425D01*
X167418751Y-111526244D01*
X167410600Y-111527317D01*
X167128383Y-111583454D01*
X167120420Y-111585588D01*
X166847953Y-111678078D01*
X166840349Y-111681228D01*
X166582282Y-111808492D01*
X166575145Y-111812613D01*
X166335901Y-111972470D01*
X166329361Y-111977488D01*
X166314926Y-111990147D01*
X166306528Y-112003386D01*
X160675565Y-112003386D01*
X160632465Y-111731266D01*
X160631094Y-111724816D01*
X160532212Y-111355784D01*
X160530171Y-111349502D01*
X160393260Y-110992836D01*
X160390578Y-110986811D01*
X160217128Y-110646397D01*
X160213831Y-110640687D01*
X160005747Y-110320265D01*
X160001877Y-110314939D01*
X159808522Y-110076165D01*
X159796267Y-110067700D01*
X159785176Y-110074034D01*
X157372022Y-112487188D01*
X157364408Y-112501132D01*
X156634356Y-112501132D01*
X156635592Y-112498868D01*
X156635461Y-112497035D01*
X156631210Y-112490420D01*
X154215690Y-110074900D01*
X154202614Y-110067759D01*
X154192247Y-110075216D01*
X153998123Y-110314939D01*
X153994253Y-110320265D01*
X153786169Y-110640687D01*
X153782872Y-110646397D01*
X153609422Y-110986811D01*
X153606740Y-110992836D01*
X153469829Y-111349502D01*
X153467788Y-111355784D01*
X153368906Y-111724816D01*
X153367535Y-111731266D01*
X153307766Y-112108629D01*
X153307080Y-112115167D01*
X153287084Y-112496699D01*
X153287084Y-112503301D01*
X130712916Y-112503301D01*
X130712916Y-112496699D01*
X130692920Y-112115167D01*
X130692234Y-112108629D01*
X130632465Y-111731266D01*
X130631094Y-111724816D01*
X130532212Y-111355784D01*
X130530171Y-111349502D01*
X130393260Y-110992836D01*
X130390578Y-110986811D01*
X130217128Y-110646397D01*
X130213831Y-110640687D01*
X130005747Y-110320265D01*
X130001877Y-110314939D01*
X129808522Y-110076165D01*
X129796267Y-110067700D01*
X129785176Y-110074034D01*
X127372022Y-112487188D01*
X127364408Y-112501132D01*
X126634356Y-112501132D01*
X126635592Y-112498868D01*
X126635461Y-112497035D01*
X126631210Y-112490420D01*
X124215690Y-110074900D01*
X124202614Y-110067759D01*
X124192247Y-110075216D01*
X123998123Y-110314939D01*
X123994253Y-110320265D01*
X123786169Y-110640687D01*
X123782872Y-110646397D01*
X123609422Y-110986811D01*
X123606740Y-110992836D01*
X123469829Y-111349502D01*
X123467788Y-111355784D01*
X123368906Y-111724816D01*
X123367535Y-111731266D01*
X123307766Y-112108629D01*
X123307080Y-112115167D01*
X123287084Y-112496699D01*
X123287084Y-112503301D01*
X123008500Y-112503301D01*
X123008500Y-109703733D01*
X124567700Y-109703733D01*
X124574034Y-109714824D01*
X126987188Y-112127978D01*
X127001132Y-112135592D01*
X127002965Y-112135461D01*
X127009580Y-112131210D01*
X129425100Y-109715690D01*
X129432241Y-109702614D01*
X129424784Y-109692247D01*
X129384535Y-109659654D01*
X130445618Y-109659654D01*
X130452673Y-109669627D01*
X130483679Y-109695551D01*
X130490598Y-109700579D01*
X130715272Y-109841515D01*
X130722807Y-109845556D01*
X130964520Y-109954694D01*
X130972551Y-109957680D01*
X131226832Y-110033002D01*
X131235184Y-110034869D01*
X131497340Y-110074984D01*
X131505874Y-110075700D01*
X131771045Y-110079867D01*
X131779596Y-110079418D01*
X132042883Y-110047557D01*
X132051284Y-110045955D01*
X132307824Y-109978653D01*
X132315926Y-109975926D01*
X132560949Y-109874434D01*
X132568617Y-109870628D01*
X132797598Y-109736822D01*
X132804679Y-109732009D01*
X132884655Y-109669301D01*
X132891545Y-109659654D01*
X136125618Y-109659654D01*
X136132673Y-109669627D01*
X136163679Y-109695551D01*
X136170598Y-109700579D01*
X136395272Y-109841515D01*
X136402807Y-109845556D01*
X136644520Y-109954694D01*
X136652551Y-109957680D01*
X136906832Y-110033002D01*
X136915184Y-110034869D01*
X137177340Y-110074984D01*
X137185874Y-110075700D01*
X137451045Y-110079867D01*
X137459596Y-110079418D01*
X137722883Y-110047557D01*
X137731284Y-110045955D01*
X137987824Y-109978653D01*
X137995926Y-109975926D01*
X138240949Y-109874434D01*
X138248617Y-109870628D01*
X138477598Y-109736822D01*
X138484679Y-109732009D01*
X138520741Y-109703733D01*
X154567700Y-109703733D01*
X154574034Y-109714824D01*
X156987188Y-112127978D01*
X157001132Y-112135592D01*
X157002965Y-112135461D01*
X157009580Y-112131210D01*
X159425100Y-109715690D01*
X159432241Y-109702614D01*
X159424784Y-109692247D01*
X159185065Y-109498126D01*
X159179728Y-109494249D01*
X158859315Y-109286170D01*
X158853606Y-109282873D01*
X158513189Y-109109422D01*
X158507164Y-109106740D01*
X158150498Y-108969829D01*
X158144216Y-108967788D01*
X158140137Y-108966695D01*
X161637251Y-108966695D01*
X161637548Y-108971848D01*
X161637548Y-108971851D01*
X161643011Y-109066590D01*
X161650110Y-109189715D01*
X161651247Y-109194761D01*
X161651248Y-109194767D01*
X161671104Y-109282872D01*
X161699222Y-109407639D01*
X161783266Y-109614616D01*
X161899987Y-109805088D01*
X162046250Y-109973938D01*
X162218126Y-110116632D01*
X162411000Y-110229338D01*
X162619692Y-110309030D01*
X162624760Y-110310061D01*
X162624763Y-110310062D01*
X162674913Y-110320265D01*
X162838597Y-110353567D01*
X162843772Y-110353757D01*
X162843774Y-110353757D01*
X163056673Y-110361564D01*
X163056677Y-110361564D01*
X163061837Y-110361753D01*
X163066957Y-110361097D01*
X163066959Y-110361097D01*
X163278288Y-110334025D01*
X163278289Y-110334025D01*
X163283416Y-110333368D01*
X163288366Y-110331883D01*
X163492429Y-110270661D01*
X163492434Y-110270659D01*
X163497384Y-110269174D01*
X163697994Y-110170896D01*
X163879860Y-110041173D01*
X163911076Y-110010066D01*
X163973445Y-109976150D01*
X164044252Y-109981338D01*
X164080500Y-110002373D01*
X164159187Y-110067700D01*
X164218126Y-110116632D01*
X164411000Y-110229338D01*
X164619692Y-110309030D01*
X164624760Y-110310061D01*
X164624763Y-110310062D01*
X164674913Y-110320265D01*
X164838597Y-110353567D01*
X164843772Y-110353757D01*
X164843774Y-110353757D01*
X165056673Y-110361564D01*
X165056677Y-110361564D01*
X165061837Y-110361753D01*
X165066957Y-110361097D01*
X165066959Y-110361097D01*
X165278288Y-110334025D01*
X165278289Y-110334025D01*
X165283416Y-110333368D01*
X165288366Y-110331883D01*
X165492429Y-110270661D01*
X165492434Y-110270659D01*
X165497384Y-110269174D01*
X165697994Y-110170896D01*
X165879860Y-110041173D01*
X165939905Y-109981338D01*
X165966642Y-109954694D01*
X166038096Y-109883489D01*
X166065354Y-109845556D01*
X166165435Y-109706277D01*
X166168453Y-109702077D01*
X166171679Y-109695551D01*
X166265136Y-109506453D01*
X166265137Y-109506451D01*
X166267430Y-109501811D01*
X166332370Y-109288069D01*
X166361529Y-109066590D01*
X166363156Y-109000000D01*
X166344852Y-108777361D01*
X166290431Y-108560702D01*
X166201354Y-108355840D01*
X166080014Y-108168277D01*
X165929670Y-108003051D01*
X165925619Y-107999852D01*
X165925615Y-107999848D01*
X165758414Y-107867800D01*
X165758410Y-107867798D01*
X165754359Y-107864598D01*
X165744184Y-107858981D01*
X165694212Y-107808552D01*
X165679437Y-107739109D01*
X165704551Y-107672703D01*
X165731905Y-107646093D01*
X165749247Y-107633723D01*
X165757648Y-107623023D01*
X165750660Y-107609870D01*
X164729885Y-106589095D01*
X164695859Y-106526783D01*
X164697694Y-106501132D01*
X165364408Y-106501132D01*
X165364539Y-106502965D01*
X165368790Y-106509580D01*
X166110474Y-107251264D01*
X166122484Y-107257823D01*
X166134223Y-107248855D01*
X166165004Y-107206019D01*
X166170315Y-107197180D01*
X166264670Y-107006267D01*
X166268469Y-106996672D01*
X166330376Y-106792915D01*
X166332555Y-106782834D01*
X166360590Y-106569887D01*
X166361109Y-106563212D01*
X166362572Y-106503364D01*
X166362378Y-106496646D01*
X166344781Y-106282604D01*
X166343096Y-106272424D01*
X166291214Y-106065875D01*
X166287894Y-106056124D01*
X166202972Y-105860814D01*
X166198105Y-105851739D01*
X166133063Y-105751197D01*
X166122377Y-105741995D01*
X166112812Y-105746398D01*
X165372022Y-106487188D01*
X165364408Y-106501132D01*
X164697694Y-106501132D01*
X164700924Y-106455968D01*
X164729885Y-106410905D01*
X165753389Y-105387401D01*
X165760410Y-105374544D01*
X165753611Y-105365213D01*
X165749554Y-105362518D01*
X165563117Y-105259599D01*
X165553705Y-105255369D01*
X165352959Y-105184280D01*
X165342989Y-105181646D01*
X165133327Y-105144301D01*
X165123073Y-105143331D01*
X164910116Y-105140728D01*
X164899832Y-105141448D01*
X164689321Y-105173661D01*
X164679293Y-105176050D01*
X164476868Y-105242212D01*
X164467364Y-105246207D01*
X164354363Y-105305032D01*
X164284703Y-105318745D01*
X164218688Y-105292620D01*
X164215667Y-105289949D01*
X164213261Y-105286739D01*
X164096705Y-105199385D01*
X163960316Y-105148255D01*
X163898134Y-105141500D01*
X162101866Y-105141500D01*
X162039684Y-105148255D01*
X161903295Y-105199385D01*
X161786739Y-105286739D01*
X161699385Y-105403295D01*
X161648255Y-105539684D01*
X161641500Y-105601866D01*
X161641500Y-107398134D01*
X161648255Y-107460316D01*
X161699385Y-107596705D01*
X161786739Y-107713261D01*
X161903295Y-107800615D01*
X161911703Y-107803767D01*
X161992309Y-107833985D01*
X162049073Y-107876627D01*
X162073773Y-107943188D01*
X162058566Y-108012537D01*
X162039173Y-108039017D01*
X161940629Y-108142138D01*
X161814743Y-108326680D01*
X161720688Y-108529305D01*
X161660989Y-108744570D01*
X161637251Y-108966695D01*
X158140137Y-108966695D01*
X157775184Y-108868906D01*
X157768734Y-108867535D01*
X157391371Y-108807766D01*
X157384833Y-108807080D01*
X157003301Y-108787084D01*
X156996699Y-108787084D01*
X156615167Y-108807080D01*
X156608629Y-108807766D01*
X156231266Y-108867535D01*
X156224816Y-108868906D01*
X155855784Y-108967788D01*
X155849502Y-108969829D01*
X155492836Y-109106740D01*
X155486811Y-109109422D01*
X155146397Y-109282872D01*
X155140687Y-109286169D01*
X154820265Y-109494253D01*
X154814939Y-109498123D01*
X154576165Y-109691478D01*
X154567700Y-109703733D01*
X138520741Y-109703733D01*
X138564655Y-109669301D01*
X138573125Y-109657442D01*
X138566608Y-109645818D01*
X137362812Y-108442022D01*
X137348868Y-108434408D01*
X137347035Y-108434539D01*
X137340420Y-108438790D01*
X136132910Y-109646300D01*
X136125618Y-109659654D01*
X132891545Y-109659654D01*
X132893125Y-109657442D01*
X132886608Y-109645818D01*
X131682812Y-108442022D01*
X131668868Y-108434408D01*
X131667035Y-108434539D01*
X131660420Y-108438790D01*
X130452910Y-109646300D01*
X130445618Y-109659654D01*
X129384535Y-109659654D01*
X129185065Y-109498126D01*
X129179728Y-109494249D01*
X128859315Y-109286170D01*
X128853606Y-109282873D01*
X128513189Y-109109422D01*
X128507164Y-109106740D01*
X128150498Y-108969829D01*
X128144216Y-108967788D01*
X127775184Y-108868906D01*
X127768734Y-108867535D01*
X127391371Y-108807766D01*
X127384833Y-108807080D01*
X127003301Y-108787084D01*
X126996699Y-108787084D01*
X126615167Y-108807080D01*
X126608629Y-108807766D01*
X126231266Y-108867535D01*
X126224816Y-108868906D01*
X125855784Y-108967788D01*
X125849502Y-108969829D01*
X125492836Y-109106740D01*
X125486811Y-109109422D01*
X125146397Y-109282872D01*
X125140687Y-109286169D01*
X124820265Y-109494253D01*
X124814939Y-109498123D01*
X124576165Y-109691478D01*
X124567700Y-109703733D01*
X123008500Y-109703733D01*
X123008500Y-108053204D01*
X129657665Y-108053204D01*
X129672932Y-108317969D01*
X129674005Y-108326470D01*
X129725065Y-108586722D01*
X129727276Y-108594974D01*
X129813184Y-108845894D01*
X129816499Y-108853779D01*
X129935664Y-109090713D01*
X129940020Y-109098079D01*
X130069347Y-109286250D01*
X130079601Y-109294594D01*
X130093342Y-109287448D01*
X131297978Y-108082812D01*
X131304356Y-108071132D01*
X132034408Y-108071132D01*
X132034539Y-108072965D01*
X132038790Y-108079580D01*
X133245730Y-109286520D01*
X133257939Y-109293187D01*
X133269439Y-109284497D01*
X133366831Y-109151913D01*
X133371418Y-109144685D01*
X133497962Y-108911621D01*
X133501530Y-108903827D01*
X133595271Y-108655750D01*
X133597748Y-108647544D01*
X133656954Y-108389038D01*
X133658294Y-108380577D01*
X133682031Y-108114616D01*
X133682277Y-108109677D01*
X133682666Y-108072485D01*
X133682523Y-108067519D01*
X133681547Y-108053204D01*
X135337665Y-108053204D01*
X135352932Y-108317969D01*
X135354005Y-108326470D01*
X135405065Y-108586722D01*
X135407276Y-108594974D01*
X135493184Y-108845894D01*
X135496499Y-108853779D01*
X135615664Y-109090713D01*
X135620020Y-109098079D01*
X135749347Y-109286250D01*
X135759601Y-109294594D01*
X135773342Y-109287448D01*
X136977978Y-108082812D01*
X136984356Y-108071132D01*
X137714408Y-108071132D01*
X137714539Y-108072965D01*
X137718790Y-108079580D01*
X138925730Y-109286520D01*
X138937939Y-109293187D01*
X138949439Y-109284497D01*
X139046831Y-109151913D01*
X139051418Y-109144685D01*
X139177962Y-108911621D01*
X139181530Y-108903827D01*
X139275271Y-108655750D01*
X139277748Y-108647544D01*
X139336954Y-108389038D01*
X139338294Y-108380577D01*
X139362031Y-108114616D01*
X139362277Y-108109677D01*
X139362666Y-108072485D01*
X139362523Y-108067519D01*
X139344362Y-107801123D01*
X139343201Y-107792649D01*
X139289419Y-107532944D01*
X139287120Y-107524709D01*
X139198588Y-107274705D01*
X139195191Y-107266854D01*
X139073550Y-107031178D01*
X139069122Y-107023866D01*
X138950031Y-106854417D01*
X138939509Y-106846037D01*
X138926121Y-106853089D01*
X137722022Y-108057188D01*
X137714408Y-108071132D01*
X136984356Y-108071132D01*
X136985592Y-108068868D01*
X136985461Y-108067035D01*
X136981210Y-108060420D01*
X135773814Y-106853024D01*
X135761804Y-106846466D01*
X135750064Y-106855434D01*
X135641935Y-107005911D01*
X135637418Y-107013196D01*
X135513325Y-107247567D01*
X135509839Y-107255395D01*
X135418700Y-107504446D01*
X135416311Y-107512670D01*
X135359812Y-107771795D01*
X135358563Y-107780250D01*
X135337754Y-108044653D01*
X135337665Y-108053204D01*
X133681547Y-108053204D01*
X133664362Y-107801123D01*
X133663201Y-107792649D01*
X133609419Y-107532944D01*
X133607120Y-107524709D01*
X133518588Y-107274705D01*
X133515191Y-107266854D01*
X133393550Y-107031178D01*
X133389122Y-107023866D01*
X133270031Y-106854417D01*
X133259509Y-106846037D01*
X133246121Y-106853089D01*
X132042022Y-108057188D01*
X132034408Y-108071132D01*
X131304356Y-108071132D01*
X131305592Y-108068868D01*
X131305461Y-108067035D01*
X131301210Y-108060420D01*
X130093814Y-106853024D01*
X130081804Y-106846466D01*
X130070064Y-106855434D01*
X129961935Y-107005911D01*
X129957418Y-107013196D01*
X129833325Y-107247567D01*
X129829839Y-107255395D01*
X129738700Y-107504446D01*
X129736311Y-107512670D01*
X129679812Y-107771795D01*
X129678563Y-107780250D01*
X129657754Y-108044653D01*
X129657665Y-108053204D01*
X123008500Y-108053204D01*
X123008500Y-106482500D01*
X130446584Y-106482500D01*
X130452980Y-106493770D01*
X131657188Y-107697978D01*
X131671132Y-107705592D01*
X131672965Y-107705461D01*
X131679580Y-107701210D01*
X132886604Y-106494186D01*
X132892985Y-106482500D01*
X136126584Y-106482500D01*
X136132980Y-106493770D01*
X137337188Y-107697978D01*
X137351132Y-107705592D01*
X137352965Y-107705461D01*
X137359580Y-107701210D01*
X138566604Y-106494186D01*
X138573795Y-106481017D01*
X138566473Y-106470780D01*
X138519233Y-106432115D01*
X138512261Y-106427160D01*
X138286122Y-106288582D01*
X138278552Y-106284624D01*
X138035704Y-106178022D01*
X138027644Y-106175120D01*
X137772585Y-106102464D01*
X137762788Y-106100382D01*
X137700314Y-106066654D01*
X137680028Y-106039239D01*
X137012811Y-105372021D01*
X136998868Y-105364408D01*
X136997034Y-105364539D01*
X136990420Y-105368790D01*
X136320820Y-106038391D01*
X136314393Y-106050161D01*
X136323687Y-106062175D01*
X136364097Y-106090470D01*
X136373571Y-106095940D01*
X136422564Y-106147323D01*
X136435999Y-106217037D01*
X136409612Y-106282947D01*
X136375277Y-106313174D01*
X136205007Y-106415079D01*
X136197981Y-106419962D01*
X136135053Y-106470377D01*
X136126584Y-106482500D01*
X132892985Y-106482500D01*
X132893795Y-106481017D01*
X132886473Y-106470780D01*
X132839233Y-106432115D01*
X132832261Y-106427160D01*
X132606122Y-106288582D01*
X132598552Y-106284624D01*
X132355704Y-106178022D01*
X132347644Y-106175120D01*
X132092592Y-106102467D01*
X132084214Y-106100685D01*
X131821656Y-106063318D01*
X131813111Y-106062691D01*
X131547908Y-106061302D01*
X131539374Y-106061839D01*
X131276433Y-106096456D01*
X131268035Y-106098149D01*
X131012238Y-106168127D01*
X131004143Y-106170946D01*
X130760199Y-106274997D01*
X130752577Y-106278881D01*
X130525013Y-106415075D01*
X130517981Y-106419962D01*
X130455053Y-106470377D01*
X130446584Y-106482500D01*
X123008500Y-106482500D01*
X123008500Y-106050161D01*
X133694393Y-106050161D01*
X133703687Y-106062175D01*
X133744088Y-106090464D01*
X133753584Y-106095947D01*
X133943113Y-106184326D01*
X133953405Y-106188072D01*
X134155401Y-106242196D01*
X134166196Y-106244099D01*
X134374525Y-106262326D01*
X134385475Y-106262326D01*
X134593804Y-106244099D01*
X134604599Y-106242196D01*
X134806595Y-106188072D01*
X134816887Y-106184326D01*
X135006416Y-106095947D01*
X135015912Y-106090464D01*
X135057148Y-106061590D01*
X135065523Y-106051112D01*
X135058457Y-106037668D01*
X134392811Y-105372021D01*
X134378868Y-105364408D01*
X134377034Y-105364539D01*
X134370420Y-105368790D01*
X133700820Y-106038391D01*
X133694393Y-106050161D01*
X123008500Y-106050161D01*
X123008500Y-105005475D01*
X133117674Y-105005475D01*
X133135901Y-105213804D01*
X133137804Y-105224599D01*
X133191928Y-105426595D01*
X133195674Y-105436887D01*
X133284054Y-105626417D01*
X133289534Y-105635907D01*
X133318411Y-105677149D01*
X133328887Y-105685523D01*
X133342334Y-105678455D01*
X134007979Y-105012811D01*
X134014356Y-105001132D01*
X134744408Y-105001132D01*
X134744539Y-105002966D01*
X134748790Y-105009580D01*
X135418391Y-105679180D01*
X135430161Y-105685607D01*
X135442176Y-105676311D01*
X135470466Y-105635907D01*
X135475946Y-105626417D01*
X135564326Y-105436887D01*
X135568073Y-105426591D01*
X135568293Y-105425771D01*
X135568488Y-105425450D01*
X135569955Y-105421421D01*
X135570765Y-105421716D01*
X135605243Y-105365148D01*
X135669103Y-105334125D01*
X135739598Y-105342552D01*
X135794345Y-105387754D01*
X135809767Y-105421522D01*
X135810045Y-105421421D01*
X135811319Y-105424922D01*
X135811707Y-105425771D01*
X135811927Y-105426591D01*
X135815674Y-105436887D01*
X135904054Y-105626417D01*
X135909534Y-105635907D01*
X135938411Y-105677149D01*
X135948887Y-105685523D01*
X135962334Y-105678455D01*
X136627979Y-105012811D01*
X136634356Y-105001132D01*
X137364408Y-105001132D01*
X137364539Y-105002966D01*
X137368790Y-105009580D01*
X138038391Y-105679180D01*
X138050161Y-105685607D01*
X138062176Y-105676311D01*
X138090466Y-105635907D01*
X138095946Y-105626417D01*
X138184326Y-105436887D01*
X138188072Y-105426595D01*
X138242196Y-105224599D01*
X138244099Y-105213804D01*
X138262326Y-105005475D01*
X138262326Y-104994525D01*
X138244099Y-104786196D01*
X138242196Y-104775401D01*
X138188072Y-104573405D01*
X138184326Y-104563113D01*
X138095946Y-104373583D01*
X138090466Y-104364093D01*
X138061589Y-104322851D01*
X138051113Y-104314477D01*
X138037666Y-104321545D01*
X137372021Y-104987189D01*
X137364408Y-105001132D01*
X136634356Y-105001132D01*
X136635592Y-104998868D01*
X136635461Y-104997034D01*
X136631210Y-104990420D01*
X135961609Y-104320820D01*
X135949839Y-104314393D01*
X135937824Y-104323689D01*
X135909534Y-104364093D01*
X135904054Y-104373583D01*
X135815674Y-104563113D01*
X135811927Y-104573409D01*
X135811707Y-104574229D01*
X135811512Y-104574550D01*
X135810045Y-104578579D01*
X135809235Y-104578284D01*
X135774757Y-104634852D01*
X135710897Y-104665875D01*
X135640402Y-104657448D01*
X135585655Y-104612246D01*
X135570233Y-104578478D01*
X135569955Y-104578579D01*
X135568681Y-104575078D01*
X135568293Y-104574229D01*
X135568073Y-104573409D01*
X135564326Y-104563113D01*
X135475946Y-104373583D01*
X135470466Y-104364093D01*
X135441589Y-104322851D01*
X135431113Y-104314477D01*
X135417666Y-104321545D01*
X134752021Y-104987189D01*
X134744408Y-105001132D01*
X134014356Y-105001132D01*
X134015592Y-104998868D01*
X134015461Y-104997034D01*
X134011210Y-104990420D01*
X133341609Y-104320820D01*
X133329839Y-104314393D01*
X133317824Y-104323689D01*
X133289534Y-104364093D01*
X133284054Y-104373583D01*
X133195674Y-104563113D01*
X133191928Y-104573405D01*
X133137804Y-104775401D01*
X133135901Y-104786196D01*
X133117674Y-104994525D01*
X133117674Y-105005475D01*
X123008500Y-105005475D01*
X123008500Y-101023800D01*
X131286496Y-101023800D01*
X131287186Y-101030365D01*
X131298306Y-101136162D01*
X131306458Y-101213728D01*
X131365473Y-101395356D01*
X131460960Y-101560744D01*
X131465378Y-101565651D01*
X131465379Y-101565652D01*
X131575507Y-101687962D01*
X131588747Y-101702666D01*
X131743248Y-101814918D01*
X131749276Y-101817602D01*
X131749278Y-101817603D01*
X131863252Y-101868347D01*
X131917712Y-101892594D01*
X132011112Y-101912447D01*
X132098056Y-101930928D01*
X132098061Y-101930928D01*
X132104513Y-101932300D01*
X132295487Y-101932300D01*
X132301939Y-101930928D01*
X132301944Y-101930928D01*
X132388888Y-101912447D01*
X132482288Y-101892594D01*
X132536748Y-101868347D01*
X132650722Y-101817603D01*
X132650724Y-101817602D01*
X132656752Y-101814918D01*
X132662094Y-101811037D01*
X132662705Y-101810684D01*
X132731700Y-101793945D01*
X132798792Y-101817164D01*
X132814803Y-101830707D01*
X133111673Y-102127578D01*
X133145698Y-102189890D01*
X133144284Y-102249284D01*
X133135885Y-102280629D01*
X133116693Y-102500000D01*
X133135885Y-102719371D01*
X133192880Y-102932076D01*
X133195205Y-102937061D01*
X133283618Y-103126666D01*
X133283621Y-103126671D01*
X133285944Y-103131653D01*
X133412251Y-103312038D01*
X133567962Y-103467749D01*
X133572471Y-103470906D01*
X133572473Y-103470908D01*
X133628092Y-103509853D01*
X133748346Y-103594056D01*
X133753328Y-103596379D01*
X133753333Y-103596382D01*
X133838469Y-103636081D01*
X133891754Y-103682998D01*
X133911215Y-103751276D01*
X133890673Y-103819235D01*
X133838469Y-103864471D01*
X133753583Y-103904054D01*
X133744093Y-103909534D01*
X133702851Y-103938411D01*
X133694477Y-103948887D01*
X133701545Y-103962334D01*
X134367189Y-104627979D01*
X134381132Y-104635592D01*
X134382966Y-104635461D01*
X134389580Y-104631210D01*
X135059180Y-103961609D01*
X135065607Y-103949839D01*
X135056313Y-103937825D01*
X135015912Y-103909536D01*
X135006416Y-103904053D01*
X134921531Y-103864471D01*
X134868246Y-103817554D01*
X134848785Y-103749276D01*
X134869327Y-103681316D01*
X134921531Y-103636081D01*
X135006667Y-103596382D01*
X135006672Y-103596379D01*
X135011654Y-103594056D01*
X135131908Y-103509853D01*
X135187527Y-103470908D01*
X135187529Y-103470906D01*
X135192038Y-103467749D01*
X135347749Y-103312038D01*
X135474056Y-103131653D01*
X135476379Y-103126671D01*
X135476382Y-103126666D01*
X135564795Y-102937061D01*
X135567120Y-102932076D01*
X135568544Y-102926763D01*
X135570426Y-102921592D01*
X135571728Y-102922066D01*
X135605243Y-102867078D01*
X135669103Y-102836055D01*
X135739598Y-102844482D01*
X135794346Y-102889684D01*
X135809011Y-102921797D01*
X135809574Y-102921592D01*
X135811456Y-102926763D01*
X135812880Y-102932076D01*
X135815205Y-102937061D01*
X135903618Y-103126666D01*
X135903621Y-103126671D01*
X135905944Y-103131653D01*
X136032251Y-103312038D01*
X136187962Y-103467749D01*
X136192471Y-103470906D01*
X136192473Y-103470908D01*
X136248092Y-103509853D01*
X136368346Y-103594056D01*
X136373328Y-103596379D01*
X136373333Y-103596382D01*
X136458469Y-103636081D01*
X136511754Y-103682998D01*
X136531215Y-103751276D01*
X136510673Y-103819235D01*
X136458469Y-103864471D01*
X136373583Y-103904054D01*
X136364093Y-103909534D01*
X136322851Y-103938411D01*
X136314477Y-103948887D01*
X136321545Y-103962334D01*
X136987189Y-104627979D01*
X137001132Y-104635592D01*
X137002966Y-104635461D01*
X137009580Y-104631210D01*
X137679180Y-103961609D01*
X137685607Y-103949839D01*
X137676313Y-103937825D01*
X137635912Y-103909536D01*
X137626416Y-103904053D01*
X137541531Y-103864471D01*
X137488246Y-103817554D01*
X137468785Y-103749276D01*
X137489327Y-103681316D01*
X137541531Y-103636081D01*
X137626667Y-103596382D01*
X137626672Y-103596379D01*
X137631654Y-103594056D01*
X137751908Y-103509853D01*
X137767613Y-103498856D01*
X166306601Y-103498856D01*
X166313059Y-103508216D01*
X166329361Y-103522512D01*
X166335901Y-103527530D01*
X166575144Y-103687387D01*
X166582281Y-103691508D01*
X166840349Y-103818772D01*
X166847953Y-103821922D01*
X167120420Y-103914412D01*
X167128383Y-103916546D01*
X167410600Y-103972683D01*
X167418751Y-103973756D01*
X167705881Y-103992575D01*
X167714119Y-103992575D01*
X168001249Y-103973756D01*
X168009400Y-103972683D01*
X168291617Y-103916546D01*
X168299580Y-103914412D01*
X168572047Y-103821922D01*
X168579651Y-103818772D01*
X168837719Y-103691508D01*
X168844856Y-103687387D01*
X169084099Y-103527530D01*
X169090639Y-103522512D01*
X169105074Y-103509853D01*
X169113472Y-103496614D01*
X169107638Y-103486849D01*
X167722810Y-102102020D01*
X167708869Y-102094408D01*
X167707034Y-102094539D01*
X167700420Y-102098790D01*
X166314116Y-103485095D01*
X166306601Y-103498856D01*
X137767613Y-103498856D01*
X137807527Y-103470908D01*
X137807529Y-103470906D01*
X137812038Y-103467749D01*
X137967749Y-103312038D01*
X138094056Y-103131653D01*
X138096379Y-103126671D01*
X138096382Y-103126666D01*
X138184795Y-102937061D01*
X138187120Y-102932076D01*
X138244115Y-102719371D01*
X138263307Y-102500000D01*
X138244115Y-102280629D01*
X138187120Y-102067924D01*
X138123238Y-101930928D01*
X138096382Y-101873334D01*
X138096379Y-101873329D01*
X138094056Y-101868347D01*
X138058525Y-101817603D01*
X138000069Y-101734119D01*
X165447425Y-101734119D01*
X165466244Y-102021249D01*
X165467317Y-102029400D01*
X165523454Y-102311617D01*
X165525588Y-102319580D01*
X165618078Y-102592047D01*
X165621228Y-102599651D01*
X165748492Y-102857718D01*
X165752613Y-102864855D01*
X165912470Y-103104099D01*
X165917488Y-103110639D01*
X165930147Y-103125074D01*
X165943386Y-103133472D01*
X165953151Y-103127638D01*
X167337980Y-101742810D01*
X167344357Y-101731131D01*
X168074408Y-101731131D01*
X168074539Y-101732966D01*
X168078790Y-101739580D01*
X169465095Y-103125884D01*
X169478856Y-103133399D01*
X169488216Y-103126941D01*
X169502512Y-103110639D01*
X169507530Y-103104099D01*
X169667387Y-102864855D01*
X169671508Y-102857718D01*
X169798772Y-102599651D01*
X169801922Y-102592047D01*
X169894412Y-102319580D01*
X169896546Y-102311617D01*
X169952683Y-102029400D01*
X169953756Y-102021249D01*
X169972575Y-101734119D01*
X169972575Y-101725881D01*
X169953756Y-101438751D01*
X169952683Y-101430600D01*
X169896546Y-101148383D01*
X169894412Y-101140420D01*
X169801922Y-100867953D01*
X169798772Y-100860349D01*
X169671508Y-100602282D01*
X169667387Y-100595145D01*
X169507530Y-100355901D01*
X169502512Y-100349361D01*
X169489853Y-100334926D01*
X169476614Y-100326528D01*
X169466849Y-100332362D01*
X168082020Y-101717190D01*
X168074408Y-101731131D01*
X167344357Y-101731131D01*
X167345592Y-101728869D01*
X167345461Y-101727034D01*
X167341210Y-101720420D01*
X165954905Y-100334116D01*
X165941144Y-100326601D01*
X165931784Y-100333059D01*
X165917488Y-100349361D01*
X165912470Y-100355901D01*
X165752613Y-100595145D01*
X165748492Y-100602282D01*
X165621228Y-100860349D01*
X165618078Y-100867953D01*
X165525588Y-101140420D01*
X165523454Y-101148383D01*
X165467317Y-101430600D01*
X165466244Y-101438751D01*
X165447425Y-101725881D01*
X165447425Y-101734119D01*
X138000069Y-101734119D01*
X137970908Y-101692473D01*
X137970906Y-101692470D01*
X137967749Y-101687962D01*
X137868882Y-101589095D01*
X137834856Y-101526783D01*
X137839921Y-101455968D01*
X137868882Y-101410905D01*
X137967749Y-101312038D01*
X138036587Y-101213728D01*
X138090899Y-101136162D01*
X138090900Y-101136160D01*
X138094056Y-101131653D01*
X138096379Y-101126671D01*
X138096382Y-101126666D01*
X138184795Y-100937061D01*
X138187120Y-100932076D01*
X138244115Y-100719371D01*
X138263307Y-100500000D01*
X138244115Y-100280629D01*
X138187120Y-100067924D01*
X138138373Y-99963386D01*
X166306528Y-99963386D01*
X166312362Y-99973151D01*
X167697190Y-101357980D01*
X167711131Y-101365592D01*
X167712966Y-101365461D01*
X167719580Y-101361210D01*
X169105884Y-99974905D01*
X169113399Y-99961144D01*
X169106941Y-99951784D01*
X169090639Y-99937488D01*
X169084099Y-99932470D01*
X168844856Y-99772613D01*
X168837719Y-99768492D01*
X168579651Y-99641228D01*
X168572047Y-99638078D01*
X168299580Y-99545588D01*
X168291617Y-99543454D01*
X168009400Y-99487317D01*
X168001249Y-99486244D01*
X167714119Y-99467425D01*
X167705881Y-99467425D01*
X167418751Y-99486244D01*
X167410600Y-99487317D01*
X167128383Y-99543454D01*
X167120420Y-99545588D01*
X166847953Y-99638078D01*
X166840349Y-99641228D01*
X166582282Y-99768492D01*
X166575145Y-99772613D01*
X166335901Y-99932470D01*
X166329361Y-99937488D01*
X166314926Y-99950147D01*
X166306528Y-99963386D01*
X138138373Y-99963386D01*
X138123957Y-99932470D01*
X138096382Y-99873334D01*
X138096379Y-99873329D01*
X138094056Y-99868347D01*
X138090899Y-99863838D01*
X137970908Y-99692473D01*
X137970906Y-99692470D01*
X137967749Y-99687962D01*
X137812038Y-99532251D01*
X137807527Y-99529092D01*
X137746317Y-99486232D01*
X137701989Y-99430774D01*
X137694680Y-99360155D01*
X137726711Y-99296795D01*
X137787913Y-99260810D01*
X137804978Y-99257756D01*
X137816757Y-99256477D01*
X137852460Y-99252599D01*
X137852464Y-99252598D01*
X137860316Y-99251745D01*
X137996705Y-99200615D01*
X138113261Y-99113261D01*
X138200615Y-98996705D01*
X138251745Y-98860316D01*
X138258500Y-98798134D01*
X138258500Y-97201866D01*
X138251745Y-97139684D01*
X138200615Y-97003295D01*
X138195230Y-96996110D01*
X138195229Y-96996108D01*
X138153735Y-96940743D01*
X138128887Y-96874236D01*
X138143940Y-96804854D01*
X138194114Y-96754624D01*
X138206342Y-96748770D01*
X138240942Y-96734438D01*
X138248617Y-96730628D01*
X138477598Y-96596822D01*
X138484679Y-96592009D01*
X138564655Y-96529301D01*
X138573125Y-96517442D01*
X138566608Y-96505818D01*
X137362812Y-95302022D01*
X137348868Y-95294408D01*
X137347035Y-95294539D01*
X137340420Y-95298790D01*
X136132910Y-96506300D01*
X136125618Y-96519654D01*
X136132673Y-96529626D01*
X136149462Y-96543664D01*
X136188891Y-96602705D01*
X136190140Y-96673691D01*
X136152814Y-96734083D01*
X136112867Y-96758308D01*
X136011705Y-96796232D01*
X136011704Y-96796233D01*
X136003295Y-96799385D01*
X135886739Y-96886739D01*
X135799385Y-97003295D01*
X135748255Y-97139684D01*
X135741500Y-97201866D01*
X135741500Y-97373533D01*
X135721498Y-97441654D01*
X135667842Y-97488147D01*
X135597568Y-97498251D01*
X135532988Y-97468757D01*
X135501305Y-97426783D01*
X135476382Y-97373334D01*
X135476379Y-97373329D01*
X135474056Y-97368347D01*
X135470899Y-97363838D01*
X135350908Y-97192473D01*
X135350906Y-97192470D01*
X135347749Y-97187962D01*
X135192038Y-97032251D01*
X135011654Y-96905944D01*
X134812076Y-96812880D01*
X134599371Y-96755885D01*
X134380000Y-96736693D01*
X134160629Y-96755885D01*
X133947924Y-96812880D01*
X133873160Y-96847743D01*
X133753334Y-96903618D01*
X133753329Y-96903621D01*
X133748347Y-96905944D01*
X133743840Y-96909100D01*
X133743838Y-96909101D01*
X133572473Y-97029092D01*
X133572470Y-97029094D01*
X133567962Y-97032251D01*
X133412251Y-97187962D01*
X133409094Y-97192470D01*
X133409092Y-97192473D01*
X133289101Y-97363838D01*
X133285944Y-97368347D01*
X133283621Y-97373329D01*
X133283618Y-97373334D01*
X133258695Y-97426783D01*
X133192880Y-97567924D01*
X133135885Y-97780629D01*
X133116693Y-98000000D01*
X133135885Y-98219371D01*
X133192880Y-98432076D01*
X133195205Y-98437061D01*
X133283618Y-98626666D01*
X133283621Y-98626671D01*
X133285944Y-98631653D01*
X133289100Y-98636160D01*
X133289101Y-98636162D01*
X133400123Y-98794717D01*
X133412251Y-98812038D01*
X133567962Y-98967749D01*
X133748346Y-99094056D01*
X133753331Y-99096380D01*
X133753337Y-99096384D01*
X133837877Y-99135805D01*
X133891163Y-99182722D01*
X133910624Y-99250999D01*
X133890082Y-99318959D01*
X133837878Y-99364195D01*
X133753334Y-99403618D01*
X133753329Y-99403621D01*
X133748347Y-99405944D01*
X133743840Y-99409100D01*
X133743838Y-99409101D01*
X133572473Y-99529092D01*
X133572470Y-99529094D01*
X133567962Y-99532251D01*
X133412251Y-99687962D01*
X133409094Y-99692470D01*
X133409092Y-99692473D01*
X133289101Y-99863838D01*
X133285944Y-99868347D01*
X133283621Y-99873329D01*
X133283618Y-99873334D01*
X133256043Y-99932470D01*
X133192880Y-100067924D01*
X133135885Y-100280629D01*
X133135406Y-100286106D01*
X133134794Y-100289576D01*
X133103266Y-100353188D01*
X133042351Y-100389657D01*
X132994918Y-100392702D01*
X132991508Y-100392271D01*
X132983830Y-100390300D01*
X132963576Y-100390300D01*
X132943865Y-100388749D01*
X132931686Y-100386820D01*
X132923857Y-100385580D01*
X132915965Y-100386326D01*
X132908042Y-100386077D01*
X132908091Y-100384531D01*
X132847196Y-100372731D01*
X132821674Y-100353045D01*
X132820580Y-100354260D01*
X132815668Y-100349837D01*
X132811253Y-100344934D01*
X132715437Y-100275319D01*
X132662094Y-100236563D01*
X132662093Y-100236562D01*
X132656752Y-100232682D01*
X132650724Y-100229998D01*
X132650722Y-100229997D01*
X132488319Y-100157691D01*
X132488318Y-100157691D01*
X132482288Y-100155006D01*
X132378392Y-100132922D01*
X132301944Y-100116672D01*
X132301939Y-100116672D01*
X132295487Y-100115300D01*
X132104513Y-100115300D01*
X132098061Y-100116672D01*
X132098056Y-100116672D01*
X132021608Y-100132922D01*
X131917712Y-100155006D01*
X131911682Y-100157691D01*
X131911681Y-100157691D01*
X131749278Y-100229997D01*
X131749276Y-100229998D01*
X131743248Y-100232682D01*
X131588747Y-100344934D01*
X131584326Y-100349844D01*
X131584325Y-100349845D01*
X131536669Y-100402773D01*
X131460960Y-100486856D01*
X131365473Y-100652244D01*
X131306458Y-100833872D01*
X131305768Y-100840433D01*
X131305768Y-100840435D01*
X131287186Y-101017235D01*
X131286496Y-101023800D01*
X123008500Y-101023800D01*
X123008500Y-96519654D01*
X130445618Y-96519654D01*
X130452673Y-96529627D01*
X130483679Y-96555551D01*
X130490598Y-96560579D01*
X130715272Y-96701515D01*
X130722807Y-96705556D01*
X130964520Y-96814694D01*
X130972551Y-96817680D01*
X131226832Y-96893002D01*
X131235184Y-96894869D01*
X131497340Y-96934984D01*
X131505874Y-96935700D01*
X131771045Y-96939867D01*
X131779596Y-96939418D01*
X132042883Y-96907557D01*
X132051284Y-96905955D01*
X132307824Y-96838653D01*
X132315926Y-96835926D01*
X132560949Y-96734434D01*
X132568617Y-96730628D01*
X132797598Y-96596822D01*
X132804679Y-96592009D01*
X132884655Y-96529301D01*
X132893125Y-96517442D01*
X132886608Y-96505818D01*
X131682812Y-95302022D01*
X131668868Y-95294408D01*
X131667035Y-95294539D01*
X131660420Y-95298790D01*
X130452910Y-96506300D01*
X130445618Y-96519654D01*
X123008500Y-96519654D01*
X123008500Y-94913204D01*
X129657665Y-94913204D01*
X129672932Y-95177969D01*
X129674005Y-95186470D01*
X129725065Y-95446722D01*
X129727276Y-95454974D01*
X129813184Y-95705894D01*
X129816499Y-95713779D01*
X129935664Y-95950713D01*
X129940020Y-95958079D01*
X130069347Y-96146250D01*
X130079601Y-96154594D01*
X130093342Y-96147448D01*
X131297978Y-94942812D01*
X131304356Y-94931132D01*
X132034408Y-94931132D01*
X132034539Y-94932965D01*
X132038790Y-94939580D01*
X133245730Y-96146520D01*
X133257939Y-96153187D01*
X133269439Y-96144497D01*
X133366831Y-96011913D01*
X133371418Y-96004685D01*
X133497962Y-95771621D01*
X133501530Y-95763827D01*
X133595271Y-95515750D01*
X133597748Y-95507544D01*
X133656954Y-95249038D01*
X133658294Y-95240577D01*
X133682031Y-94974616D01*
X133682277Y-94969677D01*
X133682666Y-94932485D01*
X133682523Y-94927519D01*
X133681547Y-94913204D01*
X135337665Y-94913204D01*
X135352932Y-95177969D01*
X135354005Y-95186470D01*
X135405065Y-95446722D01*
X135407276Y-95454974D01*
X135493184Y-95705894D01*
X135496499Y-95713779D01*
X135615664Y-95950713D01*
X135620020Y-95958079D01*
X135749347Y-96146250D01*
X135759601Y-96154594D01*
X135773342Y-96147448D01*
X136977978Y-94942812D01*
X136984356Y-94931132D01*
X137714408Y-94931132D01*
X137714539Y-94932965D01*
X137718790Y-94939580D01*
X138925730Y-96146520D01*
X138937939Y-96153187D01*
X138946001Y-96147095D01*
X172992001Y-96147095D01*
X172992338Y-96153614D01*
X173002257Y-96249206D01*
X173005149Y-96262600D01*
X173056588Y-96416784D01*
X173062761Y-96429962D01*
X173148063Y-96567807D01*
X173157099Y-96579208D01*
X173271829Y-96693739D01*
X173283240Y-96702751D01*
X173421243Y-96787816D01*
X173434424Y-96793963D01*
X173588710Y-96845138D01*
X173602086Y-96848005D01*
X173696438Y-96857672D01*
X173702854Y-96858000D01*
X174227885Y-96858000D01*
X174243124Y-96853525D01*
X174244329Y-96852135D01*
X174246000Y-96844452D01*
X174246000Y-96839884D01*
X174754000Y-96839884D01*
X174758475Y-96855123D01*
X174759865Y-96856328D01*
X174767548Y-96857999D01*
X175297095Y-96857999D01*
X175303614Y-96857662D01*
X175399206Y-96847743D01*
X175412600Y-96844851D01*
X175566784Y-96793412D01*
X175579962Y-96787239D01*
X175717807Y-96701937D01*
X175729208Y-96692901D01*
X175843739Y-96578171D01*
X175852751Y-96566760D01*
X175937816Y-96428757D01*
X175943963Y-96415576D01*
X175995138Y-96261290D01*
X175998005Y-96247914D01*
X176007672Y-96153562D01*
X176008000Y-96147146D01*
X176008000Y-95772115D01*
X176003525Y-95756876D01*
X176002135Y-95755671D01*
X175994452Y-95754000D01*
X174772115Y-95754000D01*
X174756876Y-95758475D01*
X174755671Y-95759865D01*
X174754000Y-95767548D01*
X174754000Y-96839884D01*
X174246000Y-96839884D01*
X174246000Y-95772115D01*
X174241525Y-95756876D01*
X174240135Y-95755671D01*
X174232452Y-95754000D01*
X173010116Y-95754000D01*
X172994877Y-95758475D01*
X172993672Y-95759865D01*
X172992001Y-95767548D01*
X172992001Y-96147095D01*
X138946001Y-96147095D01*
X138949439Y-96144497D01*
X139046831Y-96011913D01*
X139051418Y-96004685D01*
X139177962Y-95771621D01*
X139181530Y-95763827D01*
X139275271Y-95515750D01*
X139277748Y-95507544D01*
X139336954Y-95249038D01*
X139338294Y-95240577D01*
X139362031Y-94974616D01*
X139362277Y-94969677D01*
X139362666Y-94932485D01*
X139362523Y-94927519D01*
X139344362Y-94661123D01*
X139343201Y-94652649D01*
X139289419Y-94392944D01*
X139287120Y-94384709D01*
X139198588Y-94134705D01*
X139195191Y-94126854D01*
X139073550Y-93891178D01*
X139069122Y-93883866D01*
X138950031Y-93714417D01*
X138939509Y-93706037D01*
X138926121Y-93713089D01*
X137722022Y-94917188D01*
X137714408Y-94931132D01*
X136984356Y-94931132D01*
X136985592Y-94928868D01*
X136985461Y-94927035D01*
X136981210Y-94920420D01*
X135773814Y-93713024D01*
X135761804Y-93706466D01*
X135750064Y-93715434D01*
X135641935Y-93865911D01*
X135637418Y-93873196D01*
X135513325Y-94107567D01*
X135509839Y-94115395D01*
X135418700Y-94364446D01*
X135416311Y-94372670D01*
X135359812Y-94631795D01*
X135358563Y-94640250D01*
X135337754Y-94904653D01*
X135337665Y-94913204D01*
X133681547Y-94913204D01*
X133664362Y-94661123D01*
X133663201Y-94652649D01*
X133609419Y-94392944D01*
X133607120Y-94384709D01*
X133518588Y-94134705D01*
X133515191Y-94126854D01*
X133393550Y-93891178D01*
X133389122Y-93883866D01*
X133270031Y-93714417D01*
X133259509Y-93706037D01*
X133246121Y-93713089D01*
X132042022Y-94917188D01*
X132034408Y-94931132D01*
X131304356Y-94931132D01*
X131305592Y-94928868D01*
X131305461Y-94927035D01*
X131301210Y-94920420D01*
X130093814Y-93713024D01*
X130081804Y-93706466D01*
X130070064Y-93715434D01*
X129961935Y-93865911D01*
X129957418Y-93873196D01*
X129833325Y-94107567D01*
X129829839Y-94115395D01*
X129738700Y-94364446D01*
X129736311Y-94372670D01*
X129679812Y-94631795D01*
X129678563Y-94640250D01*
X129657754Y-94904653D01*
X129657665Y-94913204D01*
X123008500Y-94913204D01*
X123008500Y-93342500D01*
X130446584Y-93342500D01*
X130452980Y-93353770D01*
X131657188Y-94557978D01*
X131671132Y-94565592D01*
X131672965Y-94565461D01*
X131679580Y-94561210D01*
X132886604Y-93354186D01*
X132892985Y-93342500D01*
X136126584Y-93342500D01*
X136132980Y-93353770D01*
X137337188Y-94557978D01*
X137351132Y-94565592D01*
X137352965Y-94565461D01*
X137359580Y-94561210D01*
X138566604Y-93354186D01*
X138573795Y-93341017D01*
X138566473Y-93330780D01*
X138519233Y-93292115D01*
X138512261Y-93287160D01*
X138286122Y-93148582D01*
X138278552Y-93144624D01*
X138035704Y-93038022D01*
X138027644Y-93035120D01*
X137772592Y-92962467D01*
X137764214Y-92960685D01*
X137501656Y-92923318D01*
X137493111Y-92922691D01*
X137227908Y-92921302D01*
X137219374Y-92921839D01*
X136956433Y-92956456D01*
X136948035Y-92958149D01*
X136692238Y-93028127D01*
X136684143Y-93030946D01*
X136440199Y-93134997D01*
X136432577Y-93138881D01*
X136205013Y-93275075D01*
X136197981Y-93279962D01*
X136135053Y-93330377D01*
X136126584Y-93342500D01*
X132892985Y-93342500D01*
X132893795Y-93341017D01*
X132886473Y-93330780D01*
X132839233Y-93292115D01*
X132832261Y-93287160D01*
X132606122Y-93148582D01*
X132598552Y-93144624D01*
X132355704Y-93038022D01*
X132347644Y-93035120D01*
X132092592Y-92962467D01*
X132084214Y-92960685D01*
X131821656Y-92923318D01*
X131813111Y-92922691D01*
X131547908Y-92921302D01*
X131539374Y-92921839D01*
X131276433Y-92956456D01*
X131268035Y-92958149D01*
X131012238Y-93028127D01*
X131004143Y-93030946D01*
X130760199Y-93134997D01*
X130752577Y-93138881D01*
X130525013Y-93275075D01*
X130517981Y-93279962D01*
X130455053Y-93330377D01*
X130446584Y-93342500D01*
X123008500Y-93342500D01*
X123008500Y-92700000D01*
X148686496Y-92700000D01*
X148706458Y-92889928D01*
X148765473Y-93071556D01*
X148860960Y-93236944D01*
X148865378Y-93241851D01*
X148865379Y-93241852D01*
X148915819Y-93297871D01*
X148988747Y-93378866D01*
X149143248Y-93491118D01*
X149149276Y-93493802D01*
X149149278Y-93493803D01*
X149180833Y-93507852D01*
X149317712Y-93568794D01*
X149411112Y-93588647D01*
X149498056Y-93607128D01*
X149498061Y-93607128D01*
X149504513Y-93608500D01*
X149695487Y-93608500D01*
X149701939Y-93607128D01*
X149701944Y-93607128D01*
X149788887Y-93588647D01*
X149882288Y-93568794D01*
X150019167Y-93507852D01*
X150050722Y-93493803D01*
X150050724Y-93493802D01*
X150056752Y-93491118D01*
X150211253Y-93378866D01*
X150215668Y-93373963D01*
X150220580Y-93369540D01*
X150221705Y-93370789D01*
X150275014Y-93337949D01*
X150308200Y-93333500D01*
X150691800Y-93333500D01*
X150759921Y-93353502D01*
X150779147Y-93369843D01*
X150779420Y-93369540D01*
X150784332Y-93373963D01*
X150788747Y-93378866D01*
X150943248Y-93491118D01*
X150949276Y-93493802D01*
X150949278Y-93493803D01*
X150980833Y-93507852D01*
X151117712Y-93568794D01*
X151211112Y-93588647D01*
X151298056Y-93607128D01*
X151298061Y-93607128D01*
X151304513Y-93608500D01*
X151495487Y-93608500D01*
X151501939Y-93607128D01*
X151501944Y-93607128D01*
X151588887Y-93588647D01*
X151682288Y-93568794D01*
X151819167Y-93507852D01*
X151850722Y-93493803D01*
X151850724Y-93493802D01*
X151856752Y-93491118D01*
X152011253Y-93378866D01*
X152084181Y-93297871D01*
X152134621Y-93241852D01*
X152134622Y-93241851D01*
X152139040Y-93236944D01*
X152234527Y-93071556D01*
X152278646Y-92935774D01*
X172988102Y-92935774D01*
X172996751Y-93166158D01*
X173044093Y-93391791D01*
X173046051Y-93396750D01*
X173046052Y-93396752D01*
X173081787Y-93487237D01*
X173128776Y-93606221D01*
X173248377Y-93803317D01*
X173251874Y-93807347D01*
X173338438Y-93907103D01*
X173399477Y-93977445D01*
X173403608Y-93980832D01*
X173435529Y-94007006D01*
X173475524Y-94065666D01*
X173477455Y-94136636D01*
X173440710Y-94197384D01*
X173421941Y-94211584D01*
X173282193Y-94298063D01*
X173270792Y-94307099D01*
X173156261Y-94421829D01*
X173147249Y-94433240D01*
X173062184Y-94571243D01*
X173056037Y-94584424D01*
X173004862Y-94738710D01*
X173001995Y-94752086D01*
X172992328Y-94846438D01*
X172992000Y-94852855D01*
X172992000Y-95227885D01*
X172996475Y-95243124D01*
X172997865Y-95244329D01*
X173005548Y-95246000D01*
X175989884Y-95246000D01*
X176005123Y-95241525D01*
X176006328Y-95240135D01*
X176007999Y-95232452D01*
X176007999Y-94852905D01*
X176007662Y-94846386D01*
X175997743Y-94750794D01*
X175994851Y-94737400D01*
X175943412Y-94583216D01*
X175937239Y-94570038D01*
X175851937Y-94432193D01*
X175842901Y-94420792D01*
X175728171Y-94306261D01*
X175716757Y-94297247D01*
X175577287Y-94211277D01*
X175529793Y-94158505D01*
X175518369Y-94088434D01*
X175546643Y-94023310D01*
X175556430Y-94012847D01*
X175589991Y-93980832D01*
X175671135Y-93903424D01*
X175808754Y-93718458D01*
X175815070Y-93706037D01*
X175910822Y-93517704D01*
X175913240Y-93512949D01*
X175949321Y-93396752D01*
X175980024Y-93297871D01*
X175981607Y-93292773D01*
X175988356Y-93241852D01*
X176011198Y-93069511D01*
X176011198Y-93069506D01*
X176011898Y-93064226D01*
X176003249Y-92833842D01*
X175955907Y-92608209D01*
X175953948Y-92603248D01*
X175873185Y-92398744D01*
X175873184Y-92398742D01*
X175871224Y-92393779D01*
X175856896Y-92370166D01*
X175754390Y-92201243D01*
X175751623Y-92196683D01*
X175664755Y-92096576D01*
X175604023Y-92026588D01*
X175604021Y-92026586D01*
X175600523Y-92022555D01*
X175558970Y-91988484D01*
X175426373Y-91879760D01*
X175426367Y-91879756D01*
X175422245Y-91876376D01*
X175417609Y-91873737D01*
X175417606Y-91873735D01*
X175226529Y-91764968D01*
X175221886Y-91762325D01*
X175005175Y-91683663D01*
X174999926Y-91682714D01*
X174999923Y-91682713D01*
X174782392Y-91643377D01*
X174782385Y-91643376D01*
X174778308Y-91642639D01*
X174760586Y-91641803D01*
X174755644Y-91641570D01*
X174755637Y-91641570D01*
X174754156Y-91641500D01*
X174292110Y-91641500D01*
X174225191Y-91647178D01*
X174125591Y-91655629D01*
X174125587Y-91655630D01*
X174120280Y-91656080D01*
X174115125Y-91657418D01*
X174115119Y-91657419D01*
X173902297Y-91712657D01*
X173902293Y-91712658D01*
X173897128Y-91713999D01*
X173892262Y-91716191D01*
X173892259Y-91716192D01*
X173783980Y-91764968D01*
X173686925Y-91808688D01*
X173495681Y-91937441D01*
X173328865Y-92096576D01*
X173191246Y-92281542D01*
X173188830Y-92286293D01*
X173188828Y-92286297D01*
X173167400Y-92328444D01*
X173086760Y-92487051D01*
X173085178Y-92492145D01*
X173085177Y-92492148D01*
X173023115Y-92692020D01*
X173018393Y-92707227D01*
X173017692Y-92712516D01*
X172989753Y-92923318D01*
X172988102Y-92935774D01*
X152278646Y-92935774D01*
X152293542Y-92889928D01*
X152313504Y-92700000D01*
X152304405Y-92613428D01*
X152294232Y-92516635D01*
X152294232Y-92516633D01*
X152293542Y-92510072D01*
X152234527Y-92328444D01*
X152139040Y-92163056D01*
X152011253Y-92021134D01*
X151856752Y-91908882D01*
X151850724Y-91906198D01*
X151850722Y-91906197D01*
X151688319Y-91833891D01*
X151688318Y-91833891D01*
X151682288Y-91831206D01*
X151576350Y-91808688D01*
X151501944Y-91792872D01*
X151501939Y-91792872D01*
X151495487Y-91791500D01*
X151304513Y-91791500D01*
X151298061Y-91792872D01*
X151298056Y-91792872D01*
X151223650Y-91808688D01*
X151117712Y-91831206D01*
X151111682Y-91833891D01*
X151111681Y-91833891D01*
X150949278Y-91906197D01*
X150949276Y-91906198D01*
X150943248Y-91908882D01*
X150937907Y-91912762D01*
X150937906Y-91912763D01*
X150810329Y-92005454D01*
X150788747Y-92021134D01*
X150784332Y-92026037D01*
X150779420Y-92030460D01*
X150778295Y-92029211D01*
X150724986Y-92062051D01*
X150691800Y-92066500D01*
X150308200Y-92066500D01*
X150240079Y-92046498D01*
X150220853Y-92030157D01*
X150220580Y-92030460D01*
X150215668Y-92026037D01*
X150211253Y-92021134D01*
X150189671Y-92005454D01*
X150062094Y-91912763D01*
X150062093Y-91912762D01*
X150056752Y-91908882D01*
X150050724Y-91906198D01*
X150050722Y-91906197D01*
X149888319Y-91833891D01*
X149888318Y-91833891D01*
X149882288Y-91831206D01*
X149776350Y-91808688D01*
X149701944Y-91792872D01*
X149701939Y-91792872D01*
X149695487Y-91791500D01*
X149504513Y-91791500D01*
X149498061Y-91792872D01*
X149498056Y-91792872D01*
X149423650Y-91808688D01*
X149317712Y-91831206D01*
X149311682Y-91833891D01*
X149311681Y-91833891D01*
X149149278Y-91906197D01*
X149149276Y-91906198D01*
X149143248Y-91908882D01*
X148988747Y-92021134D01*
X148860960Y-92163056D01*
X148765473Y-92328444D01*
X148706458Y-92510072D01*
X148705768Y-92516633D01*
X148705768Y-92516635D01*
X148695595Y-92613428D01*
X148686496Y-92700000D01*
X123008500Y-92700000D01*
X123008500Y-89327381D01*
X128413877Y-89327381D01*
X128433839Y-89517309D01*
X128492854Y-89698937D01*
X128588341Y-89864325D01*
X128716128Y-90006247D01*
X128870629Y-90118499D01*
X128876657Y-90121183D01*
X128876659Y-90121184D01*
X128910166Y-90136102D01*
X128948012Y-90162114D01*
X130664696Y-91878798D01*
X130684720Y-91904893D01*
X130760960Y-92036944D01*
X130888747Y-92178866D01*
X131043248Y-92291118D01*
X131049276Y-92293802D01*
X131049278Y-92293803D01*
X131141200Y-92334729D01*
X131217712Y-92368794D01*
X131311113Y-92388647D01*
X131398056Y-92407128D01*
X131398061Y-92407128D01*
X131404513Y-92408500D01*
X131595487Y-92408500D01*
X131601939Y-92407128D01*
X131601944Y-92407128D01*
X131688887Y-92388647D01*
X131782288Y-92368794D01*
X131858800Y-92334729D01*
X131950722Y-92293803D01*
X131950724Y-92293802D01*
X131956752Y-92291118D01*
X132111253Y-92178866D01*
X132239040Y-92036944D01*
X132323573Y-91890529D01*
X132331223Y-91877279D01*
X132331224Y-91877278D01*
X132334527Y-91871556D01*
X132393542Y-91689928D01*
X132394301Y-91682713D01*
X132412814Y-91506565D01*
X132413504Y-91500000D01*
X132393542Y-91310072D01*
X132334527Y-91128444D01*
X132239040Y-90963056D01*
X132111253Y-90821134D01*
X131956752Y-90708882D01*
X131950724Y-90706198D01*
X131950722Y-90706197D01*
X131917215Y-90691279D01*
X131879369Y-90665267D01*
X130214103Y-89000000D01*
X151686496Y-89000000D01*
X151687186Y-89006565D01*
X151702152Y-89148955D01*
X151706458Y-89189928D01*
X151765473Y-89371556D01*
X151860960Y-89536944D01*
X151988747Y-89678866D01*
X152143248Y-89791118D01*
X152149276Y-89793802D01*
X152149278Y-89793803D01*
X152307674Y-89864325D01*
X152317712Y-89868794D01*
X152411113Y-89888647D01*
X152498056Y-89907128D01*
X152498061Y-89907128D01*
X152504513Y-89908500D01*
X152695487Y-89908500D01*
X152701939Y-89907128D01*
X152701944Y-89907128D01*
X152788888Y-89888647D01*
X152882288Y-89868794D01*
X152892326Y-89864325D01*
X153050722Y-89793803D01*
X153050724Y-89793802D01*
X153056752Y-89791118D01*
X153211253Y-89678866D01*
X153339040Y-89536944D01*
X153434527Y-89371556D01*
X153493542Y-89189928D01*
X153497849Y-89148955D01*
X153512814Y-89006565D01*
X153513504Y-89000000D01*
X153493542Y-88810072D01*
X153434527Y-88628444D01*
X153339040Y-88463056D01*
X153265863Y-88381785D01*
X153235147Y-88317779D01*
X153233500Y-88297476D01*
X153233500Y-88102524D01*
X153253502Y-88034403D01*
X153265858Y-88018221D01*
X153339040Y-87936944D01*
X153413432Y-87808093D01*
X153431223Y-87777279D01*
X153431224Y-87777278D01*
X153434527Y-87771556D01*
X153493542Y-87589928D01*
X153496005Y-87566500D01*
X153512814Y-87406565D01*
X153513504Y-87400000D01*
X153493542Y-87210072D01*
X153434527Y-87028444D01*
X153339040Y-86863056D01*
X153211253Y-86721134D01*
X153056752Y-86608882D01*
X153050724Y-86606198D01*
X153050722Y-86606197D01*
X152888319Y-86533891D01*
X152888318Y-86533891D01*
X152882288Y-86531206D01*
X152766362Y-86506565D01*
X152735477Y-86500000D01*
X153886496Y-86500000D01*
X153906458Y-86689928D01*
X153965473Y-86871556D01*
X154060960Y-87036944D01*
X154134137Y-87118215D01*
X154164853Y-87182221D01*
X154166500Y-87202524D01*
X154166500Y-87796233D01*
X154165973Y-87807416D01*
X154164298Y-87814909D01*
X154164547Y-87822835D01*
X154164547Y-87822836D01*
X154166438Y-87882986D01*
X154166500Y-87886945D01*
X154166500Y-87914856D01*
X154166997Y-87918790D01*
X154166997Y-87918791D01*
X154167005Y-87918856D01*
X154167938Y-87930693D01*
X154169327Y-87974889D01*
X154174978Y-87994339D01*
X154178987Y-88013700D01*
X154181526Y-88033797D01*
X154184445Y-88041168D01*
X154184445Y-88041170D01*
X154197804Y-88074912D01*
X154201649Y-88086142D01*
X154211771Y-88120983D01*
X154213982Y-88128593D01*
X154218015Y-88135412D01*
X154218017Y-88135417D01*
X154224293Y-88146028D01*
X154232988Y-88163776D01*
X154240448Y-88182617D01*
X154245110Y-88189033D01*
X154245110Y-88189034D01*
X154266436Y-88218387D01*
X154272952Y-88228307D01*
X154295458Y-88266362D01*
X154309779Y-88280683D01*
X154322619Y-88295716D01*
X154334528Y-88312107D01*
X154368605Y-88340298D01*
X154377384Y-88348288D01*
X154452878Y-88423782D01*
X154486904Y-88486094D01*
X154489092Y-88499703D01*
X154506458Y-88664928D01*
X154565473Y-88846556D01*
X154660960Y-89011944D01*
X154788747Y-89153866D01*
X154943248Y-89266118D01*
X154949276Y-89268802D01*
X154949278Y-89268803D01*
X155095593Y-89333946D01*
X155117712Y-89343794D01*
X155211112Y-89363647D01*
X155298056Y-89382128D01*
X155298061Y-89382128D01*
X155304513Y-89383500D01*
X155495487Y-89383500D01*
X155501939Y-89382128D01*
X155501944Y-89382128D01*
X155588888Y-89363647D01*
X155682288Y-89343794D01*
X155704407Y-89333946D01*
X155850722Y-89268803D01*
X155850724Y-89268802D01*
X155856752Y-89266118D01*
X156011253Y-89153866D01*
X156139040Y-89011944D01*
X156234527Y-88846556D01*
X156293542Y-88664928D01*
X156313504Y-88475000D01*
X156303707Y-88381787D01*
X156294232Y-88291635D01*
X156294232Y-88291633D01*
X156293542Y-88285072D01*
X156234527Y-88103444D01*
X156221241Y-88080431D01*
X156164698Y-87982497D01*
X156139040Y-87938056D01*
X156114582Y-87910892D01*
X156015675Y-87801045D01*
X156015674Y-87801044D01*
X156011253Y-87796134D01*
X155870407Y-87693803D01*
X155862094Y-87687763D01*
X155862093Y-87687762D01*
X155856752Y-87683882D01*
X155850724Y-87681198D01*
X155850722Y-87681197D01*
X155688319Y-87608891D01*
X155688318Y-87608891D01*
X155682288Y-87606206D01*
X155533303Y-87574538D01*
X155470829Y-87540809D01*
X155436508Y-87478660D01*
X155433500Y-87451291D01*
X155433500Y-87202524D01*
X155453502Y-87134403D01*
X155465858Y-87118221D01*
X155539040Y-87036944D01*
X155634527Y-86871556D01*
X155693542Y-86689928D01*
X155713504Y-86500000D01*
X155693542Y-86310072D01*
X155634527Y-86128444D01*
X155539040Y-85963056D01*
X155422749Y-85833901D01*
X155415675Y-85826045D01*
X155415674Y-85826044D01*
X155411253Y-85821134D01*
X155256752Y-85708882D01*
X155250724Y-85706198D01*
X155250722Y-85706197D01*
X155088319Y-85633891D01*
X155088318Y-85633891D01*
X155082288Y-85631206D01*
X154988887Y-85611353D01*
X154901944Y-85592872D01*
X154901939Y-85592872D01*
X154895487Y-85591500D01*
X154704513Y-85591500D01*
X154698061Y-85592872D01*
X154698056Y-85592872D01*
X154611113Y-85611353D01*
X154517712Y-85631206D01*
X154511682Y-85633891D01*
X154511681Y-85633891D01*
X154349278Y-85706197D01*
X154349276Y-85706198D01*
X154343248Y-85708882D01*
X154188747Y-85821134D01*
X154184326Y-85826044D01*
X154184325Y-85826045D01*
X154177252Y-85833901D01*
X154060960Y-85963056D01*
X153965473Y-86128444D01*
X153906458Y-86310072D01*
X153886496Y-86500000D01*
X152735477Y-86500000D01*
X152701944Y-86492872D01*
X152701939Y-86492872D01*
X152695487Y-86491500D01*
X152504513Y-86491500D01*
X152498061Y-86492872D01*
X152498056Y-86492872D01*
X152433638Y-86506565D01*
X152317712Y-86531206D01*
X152311682Y-86533891D01*
X152311681Y-86533891D01*
X152149278Y-86606197D01*
X152149276Y-86606198D01*
X152143248Y-86608882D01*
X151988747Y-86721134D01*
X151860960Y-86863056D01*
X151765473Y-87028444D01*
X151706458Y-87210072D01*
X151686496Y-87400000D01*
X151687186Y-87406565D01*
X151703996Y-87566500D01*
X151706458Y-87589928D01*
X151765473Y-87771556D01*
X151768776Y-87777278D01*
X151768777Y-87777279D01*
X151786568Y-87808093D01*
X151860960Y-87936944D01*
X151934137Y-88018215D01*
X151964853Y-88082221D01*
X151966500Y-88102524D01*
X151966500Y-88297476D01*
X151946498Y-88365597D01*
X151934142Y-88381779D01*
X151860960Y-88463056D01*
X151765473Y-88628444D01*
X151706458Y-88810072D01*
X151686496Y-89000000D01*
X130214103Y-89000000D01*
X130162684Y-88948581D01*
X130142660Y-88922486D01*
X130077757Y-88810072D01*
X130066421Y-88790437D01*
X129938634Y-88648515D01*
X129784133Y-88536263D01*
X129778105Y-88533579D01*
X129778103Y-88533578D01*
X129615700Y-88461272D01*
X129615699Y-88461272D01*
X129609669Y-88458587D01*
X129516268Y-88438734D01*
X129429325Y-88420253D01*
X129429320Y-88420253D01*
X129422868Y-88418881D01*
X129231894Y-88418881D01*
X129225442Y-88420253D01*
X129225437Y-88420253D01*
X129138494Y-88438734D01*
X129045093Y-88458587D01*
X129039063Y-88461272D01*
X129039062Y-88461272D01*
X128876659Y-88533578D01*
X128876657Y-88533579D01*
X128870629Y-88536263D01*
X128716128Y-88648515D01*
X128588341Y-88790437D01*
X128492854Y-88955825D01*
X128433839Y-89137453D01*
X128433149Y-89144014D01*
X128433149Y-89144016D01*
X128428324Y-89189928D01*
X128413877Y-89327381D01*
X123008500Y-89327381D01*
X123008500Y-85151152D01*
X159351844Y-85151152D01*
X159371806Y-85341080D01*
X159430821Y-85522708D01*
X159526308Y-85688096D01*
X159530726Y-85693003D01*
X159530727Y-85693004D01*
X159646096Y-85821134D01*
X159654095Y-85830018D01*
X159808596Y-85942270D01*
X159814624Y-85944954D01*
X159814626Y-85944955D01*
X159977029Y-86017261D01*
X159983060Y-86019946D01*
X160048666Y-86033891D01*
X160163404Y-86058280D01*
X160163409Y-86058280D01*
X160169861Y-86059652D01*
X160225754Y-86059652D01*
X160293875Y-86079654D01*
X160314849Y-86096557D01*
X161051210Y-86832918D01*
X161085236Y-86895230D01*
X161087425Y-86908842D01*
X161105768Y-87083365D01*
X161106458Y-87089928D01*
X161165473Y-87271556D01*
X161260960Y-87436944D01*
X161265378Y-87441851D01*
X161265379Y-87441852D01*
X161384325Y-87573955D01*
X161388747Y-87578866D01*
X161424489Y-87604834D01*
X161533289Y-87683882D01*
X161543248Y-87691118D01*
X161549276Y-87693802D01*
X161549278Y-87693803D01*
X161709799Y-87765271D01*
X161717712Y-87768794D01*
X161811112Y-87788647D01*
X161898056Y-87807128D01*
X161898061Y-87807128D01*
X161904513Y-87808500D01*
X162095487Y-87808500D01*
X162101939Y-87807128D01*
X162101944Y-87807128D01*
X162188888Y-87788647D01*
X162282288Y-87768794D01*
X162290201Y-87765271D01*
X162450722Y-87693803D01*
X162450724Y-87693802D01*
X162456752Y-87691118D01*
X162466712Y-87683882D01*
X162575511Y-87604834D01*
X162611253Y-87578866D01*
X162615675Y-87573955D01*
X162734621Y-87441852D01*
X162734622Y-87441851D01*
X162739040Y-87436944D01*
X162834527Y-87271556D01*
X162893542Y-87089928D01*
X162898596Y-87041847D01*
X162912814Y-86906565D01*
X162913504Y-86900000D01*
X162909105Y-86858148D01*
X162894232Y-86716635D01*
X162894232Y-86716633D01*
X162893542Y-86710072D01*
X162834527Y-86528444D01*
X162813990Y-86492872D01*
X162742341Y-86368774D01*
X162739040Y-86363056D01*
X162697243Y-86316635D01*
X162615675Y-86226045D01*
X162615674Y-86226044D01*
X162611253Y-86221134D01*
X162456752Y-86108882D01*
X162450724Y-86106198D01*
X162450722Y-86106197D01*
X162288319Y-86033891D01*
X162288318Y-86033891D01*
X162282288Y-86031206D01*
X162188887Y-86011353D01*
X162101944Y-85992872D01*
X162101939Y-85992872D01*
X162095487Y-85991500D01*
X162053791Y-85991500D01*
X161985670Y-85971498D01*
X161964696Y-85954595D01*
X161212470Y-85202369D01*
X161178444Y-85140057D01*
X161176255Y-85126444D01*
X161159580Y-84967787D01*
X161159580Y-84967785D01*
X161158890Y-84961224D01*
X161099875Y-84779596D01*
X161004388Y-84614208D01*
X160876601Y-84472286D01*
X160722100Y-84360034D01*
X160716072Y-84357350D01*
X160716070Y-84357349D01*
X160553667Y-84285043D01*
X160553666Y-84285043D01*
X160547636Y-84282358D01*
X160454235Y-84262505D01*
X160367292Y-84244024D01*
X160367287Y-84244024D01*
X160360835Y-84242652D01*
X160169861Y-84242652D01*
X160163409Y-84244024D01*
X160163404Y-84244024D01*
X160076460Y-84262505D01*
X159983060Y-84282358D01*
X159977030Y-84285043D01*
X159977029Y-84285043D01*
X159814626Y-84357349D01*
X159814624Y-84357350D01*
X159808596Y-84360034D01*
X159654095Y-84472286D01*
X159526308Y-84614208D01*
X159430821Y-84779596D01*
X159371806Y-84961224D01*
X159351844Y-85151152D01*
X123008500Y-85151152D01*
X123008500Y-83659654D01*
X130445618Y-83659654D01*
X130452673Y-83669627D01*
X130483679Y-83695551D01*
X130490598Y-83700579D01*
X130715272Y-83841515D01*
X130722807Y-83845556D01*
X130964520Y-83954694D01*
X130972551Y-83957680D01*
X131226832Y-84033002D01*
X131235184Y-84034869D01*
X131497340Y-84074984D01*
X131505874Y-84075700D01*
X131771045Y-84079867D01*
X131779596Y-84079418D01*
X132042883Y-84047557D01*
X132051284Y-84045955D01*
X132307824Y-83978653D01*
X132315926Y-83975926D01*
X132560949Y-83874434D01*
X132568617Y-83870628D01*
X132797598Y-83736822D01*
X132804679Y-83732009D01*
X132884655Y-83669301D01*
X132891545Y-83659654D01*
X136125618Y-83659654D01*
X136132673Y-83669627D01*
X136163679Y-83695551D01*
X136170598Y-83700579D01*
X136395272Y-83841515D01*
X136402807Y-83845556D01*
X136644520Y-83954694D01*
X136652551Y-83957680D01*
X136906832Y-84033002D01*
X136915184Y-84034869D01*
X137177340Y-84074984D01*
X137185874Y-84075700D01*
X137451045Y-84079867D01*
X137459596Y-84079418D01*
X137722883Y-84047557D01*
X137731284Y-84045955D01*
X137987824Y-83978653D01*
X137995926Y-83975926D01*
X138240949Y-83874434D01*
X138248617Y-83870628D01*
X138477598Y-83736822D01*
X138484679Y-83732009D01*
X138564655Y-83669301D01*
X138573125Y-83657442D01*
X138566608Y-83645818D01*
X137362812Y-82442022D01*
X137348868Y-82434408D01*
X137347035Y-82434539D01*
X137340420Y-82438790D01*
X136132910Y-83646300D01*
X136125618Y-83659654D01*
X132891545Y-83659654D01*
X132893125Y-83657442D01*
X132886608Y-83645818D01*
X131682812Y-82442022D01*
X131668868Y-82434408D01*
X131667035Y-82434539D01*
X131660420Y-82438790D01*
X130452910Y-83646300D01*
X130445618Y-83659654D01*
X123008500Y-83659654D01*
X123008500Y-82053204D01*
X129657665Y-82053204D01*
X129672932Y-82317969D01*
X129674005Y-82326470D01*
X129725065Y-82586722D01*
X129727276Y-82594974D01*
X129813184Y-82845894D01*
X129816499Y-82853779D01*
X129935664Y-83090713D01*
X129940020Y-83098079D01*
X130069347Y-83286250D01*
X130079601Y-83294594D01*
X130093342Y-83287448D01*
X131297978Y-82082812D01*
X131304356Y-82071132D01*
X132034408Y-82071132D01*
X132034539Y-82072965D01*
X132038790Y-82079580D01*
X133245730Y-83286520D01*
X133257939Y-83293187D01*
X133269439Y-83284497D01*
X133366831Y-83151913D01*
X133371418Y-83144685D01*
X133497962Y-82911621D01*
X133501530Y-82903827D01*
X133595271Y-82655750D01*
X133597748Y-82647544D01*
X133656954Y-82389038D01*
X133658294Y-82380577D01*
X133682031Y-82114616D01*
X133682277Y-82109677D01*
X133682666Y-82072485D01*
X133682523Y-82067519D01*
X133681547Y-82053204D01*
X135337665Y-82053204D01*
X135352932Y-82317969D01*
X135354005Y-82326470D01*
X135405065Y-82586722D01*
X135407276Y-82594974D01*
X135493184Y-82845894D01*
X135496499Y-82853779D01*
X135615664Y-83090713D01*
X135620020Y-83098079D01*
X135749347Y-83286250D01*
X135759601Y-83294594D01*
X135773342Y-83287448D01*
X136977978Y-82082812D01*
X136984356Y-82071132D01*
X137714408Y-82071132D01*
X137714539Y-82072965D01*
X137718790Y-82079580D01*
X138925730Y-83286520D01*
X138937939Y-83293187D01*
X138949439Y-83284497D01*
X139046831Y-83151913D01*
X139051418Y-83144685D01*
X139177962Y-82911621D01*
X139181530Y-82903827D01*
X139221751Y-82797386D01*
X172067759Y-82797386D01*
X172075216Y-82807753D01*
X172314935Y-83001874D01*
X172320272Y-83005751D01*
X172640685Y-83213830D01*
X172646394Y-83217127D01*
X172986811Y-83390578D01*
X172992836Y-83393260D01*
X173349502Y-83530171D01*
X173355784Y-83532212D01*
X173724816Y-83631094D01*
X173731266Y-83632465D01*
X174108629Y-83692234D01*
X174115167Y-83692920D01*
X174496699Y-83712916D01*
X174503301Y-83712916D01*
X174884833Y-83692920D01*
X174891371Y-83692234D01*
X175268734Y-83632465D01*
X175275184Y-83631094D01*
X175644216Y-83532212D01*
X175650498Y-83530171D01*
X176007164Y-83393260D01*
X176013189Y-83390578D01*
X176353606Y-83217127D01*
X176359315Y-83213830D01*
X176679728Y-83005751D01*
X176685065Y-83001874D01*
X176923835Y-82808522D01*
X176932300Y-82796267D01*
X176925966Y-82785176D01*
X174512812Y-80372022D01*
X174498868Y-80364408D01*
X174497035Y-80364539D01*
X174490420Y-80368790D01*
X172074900Y-82784310D01*
X172067759Y-82797386D01*
X139221751Y-82797386D01*
X139275271Y-82655750D01*
X139277748Y-82647544D01*
X139336954Y-82389038D01*
X139338294Y-82380577D01*
X139362031Y-82114616D01*
X139362277Y-82109677D01*
X139362666Y-82072485D01*
X139362523Y-82067519D01*
X139344362Y-81801123D01*
X139343201Y-81792649D01*
X139289419Y-81532944D01*
X139287120Y-81524709D01*
X139198588Y-81274705D01*
X139195191Y-81266854D01*
X139073550Y-81031178D01*
X139069122Y-81023866D01*
X138950031Y-80854417D01*
X138939509Y-80846037D01*
X138926121Y-80853089D01*
X137722022Y-82057188D01*
X137714408Y-82071132D01*
X136984356Y-82071132D01*
X136985592Y-82068868D01*
X136985461Y-82067035D01*
X136981210Y-82060420D01*
X135773814Y-80853024D01*
X135761804Y-80846466D01*
X135750064Y-80855434D01*
X135641935Y-81005911D01*
X135637418Y-81013196D01*
X135513325Y-81247567D01*
X135509839Y-81255395D01*
X135418700Y-81504446D01*
X135416311Y-81512670D01*
X135359812Y-81771795D01*
X135358563Y-81780250D01*
X135337754Y-82044653D01*
X135337665Y-82053204D01*
X133681547Y-82053204D01*
X133664362Y-81801123D01*
X133663201Y-81792649D01*
X133609419Y-81532944D01*
X133607120Y-81524709D01*
X133518588Y-81274705D01*
X133515191Y-81266854D01*
X133393550Y-81031178D01*
X133389122Y-81023866D01*
X133270031Y-80854417D01*
X133259509Y-80846037D01*
X133246121Y-80853089D01*
X132042022Y-82057188D01*
X132034408Y-82071132D01*
X131304356Y-82071132D01*
X131305592Y-82068868D01*
X131305461Y-82067035D01*
X131301210Y-82060420D01*
X130093814Y-80853024D01*
X130081804Y-80846466D01*
X130070064Y-80855434D01*
X129961935Y-81005911D01*
X129957418Y-81013196D01*
X129833325Y-81247567D01*
X129829839Y-81255395D01*
X129738700Y-81504446D01*
X129736311Y-81512670D01*
X129679812Y-81771795D01*
X129678563Y-81780250D01*
X129657754Y-82044653D01*
X129657665Y-82053204D01*
X123008500Y-82053204D01*
X123008500Y-80482500D01*
X130446584Y-80482500D01*
X130452980Y-80493770D01*
X131657188Y-81697978D01*
X131671132Y-81705592D01*
X131672965Y-81705461D01*
X131679580Y-81701210D01*
X132886604Y-80494186D01*
X132892985Y-80482500D01*
X136126584Y-80482500D01*
X136132980Y-80493770D01*
X137337188Y-81697978D01*
X137351132Y-81705592D01*
X137352965Y-81705461D01*
X137359580Y-81701210D01*
X138566604Y-80494186D01*
X138573795Y-80481017D01*
X138566473Y-80470780D01*
X138519233Y-80432115D01*
X138512261Y-80427160D01*
X138286122Y-80288582D01*
X138278552Y-80284624D01*
X138035704Y-80178022D01*
X138027644Y-80175120D01*
X137772585Y-80102464D01*
X137762788Y-80100382D01*
X137700314Y-80066654D01*
X137680028Y-80039239D01*
X137644090Y-80003301D01*
X170787084Y-80003301D01*
X170807080Y-80384833D01*
X170807766Y-80391371D01*
X170867535Y-80768734D01*
X170868906Y-80775184D01*
X170967788Y-81144216D01*
X170969829Y-81150498D01*
X171106740Y-81507164D01*
X171109422Y-81513189D01*
X171282872Y-81853603D01*
X171286169Y-81859313D01*
X171494253Y-82179735D01*
X171498123Y-82185061D01*
X171691478Y-82423835D01*
X171703733Y-82432300D01*
X171714824Y-82425966D01*
X174127978Y-80012812D01*
X174134356Y-80001132D01*
X174864408Y-80001132D01*
X174864539Y-80002965D01*
X174868790Y-80009580D01*
X177284310Y-82425100D01*
X177297386Y-82432241D01*
X177307753Y-82424784D01*
X177501877Y-82185061D01*
X177505747Y-82179735D01*
X177713831Y-81859313D01*
X177717128Y-81853603D01*
X177890578Y-81513189D01*
X177893260Y-81507164D01*
X178030171Y-81150498D01*
X178032212Y-81144216D01*
X178131094Y-80775184D01*
X178132465Y-80768734D01*
X178192234Y-80391371D01*
X178192920Y-80384833D01*
X178212916Y-80003301D01*
X178212916Y-79996699D01*
X178192920Y-79615167D01*
X178192234Y-79608629D01*
X178132465Y-79231266D01*
X178131094Y-79224816D01*
X178032212Y-78855784D01*
X178030171Y-78849502D01*
X177893260Y-78492836D01*
X177890578Y-78486811D01*
X177717128Y-78146397D01*
X177713831Y-78140687D01*
X177505747Y-77820265D01*
X177501877Y-77814939D01*
X177308522Y-77576165D01*
X177296267Y-77567700D01*
X177285176Y-77574034D01*
X174872022Y-79987188D01*
X174864408Y-80001132D01*
X174134356Y-80001132D01*
X174135592Y-79998868D01*
X174135461Y-79997035D01*
X174131210Y-79990420D01*
X171715690Y-77574900D01*
X171702614Y-77567759D01*
X171692247Y-77575216D01*
X171498123Y-77814939D01*
X171494253Y-77820265D01*
X171286169Y-78140687D01*
X171282872Y-78146397D01*
X171109422Y-78486811D01*
X171106740Y-78492836D01*
X170969829Y-78849502D01*
X170967788Y-78855784D01*
X170868906Y-79224816D01*
X170867535Y-79231266D01*
X170807766Y-79608629D01*
X170807080Y-79615167D01*
X170787084Y-79996699D01*
X170787084Y-80003301D01*
X137644090Y-80003301D01*
X137012811Y-79372021D01*
X136998868Y-79364408D01*
X136997034Y-79364539D01*
X136990420Y-79368790D01*
X136320820Y-80038391D01*
X136314393Y-80050161D01*
X136323687Y-80062175D01*
X136364097Y-80090470D01*
X136373571Y-80095940D01*
X136422564Y-80147323D01*
X136435999Y-80217037D01*
X136409612Y-80282947D01*
X136375277Y-80313174D01*
X136205007Y-80415079D01*
X136197981Y-80419962D01*
X136135053Y-80470377D01*
X136126584Y-80482500D01*
X132892985Y-80482500D01*
X132893795Y-80481017D01*
X132886473Y-80470780D01*
X132839233Y-80432115D01*
X132832261Y-80427160D01*
X132606122Y-80288582D01*
X132598552Y-80284624D01*
X132355704Y-80178022D01*
X132347644Y-80175120D01*
X132092592Y-80102467D01*
X132084214Y-80100685D01*
X131821656Y-80063318D01*
X131813111Y-80062691D01*
X131547908Y-80061302D01*
X131539374Y-80061839D01*
X131276433Y-80096456D01*
X131268035Y-80098149D01*
X131012238Y-80168127D01*
X131004143Y-80170946D01*
X130760199Y-80274997D01*
X130752577Y-80278881D01*
X130525013Y-80415075D01*
X130517981Y-80419962D01*
X130455053Y-80470377D01*
X130446584Y-80482500D01*
X123008500Y-80482500D01*
X123008500Y-80050161D01*
X133694393Y-80050161D01*
X133703687Y-80062175D01*
X133744088Y-80090464D01*
X133753584Y-80095947D01*
X133943113Y-80184326D01*
X133953405Y-80188072D01*
X134155401Y-80242196D01*
X134166196Y-80244099D01*
X134374525Y-80262326D01*
X134385475Y-80262326D01*
X134593804Y-80244099D01*
X134604599Y-80242196D01*
X134806595Y-80188072D01*
X134816887Y-80184326D01*
X135006416Y-80095947D01*
X135015912Y-80090464D01*
X135057148Y-80061590D01*
X135065523Y-80051112D01*
X135058457Y-80037668D01*
X134392811Y-79372021D01*
X134378868Y-79364408D01*
X134377034Y-79364539D01*
X134370420Y-79368790D01*
X133700820Y-80038391D01*
X133694393Y-80050161D01*
X123008500Y-80050161D01*
X123008500Y-79005475D01*
X133117674Y-79005475D01*
X133135901Y-79213804D01*
X133137804Y-79224599D01*
X133191928Y-79426595D01*
X133195674Y-79436887D01*
X133284054Y-79626417D01*
X133289534Y-79635907D01*
X133318411Y-79677149D01*
X133328887Y-79685523D01*
X133342334Y-79678455D01*
X134007979Y-79012811D01*
X134014356Y-79001132D01*
X134744408Y-79001132D01*
X134744539Y-79002966D01*
X134748790Y-79009580D01*
X135418391Y-79679180D01*
X135430161Y-79685607D01*
X135442176Y-79676311D01*
X135470466Y-79635907D01*
X135475946Y-79626417D01*
X135564326Y-79436887D01*
X135568073Y-79426591D01*
X135568293Y-79425771D01*
X135568488Y-79425450D01*
X135569955Y-79421421D01*
X135570765Y-79421716D01*
X135605243Y-79365148D01*
X135669103Y-79334125D01*
X135739598Y-79342552D01*
X135794345Y-79387754D01*
X135809767Y-79421522D01*
X135810045Y-79421421D01*
X135811319Y-79424922D01*
X135811707Y-79425771D01*
X135811927Y-79426591D01*
X135815674Y-79436887D01*
X135904054Y-79626417D01*
X135909534Y-79635907D01*
X135938411Y-79677149D01*
X135948887Y-79685523D01*
X135962334Y-79678455D01*
X136627979Y-79012811D01*
X136634356Y-79001132D01*
X137364408Y-79001132D01*
X137364539Y-79002966D01*
X137368790Y-79009580D01*
X138038391Y-79679180D01*
X138050161Y-79685607D01*
X138062176Y-79676311D01*
X138090466Y-79635907D01*
X138095946Y-79626417D01*
X138184326Y-79436887D01*
X138188072Y-79426595D01*
X138242196Y-79224599D01*
X138244099Y-79213804D01*
X138262326Y-79005475D01*
X138262326Y-78994525D01*
X138244099Y-78786196D01*
X138242196Y-78775401D01*
X138188072Y-78573405D01*
X138184326Y-78563113D01*
X138095946Y-78373583D01*
X138090466Y-78364093D01*
X138061589Y-78322851D01*
X138051113Y-78314477D01*
X138037666Y-78321545D01*
X137372021Y-78987189D01*
X137364408Y-79001132D01*
X136634356Y-79001132D01*
X136635592Y-78998868D01*
X136635461Y-78997034D01*
X136631210Y-78990420D01*
X135961609Y-78320820D01*
X135949839Y-78314393D01*
X135937824Y-78323689D01*
X135909534Y-78364093D01*
X135904054Y-78373583D01*
X135815674Y-78563113D01*
X135811927Y-78573409D01*
X135811707Y-78574229D01*
X135811512Y-78574550D01*
X135810045Y-78578579D01*
X135809235Y-78578284D01*
X135774757Y-78634852D01*
X135710897Y-78665875D01*
X135640402Y-78657448D01*
X135585655Y-78612246D01*
X135570233Y-78578478D01*
X135569955Y-78578579D01*
X135568681Y-78575078D01*
X135568293Y-78574229D01*
X135568073Y-78573409D01*
X135564326Y-78563113D01*
X135475946Y-78373583D01*
X135470466Y-78364093D01*
X135441589Y-78322851D01*
X135431113Y-78314477D01*
X135417666Y-78321545D01*
X134752021Y-78987189D01*
X134744408Y-79001132D01*
X134014356Y-79001132D01*
X134015592Y-78998868D01*
X134015461Y-78997034D01*
X134011210Y-78990420D01*
X133341609Y-78320820D01*
X133329839Y-78314393D01*
X133317824Y-78323689D01*
X133289534Y-78364093D01*
X133284054Y-78373583D01*
X133195674Y-78563113D01*
X133191928Y-78573405D01*
X133137804Y-78775401D01*
X133135901Y-78786196D01*
X133117674Y-78994525D01*
X133117674Y-79005475D01*
X123008500Y-79005475D01*
X123008500Y-76536724D01*
X131023220Y-76536724D01*
X131043182Y-76726652D01*
X131102197Y-76908280D01*
X131197684Y-77073668D01*
X131202102Y-77078575D01*
X131202103Y-77078576D01*
X131249894Y-77131653D01*
X131325471Y-77215590D01*
X131479972Y-77327842D01*
X131486000Y-77330526D01*
X131486002Y-77330527D01*
X131648405Y-77402833D01*
X131654436Y-77405518D01*
X131747837Y-77425371D01*
X131834780Y-77443852D01*
X131834785Y-77443852D01*
X131841237Y-77445224D01*
X132032211Y-77445224D01*
X132038663Y-77443852D01*
X132038668Y-77443852D01*
X132125611Y-77425371D01*
X132219012Y-77405518D01*
X132225043Y-77402833D01*
X132387446Y-77330527D01*
X132387448Y-77330526D01*
X132393476Y-77327842D01*
X132547977Y-77215590D01*
X132623554Y-77131653D01*
X132671345Y-77078576D01*
X132671346Y-77078575D01*
X132675764Y-77073668D01*
X132771251Y-76908280D01*
X132830266Y-76726652D01*
X132847631Y-76561430D01*
X132874644Y-76495774D01*
X132883846Y-76485506D01*
X132905728Y-76463624D01*
X132968040Y-76429598D01*
X133038855Y-76434663D01*
X133095691Y-76477210D01*
X133120344Y-76541737D01*
X133135885Y-76719371D01*
X133192880Y-76932076D01*
X133195205Y-76937061D01*
X133283618Y-77126666D01*
X133283621Y-77126671D01*
X133285944Y-77131653D01*
X133289100Y-77136160D01*
X133289101Y-77136162D01*
X133341279Y-77210679D01*
X133412251Y-77312038D01*
X133567962Y-77467749D01*
X133748346Y-77594056D01*
X133753328Y-77596379D01*
X133753333Y-77596382D01*
X133838469Y-77636081D01*
X133891754Y-77682998D01*
X133911215Y-77751276D01*
X133890673Y-77819235D01*
X133838469Y-77864471D01*
X133753583Y-77904054D01*
X133744093Y-77909534D01*
X133702851Y-77938411D01*
X133694477Y-77948887D01*
X133701545Y-77962334D01*
X134367189Y-78627979D01*
X134381132Y-78635592D01*
X134382966Y-78635461D01*
X134389580Y-78631210D01*
X135059180Y-77961609D01*
X135065607Y-77949839D01*
X135056313Y-77937825D01*
X135015912Y-77909536D01*
X135006416Y-77904053D01*
X134921531Y-77864471D01*
X134868246Y-77817554D01*
X134848785Y-77749276D01*
X134869327Y-77681316D01*
X134921531Y-77636081D01*
X135006667Y-77596382D01*
X135006672Y-77596379D01*
X135011654Y-77594056D01*
X135192038Y-77467749D01*
X135347749Y-77312038D01*
X135418722Y-77210679D01*
X135470899Y-77136162D01*
X135470900Y-77136160D01*
X135474056Y-77131653D01*
X135476379Y-77126671D01*
X135476382Y-77126666D01*
X135564795Y-76937061D01*
X135567120Y-76932076D01*
X135568544Y-76926763D01*
X135570426Y-76921592D01*
X135571728Y-76922066D01*
X135605243Y-76867078D01*
X135669103Y-76836055D01*
X135739598Y-76844482D01*
X135794346Y-76889684D01*
X135809011Y-76921797D01*
X135809574Y-76921592D01*
X135811456Y-76926763D01*
X135812880Y-76932076D01*
X135815205Y-76937061D01*
X135903618Y-77126666D01*
X135903621Y-77126671D01*
X135905944Y-77131653D01*
X135909100Y-77136160D01*
X135909101Y-77136162D01*
X135961279Y-77210679D01*
X136032251Y-77312038D01*
X136187962Y-77467749D01*
X136368346Y-77594056D01*
X136373328Y-77596379D01*
X136373333Y-77596382D01*
X136458469Y-77636081D01*
X136511754Y-77682998D01*
X136531215Y-77751276D01*
X136510673Y-77819235D01*
X136458469Y-77864471D01*
X136373583Y-77904054D01*
X136364093Y-77909534D01*
X136322851Y-77938411D01*
X136314477Y-77948887D01*
X136321545Y-77962334D01*
X136987189Y-78627979D01*
X137001132Y-78635592D01*
X137002966Y-78635461D01*
X137009580Y-78631210D01*
X137679180Y-77961609D01*
X137685607Y-77949839D01*
X137676313Y-77937825D01*
X137635912Y-77909536D01*
X137626416Y-77904053D01*
X137541531Y-77864471D01*
X137488246Y-77817554D01*
X137468785Y-77749276D01*
X137489327Y-77681316D01*
X137541531Y-77636081D01*
X137626667Y-77596382D01*
X137626672Y-77596379D01*
X137631654Y-77594056D01*
X137812038Y-77467749D01*
X137967749Y-77312038D01*
X138038722Y-77210679D01*
X138043586Y-77203733D01*
X172067700Y-77203733D01*
X172074034Y-77214824D01*
X174487188Y-79627978D01*
X174501132Y-79635592D01*
X174502965Y-79635461D01*
X174509580Y-79631210D01*
X176925100Y-77215690D01*
X176932241Y-77202614D01*
X176924784Y-77192247D01*
X176685065Y-76998126D01*
X176679728Y-76994249D01*
X176359315Y-76786170D01*
X176353606Y-76782873D01*
X176013189Y-76609422D01*
X176007164Y-76606740D01*
X175650498Y-76469829D01*
X175644216Y-76467788D01*
X175275184Y-76368906D01*
X175268734Y-76367535D01*
X174891371Y-76307766D01*
X174884833Y-76307080D01*
X174503301Y-76287084D01*
X174496699Y-76287084D01*
X174115167Y-76307080D01*
X174108629Y-76307766D01*
X173731266Y-76367535D01*
X173724816Y-76368906D01*
X173355784Y-76467788D01*
X173349502Y-76469829D01*
X172992836Y-76606740D01*
X172986811Y-76609422D01*
X172646397Y-76782872D01*
X172640687Y-76786169D01*
X172320265Y-76994253D01*
X172314939Y-76998123D01*
X172076165Y-77191478D01*
X172067700Y-77203733D01*
X138043586Y-77203733D01*
X138090899Y-77136162D01*
X138090900Y-77136160D01*
X138094056Y-77131653D01*
X138096379Y-77126671D01*
X138096382Y-77126666D01*
X138184795Y-76937061D01*
X138187120Y-76932076D01*
X138244115Y-76719371D01*
X138263307Y-76500000D01*
X138244115Y-76280629D01*
X138187120Y-76067924D01*
X138140169Y-75967236D01*
X138096382Y-75873334D01*
X138096379Y-75873329D01*
X138094056Y-75868347D01*
X138073437Y-75838900D01*
X137970908Y-75692473D01*
X137970906Y-75692470D01*
X137967749Y-75687962D01*
X137868882Y-75589095D01*
X137834856Y-75526783D01*
X137839921Y-75455968D01*
X137868882Y-75410905D01*
X137967749Y-75312038D01*
X138005617Y-75257958D01*
X138090899Y-75136162D01*
X138090900Y-75136160D01*
X138094056Y-75131653D01*
X138096379Y-75126671D01*
X138096382Y-75126666D01*
X138151381Y-75008719D01*
X138187120Y-74932076D01*
X138244115Y-74719371D01*
X138263307Y-74500000D01*
X138244115Y-74280629D01*
X138187120Y-74067924D01*
X138143585Y-73974562D01*
X138096382Y-73873334D01*
X138096379Y-73873329D01*
X138094056Y-73868347D01*
X137967749Y-73687962D01*
X137812038Y-73532251D01*
X137807527Y-73529092D01*
X137746317Y-73486232D01*
X137701989Y-73430774D01*
X137694680Y-73360155D01*
X137726711Y-73296795D01*
X137787913Y-73260810D01*
X137804978Y-73257756D01*
X137816757Y-73256477D01*
X137852460Y-73252599D01*
X137852464Y-73252598D01*
X137860316Y-73251745D01*
X137996705Y-73200615D01*
X138113261Y-73113261D01*
X138200615Y-72996705D01*
X138251745Y-72860316D01*
X138258500Y-72798134D01*
X138258500Y-71201866D01*
X138251745Y-71139684D01*
X138200615Y-71003295D01*
X138195230Y-70996110D01*
X138195229Y-70996108D01*
X138153735Y-70940743D01*
X138128887Y-70874236D01*
X138143940Y-70804854D01*
X138194114Y-70754624D01*
X138206342Y-70748770D01*
X138240942Y-70734438D01*
X138248617Y-70730628D01*
X138477598Y-70596822D01*
X138484679Y-70592009D01*
X138564655Y-70529301D01*
X138573125Y-70517442D01*
X138566608Y-70505818D01*
X137362812Y-69302022D01*
X137348868Y-69294408D01*
X137347035Y-69294539D01*
X137340420Y-69298790D01*
X136132910Y-70506300D01*
X136125618Y-70519654D01*
X136132673Y-70529626D01*
X136149462Y-70543664D01*
X136188891Y-70602705D01*
X136190140Y-70673691D01*
X136152814Y-70734083D01*
X136112867Y-70758308D01*
X136011705Y-70796232D01*
X136011704Y-70796233D01*
X136003295Y-70799385D01*
X135886739Y-70886739D01*
X135799385Y-71003295D01*
X135748255Y-71139684D01*
X135741500Y-71201866D01*
X135741500Y-71373533D01*
X135721498Y-71441654D01*
X135667842Y-71488147D01*
X135597568Y-71498251D01*
X135532988Y-71468757D01*
X135501305Y-71426783D01*
X135476382Y-71373334D01*
X135476379Y-71373329D01*
X135474056Y-71368347D01*
X135470899Y-71363838D01*
X135350908Y-71192473D01*
X135350906Y-71192470D01*
X135347749Y-71187962D01*
X135192038Y-71032251D01*
X135011654Y-70905944D01*
X134812076Y-70812880D01*
X134599371Y-70755885D01*
X134380000Y-70736693D01*
X134160629Y-70755885D01*
X133947924Y-70812880D01*
X133854562Y-70856415D01*
X133753334Y-70903618D01*
X133753329Y-70903621D01*
X133748347Y-70905944D01*
X133743840Y-70909100D01*
X133743838Y-70909101D01*
X133572473Y-71029092D01*
X133572470Y-71029094D01*
X133567962Y-71032251D01*
X133412251Y-71187962D01*
X133409094Y-71192470D01*
X133409092Y-71192473D01*
X133289101Y-71363838D01*
X133285944Y-71368347D01*
X133283621Y-71373329D01*
X133283618Y-71373334D01*
X133258695Y-71426783D01*
X133192880Y-71567924D01*
X133135885Y-71780629D01*
X133116693Y-72000000D01*
X133135885Y-72219371D01*
X133192880Y-72432076D01*
X133195205Y-72437061D01*
X133283618Y-72626666D01*
X133283621Y-72626671D01*
X133285944Y-72631653D01*
X133289100Y-72636160D01*
X133289101Y-72636162D01*
X133400123Y-72794717D01*
X133412251Y-72812038D01*
X133567962Y-72967749D01*
X133748346Y-73094056D01*
X133753331Y-73096380D01*
X133753337Y-73096384D01*
X133837877Y-73135805D01*
X133891163Y-73182722D01*
X133910624Y-73250999D01*
X133890082Y-73318959D01*
X133837878Y-73364195D01*
X133753334Y-73403618D01*
X133753329Y-73403621D01*
X133748347Y-73405944D01*
X133743840Y-73409100D01*
X133743838Y-73409101D01*
X133572473Y-73529092D01*
X133572470Y-73529094D01*
X133567962Y-73532251D01*
X133412251Y-73687962D01*
X133285944Y-73868347D01*
X133283621Y-73873329D01*
X133283618Y-73873334D01*
X133236415Y-73974562D01*
X133192880Y-74067924D01*
X133135885Y-74280629D01*
X133135406Y-74286106D01*
X133135406Y-74286107D01*
X133124443Y-74411413D01*
X133098580Y-74477531D01*
X133088017Y-74489526D01*
X131986224Y-75591319D01*
X131923912Y-75625345D01*
X131897129Y-75628224D01*
X131841237Y-75628224D01*
X131834785Y-75629596D01*
X131834780Y-75629596D01*
X131747836Y-75648077D01*
X131654436Y-75667930D01*
X131648406Y-75670615D01*
X131648405Y-75670615D01*
X131486002Y-75742921D01*
X131486000Y-75742922D01*
X131479972Y-75745606D01*
X131325471Y-75857858D01*
X131321050Y-75862768D01*
X131321049Y-75862769D01*
X131205337Y-75991281D01*
X131197684Y-75999780D01*
X131102197Y-76165168D01*
X131043182Y-76346796D01*
X131023220Y-76536724D01*
X123008500Y-76536724D01*
X123008500Y-70519654D01*
X130445618Y-70519654D01*
X130452673Y-70529627D01*
X130483679Y-70555551D01*
X130490598Y-70560579D01*
X130715272Y-70701515D01*
X130722807Y-70705556D01*
X130964520Y-70814694D01*
X130972551Y-70817680D01*
X131226832Y-70893002D01*
X131235184Y-70894869D01*
X131497340Y-70934984D01*
X131505874Y-70935700D01*
X131771045Y-70939867D01*
X131779596Y-70939418D01*
X132042883Y-70907557D01*
X132051284Y-70905955D01*
X132307824Y-70838653D01*
X132315926Y-70835926D01*
X132560949Y-70734434D01*
X132568617Y-70730628D01*
X132797598Y-70596822D01*
X132804679Y-70592009D01*
X132884655Y-70529301D01*
X132893125Y-70517442D01*
X132886608Y-70505818D01*
X131682812Y-69302022D01*
X131668868Y-69294408D01*
X131667035Y-69294539D01*
X131660420Y-69298790D01*
X130452910Y-70506300D01*
X130445618Y-70519654D01*
X123008500Y-70519654D01*
X123008500Y-68913204D01*
X129657665Y-68913204D01*
X129672932Y-69177969D01*
X129674005Y-69186470D01*
X129725065Y-69446722D01*
X129727276Y-69454974D01*
X129813184Y-69705894D01*
X129816499Y-69713779D01*
X129935664Y-69950713D01*
X129940020Y-69958079D01*
X130069347Y-70146250D01*
X130079601Y-70154594D01*
X130093342Y-70147448D01*
X131297978Y-68942812D01*
X131304356Y-68931132D01*
X132034408Y-68931132D01*
X132034539Y-68932965D01*
X132038790Y-68939580D01*
X133245730Y-70146520D01*
X133257939Y-70153187D01*
X133269439Y-70144497D01*
X133366831Y-70011913D01*
X133371418Y-70004685D01*
X133497962Y-69771621D01*
X133501530Y-69763827D01*
X133595271Y-69515750D01*
X133597748Y-69507544D01*
X133656954Y-69249038D01*
X133658294Y-69240577D01*
X133682031Y-68974616D01*
X133682277Y-68969677D01*
X133682666Y-68932485D01*
X133682523Y-68927519D01*
X133681547Y-68913204D01*
X135337665Y-68913204D01*
X135352932Y-69177969D01*
X135354005Y-69186470D01*
X135405065Y-69446722D01*
X135407276Y-69454974D01*
X135493184Y-69705894D01*
X135496499Y-69713779D01*
X135615664Y-69950713D01*
X135620020Y-69958079D01*
X135749347Y-70146250D01*
X135759601Y-70154594D01*
X135773342Y-70147448D01*
X136977978Y-68942812D01*
X136984356Y-68931132D01*
X137714408Y-68931132D01*
X137714539Y-68932965D01*
X137718790Y-68939580D01*
X138925730Y-70146520D01*
X138937939Y-70153187D01*
X138949439Y-70144497D01*
X139046831Y-70011913D01*
X139051418Y-70004685D01*
X139177962Y-69771621D01*
X139181530Y-69763827D01*
X139275271Y-69515750D01*
X139277748Y-69507544D01*
X139336954Y-69249038D01*
X139338294Y-69240577D01*
X139362031Y-68974616D01*
X139362277Y-68969677D01*
X139362666Y-68932485D01*
X139362523Y-68927519D01*
X139344362Y-68661123D01*
X139343201Y-68652649D01*
X139289419Y-68392944D01*
X139287120Y-68384709D01*
X139198588Y-68134705D01*
X139195191Y-68126854D01*
X139073550Y-67891178D01*
X139069122Y-67883866D01*
X138950031Y-67714417D01*
X138939509Y-67706037D01*
X138926121Y-67713089D01*
X137722022Y-68917188D01*
X137714408Y-68931132D01*
X136984356Y-68931132D01*
X136985592Y-68928868D01*
X136985461Y-68927035D01*
X136981210Y-68920420D01*
X135773814Y-67713024D01*
X135761804Y-67706466D01*
X135750064Y-67715434D01*
X135641935Y-67865911D01*
X135637418Y-67873196D01*
X135513325Y-68107567D01*
X135509839Y-68115395D01*
X135418700Y-68364446D01*
X135416311Y-68372670D01*
X135359812Y-68631795D01*
X135358563Y-68640250D01*
X135337754Y-68904653D01*
X135337665Y-68913204D01*
X133681547Y-68913204D01*
X133664362Y-68661123D01*
X133663201Y-68652649D01*
X133609419Y-68392944D01*
X133607120Y-68384709D01*
X133518588Y-68134705D01*
X133515191Y-68126854D01*
X133393550Y-67891178D01*
X133389122Y-67883866D01*
X133270031Y-67714417D01*
X133259509Y-67706037D01*
X133246121Y-67713089D01*
X132042022Y-68917188D01*
X132034408Y-68931132D01*
X131304356Y-68931132D01*
X131305592Y-68928868D01*
X131305461Y-68927035D01*
X131301210Y-68920420D01*
X130093814Y-67713024D01*
X130081804Y-67706466D01*
X130070064Y-67715434D01*
X129961935Y-67865911D01*
X129957418Y-67873196D01*
X129833325Y-68107567D01*
X129829839Y-68115395D01*
X129738700Y-68364446D01*
X129736311Y-68372670D01*
X129679812Y-68631795D01*
X129678563Y-68640250D01*
X129657754Y-68904653D01*
X129657665Y-68913204D01*
X123008500Y-68913204D01*
X123008500Y-66797386D01*
X124567759Y-66797386D01*
X124575216Y-66807753D01*
X124814935Y-67001874D01*
X124820272Y-67005751D01*
X125140685Y-67213830D01*
X125146394Y-67217127D01*
X125486811Y-67390578D01*
X125492836Y-67393260D01*
X125849502Y-67530171D01*
X125855784Y-67532212D01*
X126224816Y-67631094D01*
X126231266Y-67632465D01*
X126608629Y-67692234D01*
X126615167Y-67692920D01*
X126996699Y-67712916D01*
X127003301Y-67712916D01*
X127384833Y-67692920D01*
X127391371Y-67692234D01*
X127768734Y-67632465D01*
X127775184Y-67631094D01*
X128144216Y-67532212D01*
X128150498Y-67530171D01*
X128507164Y-67393260D01*
X128513189Y-67390578D01*
X128607547Y-67342500D01*
X130446584Y-67342500D01*
X130452980Y-67353770D01*
X131657188Y-68557978D01*
X131671132Y-68565592D01*
X131672965Y-68565461D01*
X131679580Y-68561210D01*
X132886604Y-67354186D01*
X132892985Y-67342500D01*
X136126584Y-67342500D01*
X136132980Y-67353770D01*
X137337188Y-68557978D01*
X137351132Y-68565592D01*
X137352965Y-68565461D01*
X137359580Y-68561210D01*
X138566604Y-67354186D01*
X138573795Y-67341017D01*
X138566473Y-67330780D01*
X138519233Y-67292115D01*
X138512261Y-67287160D01*
X138286122Y-67148582D01*
X138278552Y-67144624D01*
X138035704Y-67038022D01*
X138027644Y-67035120D01*
X137772592Y-66962467D01*
X137764214Y-66960685D01*
X137501656Y-66923318D01*
X137493111Y-66922691D01*
X137227908Y-66921302D01*
X137219374Y-66921839D01*
X136956433Y-66956456D01*
X136948035Y-66958149D01*
X136692238Y-67028127D01*
X136684143Y-67030946D01*
X136440199Y-67134997D01*
X136432577Y-67138881D01*
X136205013Y-67275075D01*
X136197981Y-67279962D01*
X136135053Y-67330377D01*
X136126584Y-67342500D01*
X132892985Y-67342500D01*
X132893795Y-67341017D01*
X132886473Y-67330780D01*
X132839233Y-67292115D01*
X132832261Y-67287160D01*
X132606122Y-67148582D01*
X132598552Y-67144624D01*
X132355704Y-67038022D01*
X132347644Y-67035120D01*
X132092592Y-66962467D01*
X132084214Y-66960685D01*
X131821656Y-66923318D01*
X131813111Y-66922691D01*
X131547908Y-66921302D01*
X131539374Y-66921839D01*
X131276433Y-66956456D01*
X131268035Y-66958149D01*
X131012238Y-67028127D01*
X131004143Y-67030946D01*
X130760199Y-67134997D01*
X130752577Y-67138881D01*
X130525013Y-67275075D01*
X130517981Y-67279962D01*
X130455053Y-67330377D01*
X130446584Y-67342500D01*
X128607547Y-67342500D01*
X128853606Y-67217127D01*
X128859315Y-67213830D01*
X129179728Y-67005751D01*
X129185065Y-67001874D01*
X129423835Y-66808522D01*
X129432300Y-66796267D01*
X129425966Y-66785176D01*
X127012812Y-64372022D01*
X126998868Y-64364408D01*
X126997035Y-64364539D01*
X126990420Y-64368790D01*
X124574900Y-66784310D01*
X124567759Y-66797386D01*
X123008500Y-66797386D01*
X123008500Y-64003301D01*
X123287084Y-64003301D01*
X123307080Y-64384833D01*
X123307766Y-64391371D01*
X123367535Y-64768734D01*
X123368906Y-64775184D01*
X123467788Y-65144216D01*
X123469829Y-65150498D01*
X123606740Y-65507164D01*
X123609422Y-65513189D01*
X123782872Y-65853603D01*
X123786169Y-65859313D01*
X123994253Y-66179735D01*
X123998123Y-66185061D01*
X124191478Y-66423835D01*
X124203733Y-66432300D01*
X124214824Y-66425966D01*
X126627978Y-64012812D01*
X126634356Y-64001132D01*
X127364408Y-64001132D01*
X127364539Y-64002965D01*
X127368790Y-64009580D01*
X129784310Y-66425100D01*
X129797386Y-66432241D01*
X129807753Y-66424784D01*
X130001877Y-66185061D01*
X130005747Y-66179735D01*
X130213831Y-65859313D01*
X130217128Y-65853603D01*
X130390578Y-65513189D01*
X130393260Y-65507164D01*
X130530171Y-65150498D01*
X130532212Y-65144216D01*
X130631094Y-64775184D01*
X130632465Y-64768734D01*
X130692234Y-64391371D01*
X130692920Y-64384833D01*
X130712916Y-64003301D01*
X130712916Y-63996699D01*
X130692920Y-63615167D01*
X130692234Y-63608629D01*
X130632465Y-63231266D01*
X130631094Y-63224816D01*
X130532212Y-62855784D01*
X130530171Y-62849502D01*
X130393260Y-62492836D01*
X130390578Y-62486811D01*
X130217128Y-62146397D01*
X130213831Y-62140687D01*
X130005747Y-61820265D01*
X130001877Y-61814939D01*
X129808522Y-61576165D01*
X129796267Y-61567700D01*
X129785176Y-61574034D01*
X127372022Y-63987188D01*
X127364408Y-64001132D01*
X126634356Y-64001132D01*
X126635592Y-63998868D01*
X126635461Y-63997035D01*
X126631210Y-63990420D01*
X124215690Y-61574900D01*
X124202614Y-61567759D01*
X124192247Y-61575216D01*
X123998123Y-61814939D01*
X123994253Y-61820265D01*
X123786169Y-62140687D01*
X123782872Y-62146397D01*
X123609422Y-62486811D01*
X123606740Y-62492836D01*
X123469829Y-62849502D01*
X123467788Y-62855784D01*
X123368906Y-63224816D01*
X123367535Y-63231266D01*
X123307766Y-63608629D01*
X123307080Y-63615167D01*
X123287084Y-63996699D01*
X123287084Y-64003301D01*
X123008500Y-64003301D01*
X123008500Y-61203733D01*
X124567700Y-61203733D01*
X124574034Y-61214824D01*
X126987188Y-63627978D01*
X127001132Y-63635592D01*
X127002965Y-63635461D01*
X127009580Y-63631210D01*
X129425100Y-61215690D01*
X129432241Y-61202614D01*
X129424784Y-61192247D01*
X129185065Y-60998126D01*
X129179728Y-60994249D01*
X128859315Y-60786170D01*
X128853606Y-60782873D01*
X128513189Y-60609422D01*
X128507164Y-60606740D01*
X128150498Y-60469829D01*
X128144216Y-60467788D01*
X127775184Y-60368906D01*
X127768734Y-60367535D01*
X127391371Y-60307766D01*
X127384833Y-60307080D01*
X127003301Y-60287084D01*
X126996699Y-60287084D01*
X126615167Y-60307080D01*
X126608629Y-60307766D01*
X126231266Y-60367535D01*
X126224816Y-60368906D01*
X125855784Y-60467788D01*
X125849502Y-60469829D01*
X125492836Y-60606740D01*
X125486811Y-60609422D01*
X125146397Y-60782872D01*
X125140687Y-60786169D01*
X124820265Y-60994253D01*
X124814939Y-60998123D01*
X124576165Y-61191478D01*
X124567700Y-61203733D01*
X123008500Y-61203733D01*
X123008500Y-60134500D01*
X123028502Y-60066379D01*
X123082158Y-60019886D01*
X123134500Y-60008500D01*
X140237182Y-60008500D01*
X140305303Y-60028502D01*
G37*
%TD.AperFunction*%
%TD*%
M02*
