%TF.GenerationSoftware,KiCad,Pcbnew,(6.0.5)*%
%TF.CreationDate,2023-02-01T20:47:26-08:00*%
%TF.ProjectId,USBHub,55534248-7562-42e6-9b69-6361645f7063,rev?*%
%TF.SameCoordinates,Original*%
%TF.FileFunction,Copper,L1,Top*%
%TF.FilePolarity,Positive*%
%FSLAX46Y46*%
G04 Gerber Fmt 4.6, Leading zero omitted, Abs format (unit mm)*
G04 Created by KiCad (PCBNEW (6.0.5)) date 2023-02-01 20:47:26*
%MOMM*%
%LPD*%
G01*
G04 APERTURE LIST*
G04 Aperture macros list*
%AMRoundRect*
0 Rectangle with rounded corners*
0 $1 Rounding radius*
0 $2 $3 $4 $5 $6 $7 $8 $9 X,Y pos of 4 corners*
0 Add a 4 corners polygon primitive as box body*
4,1,4,$2,$3,$4,$5,$6,$7,$8,$9,$2,$3,0*
0 Add four circle primitives for the rounded corners*
1,1,$1+$1,$2,$3*
1,1,$1+$1,$4,$5*
1,1,$1+$1,$6,$7*
1,1,$1+$1,$8,$9*
0 Add four rect primitives between the rounded corners*
20,1,$1+$1,$2,$3,$4,$5,0*
20,1,$1+$1,$4,$5,$6,$7,0*
20,1,$1+$1,$6,$7,$8,$9,0*
20,1,$1+$1,$8,$9,$2,$3,0*%
G04 Aperture macros list end*
%TA.AperFunction,ComponentPad*%
%ADD10O,2.000000X1.700000*%
%TD*%
%TA.AperFunction,ComponentPad*%
%ADD11RoundRect,0.250000X0.750000X-0.600000X0.750000X0.600000X-0.750000X0.600000X-0.750000X-0.600000X0*%
%TD*%
%TA.AperFunction,ComponentPad*%
%ADD12C,3.500000*%
%TD*%
%TA.AperFunction,ComponentPad*%
%ADD13C,1.700000*%
%TD*%
%TA.AperFunction,ComponentPad*%
%ADD14R,1.700000X1.700000*%
%TD*%
%TA.AperFunction,ComponentPad*%
%ADD15C,3.000000*%
%TD*%
%TA.AperFunction,ComponentPad*%
%ADD16R,1.500000X1.500000*%
%TD*%
%TA.AperFunction,ComponentPad*%
%ADD17C,1.500000*%
%TD*%
%TA.AperFunction,ComponentPad*%
%ADD18C,0.800000*%
%TD*%
%TA.AperFunction,ComponentPad*%
%ADD19C,6.400000*%
%TD*%
%TA.AperFunction,SMDPad,CuDef*%
%ADD20R,3.325000X2.500000*%
%TD*%
%TA.AperFunction,SMDPad,CuDef*%
%ADD21R,0.700000X1.650000*%
%TD*%
%TA.AperFunction,SMDPad,CuDef*%
%ADD22O,1.500000X0.250000*%
%TD*%
%TA.AperFunction,SMDPad,CuDef*%
%ADD23O,0.250000X1.500000*%
%TD*%
%TA.AperFunction,SMDPad,CuDef*%
%ADD24RoundRect,0.237500X-0.250000X-0.237500X0.250000X-0.237500X0.250000X0.237500X-0.250000X0.237500X0*%
%TD*%
%TA.AperFunction,SMDPad,CuDef*%
%ADD25RoundRect,0.237500X-0.237500X0.250000X-0.237500X-0.250000X0.237500X-0.250000X0.237500X0.250000X0*%
%TD*%
%TA.AperFunction,SMDPad,CuDef*%
%ADD26RoundRect,0.237500X0.237500X-0.250000X0.237500X0.250000X-0.237500X0.250000X-0.237500X-0.250000X0*%
%TD*%
%TA.AperFunction,SMDPad,CuDef*%
%ADD27RoundRect,0.237500X-0.300000X-0.237500X0.300000X-0.237500X0.300000X0.237500X-0.300000X0.237500X0*%
%TD*%
%TA.AperFunction,SMDPad,CuDef*%
%ADD28RoundRect,0.237500X-0.237500X0.300000X-0.237500X-0.300000X0.237500X-0.300000X0.237500X0.300000X0*%
%TD*%
%TA.AperFunction,SMDPad,CuDef*%
%ADD29RoundRect,0.237500X0.300000X0.237500X-0.300000X0.237500X-0.300000X-0.237500X0.300000X-0.237500X0*%
%TD*%
%TA.AperFunction,SMDPad,CuDef*%
%ADD30RoundRect,0.237500X0.237500X-0.300000X0.237500X0.300000X-0.237500X0.300000X-0.237500X-0.300000X0*%
%TD*%
%TA.AperFunction,ViaPad*%
%ADD31C,0.800000*%
%TD*%
%TA.AperFunction,Conductor*%
%ADD32C,0.250000*%
%TD*%
%TA.AperFunction,Conductor*%
%ADD33C,0.700000*%
%TD*%
%TA.AperFunction,Conductor*%
%ADD34C,0.770000*%
%TD*%
G04 APERTURE END LIST*
D10*
%TO.P,J6,2*%
%TO.N,VD5*%
X174500000Y-93000000D03*
D11*
%TO.P,J6,1*%
%TO.N,GND*%
X174500000Y-95500000D03*
%TD*%
D12*
%TO.P,J3,5*%
%TO.N,GND*%
X167710000Y-113770000D03*
X167710000Y-101730000D03*
D13*
%TO.P,J3,4*%
X165000000Y-106500000D03*
%TO.P,J3,3*%
%TO.N,/DU+*%
X165000000Y-109000000D03*
%TO.P,J3,2*%
%TO.N,/DU-*%
X163000000Y-109000000D03*
D14*
%TO.P,J3,1*%
%TO.N,N/C*%
X163000000Y-106500000D03*
%TD*%
D15*
%TO.P,J1,9*%
%TO.N,GND*%
X137350000Y-82070000D03*
X137350000Y-68930000D03*
D16*
%TO.P,J1,1*%
%TO.N,VBUS*%
X137000000Y-72000000D03*
D17*
%TO.P,J1,2*%
%TO.N,/D4-*%
X137000000Y-74500000D03*
%TO.P,J1,3*%
%TO.N,/D4+*%
X137000000Y-76500000D03*
%TO.P,J1,4*%
%TO.N,GND*%
X137000000Y-79000000D03*
D15*
%TO.P,J1,9*%
X131670000Y-68930000D03*
X131670000Y-82070000D03*
D17*
%TO.P,J1,5*%
%TO.N,VBUS*%
X134380000Y-72000000D03*
%TO.P,J1,6*%
%TO.N,/D3-*%
X134380000Y-74500000D03*
%TO.P,J1,7*%
%TO.N,/D3+*%
X134380000Y-76500000D03*
%TO.P,J1,8*%
%TO.N,GND*%
X134380000Y-79000000D03*
%TD*%
D15*
%TO.P,J2,9*%
%TO.N,GND*%
X137350000Y-108070000D03*
X137350000Y-94930000D03*
D16*
%TO.P,J2,1*%
%TO.N,VBUS*%
X137000000Y-98000000D03*
D17*
%TO.P,J2,2*%
%TO.N,/D1-*%
X137000000Y-100500000D03*
%TO.P,J2,3*%
%TO.N,/D1+*%
X137000000Y-102500000D03*
%TO.P,J2,4*%
%TO.N,GND*%
X137000000Y-105000000D03*
D15*
%TO.P,J2,9*%
X131670000Y-94930000D03*
X131670000Y-108070000D03*
D17*
%TO.P,J2,5*%
%TO.N,VBUS*%
X134380000Y-98000000D03*
%TO.P,J2,6*%
%TO.N,/D2-*%
X134380000Y-100500000D03*
%TO.P,J2,7*%
%TO.N,/D2+*%
X134380000Y-102500000D03*
%TO.P,J2,8*%
%TO.N,GND*%
X134380000Y-105000000D03*
%TD*%
D18*
%TO.P,H4,1*%
%TO.N,GND*%
X158697056Y-110802944D03*
X157000000Y-110100000D03*
X155302944Y-110802944D03*
X154600000Y-112500000D03*
X155302944Y-114197056D03*
X157000000Y-114900000D03*
X158697056Y-114197056D03*
X159400000Y-112500000D03*
D19*
X157000000Y-112500000D03*
%TD*%
D18*
%TO.P,H3,1*%
%TO.N,GND*%
X128697056Y-110802944D03*
X127000000Y-110100000D03*
X125302944Y-110802944D03*
X124600000Y-112500000D03*
X125302944Y-114197056D03*
X127000000Y-114900000D03*
X128697056Y-114197056D03*
X129400000Y-112500000D03*
D19*
X127000000Y-112500000D03*
%TD*%
D18*
%TO.P,H2,1*%
%TO.N,GND*%
X176197056Y-78302944D03*
X174500000Y-77600000D03*
X172802944Y-78302944D03*
X172100000Y-80000000D03*
X172802944Y-81697056D03*
X174500000Y-82400000D03*
X176197056Y-81697056D03*
X176900000Y-80000000D03*
D19*
X174500000Y-80000000D03*
%TD*%
D18*
%TO.P,H1,1*%
%TO.N,GND*%
X128697056Y-62302944D03*
X127000000Y-61600000D03*
X125302944Y-62302944D03*
X124600000Y-64000000D03*
X125302944Y-65697056D03*
X127000000Y-66400000D03*
X128697056Y-65697056D03*
X129400000Y-64000000D03*
D19*
X127000000Y-64000000D03*
%TD*%
D20*
%TO.P,Y1,2*%
%TO.N,Net-(U1-Pad12)*%
X147087500Y-74000000D03*
%TO.P,Y1,1*%
%TO.N,Net-(U1-Pad11)*%
X152912500Y-74000000D03*
%TD*%
D21*
%TO.P,U2,4*%
%TO.N,POWER_EN*%
X170905000Y-89200000D03*
%TO.P,U2,5*%
%TO.N,OVER_CURRENT*%
X170905000Y-83800000D03*
%TO.P,U2,3*%
%TO.N,VD5*%
X169635000Y-89200000D03*
%TO.P,U2,6*%
%TO.N,VBUS*%
X169635000Y-83800000D03*
%TO.P,U2,2*%
%TO.N,VD5*%
X168365000Y-89200000D03*
%TO.P,U2,7*%
%TO.N,VBUS*%
X168365000Y-83800000D03*
%TO.P,U2,1*%
%TO.N,GND*%
X167095000Y-89200000D03*
%TO.P,U2,8*%
%TO.N,N/C*%
X167095000Y-83800000D03*
%TD*%
D22*
%TO.P,U1,48*%
%TO.N,OVER_CURRENT*%
X157500000Y-83250000D03*
%TO.P,U1,47*%
%TO.N,POWER_EN*%
X157500000Y-83750000D03*
%TO.P,U1,46*%
%TO.N,N/C*%
X157500000Y-84250000D03*
%TO.P,U1,45*%
X157500000Y-84750000D03*
%TO.P,U1,44*%
X157500000Y-85250000D03*
%TO.P,U1,43*%
X157500000Y-85750000D03*
%TO.P,U1,42*%
%TO.N,GND*%
X157500000Y-86250000D03*
%TO.P,U1,41*%
%TO.N,VD33*%
X157500000Y-86750000D03*
%TO.P,U1,40*%
%TO.N,GND*%
X157500000Y-87250000D03*
%TO.P,U1,39*%
%TO.N,VD33*%
X157500000Y-87750000D03*
%TO.P,U1,38*%
%TO.N,VD5*%
X157500000Y-88250000D03*
%TO.P,U1,37*%
%TO.N,GND*%
X157500000Y-88750000D03*
D23*
%TO.P,U1,36*%
%TO.N,Net-(R3-Pad2)*%
X155750000Y-90500000D03*
%TO.P,U1,35*%
%TO.N,VBUSM*%
X155250000Y-90500000D03*
%TO.P,U1,34*%
%TO.N,Net-(R2-Pad2)*%
X154750000Y-90500000D03*
%TO.P,U1,33*%
%TO.N,GND*%
X154250000Y-90500000D03*
%TO.P,U1,32*%
%TO.N,VD33*%
X153750000Y-90500000D03*
%TO.P,U1,31*%
%TO.N,/DU+*%
X153250000Y-90500000D03*
%TO.P,U1,30*%
%TO.N,/DU-*%
X152750000Y-90500000D03*
%TO.P,U1,29*%
%TO.N,VD18*%
X152250000Y-90500000D03*
%TO.P,U1,28*%
%TO.N,Net-(R1-Pad1)*%
X151750000Y-90500000D03*
%TO.P,U1,27*%
%TO.N,VD33*%
X151250000Y-90500000D03*
%TO.P,U1,26*%
%TO.N,VD18*%
X150750000Y-90500000D03*
%TO.P,U1,25*%
%TO.N,GND*%
X150250000Y-90500000D03*
D22*
%TO.P,U1,24*%
%TO.N,/D1+*%
X148500000Y-88750000D03*
%TO.P,U1,23*%
%TO.N,/D1-*%
X148500000Y-88250000D03*
%TO.P,U1,22*%
%TO.N,GND*%
X148500000Y-87750000D03*
%TO.P,U1,21*%
%TO.N,/D2+*%
X148500000Y-87250000D03*
%TO.P,U1,20*%
%TO.N,/D2-*%
X148500000Y-86750000D03*
%TO.P,U1,19*%
%TO.N,VD33*%
X148500000Y-86250000D03*
%TO.P,U1,18*%
%TO.N,/D3+*%
X148500000Y-85750000D03*
%TO.P,U1,17*%
%TO.N,/D3-*%
X148500000Y-85250000D03*
%TO.P,U1,16*%
%TO.N,GND*%
X148500000Y-84750000D03*
%TO.P,U1,15*%
%TO.N,/D4+*%
X148500000Y-84250000D03*
%TO.P,U1,14*%
%TO.N,/D4-*%
X148500000Y-83750000D03*
%TO.P,U1,13*%
%TO.N,VD33*%
X148500000Y-83250000D03*
D23*
%TO.P,U1,12*%
%TO.N,Net-(U1-Pad12)*%
X150250000Y-81500000D03*
%TO.P,U1,11*%
%TO.N,Net-(U1-Pad11)*%
X150750000Y-81500000D03*
%TO.P,U1,10*%
%TO.N,GND*%
X151250000Y-81500000D03*
%TO.P,U1,9*%
%TO.N,VD18*%
X151750000Y-81500000D03*
%TO.P,U1,8*%
%TO.N,GND*%
X152250000Y-81500000D03*
%TO.P,U1,7*%
X152750000Y-81500000D03*
%TO.P,U1,6*%
X153250000Y-81500000D03*
%TO.P,U1,5*%
X153750000Y-81500000D03*
%TO.P,U1,4*%
%TO.N,N/C*%
X154250000Y-81500000D03*
%TO.P,U1,3*%
%TO.N,VD18*%
X154750000Y-81500000D03*
%TO.P,U1,2*%
%TO.N,N/C*%
X155250000Y-81500000D03*
%TO.P,U1,1*%
%TO.N,GND*%
X155750000Y-81500000D03*
%TD*%
D24*
%TO.P,R6,2*%
%TO.N,VD33*%
X162912500Y-84000000D03*
%TO.P,R6,1*%
%TO.N,OVER_CURRENT*%
X161087500Y-84000000D03*
%TD*%
D25*
%TO.P,R5,2*%
%TO.N,VBUSM*%
X159900000Y-80612500D03*
%TO.P,R5,1*%
%TO.N,GND*%
X159900000Y-78787500D03*
%TD*%
D26*
%TO.P,R4,2*%
%TO.N,VBUS*%
X161800000Y-78787500D03*
%TO.P,R4,1*%
%TO.N,VBUSM*%
X161800000Y-80612500D03*
%TD*%
%TO.P,R3,2*%
%TO.N,Net-(R3-Pad2)*%
X163300000Y-93787500D03*
%TO.P,R3,1*%
%TO.N,VD33*%
X163300000Y-95612500D03*
%TD*%
%TO.P,R2,2*%
%TO.N,Net-(R2-Pad2)*%
X161200000Y-93787500D03*
%TO.P,R2,1*%
%TO.N,VD33*%
X161200000Y-95612500D03*
%TD*%
D25*
%TO.P,R1,2*%
%TO.N,GND*%
X148600000Y-96012500D03*
%TO.P,R1,1*%
%TO.N,Net-(R1-Pad1)*%
X148600000Y-94187500D03*
%TD*%
D27*
%TO.P,C18,2*%
%TO.N,GND*%
X162862500Y-86000000D03*
%TO.P,C18,1*%
%TO.N,VD33*%
X161137500Y-86000000D03*
%TD*%
%TO.P,C17,2*%
%TO.N,GND*%
X148162500Y-79600000D03*
%TO.P,C17,1*%
%TO.N,VD33*%
X146437500Y-79600000D03*
%TD*%
%TO.P,C16,2*%
%TO.N,GND*%
X153962500Y-78800000D03*
%TO.P,C16,1*%
%TO.N,VD18*%
X152237500Y-78800000D03*
%TD*%
D28*
%TO.P,C15,2*%
%TO.N,GND*%
X159200000Y-95562500D03*
%TO.P,C15,1*%
%TO.N,VD33*%
X159200000Y-93837500D03*
%TD*%
%TO.P,C14,2*%
%TO.N,GND*%
X152400000Y-95962500D03*
%TO.P,C14,1*%
%TO.N,VD18*%
X152400000Y-94237500D03*
%TD*%
%TO.P,C13,2*%
%TO.N,GND*%
X144400000Y-95962500D03*
%TO.P,C13,1*%
%TO.N,VD33*%
X144400000Y-94237500D03*
%TD*%
D27*
%TO.P,C12,2*%
%TO.N,GND*%
X157662500Y-78800000D03*
%TO.P,C12,1*%
%TO.N,VD18*%
X155937500Y-78800000D03*
%TD*%
D28*
%TO.P,C11,2*%
%TO.N,GND*%
X150500000Y-95962500D03*
%TO.P,C11,1*%
%TO.N,VD33*%
X150500000Y-94237500D03*
%TD*%
D27*
%TO.P,C10,2*%
%TO.N,GND*%
X162862500Y-90000000D03*
%TO.P,C10,1*%
%TO.N,VD5*%
X161137500Y-90000000D03*
%TD*%
D29*
%TO.P,C9,2*%
%TO.N,GND*%
X165837500Y-79300000D03*
%TO.P,C9,1*%
%TO.N,VBUS*%
X167562500Y-79300000D03*
%TD*%
%TO.P,C8,2*%
%TO.N,GND*%
X165837500Y-81300000D03*
%TO.P,C8,1*%
%TO.N,VBUS*%
X167562500Y-81300000D03*
%TD*%
%TO.P,C7,2*%
%TO.N,GND*%
X166637500Y-93500000D03*
%TO.P,C7,1*%
%TO.N,VD5*%
X168362500Y-93500000D03*
%TD*%
D30*
%TO.P,C6,2*%
%TO.N,GND*%
X136000000Y-64137500D03*
%TO.P,C6,1*%
%TO.N,VBUS*%
X136000000Y-65862500D03*
%TD*%
%TO.P,C5,2*%
%TO.N,GND*%
X135700000Y-90137500D03*
%TO.P,C5,1*%
%TO.N,VBUS*%
X135700000Y-91862500D03*
%TD*%
%TO.P,C4,2*%
%TO.N,GND*%
X134000000Y-64137500D03*
%TO.P,C4,1*%
%TO.N,VBUS*%
X134000000Y-65862500D03*
%TD*%
%TO.P,C3,2*%
%TO.N,GND*%
X133900000Y-90137500D03*
%TO.P,C3,1*%
%TO.N,VBUS*%
X133900000Y-91862500D03*
%TD*%
D28*
%TO.P,C2,2*%
%TO.N,GND*%
X146700000Y-95962500D03*
%TO.P,C2,1*%
%TO.N,VD18*%
X146700000Y-94237500D03*
%TD*%
D27*
%TO.P,C1,2*%
%TO.N,GND*%
X162862500Y-88000000D03*
%TO.P,C1,1*%
%TO.N,VD33*%
X161137500Y-88000000D03*
%TD*%
D31*
%TO.N,GND*%
X167500000Y-91500000D03*
X132500000Y-90700000D03*
X136900000Y-89800000D03*
X132500000Y-64500000D03*
X137500000Y-63500000D03*
X164500000Y-85000000D03*
X164300000Y-87600000D03*
X164300000Y-89600000D03*
X160200000Y-77500000D03*
X150500000Y-89000000D03*
X150000000Y-87500000D03*
X150000000Y-85000000D03*
X151000000Y-82900000D03*
X152500000Y-83200000D03*
X153000000Y-80000000D03*
X153400000Y-83200000D03*
X154000000Y-80000000D03*
X156200000Y-80000000D03*
X154300000Y-77500000D03*
X145400000Y-97100000D03*
X148200000Y-97300000D03*
X152000000Y-97400000D03*
X150100000Y-97500000D03*
X159000000Y-97100000D03*
X158800000Y-89300000D03*
X154525000Y-89100000D03*
X159000000Y-85800000D03*
X156000000Y-86400000D03*
X147000000Y-78100000D03*
X158300000Y-77400000D03*
X143500000Y-97100000D03*
X164500000Y-82000000D03*
X164500000Y-79500000D03*
X166000000Y-90500000D03*
%TO.N,VD18*%
X152600000Y-89000000D03*
X152600000Y-87400000D03*
%TO.N,VBUS*%
X131500000Y-91500000D03*
X129327381Y-89327381D03*
%TO.N,Net-(R1-Pad1)*%
X151400000Y-92700000D03*
X149600000Y-92700000D03*
%TO.N,VBUSM*%
X155400000Y-88475000D03*
X154800000Y-86500000D03*
%TO.N,POWER_EN*%
X162000000Y-86900000D03*
X160265348Y-85151152D03*
%TO.N,/D3-*%
X131936724Y-76536724D03*
%TO.N,/D2+*%
X132200000Y-101023800D03*
%TD*%
D32*
%TO.N,GND*%
X133062500Y-90137500D02*
X132500000Y-90700000D01*
X133900000Y-90137500D02*
X133062500Y-90137500D01*
X135700000Y-90137500D02*
X136562500Y-90137500D01*
X136562500Y-90137500D02*
X136900000Y-89800000D01*
X132862500Y-64137500D02*
X132500000Y-64500000D01*
X134000000Y-64137500D02*
X132862500Y-64137500D01*
X136862500Y-64137500D02*
X137500000Y-63500000D01*
X136000000Y-64137500D02*
X136862500Y-64137500D01*
X163800000Y-86000000D02*
X164300000Y-85500000D01*
X162862500Y-86000000D02*
X163800000Y-86000000D01*
X163900000Y-88000000D02*
X164300000Y-87600000D01*
X162862500Y-88000000D02*
X163900000Y-88000000D01*
X163900000Y-90000000D02*
X164300000Y-89600000D01*
X162862500Y-90000000D02*
X163900000Y-90000000D01*
X159900000Y-77800000D02*
X160200000Y-77500000D01*
X159900000Y-78787500D02*
X159900000Y-77800000D01*
X150250000Y-89250000D02*
X150500000Y-89000000D01*
X150250000Y-90500000D02*
X150250000Y-89250000D01*
X149750000Y-87750000D02*
X150000000Y-87500000D01*
X148500000Y-87750000D02*
X149750000Y-87750000D01*
X149750000Y-84750000D02*
X150000000Y-85000000D01*
X148500000Y-84750000D02*
X149750000Y-84750000D01*
X151250000Y-82650000D02*
X151000000Y-82900000D01*
X151250000Y-81500000D02*
X151250000Y-82650000D01*
X152250000Y-82950000D02*
X152500000Y-83200000D01*
X152250000Y-81500000D02*
X152250000Y-82950000D01*
X152750000Y-80250000D02*
X153000000Y-80000000D01*
X152750000Y-81500000D02*
X152750000Y-80250000D01*
X153250000Y-83050000D02*
X153400000Y-83200000D01*
X153250000Y-81500000D02*
X153250000Y-83050000D01*
X153750000Y-80250000D02*
X154000000Y-80000000D01*
X153750000Y-81500000D02*
X153750000Y-80250000D01*
X155750000Y-80450000D02*
X156200000Y-80000000D01*
X155750000Y-81500000D02*
X155750000Y-80450000D01*
X153962500Y-77837500D02*
X154300000Y-77500000D01*
X153962500Y-78800000D02*
X153962500Y-77837500D01*
X146537500Y-95962500D02*
X145400000Y-97100000D01*
X146700000Y-95962500D02*
X146537500Y-95962500D01*
X148600000Y-96900000D02*
X148200000Y-97300000D01*
X148600000Y-96012500D02*
X148600000Y-96900000D01*
X152400000Y-97000000D02*
X152000000Y-97400000D01*
X152400000Y-95962500D02*
X152400000Y-97000000D01*
X150500000Y-97100000D02*
X150100000Y-97500000D01*
X150500000Y-95962500D02*
X150500000Y-97100000D01*
X159200000Y-96900000D02*
X159000000Y-97100000D01*
X159200000Y-95562500D02*
X159200000Y-96900000D01*
X158250000Y-88750000D02*
X158800000Y-89300000D01*
X157500000Y-88750000D02*
X158250000Y-88750000D01*
X154250000Y-89375000D02*
X154525000Y-89100000D01*
X154250000Y-90500000D02*
X154250000Y-89375000D01*
X158550000Y-86250000D02*
X159000000Y-85800000D01*
X157500000Y-86250000D02*
X158550000Y-86250000D01*
X156000000Y-86750000D02*
X156000000Y-86400000D01*
X156500000Y-87250000D02*
X156000000Y-86750000D01*
X157500000Y-87250000D02*
X156500000Y-87250000D01*
X148162500Y-79262500D02*
X147000000Y-78100000D01*
X148162500Y-79600000D02*
X148162500Y-79262500D01*
X157662500Y-78037500D02*
X158300000Y-77400000D01*
X157662500Y-78800000D02*
X157662500Y-78037500D01*
X144400000Y-96200000D02*
X143500000Y-97100000D01*
X144400000Y-95962500D02*
X144400000Y-96200000D01*
D33*
X166637500Y-92362500D02*
X167500000Y-91500000D01*
X166637500Y-93500000D02*
X166637500Y-92362500D01*
D32*
X165200000Y-81300000D02*
X164500000Y-82000000D01*
X165837500Y-81300000D02*
X165200000Y-81300000D01*
X164700000Y-79300000D02*
X164500000Y-79500000D01*
X165837500Y-79300000D02*
X164700000Y-79300000D01*
D33*
X167095000Y-89405000D02*
X166000000Y-90500000D01*
X167095000Y-89200000D02*
X167095000Y-89405000D01*
D32*
X164300000Y-85200000D02*
X164500000Y-85000000D01*
X164300000Y-85500000D02*
X164300000Y-85200000D01*
%TO.N,VD33*%
X151250000Y-89738590D02*
X151250000Y-90500000D01*
X151563600Y-89424990D02*
X151250000Y-89738590D01*
X153750000Y-90500000D02*
X153750000Y-89738590D01*
X159773910Y-88000000D02*
X159523910Y-87750000D01*
X159523910Y-87750000D02*
X157500000Y-87750000D01*
X161137500Y-88000000D02*
X159773910Y-88000000D01*
X160387500Y-86750000D02*
X157500000Y-86750000D01*
X161137500Y-86000000D02*
X160387500Y-86750000D01*
X161137500Y-88000000D02*
X161137500Y-86000000D01*
X159425000Y-93837500D02*
X161200000Y-95612500D01*
X159200000Y-93837500D02*
X159425000Y-93837500D01*
X161200000Y-95612500D02*
X163300000Y-95612500D01*
X150750000Y-93987500D02*
X150500000Y-94237500D01*
X154801998Y-87750000D02*
X155650000Y-87750000D01*
X153750000Y-88801998D02*
X154801998Y-87750000D01*
X153750000Y-90500000D02*
X153750000Y-88801998D01*
X155650000Y-87750000D02*
X155500000Y-87750000D01*
X157500000Y-87750000D02*
X155650000Y-87750000D01*
X151563600Y-87990598D02*
X151563600Y-89424990D01*
X148500000Y-86250000D02*
X149823002Y-86250000D01*
X148500000Y-83250000D02*
X149500000Y-83250000D01*
X150936501Y-87363499D02*
X151563600Y-87990598D01*
X149823002Y-86250000D02*
X150936501Y-87363499D01*
X146437500Y-80187500D02*
X149725000Y-83475000D01*
X146437500Y-79600000D02*
X146437500Y-80187500D01*
X149725000Y-83475000D02*
X150936501Y-84686501D01*
X149500000Y-83250000D02*
X149725000Y-83475000D01*
X153223001Y-88274999D02*
X153750000Y-88801998D01*
X152251999Y-88274999D02*
X153223001Y-88274999D01*
X151563600Y-88963398D02*
X152251999Y-88274999D01*
X151563600Y-89424990D02*
X151563600Y-88963398D01*
X150500000Y-94237500D02*
X150500000Y-93700000D01*
X151250000Y-90500000D02*
X151250000Y-91650000D01*
X150500000Y-92400000D02*
X150500000Y-94237500D01*
X151250000Y-91650000D02*
X150500000Y-92400000D01*
X150348001Y-88225001D02*
X150936501Y-87636501D01*
X149774999Y-88651999D02*
X150201997Y-88225001D01*
X150201997Y-88225001D02*
X150348001Y-88225001D01*
X149774999Y-88825001D02*
X149774999Y-88651999D01*
X148863580Y-89200010D02*
X149399990Y-89200010D01*
X144400000Y-93663590D02*
X148863580Y-89200010D01*
X144400000Y-94237500D02*
X144400000Y-93663590D01*
X149399990Y-89200010D02*
X149774999Y-88825001D01*
X150936501Y-86963499D02*
X150936501Y-87363499D01*
X150936501Y-87636501D02*
X150936501Y-86963499D01*
X150936501Y-84686501D02*
X150936501Y-86963499D01*
X159200000Y-93837500D02*
X159200000Y-92800000D01*
X159200000Y-92800000D02*
X158450010Y-92050010D01*
X153750000Y-91261410D02*
X153750000Y-90500000D01*
X154538600Y-92050010D02*
X153750000Y-91261410D01*
X158450010Y-92050010D02*
X154538600Y-92050010D01*
X161137500Y-86000000D02*
X161137500Y-85775000D01*
X161137500Y-85775000D02*
X162912500Y-84000000D01*
%TO.N,VD18*%
X154750000Y-84150000D02*
X154750000Y-81500000D01*
X154750000Y-79987500D02*
X154750000Y-81500000D01*
X155937500Y-78800000D02*
X154750000Y-79987500D01*
X151750000Y-79287500D02*
X151750000Y-81500000D01*
X152237500Y-78800000D02*
X151750000Y-79287500D01*
X152250000Y-94087500D02*
X152400000Y-94237500D01*
X152250000Y-90500000D02*
X152250000Y-94087500D01*
X152250000Y-89350000D02*
X152600000Y-89000000D01*
X152250000Y-90500000D02*
X152250000Y-89350000D01*
X152600000Y-86300000D02*
X154750000Y-84150000D01*
X152600000Y-87400000D02*
X152600000Y-86300000D01*
X151725001Y-81524999D02*
X151750000Y-81500000D01*
X151725001Y-85425001D02*
X151725001Y-81524999D01*
X152600000Y-86300000D02*
X151725001Y-85425001D01*
X151537500Y-95100000D02*
X152400000Y-94237500D01*
X147562500Y-95100000D02*
X151537500Y-95100000D01*
X146700000Y-94237500D02*
X147562500Y-95100000D01*
X146700000Y-94237500D02*
X146700000Y-92000000D01*
X150750000Y-91500000D02*
X150750000Y-90500000D01*
X150650000Y-91600000D02*
X150750000Y-91500000D01*
X147100000Y-91600000D02*
X150650000Y-91600000D01*
X146700000Y-92000000D02*
X147100000Y-91600000D01*
%TO.N,VBUS*%
X129327381Y-89327381D02*
X125500000Y-85500000D01*
D33*
X167335000Y-81527500D02*
X167562500Y-81300000D01*
X167562500Y-81300000D02*
X167562500Y-79300000D01*
X162150000Y-78437500D02*
X161800000Y-78787500D01*
X163962500Y-78437500D02*
X162150000Y-78437500D01*
X134000000Y-65862500D02*
X136000000Y-65862500D01*
X134000000Y-71620000D02*
X134380000Y-72000000D01*
X134000000Y-65862500D02*
X134000000Y-71620000D01*
X135299999Y-70299999D02*
X137000000Y-72000000D01*
X135299999Y-66087501D02*
X135299999Y-70299999D01*
X135525000Y-65862500D02*
X135299999Y-66087501D01*
X136000000Y-65862500D02*
X135525000Y-65862500D01*
X134000000Y-65862500D02*
X130837500Y-65862500D01*
X130837500Y-65862500D02*
X128700000Y-68000000D01*
X128700000Y-69300000D02*
X125300000Y-72700000D01*
X125300000Y-85300000D02*
X129327381Y-89327381D01*
X125300000Y-72700000D02*
X125300000Y-85300000D01*
X131500000Y-91500000D02*
X131600000Y-91600000D01*
D32*
X131862500Y-91862500D02*
X131600000Y-91600000D01*
D33*
X131862500Y-91862500D02*
X133900000Y-91862500D01*
X131500000Y-91500000D02*
X131862500Y-91862500D01*
X133900000Y-91862500D02*
X135700000Y-91862500D01*
X133900000Y-97520000D02*
X134380000Y-98000000D01*
X133900000Y-91862500D02*
X133900000Y-97520000D01*
X135299999Y-96299999D02*
X137000000Y-98000000D01*
X135299999Y-93945999D02*
X135299999Y-96299999D01*
X135700000Y-93545998D02*
X135299999Y-93945999D01*
X135700000Y-91862500D02*
X135700000Y-93545998D01*
X166537490Y-78274990D02*
X167562500Y-79300000D01*
X164125010Y-78274990D02*
X166537490Y-78274990D01*
X163962500Y-78437500D02*
X164125010Y-78274990D01*
X168365000Y-83800000D02*
X169635000Y-83800000D01*
X168365000Y-82102500D02*
X167562500Y-81300000D01*
X168365000Y-83800000D02*
X168365000Y-82102500D01*
X143987500Y-70487500D02*
X156012500Y-70487500D01*
X139362500Y-65862500D02*
X143987500Y-70487500D01*
X136000000Y-65862500D02*
X139362500Y-65862500D01*
X163962500Y-78437500D02*
X156012500Y-70487500D01*
X128700000Y-69300000D02*
X128700000Y-68000000D01*
D32*
%TO.N,Net-(R1-Pad1)*%
X151750000Y-92350000D02*
X151400000Y-92700000D01*
X151750000Y-90500000D02*
X151750000Y-92350000D01*
X149600000Y-92700000D02*
X149300000Y-92700000D01*
X148600000Y-93400000D02*
X148600000Y-94187500D01*
X149300000Y-92700000D02*
X148600000Y-93400000D01*
%TO.N,Net-(R2-Pad2)*%
X154750000Y-91500000D02*
X154850000Y-91600000D01*
X154750000Y-90500000D02*
X154750000Y-91500000D01*
X159012500Y-91600000D02*
X161200000Y-93787500D01*
X154850000Y-91600000D02*
X159012500Y-91600000D01*
%TO.N,Net-(R3-Pad2)*%
X155750000Y-90500000D02*
X155750000Y-91150000D01*
X160312510Y-90800010D02*
X163300000Y-93787500D01*
X156050010Y-90800010D02*
X160312510Y-90800010D01*
X155750000Y-90500000D02*
X156050010Y-90800010D01*
%TO.N,VBUSM*%
X161800000Y-80612500D02*
X159900000Y-80612500D01*
X158876090Y-80612500D02*
X155600000Y-83888590D01*
X159900000Y-80612500D02*
X158876090Y-80612500D01*
X155250000Y-88625000D02*
X155400000Y-88475000D01*
X155250000Y-90500000D02*
X155250000Y-88625000D01*
X155600000Y-85700000D02*
X155600000Y-83888590D01*
X154800000Y-86500000D02*
X155600000Y-85700000D01*
%TO.N,OVER_CURRENT*%
X161887510Y-83199990D02*
X161087500Y-84000000D01*
X160337491Y-83249991D02*
X157500000Y-83249991D01*
X161087500Y-84000000D02*
X160337491Y-83249991D01*
X164199990Y-83199990D02*
X161887510Y-83199990D01*
X166250001Y-85250001D02*
X164199990Y-83199990D01*
X170905000Y-84875000D02*
X170905000Y-83800000D01*
X170529999Y-85250001D02*
X170905000Y-84875000D01*
X166250001Y-85250001D02*
X170529999Y-85250001D01*
%TO.N,POWER_EN*%
X162025001Y-86874999D02*
X162000000Y-86900000D01*
X169654999Y-86874999D02*
X162025001Y-86874999D01*
X170905000Y-88125000D02*
X169654999Y-86874999D01*
X170905000Y-89200000D02*
X170905000Y-88125000D01*
X158864196Y-83750000D02*
X157500000Y-83750000D01*
X160265348Y-85151152D02*
X158864196Y-83750000D01*
%TO.N,Net-(U1-Pad12)*%
X147087500Y-74000000D02*
X147087500Y-76287500D01*
X150250000Y-79450000D02*
X150250000Y-81500000D01*
X147087500Y-76287500D02*
X150250000Y-79450000D01*
%TO.N,Net-(U1-Pad11)*%
X152912500Y-74000000D02*
X152912500Y-76287500D01*
X150750000Y-78450000D02*
X150750000Y-81500000D01*
X152912500Y-76287500D02*
X150750000Y-78450000D01*
%TO.N,/D4-*%
X147738590Y-83750000D02*
X148500000Y-83750000D01*
X147462472Y-83473882D02*
X147738590Y-83750000D01*
X146926118Y-83473882D02*
X147462472Y-83473882D01*
D34*
X138491036Y-75038800D02*
X137538800Y-75038800D01*
X137538800Y-75038800D02*
X137000000Y-74500000D01*
X146926118Y-83473882D02*
X138491036Y-75038800D01*
D32*
%TO.N,/D4+*%
X146397764Y-84250000D02*
X148500000Y-84250000D01*
X146273882Y-84126118D02*
X146397764Y-84250000D01*
D34*
X137538800Y-75961200D02*
X137000000Y-76500000D01*
X138108964Y-75961200D02*
X137538800Y-75961200D01*
X146273882Y-84126118D02*
X138108964Y-75961200D01*
D32*
%TO.N,/D3-*%
X148500000Y-85250000D02*
X145850000Y-85250000D01*
X145850000Y-85250000D02*
X145600000Y-85000000D01*
X131912248Y-76561200D02*
X131936724Y-76536724D01*
X131891036Y-76561200D02*
X131912248Y-76561200D01*
D34*
X127961200Y-78691036D02*
X130091036Y-76561200D01*
X127961200Y-82308964D02*
X127961200Y-78691036D01*
X130652236Y-85000000D02*
X127961200Y-82308964D01*
X139591341Y-84980694D02*
X139420000Y-85000000D01*
X139754090Y-84923746D02*
X139591341Y-84980694D01*
X141653746Y-83289430D02*
X141562010Y-83143433D01*
X141710694Y-83452179D02*
X141653746Y-83289430D01*
X141730000Y-83623521D02*
X141710694Y-83452179D01*
X141730000Y-84230000D02*
X141730000Y-83623521D01*
X139420000Y-85000000D02*
X130652236Y-85000000D01*
X141806253Y-84564090D02*
X141749305Y-84401341D01*
X142019912Y-84832010D02*
X141897989Y-84710087D01*
X141897989Y-84710087D02*
X141806253Y-84564090D01*
X142165909Y-84923746D02*
X142019912Y-84832010D01*
X142328658Y-84980694D02*
X142165909Y-84923746D01*
X141749305Y-84401341D02*
X141730000Y-84230000D01*
X140113746Y-84564090D02*
X140022010Y-84710087D01*
X130091036Y-76561200D02*
X131891036Y-76561200D01*
X142500000Y-85000000D02*
X142328658Y-84980694D01*
X139900087Y-84832010D02*
X139754090Y-84923746D01*
X145600000Y-85000000D02*
X142500000Y-85000000D01*
X140190000Y-83623521D02*
X140190000Y-84230000D01*
X140022010Y-84710087D02*
X139900087Y-84832010D01*
X141440087Y-83021510D02*
X141294090Y-82929774D01*
X141294090Y-82929774D02*
X141131341Y-82872826D01*
X141131341Y-82872826D02*
X140960000Y-82853521D01*
X140960000Y-82853521D02*
X140788658Y-82872826D01*
X140209305Y-83452179D02*
X140190000Y-83623521D01*
X140788658Y-82872826D02*
X140625909Y-82929774D01*
X140625909Y-82929774D02*
X140479912Y-83021510D01*
X140479912Y-83021510D02*
X140357989Y-83143433D01*
X140357989Y-83143433D02*
X140266253Y-83289430D01*
X140266253Y-83289430D02*
X140209305Y-83452179D01*
X140190000Y-84230000D02*
X140170694Y-84401341D01*
X141562010Y-83143433D02*
X141440087Y-83021510D01*
X140170694Y-84401341D02*
X140113746Y-84564090D01*
D32*
%TO.N,/D3+*%
X148500000Y-85750000D02*
X145950000Y-85750000D01*
X145950000Y-85750000D02*
X145700000Y-86000000D01*
D34*
X145700000Y-86000000D02*
X130347764Y-86000000D01*
X130347764Y-86000000D02*
X127038800Y-82691036D01*
X127038800Y-82691036D02*
X127038800Y-78308964D01*
D32*
X134380000Y-76500000D02*
X132880000Y-75000000D01*
X132880000Y-75000000D02*
X132000000Y-75000000D01*
D34*
X130347764Y-75000000D02*
X127038800Y-78308964D01*
X132000000Y-75000000D02*
X130347764Y-75000000D01*
D32*
%TO.N,/D2-*%
X148500000Y-86750000D02*
X146250000Y-86750000D01*
X146250000Y-86750000D02*
X146000000Y-87000000D01*
D34*
X126938800Y-98691036D02*
X130208964Y-101961200D01*
X126938800Y-93108964D02*
X126938800Y-98691036D01*
X132808964Y-87238800D02*
X126938800Y-93108964D01*
X145761200Y-87238800D02*
X132808964Y-87238800D01*
X146000000Y-87000000D02*
X145761200Y-87238800D01*
X130208964Y-101961200D02*
X132200000Y-101961200D01*
D32*
X132918800Y-101961200D02*
X134380000Y-100500000D01*
X132200000Y-101961200D02*
X132918800Y-101961200D01*
%TO.N,/D2+*%
X148500000Y-87250000D02*
X147150000Y-87250000D01*
X147150000Y-87250000D02*
X146600000Y-87800000D01*
X132200000Y-101038800D02*
X132200000Y-101023800D01*
D34*
X130591036Y-101038800D02*
X132200000Y-101038800D01*
X127861200Y-98308964D02*
X130591036Y-101038800D01*
X127861200Y-96571036D02*
X127861200Y-98308964D01*
X127880506Y-96399694D02*
X127861200Y-96571036D01*
X127937454Y-96236945D02*
X127880506Y-96399694D01*
X128029190Y-96090948D02*
X127937454Y-96236945D01*
X128151113Y-95969025D02*
X128029190Y-96090948D01*
X128962542Y-94280341D02*
X129125291Y-94337289D01*
X127937454Y-93825126D02*
X128029190Y-93971123D01*
X128631200Y-94261036D02*
X128791200Y-94261036D01*
X128029190Y-93971123D02*
X128151113Y-94093046D01*
X129271288Y-94429025D02*
X129393211Y-94550948D01*
X128459859Y-94241730D02*
X128631200Y-94261036D01*
X129561200Y-95031036D02*
X129541895Y-95202377D01*
X128151113Y-94093046D02*
X128297110Y-94184782D01*
X127861200Y-93491036D02*
X127880506Y-93662377D01*
X127880506Y-93662377D02*
X127937454Y-93825126D01*
X133191036Y-88161200D02*
X127861200Y-93491036D01*
X128631200Y-95801036D02*
X128459859Y-95820341D01*
X128791200Y-94261036D02*
X128962542Y-94280341D01*
X146238800Y-88161200D02*
X133191036Y-88161200D01*
X128297110Y-94184782D02*
X128459859Y-94241730D01*
X146600000Y-87800000D02*
X146238800Y-88161200D01*
X129125291Y-94337289D02*
X129271288Y-94429025D01*
X129393211Y-94550948D02*
X129484947Y-94696945D01*
X129484947Y-94696945D02*
X129541895Y-94859694D01*
X129484947Y-95365126D02*
X129393211Y-95511123D01*
X129541895Y-94859694D02*
X129561200Y-95031036D01*
X129541895Y-95202377D02*
X129484947Y-95365126D01*
X129393211Y-95511123D02*
X129271288Y-95633046D01*
X129271288Y-95633046D02*
X129125291Y-95724782D01*
X129125291Y-95724782D02*
X128962542Y-95781730D01*
X128962542Y-95781730D02*
X128791200Y-95801036D01*
X128791200Y-95801036D02*
X128631200Y-95801036D01*
X128459859Y-95820341D02*
X128297110Y-95877289D01*
X128297110Y-95877289D02*
X128151113Y-95969025D01*
%TO.N,/D1-*%
X137695529Y-100500000D02*
X140238800Y-97956729D01*
X137000000Y-100500000D02*
X137695529Y-100500000D01*
X140238800Y-97956729D02*
X140238800Y-90408964D01*
X140238800Y-90408964D02*
X141508964Y-89138800D01*
X141508964Y-89138800D02*
X146500000Y-89138800D01*
D32*
X147388800Y-88250000D02*
X148500000Y-88250000D01*
X146500000Y-89138800D02*
X147388800Y-88250000D01*
D34*
%TO.N,/D1+*%
X141161200Y-98338800D02*
X141161200Y-90791036D01*
X137000000Y-102500000D02*
X141161200Y-98338800D01*
X141161200Y-90791036D02*
X141891036Y-90061200D01*
X141891036Y-90061200D02*
X146500000Y-90061200D01*
D32*
X147825589Y-88750000D02*
X148500000Y-88750000D01*
X146514389Y-90061200D02*
X147825589Y-88750000D01*
X146500000Y-90061200D02*
X146514389Y-90061200D01*
%TO.N,/DU+*%
X153250000Y-90500000D02*
X153250000Y-91261410D01*
X153250000Y-90500000D02*
X153250000Y-91500000D01*
X153250000Y-91500000D02*
X154800000Y-93050000D01*
D34*
X154800000Y-93050000D02*
X154800000Y-98800000D01*
X161064999Y-105064999D02*
X165688801Y-105064999D01*
X154800000Y-98800000D02*
X161064999Y-105064999D01*
X165688801Y-105064999D02*
X166435001Y-105811199D01*
X166435001Y-105811199D02*
X166435001Y-107188801D01*
X166435001Y-107188801D02*
X165306735Y-108317067D01*
X165306735Y-108317067D02*
X164934036Y-108317067D01*
X164934036Y-108317067D02*
X164625552Y-108625551D01*
X164625552Y-108625551D02*
X165000000Y-109000000D01*
D32*
%TO.N,/DU-*%
X152750000Y-90500000D02*
X152750000Y-92150000D01*
X152750000Y-91450000D02*
X152750000Y-92150000D01*
X152750000Y-92150000D02*
X153600000Y-93000000D01*
D34*
X163000000Y-108304471D02*
X163000000Y-109000000D01*
X162943196Y-108247667D02*
X163000000Y-108304471D01*
X160642608Y-108200067D02*
X160690208Y-108247667D01*
X160642608Y-105947079D02*
X160642608Y-108200067D01*
X157025653Y-102330124D02*
X160642608Y-105947079D01*
X156735495Y-102147806D02*
X156890845Y-102222618D01*
X156567393Y-102109438D02*
X156735495Y-102147806D01*
X153513594Y-102602652D02*
X153438782Y-102758002D01*
X154847765Y-101241180D02*
X153621100Y-102467844D01*
X154710044Y-103556789D02*
X155936708Y-102330124D01*
X160690208Y-108247667D02*
X162943196Y-108247667D01*
X153438782Y-102758002D02*
X153400414Y-102926104D01*
X155068451Y-100782920D02*
X155030082Y-100951023D01*
X156890845Y-102222618D02*
X157025653Y-102330124D01*
X154419887Y-103739106D02*
X154575236Y-103664294D01*
X155068451Y-100610495D02*
X155068451Y-100782920D01*
X155030082Y-100442393D02*
X155068451Y-100610495D01*
X156071516Y-102222618D02*
X156226866Y-102147806D01*
X154955270Y-100287043D02*
X155030082Y-100442393D01*
X154575236Y-103664294D02*
X154710044Y-103556789D01*
X153621100Y-102467844D02*
X153513594Y-102602652D01*
X154955270Y-101106372D02*
X154847765Y-101241180D01*
X154251784Y-103777475D02*
X154419887Y-103739106D01*
X155030082Y-100951023D02*
X154955270Y-101106372D01*
X156394968Y-102109438D02*
X156567393Y-102109438D01*
X154847765Y-100152236D02*
X154955270Y-100287043D01*
X153600000Y-98904471D02*
X154847765Y-100152236D01*
X153600000Y-93000000D02*
X153600000Y-98904471D01*
X153513594Y-103421981D02*
X153621100Y-103556789D01*
X153400414Y-102926104D02*
X153400414Y-103098529D01*
X153400414Y-103098529D02*
X153438782Y-103266631D01*
X153438782Y-103266631D02*
X153513594Y-103421981D01*
X153621100Y-103556789D02*
X153755907Y-103664294D01*
X153911257Y-103739106D02*
X154079359Y-103777475D01*
X153755907Y-103664294D02*
X153911257Y-103739106D01*
X154079359Y-103777475D02*
X154251784Y-103777475D01*
X155936708Y-102330124D02*
X156071516Y-102222618D01*
X156226866Y-102147806D02*
X156394968Y-102109438D01*
D32*
%TO.N,VD5*%
X159387500Y-88250000D02*
X157500000Y-88250000D01*
X161137500Y-90000000D02*
X159387500Y-88250000D01*
D33*
X168902500Y-92960000D02*
X168362500Y-93500000D01*
X174500000Y-92960000D02*
X168902500Y-92960000D01*
X168450001Y-89285001D02*
X168365000Y-89200000D01*
X168450001Y-93412499D02*
X168450001Y-89285001D01*
X168362500Y-93500000D02*
X168450001Y-93412499D01*
X168365000Y-89200000D02*
X169635000Y-89200000D01*
D32*
X168365000Y-89605001D02*
X168365000Y-89200000D01*
X166745000Y-91225001D02*
X168365000Y-89605001D01*
X162362501Y-91225001D02*
X166745000Y-91225001D01*
X161137500Y-90000000D02*
X162362501Y-91225001D01*
%TD*%
M02*
