%TF.GenerationSoftware,KiCad,Pcbnew,(5.1.10)-1*%
%TF.CreationDate,2021-06-30T06:41:13-07:00*%
%TF.ProjectId,USBHub,55534248-7562-42e6-9b69-6361645f7063,rev?*%
%TF.SameCoordinates,Original*%
%TF.FileFunction,Copper,L2,Bot*%
%TF.FilePolarity,Positive*%
%FSLAX46Y46*%
G04 Gerber Fmt 4.6, Leading zero omitted, Abs format (unit mm)*
G04 Created by KiCad (PCBNEW (5.1.10)-1) date 2021-06-30 06:41:13*
%MOMM*%
%LPD*%
G01*
G04 APERTURE LIST*
%TA.AperFunction,ComponentPad*%
%ADD10C,0.800000*%
%TD*%
%TA.AperFunction,ComponentPad*%
%ADD11C,6.400000*%
%TD*%
%TA.AperFunction,ComponentPad*%
%ADD12C,3.000000*%
%TD*%
%TA.AperFunction,ComponentPad*%
%ADD13R,1.500000X1.500000*%
%TD*%
%TA.AperFunction,ComponentPad*%
%ADD14C,1.500000*%
%TD*%
%TA.AperFunction,ComponentPad*%
%ADD15C,2.200000*%
%TD*%
%TA.AperFunction,ComponentPad*%
%ADD16R,2.200000X2.200000*%
%TD*%
%TA.AperFunction,ComponentPad*%
%ADD17C,3.500000*%
%TD*%
%TA.AperFunction,ComponentPad*%
%ADD18C,1.700000*%
%TD*%
%TA.AperFunction,ComponentPad*%
%ADD19R,1.700000X1.700000*%
%TD*%
%TA.AperFunction,ViaPad*%
%ADD20C,0.800000*%
%TD*%
%TA.AperFunction,Conductor*%
%ADD21C,0.250000*%
%TD*%
%TA.AperFunction,Conductor*%
%ADD22C,0.700000*%
%TD*%
%TA.AperFunction,Conductor*%
%ADD23C,0.254000*%
%TD*%
%TA.AperFunction,Conductor*%
%ADD24C,0.100000*%
%TD*%
G04 APERTURE END LIST*
D10*
%TO.P,H4,1*%
%TO.N,GND*%
X158697056Y-110802944D03*
X157000000Y-110100000D03*
X155302944Y-110802944D03*
X154600000Y-112500000D03*
X155302944Y-114197056D03*
X157000000Y-114900000D03*
X158697056Y-114197056D03*
X159400000Y-112500000D03*
D11*
X157000000Y-112500000D03*
%TD*%
D10*
%TO.P,H3,1*%
%TO.N,GND*%
X128697056Y-110802944D03*
X127000000Y-110100000D03*
X125302944Y-110802944D03*
X124600000Y-112500000D03*
X125302944Y-114197056D03*
X127000000Y-114900000D03*
X128697056Y-114197056D03*
X129400000Y-112500000D03*
D11*
X127000000Y-112500000D03*
%TD*%
D10*
%TO.P,H2,1*%
%TO.N,GND*%
X176197056Y-78302944D03*
X174500000Y-77600000D03*
X172802944Y-78302944D03*
X172100000Y-80000000D03*
X172802944Y-81697056D03*
X174500000Y-82400000D03*
X176197056Y-81697056D03*
X176900000Y-80000000D03*
D11*
X174500000Y-80000000D03*
%TD*%
D10*
%TO.P,H1,1*%
%TO.N,GND*%
X128697056Y-62302944D03*
X127000000Y-61600000D03*
X125302944Y-62302944D03*
X124600000Y-64000000D03*
X125302944Y-65697056D03*
X127000000Y-66400000D03*
X128697056Y-65697056D03*
X129400000Y-64000000D03*
D11*
X127000000Y-64000000D03*
%TD*%
D12*
%TO.P,J2,9*%
%TO.N,GND*%
X137350000Y-108070000D03*
X137350000Y-94930000D03*
D13*
%TO.P,J2,1*%
%TO.N,VBUS*%
X137000000Y-98000000D03*
D14*
%TO.P,J2,2*%
%TO.N,/D1-*%
X137000000Y-100500000D03*
%TO.P,J2,3*%
%TO.N,/D1+*%
X137000000Y-102500000D03*
%TO.P,J2,4*%
%TO.N,GND*%
X137000000Y-105000000D03*
D12*
%TO.P,J2,9*%
X131670000Y-94930000D03*
X131670000Y-108070000D03*
D14*
%TO.P,J2,5*%
%TO.N,VBUS*%
X134380000Y-98000000D03*
%TO.P,J2,6*%
%TO.N,/D2-*%
X134380000Y-100500000D03*
%TO.P,J2,7*%
%TO.N,/D2+*%
X134380000Y-102500000D03*
%TO.P,J2,8*%
%TO.N,GND*%
X134380000Y-105000000D03*
%TD*%
D12*
%TO.P,J1,9*%
%TO.N,GND*%
X137350000Y-82070000D03*
X137350000Y-68930000D03*
D13*
%TO.P,J1,1*%
%TO.N,VBUS*%
X137000000Y-72000000D03*
D14*
%TO.P,J1,2*%
%TO.N,/D4-*%
X137000000Y-74500000D03*
%TO.P,J1,3*%
%TO.N,/D4+*%
X137000000Y-76500000D03*
%TO.P,J1,4*%
%TO.N,GND*%
X137000000Y-79000000D03*
D12*
%TO.P,J1,9*%
X131670000Y-68930000D03*
X131670000Y-82070000D03*
D14*
%TO.P,J1,5*%
%TO.N,VBUS*%
X134380000Y-72000000D03*
%TO.P,J1,6*%
%TO.N,/D3-*%
X134380000Y-74500000D03*
%TO.P,J1,7*%
%TO.N,/D3+*%
X134380000Y-76500000D03*
%TO.P,J1,8*%
%TO.N,GND*%
X134380000Y-79000000D03*
%TD*%
D15*
%TO.P,J6,2*%
%TO.N,Net-(C7-Pad1)*%
X174500000Y-92960000D03*
D16*
%TO.P,J6,1*%
%TO.N,GND*%
X174500000Y-95500000D03*
%TD*%
D17*
%TO.P,J3,5*%
%TO.N,GND*%
X167710000Y-113770000D03*
X167710000Y-101730000D03*
D18*
%TO.P,J3,4*%
X165000000Y-106500000D03*
%TO.P,J3,3*%
%TO.N,/DU+*%
X165000000Y-109000000D03*
%TO.P,J3,2*%
%TO.N,/DU-*%
X163000000Y-109000000D03*
D19*
%TO.P,J3,1*%
%TO.N,N/C*%
X163000000Y-106500000D03*
%TD*%
D20*
%TO.N,GND*%
X167500000Y-91500000D03*
X132500000Y-90700000D03*
X136900000Y-89800000D03*
X132500000Y-64500000D03*
X137500000Y-63500000D03*
X164500000Y-85000000D03*
X164300000Y-87600000D03*
X164300000Y-89600000D03*
X160200000Y-77500000D03*
X150500000Y-89000000D03*
X150000000Y-87500000D03*
X150000000Y-85000000D03*
X151000000Y-82900000D03*
X152500000Y-83200000D03*
X153000000Y-80000000D03*
X153400000Y-83200000D03*
X154000000Y-80000000D03*
X156200000Y-80000000D03*
X154300000Y-77500000D03*
X145400000Y-97100000D03*
X148200000Y-97300000D03*
X152000000Y-97400000D03*
X150100000Y-97500000D03*
X159000000Y-97100000D03*
X158800000Y-89300000D03*
X154525000Y-89100000D03*
X159000000Y-85800000D03*
X156000000Y-86400000D03*
X147000000Y-78100000D03*
X158300000Y-77400000D03*
X143500000Y-97100000D03*
X164500000Y-82000000D03*
X164500000Y-79500000D03*
X166000000Y-90500000D03*
%TO.N,VD18*%
X152600000Y-89000000D03*
X152600000Y-87400000D03*
%TO.N,VBUS*%
X131500000Y-91500000D03*
X129327381Y-89327381D03*
%TO.N,Net-(R1-Pad1)*%
X151400000Y-92700000D03*
X149600000Y-92700000D03*
%TO.N,VBUSM*%
X155400000Y-88475000D03*
X154800000Y-86500000D03*
%TO.N,POWER_EN*%
X168000000Y-87225000D03*
X159500000Y-84500000D03*
%TO.N,/D3-*%
X131936724Y-76536724D03*
%TO.N,/D2+*%
X132200000Y-101023800D03*
%TD*%
D21*
%TO.N,VD18*%
X152600000Y-89000000D02*
X152600000Y-87400000D01*
D22*
%TO.N,VBUS*%
X129327381Y-89327381D02*
X131500000Y-91500000D01*
D21*
%TO.N,Net-(R1-Pad1)*%
X151400000Y-92700000D02*
X149600000Y-92700000D01*
%TO.N,VBUSM*%
X155400000Y-88475000D02*
X154800000Y-87875000D01*
X154800000Y-87875000D02*
X154800000Y-86500000D01*
%TO.N,POWER_EN*%
X168000000Y-87225000D02*
X167795204Y-87225000D01*
X164998002Y-87225000D02*
X162273002Y-84500000D01*
X162273002Y-84500000D02*
X159500000Y-84500000D01*
X168000000Y-87225000D02*
X164998002Y-87225000D01*
%TO.N,/D3-*%
X133973448Y-74500000D02*
X134380000Y-74500000D01*
X131936724Y-76536724D02*
X133973448Y-74500000D01*
%TO.N,/D2+*%
X132903800Y-101023800D02*
X134380000Y-102500000D01*
X132200000Y-101023800D02*
X132903800Y-101023800D01*
%TD*%
D23*
%TO.N,GND*%
X126272062Y-60215822D02*
X125547792Y-60430548D01*
X124879330Y-60782445D01*
X124838912Y-60809452D01*
X124478724Y-61299119D01*
X127000000Y-63820395D01*
X129521276Y-61299119D01*
X129161088Y-60809452D01*
X128497118Y-60449151D01*
X127775615Y-60225306D01*
X127152851Y-60160000D01*
X140226620Y-60160000D01*
X140556233Y-60489614D01*
X140556239Y-60489619D01*
X145510388Y-65443769D01*
X145531052Y-65468948D01*
X145631550Y-65551425D01*
X145746207Y-65612710D01*
X145870617Y-65650450D01*
X145967581Y-65660000D01*
X145967591Y-65660000D01*
X146000000Y-65663192D01*
X146032409Y-65660000D01*
X153726620Y-65660000D01*
X164010388Y-75943769D01*
X164031052Y-75968948D01*
X164131550Y-76051425D01*
X164246207Y-76112710D01*
X164370617Y-76150450D01*
X164467581Y-76160000D01*
X164467590Y-76160000D01*
X164499999Y-76163192D01*
X164532408Y-76160000D01*
X174377985Y-76160000D01*
X173772062Y-76215822D01*
X173047792Y-76430548D01*
X172379330Y-76782445D01*
X172338912Y-76809452D01*
X171978724Y-77299119D01*
X174500000Y-79820395D01*
X177021276Y-77299119D01*
X176661088Y-76809452D01*
X175997118Y-76449151D01*
X175275615Y-76225306D01*
X174652851Y-76160000D01*
X178340001Y-76160000D01*
X178340001Y-79877995D01*
X178284178Y-79272062D01*
X178069452Y-78547792D01*
X177717555Y-77879330D01*
X177690548Y-77838912D01*
X177200881Y-77478724D01*
X174679605Y-80000000D01*
X177200881Y-82521276D01*
X177690548Y-82161088D01*
X178050849Y-81497118D01*
X178274694Y-80775615D01*
X178340001Y-80152843D01*
X178340000Y-116340000D01*
X157122015Y-116340000D01*
X157727938Y-116284178D01*
X158452208Y-116069452D01*
X159120670Y-115717555D01*
X159161088Y-115690548D01*
X159345673Y-115439609D01*
X166219997Y-115439609D01*
X166406073Y-115780766D01*
X166823409Y-115996513D01*
X167274815Y-116126696D01*
X167742946Y-116166313D01*
X168209811Y-116113842D01*
X168657468Y-115971297D01*
X169013927Y-115780766D01*
X169200003Y-115439609D01*
X167710000Y-113949605D01*
X166219997Y-115439609D01*
X159345673Y-115439609D01*
X159521276Y-115200881D01*
X157000000Y-112679605D01*
X154478724Y-115200881D01*
X154838912Y-115690548D01*
X155502882Y-116050849D01*
X156224385Y-116274694D01*
X156847149Y-116340000D01*
X127122015Y-116340000D01*
X127727938Y-116284178D01*
X128452208Y-116069452D01*
X129120670Y-115717555D01*
X129161088Y-115690548D01*
X129521276Y-115200881D01*
X127000000Y-112679605D01*
X124478724Y-115200881D01*
X124838912Y-115690548D01*
X125502882Y-116050849D01*
X126224385Y-116274694D01*
X126847149Y-116340000D01*
X123160000Y-116340000D01*
X123160000Y-112622015D01*
X123215822Y-113227938D01*
X123430548Y-113952208D01*
X123782445Y-114620670D01*
X123809452Y-114661088D01*
X124299119Y-115021276D01*
X126820395Y-112500000D01*
X127179605Y-112500000D01*
X129700881Y-115021276D01*
X130190548Y-114661088D01*
X130550849Y-113997118D01*
X130774694Y-113275615D01*
X130853480Y-112524305D01*
X130849002Y-112475695D01*
X153146520Y-112475695D01*
X153215822Y-113227938D01*
X153430548Y-113952208D01*
X153782445Y-114620670D01*
X153809452Y-114661088D01*
X154299119Y-115021276D01*
X156820395Y-112500000D01*
X157179605Y-112500000D01*
X159700881Y-115021276D01*
X160190548Y-114661088D01*
X160550849Y-113997118D01*
X160611090Y-113802946D01*
X165313687Y-113802946D01*
X165366158Y-114269811D01*
X165508703Y-114717468D01*
X165699234Y-115073927D01*
X166040391Y-115260003D01*
X167530395Y-113770000D01*
X167889605Y-113770000D01*
X169379609Y-115260003D01*
X169720766Y-115073927D01*
X169936513Y-114656591D01*
X170066696Y-114205185D01*
X170106313Y-113737054D01*
X170053842Y-113270189D01*
X169911297Y-112822532D01*
X169720766Y-112466073D01*
X169379609Y-112279997D01*
X167889605Y-113770000D01*
X167530395Y-113770000D01*
X166040391Y-112279997D01*
X165699234Y-112466073D01*
X165483487Y-112883409D01*
X165353304Y-113334815D01*
X165313687Y-113802946D01*
X160611090Y-113802946D01*
X160774694Y-113275615D01*
X160853480Y-112524305D01*
X160814427Y-112100391D01*
X166219997Y-112100391D01*
X167710000Y-113590395D01*
X169200003Y-112100391D01*
X169013927Y-111759234D01*
X168596591Y-111543487D01*
X168145185Y-111413304D01*
X167677054Y-111373687D01*
X167210189Y-111426158D01*
X166762532Y-111568703D01*
X166406073Y-111759234D01*
X166219997Y-112100391D01*
X160814427Y-112100391D01*
X160784178Y-111772062D01*
X160569452Y-111047792D01*
X160217555Y-110379330D01*
X160190548Y-110338912D01*
X159700881Y-109978724D01*
X157179605Y-112500000D01*
X156820395Y-112500000D01*
X154299119Y-109978724D01*
X153809452Y-110338912D01*
X153449151Y-111002882D01*
X153225306Y-111724385D01*
X153146520Y-112475695D01*
X130849002Y-112475695D01*
X130784178Y-111772062D01*
X130569452Y-111047792D01*
X130217555Y-110379330D01*
X130190548Y-110338912D01*
X129700881Y-109978724D01*
X127179605Y-112500000D01*
X126820395Y-112500000D01*
X124299119Y-109978724D01*
X123809452Y-110338912D01*
X123449151Y-111002882D01*
X123225306Y-111724385D01*
X123160000Y-112347149D01*
X123160000Y-109799119D01*
X124478724Y-109799119D01*
X127000000Y-112320395D01*
X129521276Y-109799119D01*
X129346602Y-109561653D01*
X130357952Y-109561653D01*
X130513962Y-109877214D01*
X130888745Y-110068020D01*
X131293551Y-110182044D01*
X131712824Y-110214902D01*
X132130451Y-110165334D01*
X132530383Y-110035243D01*
X132826038Y-109877214D01*
X132982048Y-109561653D01*
X136037952Y-109561653D01*
X136193962Y-109877214D01*
X136568745Y-110068020D01*
X136973551Y-110182044D01*
X137392824Y-110214902D01*
X137810451Y-110165334D01*
X138210383Y-110035243D01*
X138506038Y-109877214D01*
X138544647Y-109799119D01*
X154478724Y-109799119D01*
X157000000Y-112320395D01*
X159521276Y-109799119D01*
X159161088Y-109309452D01*
X158497118Y-108949151D01*
X157775615Y-108725306D01*
X157024305Y-108646520D01*
X156272062Y-108715822D01*
X155547792Y-108930548D01*
X154879330Y-109282445D01*
X154838912Y-109309452D01*
X154478724Y-109799119D01*
X138544647Y-109799119D01*
X138662048Y-109561653D01*
X137350000Y-108249605D01*
X136037952Y-109561653D01*
X132982048Y-109561653D01*
X131670000Y-108249605D01*
X130357952Y-109561653D01*
X129346602Y-109561653D01*
X129161088Y-109309452D01*
X128497118Y-108949151D01*
X127775615Y-108725306D01*
X127024305Y-108646520D01*
X126272062Y-108715822D01*
X125547792Y-108930548D01*
X124879330Y-109282445D01*
X124838912Y-109309452D01*
X124478724Y-109799119D01*
X123160000Y-109799119D01*
X123160000Y-108112824D01*
X129525098Y-108112824D01*
X129574666Y-108530451D01*
X129704757Y-108930383D01*
X129862786Y-109226038D01*
X130178347Y-109382048D01*
X131490395Y-108070000D01*
X131849605Y-108070000D01*
X133161653Y-109382048D01*
X133477214Y-109226038D01*
X133668020Y-108851255D01*
X133782044Y-108446449D01*
X133808189Y-108112824D01*
X135205098Y-108112824D01*
X135254666Y-108530451D01*
X135384757Y-108930383D01*
X135542786Y-109226038D01*
X135858347Y-109382048D01*
X137170395Y-108070000D01*
X137529605Y-108070000D01*
X138841653Y-109382048D01*
X139157214Y-109226038D01*
X139348020Y-108851255D01*
X139462044Y-108446449D01*
X139494902Y-108027176D01*
X139445334Y-107609549D01*
X139315243Y-107209617D01*
X139157214Y-106913962D01*
X138841653Y-106757952D01*
X137529605Y-108070000D01*
X137170395Y-108070000D01*
X135858347Y-106757952D01*
X135542786Y-106913962D01*
X135351980Y-107288745D01*
X135237956Y-107693551D01*
X135205098Y-108112824D01*
X133808189Y-108112824D01*
X133814902Y-108027176D01*
X133765334Y-107609549D01*
X133635243Y-107209617D01*
X133477214Y-106913962D01*
X133161653Y-106757952D01*
X131849605Y-108070000D01*
X131490395Y-108070000D01*
X130178347Y-106757952D01*
X129862786Y-106913962D01*
X129671980Y-107288745D01*
X129557956Y-107693551D01*
X129525098Y-108112824D01*
X123160000Y-108112824D01*
X123160000Y-106578347D01*
X130357952Y-106578347D01*
X131670000Y-107890395D01*
X132982048Y-106578347D01*
X136037952Y-106578347D01*
X137350000Y-107890395D01*
X138662048Y-106578347D01*
X138506038Y-106262786D01*
X138131255Y-106071980D01*
X137773489Y-105971206D01*
X137777388Y-105956993D01*
X137000000Y-105179605D01*
X136222612Y-105956993D01*
X136288137Y-106195860D01*
X136304664Y-106203615D01*
X136193962Y-106262786D01*
X136037952Y-106578347D01*
X132982048Y-106578347D01*
X132826038Y-106262786D01*
X132451255Y-106071980D01*
X132046449Y-105957956D01*
X132034161Y-105956993D01*
X133602612Y-105956993D01*
X133668137Y-106195860D01*
X133915116Y-106311760D01*
X134179960Y-106377250D01*
X134452492Y-106389812D01*
X134722238Y-106348965D01*
X134978832Y-106256277D01*
X135091863Y-106195860D01*
X135157388Y-105956993D01*
X134380000Y-105179605D01*
X133602612Y-105956993D01*
X132034161Y-105956993D01*
X131627176Y-105925098D01*
X131209549Y-105974666D01*
X130809617Y-106104757D01*
X130513962Y-106262786D01*
X130357952Y-106578347D01*
X123160000Y-106578347D01*
X123160000Y-105072492D01*
X132990188Y-105072492D01*
X133031035Y-105342238D01*
X133123723Y-105598832D01*
X133184140Y-105711863D01*
X133423007Y-105777388D01*
X134200395Y-105000000D01*
X134559605Y-105000000D01*
X135336993Y-105777388D01*
X135575860Y-105711863D01*
X135691760Y-105464884D01*
X135693214Y-105459004D01*
X135743723Y-105598832D01*
X135804140Y-105711863D01*
X136043007Y-105777388D01*
X136820395Y-105000000D01*
X137179605Y-105000000D01*
X137956993Y-105777388D01*
X138195860Y-105711863D01*
X138224890Y-105650000D01*
X161511928Y-105650000D01*
X161511928Y-107350000D01*
X161524188Y-107474482D01*
X161560498Y-107594180D01*
X161619463Y-107704494D01*
X161698815Y-107801185D01*
X161795506Y-107880537D01*
X161905820Y-107939502D01*
X161947690Y-107952203D01*
X161846525Y-108053368D01*
X161684010Y-108296589D01*
X161572068Y-108566842D01*
X161515000Y-108853740D01*
X161515000Y-109146260D01*
X161572068Y-109433158D01*
X161684010Y-109703411D01*
X161846525Y-109946632D01*
X162053368Y-110153475D01*
X162296589Y-110315990D01*
X162566842Y-110427932D01*
X162853740Y-110485000D01*
X163146260Y-110485000D01*
X163433158Y-110427932D01*
X163703411Y-110315990D01*
X163946632Y-110153475D01*
X164000000Y-110100107D01*
X164053368Y-110153475D01*
X164296589Y-110315990D01*
X164566842Y-110427932D01*
X164853740Y-110485000D01*
X165146260Y-110485000D01*
X165433158Y-110427932D01*
X165703411Y-110315990D01*
X165946632Y-110153475D01*
X166153475Y-109946632D01*
X166315990Y-109703411D01*
X166427932Y-109433158D01*
X166485000Y-109146260D01*
X166485000Y-108853740D01*
X166427932Y-108566842D01*
X166315990Y-108296589D01*
X166153475Y-108053368D01*
X165946632Y-107846525D01*
X165783590Y-107737584D01*
X165848792Y-107528397D01*
X165000000Y-106679605D01*
X164985858Y-106693748D01*
X164806253Y-106514143D01*
X164820395Y-106500000D01*
X165179605Y-106500000D01*
X166028397Y-107348792D01*
X166277472Y-107271157D01*
X166403371Y-107007117D01*
X166475339Y-106723589D01*
X166490611Y-106431469D01*
X166448599Y-106141981D01*
X166350919Y-105866253D01*
X166277472Y-105728843D01*
X166028397Y-105651208D01*
X165179605Y-106500000D01*
X164820395Y-106500000D01*
X164806253Y-106485858D01*
X164985858Y-106306253D01*
X165000000Y-106320395D01*
X165848792Y-105471603D01*
X165771157Y-105222528D01*
X165507117Y-105096629D01*
X165223589Y-105024661D01*
X164931469Y-105009389D01*
X164641981Y-105051401D01*
X164366253Y-105149081D01*
X164290150Y-105189759D01*
X164204494Y-105119463D01*
X164094180Y-105060498D01*
X163974482Y-105024188D01*
X163850000Y-105011928D01*
X162150000Y-105011928D01*
X162025518Y-105024188D01*
X161905820Y-105060498D01*
X161795506Y-105119463D01*
X161698815Y-105198815D01*
X161619463Y-105295506D01*
X161560498Y-105405820D01*
X161524188Y-105525518D01*
X161511928Y-105650000D01*
X138224890Y-105650000D01*
X138311760Y-105464884D01*
X138377250Y-105200040D01*
X138389812Y-104927508D01*
X138348965Y-104657762D01*
X138256277Y-104401168D01*
X138195860Y-104288137D01*
X137956993Y-104222612D01*
X137179605Y-105000000D01*
X136820395Y-105000000D01*
X136043007Y-104222612D01*
X135804140Y-104288137D01*
X135688240Y-104535116D01*
X135686786Y-104540996D01*
X135636277Y-104401168D01*
X135575860Y-104288137D01*
X135336993Y-104222612D01*
X134559605Y-105000000D01*
X134200395Y-105000000D01*
X133423007Y-104222612D01*
X133184140Y-104288137D01*
X133068240Y-104535116D01*
X133002750Y-104799960D01*
X132990188Y-105072492D01*
X123160000Y-105072492D01*
X123160000Y-100921861D01*
X131165000Y-100921861D01*
X131165000Y-101125739D01*
X131204774Y-101325698D01*
X131282795Y-101514056D01*
X131396063Y-101683574D01*
X131540226Y-101827737D01*
X131709744Y-101941005D01*
X131898102Y-102019026D01*
X132098061Y-102058800D01*
X132301939Y-102058800D01*
X132501898Y-102019026D01*
X132690256Y-101941005D01*
X132723794Y-101918596D01*
X133023833Y-102218635D01*
X132995000Y-102363589D01*
X132995000Y-102636411D01*
X133048225Y-102903989D01*
X133152629Y-103156043D01*
X133304201Y-103382886D01*
X133497114Y-103575799D01*
X133723957Y-103727371D01*
X133773426Y-103747861D01*
X133668137Y-103804140D01*
X133602612Y-104043007D01*
X134380000Y-104820395D01*
X135157388Y-104043007D01*
X135091863Y-103804140D01*
X134978799Y-103751082D01*
X135036043Y-103727371D01*
X135262886Y-103575799D01*
X135455799Y-103382886D01*
X135607371Y-103156043D01*
X135690000Y-102956559D01*
X135772629Y-103156043D01*
X135924201Y-103382886D01*
X136117114Y-103575799D01*
X136343957Y-103727371D01*
X136393426Y-103747861D01*
X136288137Y-103804140D01*
X136222612Y-104043007D01*
X137000000Y-104820395D01*
X137777388Y-104043007D01*
X137711863Y-103804140D01*
X137598799Y-103751082D01*
X137656043Y-103727371D01*
X137882886Y-103575799D01*
X138059076Y-103399609D01*
X166219997Y-103399609D01*
X166406073Y-103740766D01*
X166823409Y-103956513D01*
X167274815Y-104086696D01*
X167742946Y-104126313D01*
X168209811Y-104073842D01*
X168657468Y-103931297D01*
X169013927Y-103740766D01*
X169200003Y-103399609D01*
X167710000Y-101909605D01*
X166219997Y-103399609D01*
X138059076Y-103399609D01*
X138075799Y-103382886D01*
X138227371Y-103156043D01*
X138331775Y-102903989D01*
X138385000Y-102636411D01*
X138385000Y-102363589D01*
X138331775Y-102096011D01*
X138227371Y-101843957D01*
X138173242Y-101762946D01*
X165313687Y-101762946D01*
X165366158Y-102229811D01*
X165508703Y-102677468D01*
X165699234Y-103033927D01*
X166040391Y-103220003D01*
X167530395Y-101730000D01*
X167889605Y-101730000D01*
X169379609Y-103220003D01*
X169720766Y-103033927D01*
X169936513Y-102616591D01*
X170066696Y-102165185D01*
X170106313Y-101697054D01*
X170053842Y-101230189D01*
X169911297Y-100782532D01*
X169720766Y-100426073D01*
X169379609Y-100239997D01*
X167889605Y-101730000D01*
X167530395Y-101730000D01*
X166040391Y-100239997D01*
X165699234Y-100426073D01*
X165483487Y-100843409D01*
X165353304Y-101294815D01*
X165313687Y-101762946D01*
X138173242Y-101762946D01*
X138075799Y-101617114D01*
X137958685Y-101500000D01*
X138075799Y-101382886D01*
X138227371Y-101156043D01*
X138331775Y-100903989D01*
X138385000Y-100636411D01*
X138385000Y-100363589D01*
X138331775Y-100096011D01*
X138317021Y-100060391D01*
X166219997Y-100060391D01*
X167710000Y-101550395D01*
X169200003Y-100060391D01*
X169013927Y-99719234D01*
X168596591Y-99503487D01*
X168145185Y-99373304D01*
X167677054Y-99333687D01*
X167210189Y-99386158D01*
X166762532Y-99528703D01*
X166406073Y-99719234D01*
X166219997Y-100060391D01*
X138317021Y-100060391D01*
X138227371Y-99843957D01*
X138075799Y-99617114D01*
X137882886Y-99424201D01*
X137818690Y-99381307D01*
X137874482Y-99375812D01*
X137994180Y-99339502D01*
X138104494Y-99280537D01*
X138201185Y-99201185D01*
X138280537Y-99104494D01*
X138339502Y-98994180D01*
X138375812Y-98874482D01*
X138388072Y-98750000D01*
X138388072Y-97250000D01*
X138375812Y-97125518D01*
X138339502Y-97005820D01*
X138280537Y-96895506D01*
X138258997Y-96869259D01*
X138506038Y-96737214D01*
X138573875Y-96600000D01*
X172761928Y-96600000D01*
X172774188Y-96724482D01*
X172810498Y-96844180D01*
X172869463Y-96954494D01*
X172948815Y-97051185D01*
X173045506Y-97130537D01*
X173155820Y-97189502D01*
X173275518Y-97225812D01*
X173400000Y-97238072D01*
X174214250Y-97235000D01*
X174373000Y-97076250D01*
X174373000Y-95627000D01*
X172923750Y-95627000D01*
X172765000Y-95785750D01*
X172761928Y-96600000D01*
X138573875Y-96600000D01*
X138662048Y-96421653D01*
X137350000Y-95109605D01*
X136037952Y-96421653D01*
X136137500Y-96623008D01*
X136125518Y-96624188D01*
X136005820Y-96660498D01*
X135895506Y-96719463D01*
X135798815Y-96798815D01*
X135719463Y-96895506D01*
X135660498Y-97005820D01*
X135624188Y-97125518D01*
X135611928Y-97250000D01*
X135611928Y-97354959D01*
X135607371Y-97343957D01*
X135455799Y-97117114D01*
X135262886Y-96924201D01*
X135036043Y-96772629D01*
X134783989Y-96668225D01*
X134516411Y-96615000D01*
X134243589Y-96615000D01*
X133976011Y-96668225D01*
X133723957Y-96772629D01*
X133497114Y-96924201D01*
X133304201Y-97117114D01*
X133152629Y-97343957D01*
X133048225Y-97596011D01*
X132995000Y-97863589D01*
X132995000Y-98136411D01*
X133048225Y-98403989D01*
X133152629Y-98656043D01*
X133304201Y-98882886D01*
X133497114Y-99075799D01*
X133723957Y-99227371D01*
X133778588Y-99250000D01*
X133723957Y-99272629D01*
X133497114Y-99424201D01*
X133304201Y-99617114D01*
X133152629Y-99843957D01*
X133048225Y-100096011D01*
X133013433Y-100270921D01*
X132941133Y-100263800D01*
X132941122Y-100263800D01*
X132903800Y-100260124D01*
X132900373Y-100260462D01*
X132859774Y-100219863D01*
X132690256Y-100106595D01*
X132501898Y-100028574D01*
X132301939Y-99988800D01*
X132098061Y-99988800D01*
X131898102Y-100028574D01*
X131709744Y-100106595D01*
X131540226Y-100219863D01*
X131396063Y-100364026D01*
X131282795Y-100533544D01*
X131204774Y-100721902D01*
X131165000Y-100921861D01*
X123160000Y-100921861D01*
X123160000Y-96421653D01*
X130357952Y-96421653D01*
X130513962Y-96737214D01*
X130888745Y-96928020D01*
X131293551Y-97042044D01*
X131712824Y-97074902D01*
X132130451Y-97025334D01*
X132530383Y-96895243D01*
X132826038Y-96737214D01*
X132982048Y-96421653D01*
X131670000Y-95109605D01*
X130357952Y-96421653D01*
X123160000Y-96421653D01*
X123160000Y-94972824D01*
X129525098Y-94972824D01*
X129574666Y-95390451D01*
X129704757Y-95790383D01*
X129862786Y-96086038D01*
X130178347Y-96242048D01*
X131490395Y-94930000D01*
X131849605Y-94930000D01*
X133161653Y-96242048D01*
X133477214Y-96086038D01*
X133668020Y-95711255D01*
X133782044Y-95306449D01*
X133808189Y-94972824D01*
X135205098Y-94972824D01*
X135254666Y-95390451D01*
X135384757Y-95790383D01*
X135542786Y-96086038D01*
X135858347Y-96242048D01*
X137170395Y-94930000D01*
X137529605Y-94930000D01*
X138841653Y-96242048D01*
X139157214Y-96086038D01*
X139348020Y-95711255D01*
X139462044Y-95306449D01*
X139494902Y-94887176D01*
X139445334Y-94469549D01*
X139422711Y-94400000D01*
X172761928Y-94400000D01*
X172765000Y-95214250D01*
X172923750Y-95373000D01*
X174373000Y-95373000D01*
X174373000Y-95353000D01*
X174627000Y-95353000D01*
X174627000Y-95373000D01*
X174647000Y-95373000D01*
X174647000Y-95627000D01*
X174627000Y-95627000D01*
X174627000Y-97076250D01*
X174785750Y-97235000D01*
X175600000Y-97238072D01*
X175724482Y-97225812D01*
X175844180Y-97189502D01*
X175954494Y-97130537D01*
X176051185Y-97051185D01*
X176130537Y-96954494D01*
X176189502Y-96844180D01*
X176225812Y-96724482D01*
X176238072Y-96600000D01*
X176237216Y-96373060D01*
X176284606Y-96420450D01*
X176478692Y-96550134D01*
X176694348Y-96639461D01*
X176923288Y-96685000D01*
X177156712Y-96685000D01*
X177385652Y-96639461D01*
X177601308Y-96550134D01*
X177795394Y-96420450D01*
X177960450Y-96255394D01*
X178090134Y-96061308D01*
X178179461Y-95845652D01*
X178225000Y-95616712D01*
X178225000Y-95383288D01*
X178179461Y-95154348D01*
X178090134Y-94938692D01*
X177960450Y-94744606D01*
X177795394Y-94579550D01*
X177601308Y-94449866D01*
X177385652Y-94360539D01*
X177156712Y-94315000D01*
X176923288Y-94315000D01*
X176694348Y-94360539D01*
X176478692Y-94449866D01*
X176284606Y-94579550D01*
X176237216Y-94626940D01*
X176238072Y-94400000D01*
X176225812Y-94275518D01*
X176189502Y-94155820D01*
X176130537Y-94045506D01*
X176051185Y-93948815D01*
X175970310Y-93882443D01*
X176037537Y-93781831D01*
X176085910Y-93665048D01*
X176119550Y-93715394D01*
X176284606Y-93880450D01*
X176478692Y-94010134D01*
X176694348Y-94099461D01*
X176923288Y-94145000D01*
X177156712Y-94145000D01*
X177385652Y-94099461D01*
X177601308Y-94010134D01*
X177795394Y-93880450D01*
X177960450Y-93715394D01*
X178090134Y-93521308D01*
X178179461Y-93305652D01*
X178225000Y-93076712D01*
X178225000Y-92843288D01*
X178179461Y-92614348D01*
X178090134Y-92398692D01*
X177960450Y-92204606D01*
X177795394Y-92039550D01*
X177601308Y-91909866D01*
X177385652Y-91820539D01*
X177156712Y-91775000D01*
X176923288Y-91775000D01*
X176694348Y-91820539D01*
X176478692Y-91909866D01*
X176284606Y-92039550D01*
X176119550Y-92204606D01*
X176085910Y-92254952D01*
X176037537Y-92138169D01*
X175847663Y-91854002D01*
X175605998Y-91612337D01*
X175321831Y-91422463D01*
X175006081Y-91291675D01*
X174670883Y-91225000D01*
X174329117Y-91225000D01*
X173993919Y-91291675D01*
X173678169Y-91422463D01*
X173394002Y-91612337D01*
X173152337Y-91854002D01*
X172962463Y-92138169D01*
X172831675Y-92453919D01*
X172765000Y-92789117D01*
X172765000Y-93130883D01*
X172831675Y-93466081D01*
X172962463Y-93781831D01*
X173029690Y-93882443D01*
X172948815Y-93948815D01*
X172869463Y-94045506D01*
X172810498Y-94155820D01*
X172774188Y-94275518D01*
X172761928Y-94400000D01*
X139422711Y-94400000D01*
X139315243Y-94069617D01*
X139157214Y-93773962D01*
X138841653Y-93617952D01*
X137529605Y-94930000D01*
X137170395Y-94930000D01*
X135858347Y-93617952D01*
X135542786Y-93773962D01*
X135351980Y-94148745D01*
X135237956Y-94553551D01*
X135205098Y-94972824D01*
X133808189Y-94972824D01*
X133814902Y-94887176D01*
X133765334Y-94469549D01*
X133635243Y-94069617D01*
X133477214Y-93773962D01*
X133161653Y-93617952D01*
X131849605Y-94930000D01*
X131490395Y-94930000D01*
X130178347Y-93617952D01*
X129862786Y-93773962D01*
X129671980Y-94148745D01*
X129557956Y-94553551D01*
X129525098Y-94972824D01*
X123160000Y-94972824D01*
X123160000Y-93438347D01*
X130357952Y-93438347D01*
X131670000Y-94750395D01*
X132982048Y-93438347D01*
X136037952Y-93438347D01*
X137350000Y-94750395D01*
X138662048Y-93438347D01*
X138506038Y-93122786D01*
X138131255Y-92931980D01*
X137726449Y-92817956D01*
X137307176Y-92785098D01*
X136889549Y-92834666D01*
X136489617Y-92964757D01*
X136193962Y-93122786D01*
X136037952Y-93438347D01*
X132982048Y-93438347D01*
X132826038Y-93122786D01*
X132451255Y-92931980D01*
X132046449Y-92817956D01*
X131627176Y-92785098D01*
X131209549Y-92834666D01*
X130809617Y-92964757D01*
X130513962Y-93122786D01*
X130357952Y-93438347D01*
X123160000Y-93438347D01*
X123160000Y-92598061D01*
X148565000Y-92598061D01*
X148565000Y-92801939D01*
X148604774Y-93001898D01*
X148682795Y-93190256D01*
X148796063Y-93359774D01*
X148940226Y-93503937D01*
X149109744Y-93617205D01*
X149298102Y-93695226D01*
X149498061Y-93735000D01*
X149701939Y-93735000D01*
X149901898Y-93695226D01*
X150090256Y-93617205D01*
X150259774Y-93503937D01*
X150303711Y-93460000D01*
X150696289Y-93460000D01*
X150740226Y-93503937D01*
X150909744Y-93617205D01*
X151098102Y-93695226D01*
X151298061Y-93735000D01*
X151501939Y-93735000D01*
X151701898Y-93695226D01*
X151890256Y-93617205D01*
X152059774Y-93503937D01*
X152203937Y-93359774D01*
X152317205Y-93190256D01*
X152395226Y-93001898D01*
X152435000Y-92801939D01*
X152435000Y-92598061D01*
X152395226Y-92398102D01*
X152317205Y-92209744D01*
X152203937Y-92040226D01*
X152059774Y-91896063D01*
X151890256Y-91782795D01*
X151701898Y-91704774D01*
X151501939Y-91665000D01*
X151298061Y-91665000D01*
X151098102Y-91704774D01*
X150909744Y-91782795D01*
X150740226Y-91896063D01*
X150696289Y-91940000D01*
X150303711Y-91940000D01*
X150259774Y-91896063D01*
X150090256Y-91782795D01*
X149901898Y-91704774D01*
X149701939Y-91665000D01*
X149498061Y-91665000D01*
X149298102Y-91704774D01*
X149109744Y-91782795D01*
X148940226Y-91896063D01*
X148796063Y-92040226D01*
X148682795Y-92209744D01*
X148604774Y-92398102D01*
X148565000Y-92598061D01*
X123160000Y-92598061D01*
X123160000Y-89225442D01*
X128292381Y-89225442D01*
X128292381Y-89429320D01*
X128332155Y-89629279D01*
X128410176Y-89817637D01*
X128523444Y-89987155D01*
X128667607Y-90131318D01*
X128837125Y-90244586D01*
X128861812Y-90254812D01*
X130572569Y-91965569D01*
X130582795Y-91990256D01*
X130696063Y-92159774D01*
X130840226Y-92303937D01*
X131009744Y-92417205D01*
X131198102Y-92495226D01*
X131398061Y-92535000D01*
X131601939Y-92535000D01*
X131801898Y-92495226D01*
X131990256Y-92417205D01*
X132159774Y-92303937D01*
X132303937Y-92159774D01*
X132417205Y-91990256D01*
X132495226Y-91801898D01*
X132535000Y-91601939D01*
X132535000Y-91398061D01*
X132495226Y-91198102D01*
X132417205Y-91009744D01*
X132303937Y-90840226D01*
X132159774Y-90696063D01*
X131990256Y-90582795D01*
X131965569Y-90572569D01*
X130254812Y-88861812D01*
X130244586Y-88837125D01*
X130131318Y-88667607D01*
X129987155Y-88523444D01*
X129817637Y-88410176D01*
X129629279Y-88332155D01*
X129429320Y-88292381D01*
X129225442Y-88292381D01*
X129025483Y-88332155D01*
X128837125Y-88410176D01*
X128667607Y-88523444D01*
X128523444Y-88667607D01*
X128410176Y-88837125D01*
X128332155Y-89025483D01*
X128292381Y-89225442D01*
X123160000Y-89225442D01*
X123160000Y-87298061D01*
X151565000Y-87298061D01*
X151565000Y-87501939D01*
X151604774Y-87701898D01*
X151682795Y-87890256D01*
X151796063Y-88059774D01*
X151840001Y-88103712D01*
X151840000Y-88296289D01*
X151796063Y-88340226D01*
X151682795Y-88509744D01*
X151604774Y-88698102D01*
X151565000Y-88898061D01*
X151565000Y-89101939D01*
X151604774Y-89301898D01*
X151682795Y-89490256D01*
X151796063Y-89659774D01*
X151940226Y-89803937D01*
X152109744Y-89917205D01*
X152298102Y-89995226D01*
X152498061Y-90035000D01*
X152701939Y-90035000D01*
X152901898Y-89995226D01*
X153090256Y-89917205D01*
X153259774Y-89803937D01*
X153403937Y-89659774D01*
X153517205Y-89490256D01*
X153595226Y-89301898D01*
X153635000Y-89101939D01*
X153635000Y-88898061D01*
X153595226Y-88698102D01*
X153517205Y-88509744D01*
X153403937Y-88340226D01*
X153360000Y-88296289D01*
X153360000Y-88103711D01*
X153403937Y-88059774D01*
X153517205Y-87890256D01*
X153595226Y-87701898D01*
X153635000Y-87501939D01*
X153635000Y-87298061D01*
X153595226Y-87098102D01*
X153517205Y-86909744D01*
X153403937Y-86740226D01*
X153259774Y-86596063D01*
X153090256Y-86482795D01*
X152901898Y-86404774D01*
X152868150Y-86398061D01*
X153765000Y-86398061D01*
X153765000Y-86601939D01*
X153804774Y-86801898D01*
X153882795Y-86990256D01*
X153996063Y-87159774D01*
X154040000Y-87203711D01*
X154040000Y-87837677D01*
X154036324Y-87875000D01*
X154040000Y-87912322D01*
X154040000Y-87912332D01*
X154050997Y-88023985D01*
X154068837Y-88082795D01*
X154094454Y-88167246D01*
X154165026Y-88299276D01*
X154196491Y-88337616D01*
X154259999Y-88415001D01*
X154289002Y-88438803D01*
X154365000Y-88514801D01*
X154365000Y-88576939D01*
X154404774Y-88776898D01*
X154482795Y-88965256D01*
X154596063Y-89134774D01*
X154740226Y-89278937D01*
X154909744Y-89392205D01*
X155098102Y-89470226D01*
X155298061Y-89510000D01*
X155501939Y-89510000D01*
X155701898Y-89470226D01*
X155890256Y-89392205D01*
X156059774Y-89278937D01*
X156203937Y-89134774D01*
X156317205Y-88965256D01*
X156395226Y-88776898D01*
X156435000Y-88576939D01*
X156435000Y-88373061D01*
X156395226Y-88173102D01*
X156317205Y-87984744D01*
X156203937Y-87815226D01*
X156059774Y-87671063D01*
X155890256Y-87557795D01*
X155701898Y-87479774D01*
X155560000Y-87451549D01*
X155560000Y-87203711D01*
X155603937Y-87159774D01*
X155717205Y-86990256D01*
X155795226Y-86801898D01*
X155835000Y-86601939D01*
X155835000Y-86398061D01*
X155795226Y-86198102D01*
X155717205Y-86009744D01*
X155603937Y-85840226D01*
X155459774Y-85696063D01*
X155290256Y-85582795D01*
X155101898Y-85504774D01*
X154901939Y-85465000D01*
X154698061Y-85465000D01*
X154498102Y-85504774D01*
X154309744Y-85582795D01*
X154140226Y-85696063D01*
X153996063Y-85840226D01*
X153882795Y-86009744D01*
X153804774Y-86198102D01*
X153765000Y-86398061D01*
X152868150Y-86398061D01*
X152701939Y-86365000D01*
X152498061Y-86365000D01*
X152298102Y-86404774D01*
X152109744Y-86482795D01*
X151940226Y-86596063D01*
X151796063Y-86740226D01*
X151682795Y-86909744D01*
X151604774Y-87098102D01*
X151565000Y-87298061D01*
X123160000Y-87298061D01*
X123160000Y-84398061D01*
X158465000Y-84398061D01*
X158465000Y-84601939D01*
X158504774Y-84801898D01*
X158582795Y-84990256D01*
X158696063Y-85159774D01*
X158840226Y-85303937D01*
X159009744Y-85417205D01*
X159198102Y-85495226D01*
X159398061Y-85535000D01*
X159601939Y-85535000D01*
X159801898Y-85495226D01*
X159990256Y-85417205D01*
X160159774Y-85303937D01*
X160203711Y-85260000D01*
X161958201Y-85260000D01*
X164434203Y-87736003D01*
X164458001Y-87765001D01*
X164486999Y-87788799D01*
X164573725Y-87859974D01*
X164671679Y-87912332D01*
X164705755Y-87930546D01*
X164849016Y-87974003D01*
X164960669Y-87985000D01*
X164960679Y-87985000D01*
X164998002Y-87988676D01*
X165035325Y-87985000D01*
X167296289Y-87985000D01*
X167340226Y-88028937D01*
X167509744Y-88142205D01*
X167698102Y-88220226D01*
X167898061Y-88260000D01*
X168101939Y-88260000D01*
X168301898Y-88220226D01*
X168490256Y-88142205D01*
X168659774Y-88028937D01*
X168803937Y-87884774D01*
X168917205Y-87715256D01*
X168995226Y-87526898D01*
X169035000Y-87326939D01*
X169035000Y-87123061D01*
X168995226Y-86923102D01*
X168917205Y-86734744D01*
X168803937Y-86565226D01*
X168659774Y-86421063D01*
X168490256Y-86307795D01*
X168301898Y-86229774D01*
X168101939Y-86190000D01*
X167898061Y-86190000D01*
X167698102Y-86229774D01*
X167509744Y-86307795D01*
X167340226Y-86421063D01*
X167296289Y-86465000D01*
X165312804Y-86465000D01*
X162836806Y-83989003D01*
X162813003Y-83959999D01*
X162697278Y-83865026D01*
X162565249Y-83794454D01*
X162421988Y-83750997D01*
X162310335Y-83740000D01*
X162310324Y-83740000D01*
X162273002Y-83736324D01*
X162235680Y-83740000D01*
X160203711Y-83740000D01*
X160159774Y-83696063D01*
X159990256Y-83582795D01*
X159801898Y-83504774D01*
X159601939Y-83465000D01*
X159398061Y-83465000D01*
X159198102Y-83504774D01*
X159009744Y-83582795D01*
X158840226Y-83696063D01*
X158696063Y-83840226D01*
X158582795Y-84009744D01*
X158504774Y-84198102D01*
X158465000Y-84398061D01*
X123160000Y-84398061D01*
X123160000Y-83561653D01*
X130357952Y-83561653D01*
X130513962Y-83877214D01*
X130888745Y-84068020D01*
X131293551Y-84182044D01*
X131712824Y-84214902D01*
X132130451Y-84165334D01*
X132530383Y-84035243D01*
X132826038Y-83877214D01*
X132982048Y-83561653D01*
X136037952Y-83561653D01*
X136193962Y-83877214D01*
X136568745Y-84068020D01*
X136973551Y-84182044D01*
X137392824Y-84214902D01*
X137810451Y-84165334D01*
X138210383Y-84035243D01*
X138506038Y-83877214D01*
X138662048Y-83561653D01*
X137350000Y-82249605D01*
X136037952Y-83561653D01*
X132982048Y-83561653D01*
X131670000Y-82249605D01*
X130357952Y-83561653D01*
X123160000Y-83561653D01*
X123160000Y-82112824D01*
X129525098Y-82112824D01*
X129574666Y-82530451D01*
X129704757Y-82930383D01*
X129862786Y-83226038D01*
X130178347Y-83382048D01*
X131490395Y-82070000D01*
X131849605Y-82070000D01*
X133161653Y-83382048D01*
X133477214Y-83226038D01*
X133668020Y-82851255D01*
X133782044Y-82446449D01*
X133808189Y-82112824D01*
X135205098Y-82112824D01*
X135254666Y-82530451D01*
X135384757Y-82930383D01*
X135542786Y-83226038D01*
X135858347Y-83382048D01*
X137170395Y-82070000D01*
X137529605Y-82070000D01*
X138841653Y-83382048D01*
X139157214Y-83226038D01*
X139348020Y-82851255D01*
X139390376Y-82700881D01*
X171978724Y-82700881D01*
X172338912Y-83190548D01*
X173002882Y-83550849D01*
X173724385Y-83774694D01*
X174475695Y-83853480D01*
X175227938Y-83784178D01*
X175952208Y-83569452D01*
X176620670Y-83217555D01*
X176661088Y-83190548D01*
X177021276Y-82700881D01*
X174500000Y-80179605D01*
X171978724Y-82700881D01*
X139390376Y-82700881D01*
X139462044Y-82446449D01*
X139494902Y-82027176D01*
X139445334Y-81609549D01*
X139315243Y-81209617D01*
X139157214Y-80913962D01*
X138841653Y-80757952D01*
X137529605Y-82070000D01*
X137170395Y-82070000D01*
X135858347Y-80757952D01*
X135542786Y-80913962D01*
X135351980Y-81288745D01*
X135237956Y-81693551D01*
X135205098Y-82112824D01*
X133808189Y-82112824D01*
X133814902Y-82027176D01*
X133765334Y-81609549D01*
X133635243Y-81209617D01*
X133477214Y-80913962D01*
X133161653Y-80757952D01*
X131849605Y-82070000D01*
X131490395Y-82070000D01*
X130178347Y-80757952D01*
X129862786Y-80913962D01*
X129671980Y-81288745D01*
X129557956Y-81693551D01*
X129525098Y-82112824D01*
X123160000Y-82112824D01*
X123160000Y-80578347D01*
X130357952Y-80578347D01*
X131670000Y-81890395D01*
X132982048Y-80578347D01*
X136037952Y-80578347D01*
X137350000Y-81890395D01*
X138662048Y-80578347D01*
X138506038Y-80262786D01*
X138131255Y-80071980D01*
X137789426Y-79975695D01*
X170646520Y-79975695D01*
X170715822Y-80727938D01*
X170930548Y-81452208D01*
X171282445Y-82120670D01*
X171309452Y-82161088D01*
X171799119Y-82521276D01*
X174320395Y-80000000D01*
X171799119Y-77478724D01*
X171309452Y-77838912D01*
X170949151Y-78502882D01*
X170725306Y-79224385D01*
X170646520Y-79975695D01*
X137789426Y-79975695D01*
X137773489Y-79971206D01*
X137777388Y-79956993D01*
X137000000Y-79179605D01*
X136222612Y-79956993D01*
X136288137Y-80195860D01*
X136304664Y-80203615D01*
X136193962Y-80262786D01*
X136037952Y-80578347D01*
X132982048Y-80578347D01*
X132826038Y-80262786D01*
X132451255Y-80071980D01*
X132046449Y-79957956D01*
X132034161Y-79956993D01*
X133602612Y-79956993D01*
X133668137Y-80195860D01*
X133915116Y-80311760D01*
X134179960Y-80377250D01*
X134452492Y-80389812D01*
X134722238Y-80348965D01*
X134978832Y-80256277D01*
X135091863Y-80195860D01*
X135157388Y-79956993D01*
X134380000Y-79179605D01*
X133602612Y-79956993D01*
X132034161Y-79956993D01*
X131627176Y-79925098D01*
X131209549Y-79974666D01*
X130809617Y-80104757D01*
X130513962Y-80262786D01*
X130357952Y-80578347D01*
X123160000Y-80578347D01*
X123160000Y-79072492D01*
X132990188Y-79072492D01*
X133031035Y-79342238D01*
X133123723Y-79598832D01*
X133184140Y-79711863D01*
X133423007Y-79777388D01*
X134200395Y-79000000D01*
X134559605Y-79000000D01*
X135336993Y-79777388D01*
X135575860Y-79711863D01*
X135691760Y-79464884D01*
X135693214Y-79459004D01*
X135743723Y-79598832D01*
X135804140Y-79711863D01*
X136043007Y-79777388D01*
X136820395Y-79000000D01*
X137179605Y-79000000D01*
X137956993Y-79777388D01*
X138195860Y-79711863D01*
X138311760Y-79464884D01*
X138377250Y-79200040D01*
X138389812Y-78927508D01*
X138348965Y-78657762D01*
X138256277Y-78401168D01*
X138195860Y-78288137D01*
X137956993Y-78222612D01*
X137179605Y-79000000D01*
X136820395Y-79000000D01*
X136043007Y-78222612D01*
X135804140Y-78288137D01*
X135688240Y-78535116D01*
X135686786Y-78540996D01*
X135636277Y-78401168D01*
X135575860Y-78288137D01*
X135336993Y-78222612D01*
X134559605Y-79000000D01*
X134200395Y-79000000D01*
X133423007Y-78222612D01*
X133184140Y-78288137D01*
X133068240Y-78535116D01*
X133002750Y-78799960D01*
X132990188Y-79072492D01*
X123160000Y-79072492D01*
X123160000Y-76434785D01*
X130901724Y-76434785D01*
X130901724Y-76638663D01*
X130941498Y-76838622D01*
X131019519Y-77026980D01*
X131132787Y-77196498D01*
X131276950Y-77340661D01*
X131446468Y-77453929D01*
X131634826Y-77531950D01*
X131834785Y-77571724D01*
X132038663Y-77571724D01*
X132238622Y-77531950D01*
X132426980Y-77453929D01*
X132596498Y-77340661D01*
X132740661Y-77196498D01*
X132853929Y-77026980D01*
X132931950Y-76838622D01*
X132971724Y-76638663D01*
X132971724Y-76576525D01*
X132995000Y-76553249D01*
X132995000Y-76636411D01*
X133048225Y-76903989D01*
X133152629Y-77156043D01*
X133304201Y-77382886D01*
X133497114Y-77575799D01*
X133723957Y-77727371D01*
X133773426Y-77747861D01*
X133668137Y-77804140D01*
X133602612Y-78043007D01*
X134380000Y-78820395D01*
X135157388Y-78043007D01*
X135091863Y-77804140D01*
X134978799Y-77751082D01*
X135036043Y-77727371D01*
X135262886Y-77575799D01*
X135455799Y-77382886D01*
X135607371Y-77156043D01*
X135690000Y-76956559D01*
X135772629Y-77156043D01*
X135924201Y-77382886D01*
X136117114Y-77575799D01*
X136343957Y-77727371D01*
X136393426Y-77747861D01*
X136288137Y-77804140D01*
X136222612Y-78043007D01*
X137000000Y-78820395D01*
X137777388Y-78043007D01*
X137711863Y-77804140D01*
X137598799Y-77751082D01*
X137656043Y-77727371D01*
X137882886Y-77575799D01*
X138075799Y-77382886D01*
X138227371Y-77156043D01*
X138331775Y-76903989D01*
X138385000Y-76636411D01*
X138385000Y-76363589D01*
X138331775Y-76096011D01*
X138227371Y-75843957D01*
X138075799Y-75617114D01*
X137958685Y-75500000D01*
X138075799Y-75382886D01*
X138227371Y-75156043D01*
X138331775Y-74903989D01*
X138385000Y-74636411D01*
X138385000Y-74363589D01*
X138331775Y-74096011D01*
X138227371Y-73843957D01*
X138075799Y-73617114D01*
X137882886Y-73424201D01*
X137818690Y-73381307D01*
X137874482Y-73375812D01*
X137994180Y-73339502D01*
X138104494Y-73280537D01*
X138201185Y-73201185D01*
X138280537Y-73104494D01*
X138339502Y-72994180D01*
X138375812Y-72874482D01*
X138388072Y-72750000D01*
X138388072Y-71250000D01*
X138375812Y-71125518D01*
X138339502Y-71005820D01*
X138280537Y-70895506D01*
X138258997Y-70869259D01*
X138506038Y-70737214D01*
X138662048Y-70421653D01*
X137350000Y-69109605D01*
X136037952Y-70421653D01*
X136137500Y-70623008D01*
X136125518Y-70624188D01*
X136005820Y-70660498D01*
X135895506Y-70719463D01*
X135798815Y-70798815D01*
X135719463Y-70895506D01*
X135660498Y-71005820D01*
X135624188Y-71125518D01*
X135611928Y-71250000D01*
X135611928Y-71354959D01*
X135607371Y-71343957D01*
X135455799Y-71117114D01*
X135262886Y-70924201D01*
X135036043Y-70772629D01*
X134783989Y-70668225D01*
X134516411Y-70615000D01*
X134243589Y-70615000D01*
X133976011Y-70668225D01*
X133723957Y-70772629D01*
X133497114Y-70924201D01*
X133304201Y-71117114D01*
X133152629Y-71343957D01*
X133048225Y-71596011D01*
X132995000Y-71863589D01*
X132995000Y-72136411D01*
X133048225Y-72403989D01*
X133152629Y-72656043D01*
X133304201Y-72882886D01*
X133497114Y-73075799D01*
X133723957Y-73227371D01*
X133778588Y-73250000D01*
X133723957Y-73272629D01*
X133497114Y-73424201D01*
X133304201Y-73617114D01*
X133152629Y-73843957D01*
X133048225Y-74096011D01*
X132995000Y-74363589D01*
X132995000Y-74403646D01*
X131896923Y-75501724D01*
X131834785Y-75501724D01*
X131634826Y-75541498D01*
X131446468Y-75619519D01*
X131276950Y-75732787D01*
X131132787Y-75876950D01*
X131019519Y-76046468D01*
X130941498Y-76234826D01*
X130901724Y-76434785D01*
X123160000Y-76434785D01*
X123160000Y-70421653D01*
X130357952Y-70421653D01*
X130513962Y-70737214D01*
X130888745Y-70928020D01*
X131293551Y-71042044D01*
X131712824Y-71074902D01*
X132130451Y-71025334D01*
X132530383Y-70895243D01*
X132826038Y-70737214D01*
X132982048Y-70421653D01*
X131670000Y-69109605D01*
X130357952Y-70421653D01*
X123160000Y-70421653D01*
X123160000Y-68972824D01*
X129525098Y-68972824D01*
X129574666Y-69390451D01*
X129704757Y-69790383D01*
X129862786Y-70086038D01*
X130178347Y-70242048D01*
X131490395Y-68930000D01*
X131849605Y-68930000D01*
X133161653Y-70242048D01*
X133477214Y-70086038D01*
X133668020Y-69711255D01*
X133782044Y-69306449D01*
X133808189Y-68972824D01*
X135205098Y-68972824D01*
X135254666Y-69390451D01*
X135384757Y-69790383D01*
X135542786Y-70086038D01*
X135858347Y-70242048D01*
X137170395Y-68930000D01*
X137529605Y-68930000D01*
X138841653Y-70242048D01*
X139157214Y-70086038D01*
X139348020Y-69711255D01*
X139462044Y-69306449D01*
X139494902Y-68887176D01*
X139445334Y-68469549D01*
X139315243Y-68069617D01*
X139157214Y-67773962D01*
X138841653Y-67617952D01*
X137529605Y-68930000D01*
X137170395Y-68930000D01*
X135858347Y-67617952D01*
X135542786Y-67773962D01*
X135351980Y-68148745D01*
X135237956Y-68553551D01*
X135205098Y-68972824D01*
X133808189Y-68972824D01*
X133814902Y-68887176D01*
X133765334Y-68469549D01*
X133635243Y-68069617D01*
X133477214Y-67773962D01*
X133161653Y-67617952D01*
X131849605Y-68930000D01*
X131490395Y-68930000D01*
X130178347Y-67617952D01*
X129862786Y-67773962D01*
X129671980Y-68148745D01*
X129557956Y-68553551D01*
X129525098Y-68972824D01*
X123160000Y-68972824D01*
X123160000Y-66700881D01*
X124478724Y-66700881D01*
X124838912Y-67190548D01*
X125502882Y-67550849D01*
X126224385Y-67774694D01*
X126975695Y-67853480D01*
X127727938Y-67784178D01*
X128452208Y-67569452D01*
X128701254Y-67438347D01*
X130357952Y-67438347D01*
X131670000Y-68750395D01*
X132982048Y-67438347D01*
X136037952Y-67438347D01*
X137350000Y-68750395D01*
X138662048Y-67438347D01*
X138506038Y-67122786D01*
X138131255Y-66931980D01*
X137726449Y-66817956D01*
X137307176Y-66785098D01*
X136889549Y-66834666D01*
X136489617Y-66964757D01*
X136193962Y-67122786D01*
X136037952Y-67438347D01*
X132982048Y-67438347D01*
X132826038Y-67122786D01*
X132451255Y-66931980D01*
X132046449Y-66817956D01*
X131627176Y-66785098D01*
X131209549Y-66834666D01*
X130809617Y-66964757D01*
X130513962Y-67122786D01*
X130357952Y-67438347D01*
X128701254Y-67438347D01*
X129120670Y-67217555D01*
X129161088Y-67190548D01*
X129521276Y-66700881D01*
X127000000Y-64179605D01*
X124478724Y-66700881D01*
X123160000Y-66700881D01*
X123160000Y-64122015D01*
X123215822Y-64727938D01*
X123430548Y-65452208D01*
X123782445Y-66120670D01*
X123809452Y-66161088D01*
X124299119Y-66521276D01*
X126820395Y-64000000D01*
X127179605Y-64000000D01*
X129700881Y-66521276D01*
X130190548Y-66161088D01*
X130550849Y-65497118D01*
X130774694Y-64775615D01*
X130853480Y-64024305D01*
X130784178Y-63272062D01*
X130569452Y-62547792D01*
X130217555Y-61879330D01*
X130190548Y-61838912D01*
X129700881Y-61478724D01*
X127179605Y-64000000D01*
X126820395Y-64000000D01*
X124299119Y-61478724D01*
X123809452Y-61838912D01*
X123449151Y-62502882D01*
X123225306Y-63224385D01*
X123160000Y-63847149D01*
X123160000Y-60160000D01*
X126877985Y-60160000D01*
X126272062Y-60215822D01*
%TA.AperFunction,Conductor*%
D24*
G36*
X126272062Y-60215822D02*
G01*
X125547792Y-60430548D01*
X124879330Y-60782445D01*
X124838912Y-60809452D01*
X124478724Y-61299119D01*
X127000000Y-63820395D01*
X129521276Y-61299119D01*
X129161088Y-60809452D01*
X128497118Y-60449151D01*
X127775615Y-60225306D01*
X127152851Y-60160000D01*
X140226620Y-60160000D01*
X140556233Y-60489614D01*
X140556239Y-60489619D01*
X145510388Y-65443769D01*
X145531052Y-65468948D01*
X145631550Y-65551425D01*
X145746207Y-65612710D01*
X145870617Y-65650450D01*
X145967581Y-65660000D01*
X145967591Y-65660000D01*
X146000000Y-65663192D01*
X146032409Y-65660000D01*
X153726620Y-65660000D01*
X164010388Y-75943769D01*
X164031052Y-75968948D01*
X164131550Y-76051425D01*
X164246207Y-76112710D01*
X164370617Y-76150450D01*
X164467581Y-76160000D01*
X164467590Y-76160000D01*
X164499999Y-76163192D01*
X164532408Y-76160000D01*
X174377985Y-76160000D01*
X173772062Y-76215822D01*
X173047792Y-76430548D01*
X172379330Y-76782445D01*
X172338912Y-76809452D01*
X171978724Y-77299119D01*
X174500000Y-79820395D01*
X177021276Y-77299119D01*
X176661088Y-76809452D01*
X175997118Y-76449151D01*
X175275615Y-76225306D01*
X174652851Y-76160000D01*
X178340001Y-76160000D01*
X178340001Y-79877995D01*
X178284178Y-79272062D01*
X178069452Y-78547792D01*
X177717555Y-77879330D01*
X177690548Y-77838912D01*
X177200881Y-77478724D01*
X174679605Y-80000000D01*
X177200881Y-82521276D01*
X177690548Y-82161088D01*
X178050849Y-81497118D01*
X178274694Y-80775615D01*
X178340001Y-80152843D01*
X178340000Y-116340000D01*
X157122015Y-116340000D01*
X157727938Y-116284178D01*
X158452208Y-116069452D01*
X159120670Y-115717555D01*
X159161088Y-115690548D01*
X159345673Y-115439609D01*
X166219997Y-115439609D01*
X166406073Y-115780766D01*
X166823409Y-115996513D01*
X167274815Y-116126696D01*
X167742946Y-116166313D01*
X168209811Y-116113842D01*
X168657468Y-115971297D01*
X169013927Y-115780766D01*
X169200003Y-115439609D01*
X167710000Y-113949605D01*
X166219997Y-115439609D01*
X159345673Y-115439609D01*
X159521276Y-115200881D01*
X157000000Y-112679605D01*
X154478724Y-115200881D01*
X154838912Y-115690548D01*
X155502882Y-116050849D01*
X156224385Y-116274694D01*
X156847149Y-116340000D01*
X127122015Y-116340000D01*
X127727938Y-116284178D01*
X128452208Y-116069452D01*
X129120670Y-115717555D01*
X129161088Y-115690548D01*
X129521276Y-115200881D01*
X127000000Y-112679605D01*
X124478724Y-115200881D01*
X124838912Y-115690548D01*
X125502882Y-116050849D01*
X126224385Y-116274694D01*
X126847149Y-116340000D01*
X123160000Y-116340000D01*
X123160000Y-112622015D01*
X123215822Y-113227938D01*
X123430548Y-113952208D01*
X123782445Y-114620670D01*
X123809452Y-114661088D01*
X124299119Y-115021276D01*
X126820395Y-112500000D01*
X127179605Y-112500000D01*
X129700881Y-115021276D01*
X130190548Y-114661088D01*
X130550849Y-113997118D01*
X130774694Y-113275615D01*
X130853480Y-112524305D01*
X130849002Y-112475695D01*
X153146520Y-112475695D01*
X153215822Y-113227938D01*
X153430548Y-113952208D01*
X153782445Y-114620670D01*
X153809452Y-114661088D01*
X154299119Y-115021276D01*
X156820395Y-112500000D01*
X157179605Y-112500000D01*
X159700881Y-115021276D01*
X160190548Y-114661088D01*
X160550849Y-113997118D01*
X160611090Y-113802946D01*
X165313687Y-113802946D01*
X165366158Y-114269811D01*
X165508703Y-114717468D01*
X165699234Y-115073927D01*
X166040391Y-115260003D01*
X167530395Y-113770000D01*
X167889605Y-113770000D01*
X169379609Y-115260003D01*
X169720766Y-115073927D01*
X169936513Y-114656591D01*
X170066696Y-114205185D01*
X170106313Y-113737054D01*
X170053842Y-113270189D01*
X169911297Y-112822532D01*
X169720766Y-112466073D01*
X169379609Y-112279997D01*
X167889605Y-113770000D01*
X167530395Y-113770000D01*
X166040391Y-112279997D01*
X165699234Y-112466073D01*
X165483487Y-112883409D01*
X165353304Y-113334815D01*
X165313687Y-113802946D01*
X160611090Y-113802946D01*
X160774694Y-113275615D01*
X160853480Y-112524305D01*
X160814427Y-112100391D01*
X166219997Y-112100391D01*
X167710000Y-113590395D01*
X169200003Y-112100391D01*
X169013927Y-111759234D01*
X168596591Y-111543487D01*
X168145185Y-111413304D01*
X167677054Y-111373687D01*
X167210189Y-111426158D01*
X166762532Y-111568703D01*
X166406073Y-111759234D01*
X166219997Y-112100391D01*
X160814427Y-112100391D01*
X160784178Y-111772062D01*
X160569452Y-111047792D01*
X160217555Y-110379330D01*
X160190548Y-110338912D01*
X159700881Y-109978724D01*
X157179605Y-112500000D01*
X156820395Y-112500000D01*
X154299119Y-109978724D01*
X153809452Y-110338912D01*
X153449151Y-111002882D01*
X153225306Y-111724385D01*
X153146520Y-112475695D01*
X130849002Y-112475695D01*
X130784178Y-111772062D01*
X130569452Y-111047792D01*
X130217555Y-110379330D01*
X130190548Y-110338912D01*
X129700881Y-109978724D01*
X127179605Y-112500000D01*
X126820395Y-112500000D01*
X124299119Y-109978724D01*
X123809452Y-110338912D01*
X123449151Y-111002882D01*
X123225306Y-111724385D01*
X123160000Y-112347149D01*
X123160000Y-109799119D01*
X124478724Y-109799119D01*
X127000000Y-112320395D01*
X129521276Y-109799119D01*
X129346602Y-109561653D01*
X130357952Y-109561653D01*
X130513962Y-109877214D01*
X130888745Y-110068020D01*
X131293551Y-110182044D01*
X131712824Y-110214902D01*
X132130451Y-110165334D01*
X132530383Y-110035243D01*
X132826038Y-109877214D01*
X132982048Y-109561653D01*
X136037952Y-109561653D01*
X136193962Y-109877214D01*
X136568745Y-110068020D01*
X136973551Y-110182044D01*
X137392824Y-110214902D01*
X137810451Y-110165334D01*
X138210383Y-110035243D01*
X138506038Y-109877214D01*
X138544647Y-109799119D01*
X154478724Y-109799119D01*
X157000000Y-112320395D01*
X159521276Y-109799119D01*
X159161088Y-109309452D01*
X158497118Y-108949151D01*
X157775615Y-108725306D01*
X157024305Y-108646520D01*
X156272062Y-108715822D01*
X155547792Y-108930548D01*
X154879330Y-109282445D01*
X154838912Y-109309452D01*
X154478724Y-109799119D01*
X138544647Y-109799119D01*
X138662048Y-109561653D01*
X137350000Y-108249605D01*
X136037952Y-109561653D01*
X132982048Y-109561653D01*
X131670000Y-108249605D01*
X130357952Y-109561653D01*
X129346602Y-109561653D01*
X129161088Y-109309452D01*
X128497118Y-108949151D01*
X127775615Y-108725306D01*
X127024305Y-108646520D01*
X126272062Y-108715822D01*
X125547792Y-108930548D01*
X124879330Y-109282445D01*
X124838912Y-109309452D01*
X124478724Y-109799119D01*
X123160000Y-109799119D01*
X123160000Y-108112824D01*
X129525098Y-108112824D01*
X129574666Y-108530451D01*
X129704757Y-108930383D01*
X129862786Y-109226038D01*
X130178347Y-109382048D01*
X131490395Y-108070000D01*
X131849605Y-108070000D01*
X133161653Y-109382048D01*
X133477214Y-109226038D01*
X133668020Y-108851255D01*
X133782044Y-108446449D01*
X133808189Y-108112824D01*
X135205098Y-108112824D01*
X135254666Y-108530451D01*
X135384757Y-108930383D01*
X135542786Y-109226038D01*
X135858347Y-109382048D01*
X137170395Y-108070000D01*
X137529605Y-108070000D01*
X138841653Y-109382048D01*
X139157214Y-109226038D01*
X139348020Y-108851255D01*
X139462044Y-108446449D01*
X139494902Y-108027176D01*
X139445334Y-107609549D01*
X139315243Y-107209617D01*
X139157214Y-106913962D01*
X138841653Y-106757952D01*
X137529605Y-108070000D01*
X137170395Y-108070000D01*
X135858347Y-106757952D01*
X135542786Y-106913962D01*
X135351980Y-107288745D01*
X135237956Y-107693551D01*
X135205098Y-108112824D01*
X133808189Y-108112824D01*
X133814902Y-108027176D01*
X133765334Y-107609549D01*
X133635243Y-107209617D01*
X133477214Y-106913962D01*
X133161653Y-106757952D01*
X131849605Y-108070000D01*
X131490395Y-108070000D01*
X130178347Y-106757952D01*
X129862786Y-106913962D01*
X129671980Y-107288745D01*
X129557956Y-107693551D01*
X129525098Y-108112824D01*
X123160000Y-108112824D01*
X123160000Y-106578347D01*
X130357952Y-106578347D01*
X131670000Y-107890395D01*
X132982048Y-106578347D01*
X136037952Y-106578347D01*
X137350000Y-107890395D01*
X138662048Y-106578347D01*
X138506038Y-106262786D01*
X138131255Y-106071980D01*
X137773489Y-105971206D01*
X137777388Y-105956993D01*
X137000000Y-105179605D01*
X136222612Y-105956993D01*
X136288137Y-106195860D01*
X136304664Y-106203615D01*
X136193962Y-106262786D01*
X136037952Y-106578347D01*
X132982048Y-106578347D01*
X132826038Y-106262786D01*
X132451255Y-106071980D01*
X132046449Y-105957956D01*
X132034161Y-105956993D01*
X133602612Y-105956993D01*
X133668137Y-106195860D01*
X133915116Y-106311760D01*
X134179960Y-106377250D01*
X134452492Y-106389812D01*
X134722238Y-106348965D01*
X134978832Y-106256277D01*
X135091863Y-106195860D01*
X135157388Y-105956993D01*
X134380000Y-105179605D01*
X133602612Y-105956993D01*
X132034161Y-105956993D01*
X131627176Y-105925098D01*
X131209549Y-105974666D01*
X130809617Y-106104757D01*
X130513962Y-106262786D01*
X130357952Y-106578347D01*
X123160000Y-106578347D01*
X123160000Y-105072492D01*
X132990188Y-105072492D01*
X133031035Y-105342238D01*
X133123723Y-105598832D01*
X133184140Y-105711863D01*
X133423007Y-105777388D01*
X134200395Y-105000000D01*
X134559605Y-105000000D01*
X135336993Y-105777388D01*
X135575860Y-105711863D01*
X135691760Y-105464884D01*
X135693214Y-105459004D01*
X135743723Y-105598832D01*
X135804140Y-105711863D01*
X136043007Y-105777388D01*
X136820395Y-105000000D01*
X137179605Y-105000000D01*
X137956993Y-105777388D01*
X138195860Y-105711863D01*
X138224890Y-105650000D01*
X161511928Y-105650000D01*
X161511928Y-107350000D01*
X161524188Y-107474482D01*
X161560498Y-107594180D01*
X161619463Y-107704494D01*
X161698815Y-107801185D01*
X161795506Y-107880537D01*
X161905820Y-107939502D01*
X161947690Y-107952203D01*
X161846525Y-108053368D01*
X161684010Y-108296589D01*
X161572068Y-108566842D01*
X161515000Y-108853740D01*
X161515000Y-109146260D01*
X161572068Y-109433158D01*
X161684010Y-109703411D01*
X161846525Y-109946632D01*
X162053368Y-110153475D01*
X162296589Y-110315990D01*
X162566842Y-110427932D01*
X162853740Y-110485000D01*
X163146260Y-110485000D01*
X163433158Y-110427932D01*
X163703411Y-110315990D01*
X163946632Y-110153475D01*
X164000000Y-110100107D01*
X164053368Y-110153475D01*
X164296589Y-110315990D01*
X164566842Y-110427932D01*
X164853740Y-110485000D01*
X165146260Y-110485000D01*
X165433158Y-110427932D01*
X165703411Y-110315990D01*
X165946632Y-110153475D01*
X166153475Y-109946632D01*
X166315990Y-109703411D01*
X166427932Y-109433158D01*
X166485000Y-109146260D01*
X166485000Y-108853740D01*
X166427932Y-108566842D01*
X166315990Y-108296589D01*
X166153475Y-108053368D01*
X165946632Y-107846525D01*
X165783590Y-107737584D01*
X165848792Y-107528397D01*
X165000000Y-106679605D01*
X164985858Y-106693748D01*
X164806253Y-106514143D01*
X164820395Y-106500000D01*
X165179605Y-106500000D01*
X166028397Y-107348792D01*
X166277472Y-107271157D01*
X166403371Y-107007117D01*
X166475339Y-106723589D01*
X166490611Y-106431469D01*
X166448599Y-106141981D01*
X166350919Y-105866253D01*
X166277472Y-105728843D01*
X166028397Y-105651208D01*
X165179605Y-106500000D01*
X164820395Y-106500000D01*
X164806253Y-106485858D01*
X164985858Y-106306253D01*
X165000000Y-106320395D01*
X165848792Y-105471603D01*
X165771157Y-105222528D01*
X165507117Y-105096629D01*
X165223589Y-105024661D01*
X164931469Y-105009389D01*
X164641981Y-105051401D01*
X164366253Y-105149081D01*
X164290150Y-105189759D01*
X164204494Y-105119463D01*
X164094180Y-105060498D01*
X163974482Y-105024188D01*
X163850000Y-105011928D01*
X162150000Y-105011928D01*
X162025518Y-105024188D01*
X161905820Y-105060498D01*
X161795506Y-105119463D01*
X161698815Y-105198815D01*
X161619463Y-105295506D01*
X161560498Y-105405820D01*
X161524188Y-105525518D01*
X161511928Y-105650000D01*
X138224890Y-105650000D01*
X138311760Y-105464884D01*
X138377250Y-105200040D01*
X138389812Y-104927508D01*
X138348965Y-104657762D01*
X138256277Y-104401168D01*
X138195860Y-104288137D01*
X137956993Y-104222612D01*
X137179605Y-105000000D01*
X136820395Y-105000000D01*
X136043007Y-104222612D01*
X135804140Y-104288137D01*
X135688240Y-104535116D01*
X135686786Y-104540996D01*
X135636277Y-104401168D01*
X135575860Y-104288137D01*
X135336993Y-104222612D01*
X134559605Y-105000000D01*
X134200395Y-105000000D01*
X133423007Y-104222612D01*
X133184140Y-104288137D01*
X133068240Y-104535116D01*
X133002750Y-104799960D01*
X132990188Y-105072492D01*
X123160000Y-105072492D01*
X123160000Y-100921861D01*
X131165000Y-100921861D01*
X131165000Y-101125739D01*
X131204774Y-101325698D01*
X131282795Y-101514056D01*
X131396063Y-101683574D01*
X131540226Y-101827737D01*
X131709744Y-101941005D01*
X131898102Y-102019026D01*
X132098061Y-102058800D01*
X132301939Y-102058800D01*
X132501898Y-102019026D01*
X132690256Y-101941005D01*
X132723794Y-101918596D01*
X133023833Y-102218635D01*
X132995000Y-102363589D01*
X132995000Y-102636411D01*
X133048225Y-102903989D01*
X133152629Y-103156043D01*
X133304201Y-103382886D01*
X133497114Y-103575799D01*
X133723957Y-103727371D01*
X133773426Y-103747861D01*
X133668137Y-103804140D01*
X133602612Y-104043007D01*
X134380000Y-104820395D01*
X135157388Y-104043007D01*
X135091863Y-103804140D01*
X134978799Y-103751082D01*
X135036043Y-103727371D01*
X135262886Y-103575799D01*
X135455799Y-103382886D01*
X135607371Y-103156043D01*
X135690000Y-102956559D01*
X135772629Y-103156043D01*
X135924201Y-103382886D01*
X136117114Y-103575799D01*
X136343957Y-103727371D01*
X136393426Y-103747861D01*
X136288137Y-103804140D01*
X136222612Y-104043007D01*
X137000000Y-104820395D01*
X137777388Y-104043007D01*
X137711863Y-103804140D01*
X137598799Y-103751082D01*
X137656043Y-103727371D01*
X137882886Y-103575799D01*
X138059076Y-103399609D01*
X166219997Y-103399609D01*
X166406073Y-103740766D01*
X166823409Y-103956513D01*
X167274815Y-104086696D01*
X167742946Y-104126313D01*
X168209811Y-104073842D01*
X168657468Y-103931297D01*
X169013927Y-103740766D01*
X169200003Y-103399609D01*
X167710000Y-101909605D01*
X166219997Y-103399609D01*
X138059076Y-103399609D01*
X138075799Y-103382886D01*
X138227371Y-103156043D01*
X138331775Y-102903989D01*
X138385000Y-102636411D01*
X138385000Y-102363589D01*
X138331775Y-102096011D01*
X138227371Y-101843957D01*
X138173242Y-101762946D01*
X165313687Y-101762946D01*
X165366158Y-102229811D01*
X165508703Y-102677468D01*
X165699234Y-103033927D01*
X166040391Y-103220003D01*
X167530395Y-101730000D01*
X167889605Y-101730000D01*
X169379609Y-103220003D01*
X169720766Y-103033927D01*
X169936513Y-102616591D01*
X170066696Y-102165185D01*
X170106313Y-101697054D01*
X170053842Y-101230189D01*
X169911297Y-100782532D01*
X169720766Y-100426073D01*
X169379609Y-100239997D01*
X167889605Y-101730000D01*
X167530395Y-101730000D01*
X166040391Y-100239997D01*
X165699234Y-100426073D01*
X165483487Y-100843409D01*
X165353304Y-101294815D01*
X165313687Y-101762946D01*
X138173242Y-101762946D01*
X138075799Y-101617114D01*
X137958685Y-101500000D01*
X138075799Y-101382886D01*
X138227371Y-101156043D01*
X138331775Y-100903989D01*
X138385000Y-100636411D01*
X138385000Y-100363589D01*
X138331775Y-100096011D01*
X138317021Y-100060391D01*
X166219997Y-100060391D01*
X167710000Y-101550395D01*
X169200003Y-100060391D01*
X169013927Y-99719234D01*
X168596591Y-99503487D01*
X168145185Y-99373304D01*
X167677054Y-99333687D01*
X167210189Y-99386158D01*
X166762532Y-99528703D01*
X166406073Y-99719234D01*
X166219997Y-100060391D01*
X138317021Y-100060391D01*
X138227371Y-99843957D01*
X138075799Y-99617114D01*
X137882886Y-99424201D01*
X137818690Y-99381307D01*
X137874482Y-99375812D01*
X137994180Y-99339502D01*
X138104494Y-99280537D01*
X138201185Y-99201185D01*
X138280537Y-99104494D01*
X138339502Y-98994180D01*
X138375812Y-98874482D01*
X138388072Y-98750000D01*
X138388072Y-97250000D01*
X138375812Y-97125518D01*
X138339502Y-97005820D01*
X138280537Y-96895506D01*
X138258997Y-96869259D01*
X138506038Y-96737214D01*
X138573875Y-96600000D01*
X172761928Y-96600000D01*
X172774188Y-96724482D01*
X172810498Y-96844180D01*
X172869463Y-96954494D01*
X172948815Y-97051185D01*
X173045506Y-97130537D01*
X173155820Y-97189502D01*
X173275518Y-97225812D01*
X173400000Y-97238072D01*
X174214250Y-97235000D01*
X174373000Y-97076250D01*
X174373000Y-95627000D01*
X172923750Y-95627000D01*
X172765000Y-95785750D01*
X172761928Y-96600000D01*
X138573875Y-96600000D01*
X138662048Y-96421653D01*
X137350000Y-95109605D01*
X136037952Y-96421653D01*
X136137500Y-96623008D01*
X136125518Y-96624188D01*
X136005820Y-96660498D01*
X135895506Y-96719463D01*
X135798815Y-96798815D01*
X135719463Y-96895506D01*
X135660498Y-97005820D01*
X135624188Y-97125518D01*
X135611928Y-97250000D01*
X135611928Y-97354959D01*
X135607371Y-97343957D01*
X135455799Y-97117114D01*
X135262886Y-96924201D01*
X135036043Y-96772629D01*
X134783989Y-96668225D01*
X134516411Y-96615000D01*
X134243589Y-96615000D01*
X133976011Y-96668225D01*
X133723957Y-96772629D01*
X133497114Y-96924201D01*
X133304201Y-97117114D01*
X133152629Y-97343957D01*
X133048225Y-97596011D01*
X132995000Y-97863589D01*
X132995000Y-98136411D01*
X133048225Y-98403989D01*
X133152629Y-98656043D01*
X133304201Y-98882886D01*
X133497114Y-99075799D01*
X133723957Y-99227371D01*
X133778588Y-99250000D01*
X133723957Y-99272629D01*
X133497114Y-99424201D01*
X133304201Y-99617114D01*
X133152629Y-99843957D01*
X133048225Y-100096011D01*
X133013433Y-100270921D01*
X132941133Y-100263800D01*
X132941122Y-100263800D01*
X132903800Y-100260124D01*
X132900373Y-100260462D01*
X132859774Y-100219863D01*
X132690256Y-100106595D01*
X132501898Y-100028574D01*
X132301939Y-99988800D01*
X132098061Y-99988800D01*
X131898102Y-100028574D01*
X131709744Y-100106595D01*
X131540226Y-100219863D01*
X131396063Y-100364026D01*
X131282795Y-100533544D01*
X131204774Y-100721902D01*
X131165000Y-100921861D01*
X123160000Y-100921861D01*
X123160000Y-96421653D01*
X130357952Y-96421653D01*
X130513962Y-96737214D01*
X130888745Y-96928020D01*
X131293551Y-97042044D01*
X131712824Y-97074902D01*
X132130451Y-97025334D01*
X132530383Y-96895243D01*
X132826038Y-96737214D01*
X132982048Y-96421653D01*
X131670000Y-95109605D01*
X130357952Y-96421653D01*
X123160000Y-96421653D01*
X123160000Y-94972824D01*
X129525098Y-94972824D01*
X129574666Y-95390451D01*
X129704757Y-95790383D01*
X129862786Y-96086038D01*
X130178347Y-96242048D01*
X131490395Y-94930000D01*
X131849605Y-94930000D01*
X133161653Y-96242048D01*
X133477214Y-96086038D01*
X133668020Y-95711255D01*
X133782044Y-95306449D01*
X133808189Y-94972824D01*
X135205098Y-94972824D01*
X135254666Y-95390451D01*
X135384757Y-95790383D01*
X135542786Y-96086038D01*
X135858347Y-96242048D01*
X137170395Y-94930000D01*
X137529605Y-94930000D01*
X138841653Y-96242048D01*
X139157214Y-96086038D01*
X139348020Y-95711255D01*
X139462044Y-95306449D01*
X139494902Y-94887176D01*
X139445334Y-94469549D01*
X139422711Y-94400000D01*
X172761928Y-94400000D01*
X172765000Y-95214250D01*
X172923750Y-95373000D01*
X174373000Y-95373000D01*
X174373000Y-95353000D01*
X174627000Y-95353000D01*
X174627000Y-95373000D01*
X174647000Y-95373000D01*
X174647000Y-95627000D01*
X174627000Y-95627000D01*
X174627000Y-97076250D01*
X174785750Y-97235000D01*
X175600000Y-97238072D01*
X175724482Y-97225812D01*
X175844180Y-97189502D01*
X175954494Y-97130537D01*
X176051185Y-97051185D01*
X176130537Y-96954494D01*
X176189502Y-96844180D01*
X176225812Y-96724482D01*
X176238072Y-96600000D01*
X176237216Y-96373060D01*
X176284606Y-96420450D01*
X176478692Y-96550134D01*
X176694348Y-96639461D01*
X176923288Y-96685000D01*
X177156712Y-96685000D01*
X177385652Y-96639461D01*
X177601308Y-96550134D01*
X177795394Y-96420450D01*
X177960450Y-96255394D01*
X178090134Y-96061308D01*
X178179461Y-95845652D01*
X178225000Y-95616712D01*
X178225000Y-95383288D01*
X178179461Y-95154348D01*
X178090134Y-94938692D01*
X177960450Y-94744606D01*
X177795394Y-94579550D01*
X177601308Y-94449866D01*
X177385652Y-94360539D01*
X177156712Y-94315000D01*
X176923288Y-94315000D01*
X176694348Y-94360539D01*
X176478692Y-94449866D01*
X176284606Y-94579550D01*
X176237216Y-94626940D01*
X176238072Y-94400000D01*
X176225812Y-94275518D01*
X176189502Y-94155820D01*
X176130537Y-94045506D01*
X176051185Y-93948815D01*
X175970310Y-93882443D01*
X176037537Y-93781831D01*
X176085910Y-93665048D01*
X176119550Y-93715394D01*
X176284606Y-93880450D01*
X176478692Y-94010134D01*
X176694348Y-94099461D01*
X176923288Y-94145000D01*
X177156712Y-94145000D01*
X177385652Y-94099461D01*
X177601308Y-94010134D01*
X177795394Y-93880450D01*
X177960450Y-93715394D01*
X178090134Y-93521308D01*
X178179461Y-93305652D01*
X178225000Y-93076712D01*
X178225000Y-92843288D01*
X178179461Y-92614348D01*
X178090134Y-92398692D01*
X177960450Y-92204606D01*
X177795394Y-92039550D01*
X177601308Y-91909866D01*
X177385652Y-91820539D01*
X177156712Y-91775000D01*
X176923288Y-91775000D01*
X176694348Y-91820539D01*
X176478692Y-91909866D01*
X176284606Y-92039550D01*
X176119550Y-92204606D01*
X176085910Y-92254952D01*
X176037537Y-92138169D01*
X175847663Y-91854002D01*
X175605998Y-91612337D01*
X175321831Y-91422463D01*
X175006081Y-91291675D01*
X174670883Y-91225000D01*
X174329117Y-91225000D01*
X173993919Y-91291675D01*
X173678169Y-91422463D01*
X173394002Y-91612337D01*
X173152337Y-91854002D01*
X172962463Y-92138169D01*
X172831675Y-92453919D01*
X172765000Y-92789117D01*
X172765000Y-93130883D01*
X172831675Y-93466081D01*
X172962463Y-93781831D01*
X173029690Y-93882443D01*
X172948815Y-93948815D01*
X172869463Y-94045506D01*
X172810498Y-94155820D01*
X172774188Y-94275518D01*
X172761928Y-94400000D01*
X139422711Y-94400000D01*
X139315243Y-94069617D01*
X139157214Y-93773962D01*
X138841653Y-93617952D01*
X137529605Y-94930000D01*
X137170395Y-94930000D01*
X135858347Y-93617952D01*
X135542786Y-93773962D01*
X135351980Y-94148745D01*
X135237956Y-94553551D01*
X135205098Y-94972824D01*
X133808189Y-94972824D01*
X133814902Y-94887176D01*
X133765334Y-94469549D01*
X133635243Y-94069617D01*
X133477214Y-93773962D01*
X133161653Y-93617952D01*
X131849605Y-94930000D01*
X131490395Y-94930000D01*
X130178347Y-93617952D01*
X129862786Y-93773962D01*
X129671980Y-94148745D01*
X129557956Y-94553551D01*
X129525098Y-94972824D01*
X123160000Y-94972824D01*
X123160000Y-93438347D01*
X130357952Y-93438347D01*
X131670000Y-94750395D01*
X132982048Y-93438347D01*
X136037952Y-93438347D01*
X137350000Y-94750395D01*
X138662048Y-93438347D01*
X138506038Y-93122786D01*
X138131255Y-92931980D01*
X137726449Y-92817956D01*
X137307176Y-92785098D01*
X136889549Y-92834666D01*
X136489617Y-92964757D01*
X136193962Y-93122786D01*
X136037952Y-93438347D01*
X132982048Y-93438347D01*
X132826038Y-93122786D01*
X132451255Y-92931980D01*
X132046449Y-92817956D01*
X131627176Y-92785098D01*
X131209549Y-92834666D01*
X130809617Y-92964757D01*
X130513962Y-93122786D01*
X130357952Y-93438347D01*
X123160000Y-93438347D01*
X123160000Y-92598061D01*
X148565000Y-92598061D01*
X148565000Y-92801939D01*
X148604774Y-93001898D01*
X148682795Y-93190256D01*
X148796063Y-93359774D01*
X148940226Y-93503937D01*
X149109744Y-93617205D01*
X149298102Y-93695226D01*
X149498061Y-93735000D01*
X149701939Y-93735000D01*
X149901898Y-93695226D01*
X150090256Y-93617205D01*
X150259774Y-93503937D01*
X150303711Y-93460000D01*
X150696289Y-93460000D01*
X150740226Y-93503937D01*
X150909744Y-93617205D01*
X151098102Y-93695226D01*
X151298061Y-93735000D01*
X151501939Y-93735000D01*
X151701898Y-93695226D01*
X151890256Y-93617205D01*
X152059774Y-93503937D01*
X152203937Y-93359774D01*
X152317205Y-93190256D01*
X152395226Y-93001898D01*
X152435000Y-92801939D01*
X152435000Y-92598061D01*
X152395226Y-92398102D01*
X152317205Y-92209744D01*
X152203937Y-92040226D01*
X152059774Y-91896063D01*
X151890256Y-91782795D01*
X151701898Y-91704774D01*
X151501939Y-91665000D01*
X151298061Y-91665000D01*
X151098102Y-91704774D01*
X150909744Y-91782795D01*
X150740226Y-91896063D01*
X150696289Y-91940000D01*
X150303711Y-91940000D01*
X150259774Y-91896063D01*
X150090256Y-91782795D01*
X149901898Y-91704774D01*
X149701939Y-91665000D01*
X149498061Y-91665000D01*
X149298102Y-91704774D01*
X149109744Y-91782795D01*
X148940226Y-91896063D01*
X148796063Y-92040226D01*
X148682795Y-92209744D01*
X148604774Y-92398102D01*
X148565000Y-92598061D01*
X123160000Y-92598061D01*
X123160000Y-89225442D01*
X128292381Y-89225442D01*
X128292381Y-89429320D01*
X128332155Y-89629279D01*
X128410176Y-89817637D01*
X128523444Y-89987155D01*
X128667607Y-90131318D01*
X128837125Y-90244586D01*
X128861812Y-90254812D01*
X130572569Y-91965569D01*
X130582795Y-91990256D01*
X130696063Y-92159774D01*
X130840226Y-92303937D01*
X131009744Y-92417205D01*
X131198102Y-92495226D01*
X131398061Y-92535000D01*
X131601939Y-92535000D01*
X131801898Y-92495226D01*
X131990256Y-92417205D01*
X132159774Y-92303937D01*
X132303937Y-92159774D01*
X132417205Y-91990256D01*
X132495226Y-91801898D01*
X132535000Y-91601939D01*
X132535000Y-91398061D01*
X132495226Y-91198102D01*
X132417205Y-91009744D01*
X132303937Y-90840226D01*
X132159774Y-90696063D01*
X131990256Y-90582795D01*
X131965569Y-90572569D01*
X130254812Y-88861812D01*
X130244586Y-88837125D01*
X130131318Y-88667607D01*
X129987155Y-88523444D01*
X129817637Y-88410176D01*
X129629279Y-88332155D01*
X129429320Y-88292381D01*
X129225442Y-88292381D01*
X129025483Y-88332155D01*
X128837125Y-88410176D01*
X128667607Y-88523444D01*
X128523444Y-88667607D01*
X128410176Y-88837125D01*
X128332155Y-89025483D01*
X128292381Y-89225442D01*
X123160000Y-89225442D01*
X123160000Y-87298061D01*
X151565000Y-87298061D01*
X151565000Y-87501939D01*
X151604774Y-87701898D01*
X151682795Y-87890256D01*
X151796063Y-88059774D01*
X151840001Y-88103712D01*
X151840000Y-88296289D01*
X151796063Y-88340226D01*
X151682795Y-88509744D01*
X151604774Y-88698102D01*
X151565000Y-88898061D01*
X151565000Y-89101939D01*
X151604774Y-89301898D01*
X151682795Y-89490256D01*
X151796063Y-89659774D01*
X151940226Y-89803937D01*
X152109744Y-89917205D01*
X152298102Y-89995226D01*
X152498061Y-90035000D01*
X152701939Y-90035000D01*
X152901898Y-89995226D01*
X153090256Y-89917205D01*
X153259774Y-89803937D01*
X153403937Y-89659774D01*
X153517205Y-89490256D01*
X153595226Y-89301898D01*
X153635000Y-89101939D01*
X153635000Y-88898061D01*
X153595226Y-88698102D01*
X153517205Y-88509744D01*
X153403937Y-88340226D01*
X153360000Y-88296289D01*
X153360000Y-88103711D01*
X153403937Y-88059774D01*
X153517205Y-87890256D01*
X153595226Y-87701898D01*
X153635000Y-87501939D01*
X153635000Y-87298061D01*
X153595226Y-87098102D01*
X153517205Y-86909744D01*
X153403937Y-86740226D01*
X153259774Y-86596063D01*
X153090256Y-86482795D01*
X152901898Y-86404774D01*
X152868150Y-86398061D01*
X153765000Y-86398061D01*
X153765000Y-86601939D01*
X153804774Y-86801898D01*
X153882795Y-86990256D01*
X153996063Y-87159774D01*
X154040000Y-87203711D01*
X154040000Y-87837677D01*
X154036324Y-87875000D01*
X154040000Y-87912322D01*
X154040000Y-87912332D01*
X154050997Y-88023985D01*
X154068837Y-88082795D01*
X154094454Y-88167246D01*
X154165026Y-88299276D01*
X154196491Y-88337616D01*
X154259999Y-88415001D01*
X154289002Y-88438803D01*
X154365000Y-88514801D01*
X154365000Y-88576939D01*
X154404774Y-88776898D01*
X154482795Y-88965256D01*
X154596063Y-89134774D01*
X154740226Y-89278937D01*
X154909744Y-89392205D01*
X155098102Y-89470226D01*
X155298061Y-89510000D01*
X155501939Y-89510000D01*
X155701898Y-89470226D01*
X155890256Y-89392205D01*
X156059774Y-89278937D01*
X156203937Y-89134774D01*
X156317205Y-88965256D01*
X156395226Y-88776898D01*
X156435000Y-88576939D01*
X156435000Y-88373061D01*
X156395226Y-88173102D01*
X156317205Y-87984744D01*
X156203937Y-87815226D01*
X156059774Y-87671063D01*
X155890256Y-87557795D01*
X155701898Y-87479774D01*
X155560000Y-87451549D01*
X155560000Y-87203711D01*
X155603937Y-87159774D01*
X155717205Y-86990256D01*
X155795226Y-86801898D01*
X155835000Y-86601939D01*
X155835000Y-86398061D01*
X155795226Y-86198102D01*
X155717205Y-86009744D01*
X155603937Y-85840226D01*
X155459774Y-85696063D01*
X155290256Y-85582795D01*
X155101898Y-85504774D01*
X154901939Y-85465000D01*
X154698061Y-85465000D01*
X154498102Y-85504774D01*
X154309744Y-85582795D01*
X154140226Y-85696063D01*
X153996063Y-85840226D01*
X153882795Y-86009744D01*
X153804774Y-86198102D01*
X153765000Y-86398061D01*
X152868150Y-86398061D01*
X152701939Y-86365000D01*
X152498061Y-86365000D01*
X152298102Y-86404774D01*
X152109744Y-86482795D01*
X151940226Y-86596063D01*
X151796063Y-86740226D01*
X151682795Y-86909744D01*
X151604774Y-87098102D01*
X151565000Y-87298061D01*
X123160000Y-87298061D01*
X123160000Y-84398061D01*
X158465000Y-84398061D01*
X158465000Y-84601939D01*
X158504774Y-84801898D01*
X158582795Y-84990256D01*
X158696063Y-85159774D01*
X158840226Y-85303937D01*
X159009744Y-85417205D01*
X159198102Y-85495226D01*
X159398061Y-85535000D01*
X159601939Y-85535000D01*
X159801898Y-85495226D01*
X159990256Y-85417205D01*
X160159774Y-85303937D01*
X160203711Y-85260000D01*
X161958201Y-85260000D01*
X164434203Y-87736003D01*
X164458001Y-87765001D01*
X164486999Y-87788799D01*
X164573725Y-87859974D01*
X164671679Y-87912332D01*
X164705755Y-87930546D01*
X164849016Y-87974003D01*
X164960669Y-87985000D01*
X164960679Y-87985000D01*
X164998002Y-87988676D01*
X165035325Y-87985000D01*
X167296289Y-87985000D01*
X167340226Y-88028937D01*
X167509744Y-88142205D01*
X167698102Y-88220226D01*
X167898061Y-88260000D01*
X168101939Y-88260000D01*
X168301898Y-88220226D01*
X168490256Y-88142205D01*
X168659774Y-88028937D01*
X168803937Y-87884774D01*
X168917205Y-87715256D01*
X168995226Y-87526898D01*
X169035000Y-87326939D01*
X169035000Y-87123061D01*
X168995226Y-86923102D01*
X168917205Y-86734744D01*
X168803937Y-86565226D01*
X168659774Y-86421063D01*
X168490256Y-86307795D01*
X168301898Y-86229774D01*
X168101939Y-86190000D01*
X167898061Y-86190000D01*
X167698102Y-86229774D01*
X167509744Y-86307795D01*
X167340226Y-86421063D01*
X167296289Y-86465000D01*
X165312804Y-86465000D01*
X162836806Y-83989003D01*
X162813003Y-83959999D01*
X162697278Y-83865026D01*
X162565249Y-83794454D01*
X162421988Y-83750997D01*
X162310335Y-83740000D01*
X162310324Y-83740000D01*
X162273002Y-83736324D01*
X162235680Y-83740000D01*
X160203711Y-83740000D01*
X160159774Y-83696063D01*
X159990256Y-83582795D01*
X159801898Y-83504774D01*
X159601939Y-83465000D01*
X159398061Y-83465000D01*
X159198102Y-83504774D01*
X159009744Y-83582795D01*
X158840226Y-83696063D01*
X158696063Y-83840226D01*
X158582795Y-84009744D01*
X158504774Y-84198102D01*
X158465000Y-84398061D01*
X123160000Y-84398061D01*
X123160000Y-83561653D01*
X130357952Y-83561653D01*
X130513962Y-83877214D01*
X130888745Y-84068020D01*
X131293551Y-84182044D01*
X131712824Y-84214902D01*
X132130451Y-84165334D01*
X132530383Y-84035243D01*
X132826038Y-83877214D01*
X132982048Y-83561653D01*
X136037952Y-83561653D01*
X136193962Y-83877214D01*
X136568745Y-84068020D01*
X136973551Y-84182044D01*
X137392824Y-84214902D01*
X137810451Y-84165334D01*
X138210383Y-84035243D01*
X138506038Y-83877214D01*
X138662048Y-83561653D01*
X137350000Y-82249605D01*
X136037952Y-83561653D01*
X132982048Y-83561653D01*
X131670000Y-82249605D01*
X130357952Y-83561653D01*
X123160000Y-83561653D01*
X123160000Y-82112824D01*
X129525098Y-82112824D01*
X129574666Y-82530451D01*
X129704757Y-82930383D01*
X129862786Y-83226038D01*
X130178347Y-83382048D01*
X131490395Y-82070000D01*
X131849605Y-82070000D01*
X133161653Y-83382048D01*
X133477214Y-83226038D01*
X133668020Y-82851255D01*
X133782044Y-82446449D01*
X133808189Y-82112824D01*
X135205098Y-82112824D01*
X135254666Y-82530451D01*
X135384757Y-82930383D01*
X135542786Y-83226038D01*
X135858347Y-83382048D01*
X137170395Y-82070000D01*
X137529605Y-82070000D01*
X138841653Y-83382048D01*
X139157214Y-83226038D01*
X139348020Y-82851255D01*
X139390376Y-82700881D01*
X171978724Y-82700881D01*
X172338912Y-83190548D01*
X173002882Y-83550849D01*
X173724385Y-83774694D01*
X174475695Y-83853480D01*
X175227938Y-83784178D01*
X175952208Y-83569452D01*
X176620670Y-83217555D01*
X176661088Y-83190548D01*
X177021276Y-82700881D01*
X174500000Y-80179605D01*
X171978724Y-82700881D01*
X139390376Y-82700881D01*
X139462044Y-82446449D01*
X139494902Y-82027176D01*
X139445334Y-81609549D01*
X139315243Y-81209617D01*
X139157214Y-80913962D01*
X138841653Y-80757952D01*
X137529605Y-82070000D01*
X137170395Y-82070000D01*
X135858347Y-80757952D01*
X135542786Y-80913962D01*
X135351980Y-81288745D01*
X135237956Y-81693551D01*
X135205098Y-82112824D01*
X133808189Y-82112824D01*
X133814902Y-82027176D01*
X133765334Y-81609549D01*
X133635243Y-81209617D01*
X133477214Y-80913962D01*
X133161653Y-80757952D01*
X131849605Y-82070000D01*
X131490395Y-82070000D01*
X130178347Y-80757952D01*
X129862786Y-80913962D01*
X129671980Y-81288745D01*
X129557956Y-81693551D01*
X129525098Y-82112824D01*
X123160000Y-82112824D01*
X123160000Y-80578347D01*
X130357952Y-80578347D01*
X131670000Y-81890395D01*
X132982048Y-80578347D01*
X136037952Y-80578347D01*
X137350000Y-81890395D01*
X138662048Y-80578347D01*
X138506038Y-80262786D01*
X138131255Y-80071980D01*
X137789426Y-79975695D01*
X170646520Y-79975695D01*
X170715822Y-80727938D01*
X170930548Y-81452208D01*
X171282445Y-82120670D01*
X171309452Y-82161088D01*
X171799119Y-82521276D01*
X174320395Y-80000000D01*
X171799119Y-77478724D01*
X171309452Y-77838912D01*
X170949151Y-78502882D01*
X170725306Y-79224385D01*
X170646520Y-79975695D01*
X137789426Y-79975695D01*
X137773489Y-79971206D01*
X137777388Y-79956993D01*
X137000000Y-79179605D01*
X136222612Y-79956993D01*
X136288137Y-80195860D01*
X136304664Y-80203615D01*
X136193962Y-80262786D01*
X136037952Y-80578347D01*
X132982048Y-80578347D01*
X132826038Y-80262786D01*
X132451255Y-80071980D01*
X132046449Y-79957956D01*
X132034161Y-79956993D01*
X133602612Y-79956993D01*
X133668137Y-80195860D01*
X133915116Y-80311760D01*
X134179960Y-80377250D01*
X134452492Y-80389812D01*
X134722238Y-80348965D01*
X134978832Y-80256277D01*
X135091863Y-80195860D01*
X135157388Y-79956993D01*
X134380000Y-79179605D01*
X133602612Y-79956993D01*
X132034161Y-79956993D01*
X131627176Y-79925098D01*
X131209549Y-79974666D01*
X130809617Y-80104757D01*
X130513962Y-80262786D01*
X130357952Y-80578347D01*
X123160000Y-80578347D01*
X123160000Y-79072492D01*
X132990188Y-79072492D01*
X133031035Y-79342238D01*
X133123723Y-79598832D01*
X133184140Y-79711863D01*
X133423007Y-79777388D01*
X134200395Y-79000000D01*
X134559605Y-79000000D01*
X135336993Y-79777388D01*
X135575860Y-79711863D01*
X135691760Y-79464884D01*
X135693214Y-79459004D01*
X135743723Y-79598832D01*
X135804140Y-79711863D01*
X136043007Y-79777388D01*
X136820395Y-79000000D01*
X137179605Y-79000000D01*
X137956993Y-79777388D01*
X138195860Y-79711863D01*
X138311760Y-79464884D01*
X138377250Y-79200040D01*
X138389812Y-78927508D01*
X138348965Y-78657762D01*
X138256277Y-78401168D01*
X138195860Y-78288137D01*
X137956993Y-78222612D01*
X137179605Y-79000000D01*
X136820395Y-79000000D01*
X136043007Y-78222612D01*
X135804140Y-78288137D01*
X135688240Y-78535116D01*
X135686786Y-78540996D01*
X135636277Y-78401168D01*
X135575860Y-78288137D01*
X135336993Y-78222612D01*
X134559605Y-79000000D01*
X134200395Y-79000000D01*
X133423007Y-78222612D01*
X133184140Y-78288137D01*
X133068240Y-78535116D01*
X133002750Y-78799960D01*
X132990188Y-79072492D01*
X123160000Y-79072492D01*
X123160000Y-76434785D01*
X130901724Y-76434785D01*
X130901724Y-76638663D01*
X130941498Y-76838622D01*
X131019519Y-77026980D01*
X131132787Y-77196498D01*
X131276950Y-77340661D01*
X131446468Y-77453929D01*
X131634826Y-77531950D01*
X131834785Y-77571724D01*
X132038663Y-77571724D01*
X132238622Y-77531950D01*
X132426980Y-77453929D01*
X132596498Y-77340661D01*
X132740661Y-77196498D01*
X132853929Y-77026980D01*
X132931950Y-76838622D01*
X132971724Y-76638663D01*
X132971724Y-76576525D01*
X132995000Y-76553249D01*
X132995000Y-76636411D01*
X133048225Y-76903989D01*
X133152629Y-77156043D01*
X133304201Y-77382886D01*
X133497114Y-77575799D01*
X133723957Y-77727371D01*
X133773426Y-77747861D01*
X133668137Y-77804140D01*
X133602612Y-78043007D01*
X134380000Y-78820395D01*
X135157388Y-78043007D01*
X135091863Y-77804140D01*
X134978799Y-77751082D01*
X135036043Y-77727371D01*
X135262886Y-77575799D01*
X135455799Y-77382886D01*
X135607371Y-77156043D01*
X135690000Y-76956559D01*
X135772629Y-77156043D01*
X135924201Y-77382886D01*
X136117114Y-77575799D01*
X136343957Y-77727371D01*
X136393426Y-77747861D01*
X136288137Y-77804140D01*
X136222612Y-78043007D01*
X137000000Y-78820395D01*
X137777388Y-78043007D01*
X137711863Y-77804140D01*
X137598799Y-77751082D01*
X137656043Y-77727371D01*
X137882886Y-77575799D01*
X138075799Y-77382886D01*
X138227371Y-77156043D01*
X138331775Y-76903989D01*
X138385000Y-76636411D01*
X138385000Y-76363589D01*
X138331775Y-76096011D01*
X138227371Y-75843957D01*
X138075799Y-75617114D01*
X137958685Y-75500000D01*
X138075799Y-75382886D01*
X138227371Y-75156043D01*
X138331775Y-74903989D01*
X138385000Y-74636411D01*
X138385000Y-74363589D01*
X138331775Y-74096011D01*
X138227371Y-73843957D01*
X138075799Y-73617114D01*
X137882886Y-73424201D01*
X137818690Y-73381307D01*
X137874482Y-73375812D01*
X137994180Y-73339502D01*
X138104494Y-73280537D01*
X138201185Y-73201185D01*
X138280537Y-73104494D01*
X138339502Y-72994180D01*
X138375812Y-72874482D01*
X138388072Y-72750000D01*
X138388072Y-71250000D01*
X138375812Y-71125518D01*
X138339502Y-71005820D01*
X138280537Y-70895506D01*
X138258997Y-70869259D01*
X138506038Y-70737214D01*
X138662048Y-70421653D01*
X137350000Y-69109605D01*
X136037952Y-70421653D01*
X136137500Y-70623008D01*
X136125518Y-70624188D01*
X136005820Y-70660498D01*
X135895506Y-70719463D01*
X135798815Y-70798815D01*
X135719463Y-70895506D01*
X135660498Y-71005820D01*
X135624188Y-71125518D01*
X135611928Y-71250000D01*
X135611928Y-71354959D01*
X135607371Y-71343957D01*
X135455799Y-71117114D01*
X135262886Y-70924201D01*
X135036043Y-70772629D01*
X134783989Y-70668225D01*
X134516411Y-70615000D01*
X134243589Y-70615000D01*
X133976011Y-70668225D01*
X133723957Y-70772629D01*
X133497114Y-70924201D01*
X133304201Y-71117114D01*
X133152629Y-71343957D01*
X133048225Y-71596011D01*
X132995000Y-71863589D01*
X132995000Y-72136411D01*
X133048225Y-72403989D01*
X133152629Y-72656043D01*
X133304201Y-72882886D01*
X133497114Y-73075799D01*
X133723957Y-73227371D01*
X133778588Y-73250000D01*
X133723957Y-73272629D01*
X133497114Y-73424201D01*
X133304201Y-73617114D01*
X133152629Y-73843957D01*
X133048225Y-74096011D01*
X132995000Y-74363589D01*
X132995000Y-74403646D01*
X131896923Y-75501724D01*
X131834785Y-75501724D01*
X131634826Y-75541498D01*
X131446468Y-75619519D01*
X131276950Y-75732787D01*
X131132787Y-75876950D01*
X131019519Y-76046468D01*
X130941498Y-76234826D01*
X130901724Y-76434785D01*
X123160000Y-76434785D01*
X123160000Y-70421653D01*
X130357952Y-70421653D01*
X130513962Y-70737214D01*
X130888745Y-70928020D01*
X131293551Y-71042044D01*
X131712824Y-71074902D01*
X132130451Y-71025334D01*
X132530383Y-70895243D01*
X132826038Y-70737214D01*
X132982048Y-70421653D01*
X131670000Y-69109605D01*
X130357952Y-70421653D01*
X123160000Y-70421653D01*
X123160000Y-68972824D01*
X129525098Y-68972824D01*
X129574666Y-69390451D01*
X129704757Y-69790383D01*
X129862786Y-70086038D01*
X130178347Y-70242048D01*
X131490395Y-68930000D01*
X131849605Y-68930000D01*
X133161653Y-70242048D01*
X133477214Y-70086038D01*
X133668020Y-69711255D01*
X133782044Y-69306449D01*
X133808189Y-68972824D01*
X135205098Y-68972824D01*
X135254666Y-69390451D01*
X135384757Y-69790383D01*
X135542786Y-70086038D01*
X135858347Y-70242048D01*
X137170395Y-68930000D01*
X137529605Y-68930000D01*
X138841653Y-70242048D01*
X139157214Y-70086038D01*
X139348020Y-69711255D01*
X139462044Y-69306449D01*
X139494902Y-68887176D01*
X139445334Y-68469549D01*
X139315243Y-68069617D01*
X139157214Y-67773962D01*
X138841653Y-67617952D01*
X137529605Y-68930000D01*
X137170395Y-68930000D01*
X135858347Y-67617952D01*
X135542786Y-67773962D01*
X135351980Y-68148745D01*
X135237956Y-68553551D01*
X135205098Y-68972824D01*
X133808189Y-68972824D01*
X133814902Y-68887176D01*
X133765334Y-68469549D01*
X133635243Y-68069617D01*
X133477214Y-67773962D01*
X133161653Y-67617952D01*
X131849605Y-68930000D01*
X131490395Y-68930000D01*
X130178347Y-67617952D01*
X129862786Y-67773962D01*
X129671980Y-68148745D01*
X129557956Y-68553551D01*
X129525098Y-68972824D01*
X123160000Y-68972824D01*
X123160000Y-66700881D01*
X124478724Y-66700881D01*
X124838912Y-67190548D01*
X125502882Y-67550849D01*
X126224385Y-67774694D01*
X126975695Y-67853480D01*
X127727938Y-67784178D01*
X128452208Y-67569452D01*
X128701254Y-67438347D01*
X130357952Y-67438347D01*
X131670000Y-68750395D01*
X132982048Y-67438347D01*
X136037952Y-67438347D01*
X137350000Y-68750395D01*
X138662048Y-67438347D01*
X138506038Y-67122786D01*
X138131255Y-66931980D01*
X137726449Y-66817956D01*
X137307176Y-66785098D01*
X136889549Y-66834666D01*
X136489617Y-66964757D01*
X136193962Y-67122786D01*
X136037952Y-67438347D01*
X132982048Y-67438347D01*
X132826038Y-67122786D01*
X132451255Y-66931980D01*
X132046449Y-66817956D01*
X131627176Y-66785098D01*
X131209549Y-66834666D01*
X130809617Y-66964757D01*
X130513962Y-67122786D01*
X130357952Y-67438347D01*
X128701254Y-67438347D01*
X129120670Y-67217555D01*
X129161088Y-67190548D01*
X129521276Y-66700881D01*
X127000000Y-64179605D01*
X124478724Y-66700881D01*
X123160000Y-66700881D01*
X123160000Y-64122015D01*
X123215822Y-64727938D01*
X123430548Y-65452208D01*
X123782445Y-66120670D01*
X123809452Y-66161088D01*
X124299119Y-66521276D01*
X126820395Y-64000000D01*
X127179605Y-64000000D01*
X129700881Y-66521276D01*
X130190548Y-66161088D01*
X130550849Y-65497118D01*
X130774694Y-64775615D01*
X130853480Y-64024305D01*
X130784178Y-63272062D01*
X130569452Y-62547792D01*
X130217555Y-61879330D01*
X130190548Y-61838912D01*
X129700881Y-61478724D01*
X127179605Y-64000000D01*
X126820395Y-64000000D01*
X124299119Y-61478724D01*
X123809452Y-61838912D01*
X123449151Y-62502882D01*
X123225306Y-63224385D01*
X123160000Y-63847149D01*
X123160000Y-60160000D01*
X126877985Y-60160000D01*
X126272062Y-60215822D01*
G37*
%TD.AperFunction*%
%TD*%
M02*
