%TF.GenerationSoftware,KiCad,Pcbnew,(5.1.10)-1*%
%TF.CreationDate,2021-06-30T06:41:13-07:00*%
%TF.ProjectId,USBHub,55534248-7562-42e6-9b69-6361645f7063,rev?*%
%TF.SameCoordinates,Original*%
%TF.FileFunction,Legend,Top*%
%TF.FilePolarity,Positive*%
%FSLAX46Y46*%
G04 Gerber Fmt 4.6, Leading zero omitted, Abs format (unit mm)*
G04 Created by KiCad (PCBNEW (5.1.10)-1) date 2021-06-30 06:41:13*
%MOMM*%
%LPD*%
G01*
G04 APERTURE LIST*
%ADD10C,0.150000*%
%ADD11C,0.120000*%
%ADD12C,0.300000*%
G04 APERTURE END LIST*
D10*
X132630833Y-110573928D02*
X132630833Y-111207261D01*
X132404642Y-110212023D02*
X132178452Y-110890595D01*
X132766547Y-110890595D01*
X133128452Y-110845357D02*
X133852261Y-110845357D01*
X134304642Y-111207261D02*
X134304642Y-110257261D01*
X134666547Y-110257261D01*
X134757023Y-110302500D01*
X134802261Y-110347738D01*
X134847500Y-110438214D01*
X134847500Y-110573928D01*
X134802261Y-110664404D01*
X134757023Y-110709642D01*
X134666547Y-110754880D01*
X134304642Y-110754880D01*
X135390357Y-111207261D02*
X135299880Y-111162023D01*
X135254642Y-111116785D01*
X135209404Y-111026309D01*
X135209404Y-110754880D01*
X135254642Y-110664404D01*
X135299880Y-110619166D01*
X135390357Y-110573928D01*
X135526071Y-110573928D01*
X135616547Y-110619166D01*
X135661785Y-110664404D01*
X135707023Y-110754880D01*
X135707023Y-111026309D01*
X135661785Y-111116785D01*
X135616547Y-111162023D01*
X135526071Y-111207261D01*
X135390357Y-111207261D01*
X136114166Y-111207261D02*
X136114166Y-110573928D01*
X136114166Y-110754880D02*
X136159404Y-110664404D01*
X136204642Y-110619166D01*
X136295119Y-110573928D01*
X136385595Y-110573928D01*
X136566547Y-110573928D02*
X136928452Y-110573928D01*
X136702261Y-110257261D02*
X136702261Y-111071547D01*
X136747500Y-111162023D01*
X136837976Y-111207261D01*
X136928452Y-111207261D01*
X137968928Y-111207261D02*
X137968928Y-110257261D01*
X138330833Y-110257261D01*
X138421309Y-110302500D01*
X138466547Y-110347738D01*
X138511785Y-110438214D01*
X138511785Y-110573928D01*
X138466547Y-110664404D01*
X138421309Y-110709642D01*
X138330833Y-110754880D01*
X137968928Y-110754880D01*
X139054642Y-111207261D02*
X138964166Y-111162023D01*
X138918928Y-111116785D01*
X138873690Y-111026309D01*
X138873690Y-110754880D01*
X138918928Y-110664404D01*
X138964166Y-110619166D01*
X139054642Y-110573928D01*
X139190357Y-110573928D01*
X139280833Y-110619166D01*
X139326071Y-110664404D01*
X139371309Y-110754880D01*
X139371309Y-111026309D01*
X139326071Y-111116785D01*
X139280833Y-111162023D01*
X139190357Y-111207261D01*
X139054642Y-111207261D01*
X139687976Y-110573928D02*
X139868928Y-111207261D01*
X140049880Y-110754880D01*
X140230833Y-111207261D01*
X140411785Y-110573928D01*
X141135595Y-111162023D02*
X141045119Y-111207261D01*
X140864166Y-111207261D01*
X140773690Y-111162023D01*
X140728452Y-111071547D01*
X140728452Y-110709642D01*
X140773690Y-110619166D01*
X140864166Y-110573928D01*
X141045119Y-110573928D01*
X141135595Y-110619166D01*
X141180833Y-110709642D01*
X141180833Y-110800119D01*
X140728452Y-110890595D01*
X141587976Y-111207261D02*
X141587976Y-110573928D01*
X141587976Y-110754880D02*
X141633214Y-110664404D01*
X141678452Y-110619166D01*
X141768928Y-110573928D01*
X141859404Y-110573928D01*
X142537976Y-111162023D02*
X142447500Y-111207261D01*
X142266547Y-111207261D01*
X142176071Y-111162023D01*
X142130833Y-111071547D01*
X142130833Y-110709642D01*
X142176071Y-110619166D01*
X142266547Y-110573928D01*
X142447500Y-110573928D01*
X142537976Y-110619166D01*
X142583214Y-110709642D01*
X142583214Y-110800119D01*
X142130833Y-110890595D01*
X143397500Y-111207261D02*
X143397500Y-110257261D01*
X143397500Y-111162023D02*
X143307023Y-111207261D01*
X143126071Y-111207261D01*
X143035595Y-111162023D01*
X142990357Y-111116785D01*
X142945119Y-111026309D01*
X142945119Y-110754880D01*
X142990357Y-110664404D01*
X143035595Y-110619166D01*
X143126071Y-110573928D01*
X143307023Y-110573928D01*
X143397500Y-110619166D01*
X144573690Y-110257261D02*
X144573690Y-111026309D01*
X144618928Y-111116785D01*
X144664166Y-111162023D01*
X144754642Y-111207261D01*
X144935595Y-111207261D01*
X145026071Y-111162023D01*
X145071309Y-111116785D01*
X145116547Y-111026309D01*
X145116547Y-110257261D01*
X145523690Y-111162023D02*
X145659404Y-111207261D01*
X145885595Y-111207261D01*
X145976071Y-111162023D01*
X146021309Y-111116785D01*
X146066547Y-111026309D01*
X146066547Y-110935833D01*
X146021309Y-110845357D01*
X145976071Y-110800119D01*
X145885595Y-110754880D01*
X145704642Y-110709642D01*
X145614166Y-110664404D01*
X145568928Y-110619166D01*
X145523690Y-110528690D01*
X145523690Y-110438214D01*
X145568928Y-110347738D01*
X145614166Y-110302500D01*
X145704642Y-110257261D01*
X145930833Y-110257261D01*
X146066547Y-110302500D01*
X146790357Y-110709642D02*
X146926071Y-110754880D01*
X146971309Y-110800119D01*
X147016547Y-110890595D01*
X147016547Y-111026309D01*
X146971309Y-111116785D01*
X146926071Y-111162023D01*
X146835595Y-111207261D01*
X146473690Y-111207261D01*
X146473690Y-110257261D01*
X146790357Y-110257261D01*
X146880833Y-110302500D01*
X146926071Y-110347738D01*
X146971309Y-110438214D01*
X146971309Y-110528690D01*
X146926071Y-110619166D01*
X146880833Y-110664404D01*
X146790357Y-110709642D01*
X146473690Y-110709642D01*
X148147500Y-111207261D02*
X148147500Y-110257261D01*
X148147500Y-110709642D02*
X148690357Y-110709642D01*
X148690357Y-111207261D02*
X148690357Y-110257261D01*
X149549880Y-110573928D02*
X149549880Y-111207261D01*
X149142738Y-110573928D02*
X149142738Y-111071547D01*
X149187976Y-111162023D01*
X149278452Y-111207261D01*
X149414166Y-111207261D01*
X149504642Y-111162023D01*
X149549880Y-111116785D01*
X150002261Y-111207261D02*
X150002261Y-110257261D01*
X150002261Y-110619166D02*
X150092738Y-110573928D01*
X150273690Y-110573928D01*
X150364166Y-110619166D01*
X150409404Y-110664404D01*
X150454642Y-110754880D01*
X150454642Y-111026309D01*
X150409404Y-111116785D01*
X150364166Y-111162023D01*
X150273690Y-111207261D01*
X150092738Y-111207261D01*
X150002261Y-111162023D01*
X132223690Y-112782261D02*
X132223690Y-112148928D01*
X132223690Y-111832261D02*
X132178452Y-111877500D01*
X132223690Y-111922738D01*
X132268928Y-111877500D01*
X132223690Y-111832261D01*
X132223690Y-111922738D01*
X132676071Y-112782261D02*
X132676071Y-111832261D01*
X132992738Y-112510833D01*
X133309404Y-111832261D01*
X133309404Y-112782261D01*
X134168928Y-112782261D02*
X134168928Y-112284642D01*
X134123690Y-112194166D01*
X134033214Y-112148928D01*
X133852261Y-112148928D01*
X133761785Y-112194166D01*
X134168928Y-112737023D02*
X134078452Y-112782261D01*
X133852261Y-112782261D01*
X133761785Y-112737023D01*
X133716547Y-112646547D01*
X133716547Y-112556071D01*
X133761785Y-112465595D01*
X133852261Y-112420357D01*
X134078452Y-112420357D01*
X134168928Y-112375119D01*
X135028452Y-112737023D02*
X134937976Y-112782261D01*
X134757023Y-112782261D01*
X134666547Y-112737023D01*
X134621309Y-112691785D01*
X134576071Y-112601309D01*
X134576071Y-112329880D01*
X134621309Y-112239404D01*
X134666547Y-112194166D01*
X134757023Y-112148928D01*
X134937976Y-112148928D01*
X135028452Y-112194166D01*
X135390357Y-112737023D02*
X135526071Y-112782261D01*
X135752261Y-112782261D01*
X135842738Y-112737023D01*
X135887976Y-112691785D01*
X135933214Y-112601309D01*
X135933214Y-112510833D01*
X135887976Y-112420357D01*
X135842738Y-112375119D01*
X135752261Y-112329880D01*
X135571309Y-112284642D01*
X135480833Y-112239404D01*
X135435595Y-112194166D01*
X135390357Y-112103690D01*
X135390357Y-112013214D01*
X135435595Y-111922738D01*
X135480833Y-111877500D01*
X135571309Y-111832261D01*
X135797500Y-111832261D01*
X135933214Y-111877500D01*
X136204642Y-111832261D02*
X136747500Y-111832261D01*
X136476071Y-112782261D02*
X136476071Y-111832261D01*
X137064166Y-112284642D02*
X137380833Y-112284642D01*
X137516547Y-112782261D02*
X137064166Y-112782261D01*
X137064166Y-111832261D01*
X137516547Y-111832261D01*
X138466547Y-112782261D02*
X138149880Y-112329880D01*
X137923690Y-112782261D02*
X137923690Y-111832261D01*
X138285595Y-111832261D01*
X138376071Y-111877500D01*
X138421309Y-111922738D01*
X138466547Y-112013214D01*
X138466547Y-112148928D01*
X138421309Y-112239404D01*
X138376071Y-112284642D01*
X138285595Y-112329880D01*
X137923690Y-112329880D01*
X132766547Y-114357261D02*
X132449880Y-113904880D01*
X132223690Y-114357261D02*
X132223690Y-113407261D01*
X132585595Y-113407261D01*
X132676071Y-113452500D01*
X132721309Y-113497738D01*
X132766547Y-113588214D01*
X132766547Y-113723928D01*
X132721309Y-113814404D01*
X132676071Y-113859642D01*
X132585595Y-113904880D01*
X132223690Y-113904880D01*
X133535595Y-114312023D02*
X133445119Y-114357261D01*
X133264166Y-114357261D01*
X133173690Y-114312023D01*
X133128452Y-114221547D01*
X133128452Y-113859642D01*
X133173690Y-113769166D01*
X133264166Y-113723928D01*
X133445119Y-113723928D01*
X133535595Y-113769166D01*
X133580833Y-113859642D01*
X133580833Y-113950119D01*
X133128452Y-114040595D01*
X133897500Y-113723928D02*
X134123690Y-114357261D01*
X134349880Y-113723928D01*
X135933214Y-114357261D02*
X135390357Y-114357261D01*
X135661785Y-114357261D02*
X135661785Y-113407261D01*
X135571309Y-113542976D01*
X135480833Y-113633452D01*
X135390357Y-113678690D01*
X136340357Y-114266785D02*
X136385595Y-114312023D01*
X136340357Y-114357261D01*
X136295119Y-114312023D01*
X136340357Y-114266785D01*
X136340357Y-114357261D01*
X136973690Y-113407261D02*
X137064166Y-113407261D01*
X137154642Y-113452500D01*
X137199880Y-113497738D01*
X137245119Y-113588214D01*
X137290357Y-113769166D01*
X137290357Y-113995357D01*
X137245119Y-114176309D01*
X137199880Y-114266785D01*
X137154642Y-114312023D01*
X137064166Y-114357261D01*
X136973690Y-114357261D01*
X136883214Y-114312023D01*
X136837976Y-114266785D01*
X136792738Y-114176309D01*
X136747500Y-113995357D01*
X136747500Y-113769166D01*
X136792738Y-113588214D01*
X136837976Y-113497738D01*
X136883214Y-113452500D01*
X136973690Y-113407261D01*
X132223690Y-115932261D02*
X132223690Y-114982261D01*
X132540357Y-115660833D01*
X132857023Y-114982261D01*
X132857023Y-115932261D01*
X133716547Y-115932261D02*
X133716547Y-115434642D01*
X133671309Y-115344166D01*
X133580833Y-115298928D01*
X133399880Y-115298928D01*
X133309404Y-115344166D01*
X133716547Y-115887023D02*
X133626071Y-115932261D01*
X133399880Y-115932261D01*
X133309404Y-115887023D01*
X133264166Y-115796547D01*
X133264166Y-115706071D01*
X133309404Y-115615595D01*
X133399880Y-115570357D01*
X133626071Y-115570357D01*
X133716547Y-115525119D01*
X134168928Y-115932261D02*
X134168928Y-115298928D01*
X134168928Y-115479880D02*
X134214166Y-115389404D01*
X134259404Y-115344166D01*
X134349880Y-115298928D01*
X134440357Y-115298928D01*
X134621309Y-115298928D02*
X134983214Y-115298928D01*
X134757023Y-114982261D02*
X134757023Y-115796547D01*
X134802261Y-115887023D01*
X134892738Y-115932261D01*
X134983214Y-115932261D01*
X135299880Y-115932261D02*
X135299880Y-115298928D01*
X135299880Y-114982261D02*
X135254642Y-115027500D01*
X135299880Y-115072738D01*
X135345119Y-115027500D01*
X135299880Y-114982261D01*
X135299880Y-115072738D01*
X135752261Y-115298928D02*
X135752261Y-115932261D01*
X135752261Y-115389404D02*
X135797500Y-115344166D01*
X135887976Y-115298928D01*
X136023690Y-115298928D01*
X136114166Y-115344166D01*
X136159404Y-115434642D01*
X136159404Y-115932261D01*
X137335595Y-115932261D02*
X137335595Y-114982261D01*
X137561785Y-114982261D01*
X137697500Y-115027500D01*
X137787976Y-115117976D01*
X137833214Y-115208452D01*
X137878452Y-115389404D01*
X137878452Y-115525119D01*
X137833214Y-115706071D01*
X137787976Y-115796547D01*
X137697500Y-115887023D01*
X137561785Y-115932261D01*
X137335595Y-115932261D01*
X138421309Y-115932261D02*
X138330833Y-115887023D01*
X138285595Y-115841785D01*
X138240357Y-115751309D01*
X138240357Y-115479880D01*
X138285595Y-115389404D01*
X138330833Y-115344166D01*
X138421309Y-115298928D01*
X138557023Y-115298928D01*
X138647500Y-115344166D01*
X138692738Y-115389404D01*
X138737976Y-115479880D01*
X138737976Y-115751309D01*
X138692738Y-115841785D01*
X138647500Y-115887023D01*
X138557023Y-115932261D01*
X138421309Y-115932261D01*
X139145119Y-115298928D02*
X139145119Y-115932261D01*
X139145119Y-115389404D02*
X139190357Y-115344166D01*
X139280833Y-115298928D01*
X139416547Y-115298928D01*
X139507023Y-115344166D01*
X139552261Y-115434642D01*
X139552261Y-115932261D01*
X140140357Y-115932261D02*
X140049880Y-115887023D01*
X140004642Y-115796547D01*
X140004642Y-114982261D01*
X140637976Y-115932261D02*
X140547500Y-115887023D01*
X140502261Y-115841785D01*
X140457023Y-115751309D01*
X140457023Y-115479880D01*
X140502261Y-115389404D01*
X140547500Y-115344166D01*
X140637976Y-115298928D01*
X140773690Y-115298928D01*
X140864166Y-115344166D01*
X140909404Y-115389404D01*
X140954642Y-115479880D01*
X140954642Y-115751309D01*
X140909404Y-115841785D01*
X140864166Y-115887023D01*
X140773690Y-115932261D01*
X140637976Y-115932261D01*
X141361785Y-115298928D02*
X141361785Y-115932261D01*
X141361785Y-115389404D02*
X141407023Y-115344166D01*
X141497500Y-115298928D01*
X141633214Y-115298928D01*
X141723690Y-115344166D01*
X141768928Y-115434642D01*
X141768928Y-115932261D01*
X143216547Y-116294166D02*
X143171309Y-116248928D01*
X143080833Y-116113214D01*
X143035595Y-116022738D01*
X142990357Y-115887023D01*
X142945119Y-115660833D01*
X142945119Y-115479880D01*
X142990357Y-115253690D01*
X143035595Y-115117976D01*
X143080833Y-115027500D01*
X143171309Y-114891785D01*
X143216547Y-114846547D01*
X144166547Y-115479880D02*
X144121309Y-115434642D01*
X144030833Y-115389404D01*
X143940357Y-115389404D01*
X143849880Y-115434642D01*
X143804642Y-115479880D01*
X143759404Y-115570357D01*
X143759404Y-115660833D01*
X143804642Y-115751309D01*
X143849880Y-115796547D01*
X143940357Y-115841785D01*
X144030833Y-115841785D01*
X144121309Y-115796547D01*
X144166547Y-115751309D01*
X144166547Y-115389404D02*
X144166547Y-115751309D01*
X144211785Y-115796547D01*
X144257023Y-115796547D01*
X144347500Y-115751309D01*
X144392738Y-115660833D01*
X144392738Y-115434642D01*
X144302261Y-115298928D01*
X144166547Y-115208452D01*
X143985595Y-115163214D01*
X143804642Y-115208452D01*
X143668928Y-115298928D01*
X143578452Y-115434642D01*
X143533214Y-115615595D01*
X143578452Y-115796547D01*
X143668928Y-115932261D01*
X143804642Y-116022738D01*
X143985595Y-116067976D01*
X144166547Y-116022738D01*
X144302261Y-115932261D01*
X144709404Y-115298928D02*
X144890357Y-115932261D01*
X145071309Y-115479880D01*
X145252261Y-115932261D01*
X145433214Y-115298928D01*
X145795119Y-115932261D02*
X145795119Y-115298928D01*
X145795119Y-114982261D02*
X145749880Y-115027500D01*
X145795119Y-115072738D01*
X145840357Y-115027500D01*
X145795119Y-114982261D01*
X145795119Y-115072738D01*
X146654642Y-115887023D02*
X146564166Y-115932261D01*
X146383214Y-115932261D01*
X146292738Y-115887023D01*
X146247500Y-115841785D01*
X146202261Y-115751309D01*
X146202261Y-115479880D01*
X146247500Y-115389404D01*
X146292738Y-115344166D01*
X146383214Y-115298928D01*
X146564166Y-115298928D01*
X146654642Y-115344166D01*
X147061785Y-115932261D02*
X147061785Y-114982261D01*
X147152261Y-115570357D02*
X147423690Y-115932261D01*
X147423690Y-115298928D02*
X147061785Y-115660833D01*
X148192738Y-115887023D02*
X148102261Y-115932261D01*
X147921309Y-115932261D01*
X147830833Y-115887023D01*
X147785595Y-115796547D01*
X147785595Y-115434642D01*
X147830833Y-115344166D01*
X147921309Y-115298928D01*
X148102261Y-115298928D01*
X148192738Y-115344166D01*
X148237976Y-115434642D01*
X148237976Y-115525119D01*
X147785595Y-115615595D01*
X148645119Y-115932261D02*
X148645119Y-115298928D01*
X148645119Y-115479880D02*
X148690357Y-115389404D01*
X148735595Y-115344166D01*
X148826071Y-115298928D01*
X148916547Y-115298928D01*
X149142738Y-115298928D02*
X149323690Y-115932261D01*
X149504642Y-115479880D01*
X149685595Y-115932261D01*
X149866547Y-115298928D01*
X150635595Y-115932261D02*
X150635595Y-115434642D01*
X150590357Y-115344166D01*
X150499880Y-115298928D01*
X150318928Y-115298928D01*
X150228452Y-115344166D01*
X150635595Y-115887023D02*
X150545119Y-115932261D01*
X150318928Y-115932261D01*
X150228452Y-115887023D01*
X150183214Y-115796547D01*
X150183214Y-115706071D01*
X150228452Y-115615595D01*
X150318928Y-115570357D01*
X150545119Y-115570357D01*
X150635595Y-115525119D01*
X151087976Y-115932261D02*
X151087976Y-114982261D01*
X151178452Y-115570357D02*
X151449880Y-115932261D01*
X151449880Y-115298928D02*
X151087976Y-115660833D01*
X152264166Y-115932261D02*
X152264166Y-115434642D01*
X152218928Y-115344166D01*
X152128452Y-115298928D01*
X151947500Y-115298928D01*
X151857023Y-115344166D01*
X152264166Y-115887023D02*
X152173690Y-115932261D01*
X151947500Y-115932261D01*
X151857023Y-115887023D01*
X151811785Y-115796547D01*
X151811785Y-115706071D01*
X151857023Y-115615595D01*
X151947500Y-115570357D01*
X152173690Y-115570357D01*
X152264166Y-115525119D01*
X152626071Y-116294166D02*
X152671309Y-116248928D01*
X152761785Y-116113214D01*
X152807023Y-116022738D01*
X152852261Y-115887023D01*
X152897500Y-115660833D01*
X152897500Y-115479880D01*
X152852261Y-115253690D01*
X152807023Y-115117976D01*
X152761785Y-115027500D01*
X152671309Y-114891785D01*
X152626071Y-114846547D01*
X166880952Y-109452380D02*
X166880952Y-110166666D01*
X166833333Y-110309523D01*
X166738095Y-110404761D01*
X166595238Y-110452380D01*
X166500000Y-110452380D01*
X167833333Y-110452380D02*
X167357142Y-110452380D01*
X167357142Y-109452380D01*
X168738095Y-110357142D02*
X168690476Y-110404761D01*
X168547619Y-110452380D01*
X168452380Y-110452380D01*
X168309523Y-110404761D01*
X168214285Y-110309523D01*
X168166666Y-110214285D01*
X168119047Y-110023809D01*
X168119047Y-109880952D01*
X168166666Y-109690476D01*
X168214285Y-109595238D01*
X168309523Y-109500000D01*
X168452380Y-109452380D01*
X168547619Y-109452380D01*
X168690476Y-109500000D01*
X168738095Y-109547619D01*
X169452380Y-109452380D02*
X169452380Y-110166666D01*
X169404761Y-110309523D01*
X169309523Y-110404761D01*
X169166666Y-110452380D01*
X169071428Y-110452380D01*
X170404761Y-110452380D02*
X169928571Y-110452380D01*
X169928571Y-109452380D01*
X171309523Y-110357142D02*
X171261904Y-110404761D01*
X171119047Y-110452380D01*
X171023809Y-110452380D01*
X170880952Y-110404761D01*
X170785714Y-110309523D01*
X170738095Y-110214285D01*
X170690476Y-110023809D01*
X170690476Y-109880952D01*
X170738095Y-109690476D01*
X170785714Y-109595238D01*
X170880952Y-109500000D01*
X171023809Y-109452380D01*
X171119047Y-109452380D01*
X171261904Y-109500000D01*
X171309523Y-109547619D01*
X172023809Y-109452380D02*
X172023809Y-110166666D01*
X171976190Y-110309523D01*
X171880952Y-110404761D01*
X171738095Y-110452380D01*
X171642857Y-110452380D01*
X172976190Y-110452380D02*
X172500000Y-110452380D01*
X172500000Y-109452380D01*
X173880952Y-110357142D02*
X173833333Y-110404761D01*
X173690476Y-110452380D01*
X173595238Y-110452380D01*
X173452380Y-110404761D01*
X173357142Y-110309523D01*
X173309523Y-110214285D01*
X173261904Y-110023809D01*
X173261904Y-109880952D01*
X173309523Y-109690476D01*
X173357142Y-109595238D01*
X173452380Y-109500000D01*
X173595238Y-109452380D01*
X173690476Y-109452380D01*
X173833333Y-109500000D01*
X173880952Y-109547619D01*
X174595238Y-109452380D02*
X174595238Y-110166666D01*
X174547619Y-110309523D01*
X174452380Y-110404761D01*
X174309523Y-110452380D01*
X174214285Y-110452380D01*
X175547619Y-110452380D02*
X175071428Y-110452380D01*
X175071428Y-109452380D01*
X176452380Y-110357142D02*
X176404761Y-110404761D01*
X176261904Y-110452380D01*
X176166666Y-110452380D01*
X176023809Y-110404761D01*
X175928571Y-110309523D01*
X175880952Y-110214285D01*
X175833333Y-110023809D01*
X175833333Y-109880952D01*
X175880952Y-109690476D01*
X175928571Y-109595238D01*
X176023809Y-109500000D01*
X176166666Y-109452380D01*
X176261904Y-109452380D01*
X176404761Y-109500000D01*
X176452380Y-109547619D01*
X175238095Y-98000000D02*
X175142857Y-97952380D01*
X175000000Y-97952380D01*
X174857142Y-98000000D01*
X174761904Y-98095238D01*
X174714285Y-98190476D01*
X174666666Y-98380952D01*
X174666666Y-98523809D01*
X174714285Y-98714285D01*
X174761904Y-98809523D01*
X174857142Y-98904761D01*
X175000000Y-98952380D01*
X175095238Y-98952380D01*
X175238095Y-98904761D01*
X175285714Y-98857142D01*
X175285714Y-98523809D01*
X175095238Y-98523809D01*
X175714285Y-98952380D02*
X175714285Y-97952380D01*
X176285714Y-98952380D01*
X176285714Y-97952380D01*
X176761904Y-98952380D02*
X176761904Y-97952380D01*
X177000000Y-97952380D01*
X177142857Y-98000000D01*
X177238095Y-98095238D01*
X177285714Y-98190476D01*
X177333333Y-98380952D01*
X177333333Y-98523809D01*
X177285714Y-98714285D01*
X177238095Y-98809523D01*
X177142857Y-98904761D01*
X177000000Y-98952380D01*
X176761904Y-98952380D01*
X175190476Y-89452380D02*
X174714285Y-89452380D01*
X174666666Y-89928571D01*
X174714285Y-89880952D01*
X174809523Y-89833333D01*
X175047619Y-89833333D01*
X175142857Y-89880952D01*
X175190476Y-89928571D01*
X175238095Y-90023809D01*
X175238095Y-90261904D01*
X175190476Y-90357142D01*
X175142857Y-90404761D01*
X175047619Y-90452380D01*
X174809523Y-90452380D01*
X174714285Y-90404761D01*
X174666666Y-90357142D01*
X175523809Y-89452380D02*
X175857142Y-90452380D01*
X176190476Y-89452380D01*
X176523809Y-90071428D02*
X177285714Y-90071428D01*
X176904761Y-90452380D02*
X176904761Y-89690476D01*
D11*
%TO.C,J2*%
X138600000Y-98400000D02*
X138600000Y-97600000D01*
X138450000Y-96310000D02*
X138450000Y-106690000D01*
X121950000Y-95190000D02*
X129920000Y-95190000D01*
X121950000Y-94190000D02*
X121950000Y-95190000D01*
X121330000Y-94190000D02*
X121950000Y-94190000D01*
X121330000Y-108810000D02*
X121330000Y-94190000D01*
X121950000Y-108810000D02*
X121330000Y-108810000D01*
X121950000Y-107810000D02*
X121950000Y-108810000D01*
X129920000Y-107810000D02*
X121950000Y-107810000D01*
X133420000Y-95190000D02*
X135600000Y-95190000D01*
X133420000Y-107810000D02*
X135600000Y-107810000D01*
%TO.C,J1*%
X138600000Y-72400000D02*
X138600000Y-71600000D01*
X138450000Y-70310000D02*
X138450000Y-80690000D01*
X121950000Y-69190000D02*
X129920000Y-69190000D01*
X121950000Y-68190000D02*
X121950000Y-69190000D01*
X121330000Y-68190000D02*
X121950000Y-68190000D01*
X121330000Y-82810000D02*
X121330000Y-68190000D01*
X121950000Y-82810000D02*
X121330000Y-82810000D01*
X121950000Y-81810000D02*
X121950000Y-82810000D01*
X129920000Y-81810000D02*
X121950000Y-81810000D01*
X133420000Y-69190000D02*
X135600000Y-69190000D01*
X133420000Y-81810000D02*
X135600000Y-81810000D01*
%TO.C,Y1*%
X154775000Y-72050000D02*
X146800000Y-72050000D01*
X154775000Y-75950000D02*
X154775000Y-72050000D01*
X146800000Y-75950000D02*
X154775000Y-75950000D01*
%TO.C,U2*%
X171755000Y-87875000D02*
X167045000Y-87875000D01*
X171755000Y-85125000D02*
X171755000Y-87875000D01*
X166245000Y-85125000D02*
X171755000Y-85125000D01*
X166245000Y-87075000D02*
X166245000Y-85125000D01*
X167045000Y-87875000D02*
X166245000Y-87075000D01*
%TO.C,U1*%
X156650000Y-82750000D02*
X156650000Y-82350000D01*
X156650000Y-82350000D02*
X156250000Y-82350000D01*
X156250000Y-82350000D02*
X156250000Y-80750000D01*
X156650000Y-89250000D02*
X156650000Y-89650000D01*
X156650000Y-89650000D02*
X156250000Y-89650000D01*
X149350000Y-82750000D02*
X149350000Y-82350000D01*
X149350000Y-82350000D02*
X149750000Y-82350000D01*
X149350000Y-89250000D02*
X149350000Y-89650000D01*
X149350000Y-89650000D02*
X149750000Y-89650000D01*
D12*
X157150000Y-82000000D02*
G75*
G03*
X157150000Y-82000000I-150000J0D01*
G01*
D11*
%TO.C,R6*%
X161745276Y-84522500D02*
X162254724Y-84522500D01*
X161745276Y-83477500D02*
X162254724Y-83477500D01*
%TO.C,R5*%
X159377500Y-79445276D02*
X159377500Y-79954724D01*
X160422500Y-79445276D02*
X160422500Y-79954724D01*
%TO.C,R4*%
X162322500Y-79954724D02*
X162322500Y-79445276D01*
X161277500Y-79954724D02*
X161277500Y-79445276D01*
%TO.C,R3*%
X163822500Y-94954724D02*
X163822500Y-94445276D01*
X162777500Y-94954724D02*
X162777500Y-94445276D01*
%TO.C,R2*%
X161722500Y-94954724D02*
X161722500Y-94445276D01*
X160677500Y-94954724D02*
X160677500Y-94445276D01*
%TO.C,R1*%
X148077500Y-94845276D02*
X148077500Y-95354724D01*
X149122500Y-94845276D02*
X149122500Y-95354724D01*
%TO.C,J6*%
X177900000Y-97300000D02*
X177900000Y-96800000D01*
X177160000Y-97300000D02*
X177900000Y-97300000D01*
X171340000Y-91400000D02*
X177660000Y-91400000D01*
X171340000Y-97060000D02*
X177660000Y-97060000D01*
X177660000Y-92170000D02*
X177660000Y-91400000D01*
X177660000Y-94710000D02*
X177660000Y-93750000D01*
X177660000Y-97060000D02*
X177660000Y-96290000D01*
X171340000Y-97060000D02*
X171340000Y-91400000D01*
X171800000Y-97060000D02*
X171800000Y-91400000D01*
X177100000Y-92170000D02*
X177100000Y-91400000D01*
X177100000Y-94710000D02*
X177100000Y-93750000D01*
X177100000Y-97060000D02*
X177100000Y-96290000D01*
%TO.C,J3*%
X160680000Y-107000000D02*
X161180000Y-106500000D01*
X160680000Y-106000000D02*
X160680000Y-107000000D01*
X161180000Y-106500000D02*
X160680000Y-106000000D01*
X178120000Y-113910000D02*
X169760000Y-113910000D01*
X178120000Y-101590000D02*
X178120000Y-113910000D01*
X169760000Y-101590000D02*
X178120000Y-101590000D01*
X161400000Y-113910000D02*
X165660000Y-113910000D01*
X161400000Y-101590000D02*
X161400000Y-113910000D01*
X165660000Y-101590000D02*
X161400000Y-101590000D01*
%TO.C,C18*%
X161853733Y-86510000D02*
X162146267Y-86510000D01*
X161853733Y-85490000D02*
X162146267Y-85490000D01*
%TO.C,C17*%
X147153733Y-80110000D02*
X147446267Y-80110000D01*
X147153733Y-79090000D02*
X147446267Y-79090000D01*
%TO.C,C16*%
X152953733Y-79310000D02*
X153246267Y-79310000D01*
X152953733Y-78290000D02*
X153246267Y-78290000D01*
%TO.C,C15*%
X158690000Y-94553733D02*
X158690000Y-94846267D01*
X159710000Y-94553733D02*
X159710000Y-94846267D01*
%TO.C,C14*%
X151890000Y-94953733D02*
X151890000Y-95246267D01*
X152910000Y-94953733D02*
X152910000Y-95246267D01*
%TO.C,C13*%
X143890000Y-94953733D02*
X143890000Y-95246267D01*
X144910000Y-94953733D02*
X144910000Y-95246267D01*
%TO.C,C12*%
X156653733Y-79310000D02*
X156946267Y-79310000D01*
X156653733Y-78290000D02*
X156946267Y-78290000D01*
%TO.C,C11*%
X149990000Y-94953733D02*
X149990000Y-95246267D01*
X151010000Y-94953733D02*
X151010000Y-95246267D01*
%TO.C,C10*%
X161853733Y-90510000D02*
X162146267Y-90510000D01*
X161853733Y-89490000D02*
X162146267Y-89490000D01*
%TO.C,C9*%
X166846267Y-78790000D02*
X166553733Y-78790000D01*
X166846267Y-79810000D02*
X166553733Y-79810000D01*
%TO.C,C8*%
X166846267Y-80790000D02*
X166553733Y-80790000D01*
X166846267Y-81810000D02*
X166553733Y-81810000D01*
%TO.C,C7*%
X167646267Y-92990000D02*
X167353733Y-92990000D01*
X167646267Y-94010000D02*
X167353733Y-94010000D01*
%TO.C,C6*%
X136510000Y-65146267D02*
X136510000Y-64853733D01*
X135490000Y-65146267D02*
X135490000Y-64853733D01*
%TO.C,C5*%
X136210000Y-91146267D02*
X136210000Y-90853733D01*
X135190000Y-91146267D02*
X135190000Y-90853733D01*
%TO.C,C4*%
X134510000Y-65146267D02*
X134510000Y-64853733D01*
X133490000Y-65146267D02*
X133490000Y-64853733D01*
%TO.C,C3*%
X134410000Y-91146267D02*
X134410000Y-90853733D01*
X133390000Y-91146267D02*
X133390000Y-90853733D01*
%TO.C,C2*%
X146190000Y-94953733D02*
X146190000Y-95246267D01*
X147210000Y-94953733D02*
X147210000Y-95246267D01*
%TO.C,C1*%
X161853733Y-88510000D02*
X162146267Y-88510000D01*
X161853733Y-87490000D02*
X162146267Y-87490000D01*
%TO.C,H4*%
D10*
X156238095Y-108752380D02*
X156238095Y-107752380D01*
X156238095Y-108228571D02*
X156809523Y-108228571D01*
X156809523Y-108752380D02*
X156809523Y-107752380D01*
X157714285Y-108085714D02*
X157714285Y-108752380D01*
X157476190Y-107704761D02*
X157238095Y-108419047D01*
X157857142Y-108419047D01*
%TO.C,H3*%
X126238095Y-108752380D02*
X126238095Y-107752380D01*
X126238095Y-108228571D02*
X126809523Y-108228571D01*
X126809523Y-108752380D02*
X126809523Y-107752380D01*
X127190476Y-107752380D02*
X127809523Y-107752380D01*
X127476190Y-108133333D01*
X127619047Y-108133333D01*
X127714285Y-108180952D01*
X127761904Y-108228571D01*
X127809523Y-108323809D01*
X127809523Y-108561904D01*
X127761904Y-108657142D01*
X127714285Y-108704761D01*
X127619047Y-108752380D01*
X127333333Y-108752380D01*
X127238095Y-108704761D01*
X127190476Y-108657142D01*
%TO.C,H2*%
X173738095Y-76252380D02*
X173738095Y-75252380D01*
X173738095Y-75728571D02*
X174309523Y-75728571D01*
X174309523Y-76252380D02*
X174309523Y-75252380D01*
X174738095Y-75347619D02*
X174785714Y-75300000D01*
X174880952Y-75252380D01*
X175119047Y-75252380D01*
X175214285Y-75300000D01*
X175261904Y-75347619D01*
X175309523Y-75442857D01*
X175309523Y-75538095D01*
X175261904Y-75680952D01*
X174690476Y-76252380D01*
X175309523Y-76252380D01*
%TO.C,H1*%
X126238095Y-60252380D02*
X126238095Y-59252380D01*
X126238095Y-59728571D02*
X126809523Y-59728571D01*
X126809523Y-60252380D02*
X126809523Y-59252380D01*
X127809523Y-60252380D02*
X127238095Y-60252380D01*
X127523809Y-60252380D02*
X127523809Y-59252380D01*
X127428571Y-59395238D01*
X127333333Y-59490476D01*
X127238095Y-59538095D01*
%TO.C,J2*%
X139452380Y-101833333D02*
X140166666Y-101833333D01*
X140309523Y-101880952D01*
X140404761Y-101976190D01*
X140452380Y-102119047D01*
X140452380Y-102214285D01*
X139547619Y-101404761D02*
X139500000Y-101357142D01*
X139452380Y-101261904D01*
X139452380Y-101023809D01*
X139500000Y-100928571D01*
X139547619Y-100880952D01*
X139642857Y-100833333D01*
X139738095Y-100833333D01*
X139880952Y-100880952D01*
X140452380Y-101452380D01*
X140452380Y-100833333D01*
%TO.C,J1*%
X139452380Y-75833333D02*
X140166666Y-75833333D01*
X140309523Y-75880952D01*
X140404761Y-75976190D01*
X140452380Y-76119047D01*
X140452380Y-76214285D01*
X140452380Y-74833333D02*
X140452380Y-75404761D01*
X140452380Y-75119047D02*
X139452380Y-75119047D01*
X139595238Y-75214285D01*
X139690476Y-75309523D01*
X139738095Y-75404761D01*
%TO.C,Y1*%
X149523809Y-70976190D02*
X149523809Y-71452380D01*
X149190476Y-70452380D02*
X149523809Y-70976190D01*
X149857142Y-70452380D01*
X150714285Y-71452380D02*
X150142857Y-71452380D01*
X150428571Y-71452380D02*
X150428571Y-70452380D01*
X150333333Y-70595238D01*
X150238095Y-70690476D01*
X150142857Y-70738095D01*
%TO.C,U2*%
X172452380Y-87261904D02*
X173261904Y-87261904D01*
X173357142Y-87214285D01*
X173404761Y-87166666D01*
X173452380Y-87071428D01*
X173452380Y-86880952D01*
X173404761Y-86785714D01*
X173357142Y-86738095D01*
X173261904Y-86690476D01*
X172452380Y-86690476D01*
X172547619Y-86261904D02*
X172500000Y-86214285D01*
X172452380Y-86119047D01*
X172452380Y-85880952D01*
X172500000Y-85785714D01*
X172547619Y-85738095D01*
X172642857Y-85690476D01*
X172738095Y-85690476D01*
X172880952Y-85738095D01*
X173452380Y-86309523D01*
X173452380Y-85690476D01*
%TO.C,U1*%
X157452380Y-82261904D02*
X158261904Y-82261904D01*
X158357142Y-82214285D01*
X158404761Y-82166666D01*
X158452380Y-82071428D01*
X158452380Y-81880952D01*
X158404761Y-81785714D01*
X158357142Y-81738095D01*
X158261904Y-81690476D01*
X157452380Y-81690476D01*
X158452380Y-80690476D02*
X158452380Y-81261904D01*
X158452380Y-80976190D02*
X157452380Y-80976190D01*
X157595238Y-81071428D01*
X157690476Y-81166666D01*
X157738095Y-81261904D01*
X152928571Y-87500000D02*
X152928571Y-87833333D01*
X153452380Y-87833333D02*
X152452380Y-87833333D01*
X152452380Y-87357142D01*
X152928571Y-86976190D02*
X152928571Y-86642857D01*
X153452380Y-86500000D02*
X153452380Y-86976190D01*
X152452380Y-86976190D01*
X152452380Y-86500000D01*
X153452380Y-85547619D02*
X153452380Y-86119047D01*
X153452380Y-85833333D02*
X152452380Y-85833333D01*
X152595238Y-85928571D01*
X152690476Y-86023809D01*
X152738095Y-86119047D01*
X153357142Y-85119047D02*
X153404761Y-85071428D01*
X153452380Y-85119047D01*
X153404761Y-85166666D01*
X153357142Y-85119047D01*
X153452380Y-85119047D01*
X153452380Y-84119047D02*
X153452380Y-84690476D01*
X153452380Y-84404761D02*
X152452380Y-84404761D01*
X152595238Y-84500000D01*
X152690476Y-84595238D01*
X152738095Y-84690476D01*
%TO.C,R6*%
X164333333Y-84452380D02*
X164000000Y-83976190D01*
X163761904Y-84452380D02*
X163761904Y-83452380D01*
X164142857Y-83452380D01*
X164238095Y-83500000D01*
X164285714Y-83547619D01*
X164333333Y-83642857D01*
X164333333Y-83785714D01*
X164285714Y-83880952D01*
X164238095Y-83928571D01*
X164142857Y-83976190D01*
X163761904Y-83976190D01*
X165190476Y-83452380D02*
X165000000Y-83452380D01*
X164904761Y-83500000D01*
X164857142Y-83547619D01*
X164761904Y-83690476D01*
X164714285Y-83880952D01*
X164714285Y-84261904D01*
X164761904Y-84357142D01*
X164809523Y-84404761D01*
X164904761Y-84452380D01*
X165095238Y-84452380D01*
X165190476Y-84404761D01*
X165238095Y-84357142D01*
X165285714Y-84261904D01*
X165285714Y-84023809D01*
X165238095Y-83928571D01*
X165190476Y-83880952D01*
X165095238Y-83833333D01*
X164904761Y-83833333D01*
X164809523Y-83880952D01*
X164761904Y-83928571D01*
X164714285Y-84023809D01*
%TO.C,R5*%
X160452380Y-76166666D02*
X159976190Y-76500000D01*
X160452380Y-76738095D02*
X159452380Y-76738095D01*
X159452380Y-76357142D01*
X159500000Y-76261904D01*
X159547619Y-76214285D01*
X159642857Y-76166666D01*
X159785714Y-76166666D01*
X159880952Y-76214285D01*
X159928571Y-76261904D01*
X159976190Y-76357142D01*
X159976190Y-76738095D01*
X159452380Y-75261904D02*
X159452380Y-75738095D01*
X159928571Y-75785714D01*
X159880952Y-75738095D01*
X159833333Y-75642857D01*
X159833333Y-75404761D01*
X159880952Y-75309523D01*
X159928571Y-75261904D01*
X160023809Y-75214285D01*
X160261904Y-75214285D01*
X160357142Y-75261904D01*
X160404761Y-75309523D01*
X160452380Y-75404761D01*
X160452380Y-75642857D01*
X160404761Y-75738095D01*
X160357142Y-75785714D01*
%TO.C,R4*%
X162452380Y-77166666D02*
X161976190Y-77500000D01*
X162452380Y-77738095D02*
X161452380Y-77738095D01*
X161452380Y-77357142D01*
X161500000Y-77261904D01*
X161547619Y-77214285D01*
X161642857Y-77166666D01*
X161785714Y-77166666D01*
X161880952Y-77214285D01*
X161928571Y-77261904D01*
X161976190Y-77357142D01*
X161976190Y-77738095D01*
X161785714Y-76309523D02*
X162452380Y-76309523D01*
X161404761Y-76547619D02*
X162119047Y-76785714D01*
X162119047Y-76166666D01*
%TO.C,R3*%
X163952380Y-97666666D02*
X163476190Y-98000000D01*
X163952380Y-98238095D02*
X162952380Y-98238095D01*
X162952380Y-97857142D01*
X163000000Y-97761904D01*
X163047619Y-97714285D01*
X163142857Y-97666666D01*
X163285714Y-97666666D01*
X163380952Y-97714285D01*
X163428571Y-97761904D01*
X163476190Y-97857142D01*
X163476190Y-98238095D01*
X162952380Y-97333333D02*
X162952380Y-96714285D01*
X163333333Y-97047619D01*
X163333333Y-96904761D01*
X163380952Y-96809523D01*
X163428571Y-96761904D01*
X163523809Y-96714285D01*
X163761904Y-96714285D01*
X163857142Y-96761904D01*
X163904761Y-96809523D01*
X163952380Y-96904761D01*
X163952380Y-97190476D01*
X163904761Y-97285714D01*
X163857142Y-97333333D01*
%TO.C,R2*%
X161452380Y-97666666D02*
X160976190Y-98000000D01*
X161452380Y-98238095D02*
X160452380Y-98238095D01*
X160452380Y-97857142D01*
X160500000Y-97761904D01*
X160547619Y-97714285D01*
X160642857Y-97666666D01*
X160785714Y-97666666D01*
X160880952Y-97714285D01*
X160928571Y-97761904D01*
X160976190Y-97857142D01*
X160976190Y-98238095D01*
X160547619Y-97285714D02*
X160500000Y-97238095D01*
X160452380Y-97142857D01*
X160452380Y-96904761D01*
X160500000Y-96809523D01*
X160547619Y-96761904D01*
X160642857Y-96714285D01*
X160738095Y-96714285D01*
X160880952Y-96761904D01*
X161452380Y-97333333D01*
X161452380Y-96714285D01*
%TO.C,R1*%
X148952380Y-98666666D02*
X148476190Y-99000000D01*
X148952380Y-99238095D02*
X147952380Y-99238095D01*
X147952380Y-98857142D01*
X148000000Y-98761904D01*
X148047619Y-98714285D01*
X148142857Y-98666666D01*
X148285714Y-98666666D01*
X148380952Y-98714285D01*
X148428571Y-98761904D01*
X148476190Y-98857142D01*
X148476190Y-99238095D01*
X148952380Y-97714285D02*
X148952380Y-98285714D01*
X148952380Y-98000000D02*
X147952380Y-98000000D01*
X148095238Y-98095238D01*
X148190476Y-98190476D01*
X148238095Y-98285714D01*
%TO.C,J6*%
X169792380Y-94563333D02*
X170506666Y-94563333D01*
X170649523Y-94610952D01*
X170744761Y-94706190D01*
X170792380Y-94849047D01*
X170792380Y-94944285D01*
X169792380Y-93658571D02*
X169792380Y-93849047D01*
X169840000Y-93944285D01*
X169887619Y-93991904D01*
X170030476Y-94087142D01*
X170220952Y-94134761D01*
X170601904Y-94134761D01*
X170697142Y-94087142D01*
X170744761Y-94039523D01*
X170792380Y-93944285D01*
X170792380Y-93753809D01*
X170744761Y-93658571D01*
X170697142Y-93610952D01*
X170601904Y-93563333D01*
X170363809Y-93563333D01*
X170268571Y-93610952D01*
X170220952Y-93658571D01*
X170173333Y-93753809D01*
X170173333Y-93944285D01*
X170220952Y-94039523D01*
X170268571Y-94087142D01*
X170363809Y-94134761D01*
%TO.C,J3*%
X169426666Y-98182380D02*
X169426666Y-98896666D01*
X169379047Y-99039523D01*
X169283809Y-99134761D01*
X169140952Y-99182380D01*
X169045714Y-99182380D01*
X169807619Y-98182380D02*
X170426666Y-98182380D01*
X170093333Y-98563333D01*
X170236190Y-98563333D01*
X170331428Y-98610952D01*
X170379047Y-98658571D01*
X170426666Y-98753809D01*
X170426666Y-98991904D01*
X170379047Y-99087142D01*
X170331428Y-99134761D01*
X170236190Y-99182380D01*
X169950476Y-99182380D01*
X169855238Y-99134761D01*
X169807619Y-99087142D01*
%TO.C,C18*%
X163985714Y-86285714D02*
X163947619Y-86323809D01*
X163833333Y-86361904D01*
X163757142Y-86361904D01*
X163642857Y-86323809D01*
X163566666Y-86247619D01*
X163528571Y-86171428D01*
X163490476Y-86019047D01*
X163490476Y-85904761D01*
X163528571Y-85752380D01*
X163566666Y-85676190D01*
X163642857Y-85600000D01*
X163757142Y-85561904D01*
X163833333Y-85561904D01*
X163947619Y-85600000D01*
X163985714Y-85638095D01*
X164747619Y-86361904D02*
X164290476Y-86361904D01*
X164519047Y-86361904D02*
X164519047Y-85561904D01*
X164442857Y-85676190D01*
X164366666Y-85752380D01*
X164290476Y-85790476D01*
X165204761Y-85904761D02*
X165128571Y-85866666D01*
X165090476Y-85828571D01*
X165052380Y-85752380D01*
X165052380Y-85714285D01*
X165090476Y-85638095D01*
X165128571Y-85600000D01*
X165204761Y-85561904D01*
X165357142Y-85561904D01*
X165433333Y-85600000D01*
X165471428Y-85638095D01*
X165509523Y-85714285D01*
X165509523Y-85752380D01*
X165471428Y-85828571D01*
X165433333Y-85866666D01*
X165357142Y-85904761D01*
X165204761Y-85904761D01*
X165128571Y-85942857D01*
X165090476Y-85980952D01*
X165052380Y-86057142D01*
X165052380Y-86209523D01*
X165090476Y-86285714D01*
X165128571Y-86323809D01*
X165204761Y-86361904D01*
X165357142Y-86361904D01*
X165433333Y-86323809D01*
X165471428Y-86285714D01*
X165509523Y-86209523D01*
X165509523Y-86057142D01*
X165471428Y-85980952D01*
X165433333Y-85942857D01*
X165357142Y-85904761D01*
%TO.C,C17*%
X146657142Y-81357142D02*
X146609523Y-81404761D01*
X146466666Y-81452380D01*
X146371428Y-81452380D01*
X146228571Y-81404761D01*
X146133333Y-81309523D01*
X146085714Y-81214285D01*
X146038095Y-81023809D01*
X146038095Y-80880952D01*
X146085714Y-80690476D01*
X146133333Y-80595238D01*
X146228571Y-80500000D01*
X146371428Y-80452380D01*
X146466666Y-80452380D01*
X146609523Y-80500000D01*
X146657142Y-80547619D01*
X147609523Y-81452380D02*
X147038095Y-81452380D01*
X147323809Y-81452380D02*
X147323809Y-80452380D01*
X147228571Y-80595238D01*
X147133333Y-80690476D01*
X147038095Y-80738095D01*
X147942857Y-80452380D02*
X148609523Y-80452380D01*
X148180952Y-81452380D01*
%TO.C,C16*%
X151357142Y-77727142D02*
X151309523Y-77774761D01*
X151166666Y-77822380D01*
X151071428Y-77822380D01*
X150928571Y-77774761D01*
X150833333Y-77679523D01*
X150785714Y-77584285D01*
X150738095Y-77393809D01*
X150738095Y-77250952D01*
X150785714Y-77060476D01*
X150833333Y-76965238D01*
X150928571Y-76870000D01*
X151071428Y-76822380D01*
X151166666Y-76822380D01*
X151309523Y-76870000D01*
X151357142Y-76917619D01*
X152309523Y-77822380D02*
X151738095Y-77822380D01*
X152023809Y-77822380D02*
X152023809Y-76822380D01*
X151928571Y-76965238D01*
X151833333Y-77060476D01*
X151738095Y-77108095D01*
X153166666Y-76822380D02*
X152976190Y-76822380D01*
X152880952Y-76870000D01*
X152833333Y-76917619D01*
X152738095Y-77060476D01*
X152690476Y-77250952D01*
X152690476Y-77631904D01*
X152738095Y-77727142D01*
X152785714Y-77774761D01*
X152880952Y-77822380D01*
X153071428Y-77822380D01*
X153166666Y-77774761D01*
X153214285Y-77727142D01*
X153261904Y-77631904D01*
X153261904Y-77393809D01*
X153214285Y-77298571D01*
X153166666Y-77250952D01*
X153071428Y-77203333D01*
X152880952Y-77203333D01*
X152785714Y-77250952D01*
X152738095Y-77298571D01*
X152690476Y-77393809D01*
%TO.C,C15*%
X158357142Y-95642857D02*
X158404761Y-95690476D01*
X158452380Y-95833333D01*
X158452380Y-95928571D01*
X158404761Y-96071428D01*
X158309523Y-96166666D01*
X158214285Y-96214285D01*
X158023809Y-96261904D01*
X157880952Y-96261904D01*
X157690476Y-96214285D01*
X157595238Y-96166666D01*
X157500000Y-96071428D01*
X157452380Y-95928571D01*
X157452380Y-95833333D01*
X157500000Y-95690476D01*
X157547619Y-95642857D01*
X158452380Y-94690476D02*
X158452380Y-95261904D01*
X158452380Y-94976190D02*
X157452380Y-94976190D01*
X157595238Y-95071428D01*
X157690476Y-95166666D01*
X157738095Y-95261904D01*
X157452380Y-93785714D02*
X157452380Y-94261904D01*
X157928571Y-94309523D01*
X157880952Y-94261904D01*
X157833333Y-94166666D01*
X157833333Y-93928571D01*
X157880952Y-93833333D01*
X157928571Y-93785714D01*
X158023809Y-93738095D01*
X158261904Y-93738095D01*
X158357142Y-93785714D01*
X158404761Y-93833333D01*
X158452380Y-93928571D01*
X158452380Y-94166666D01*
X158404761Y-94261904D01*
X158357142Y-94309523D01*
%TO.C,C14*%
X152857142Y-99642857D02*
X152904761Y-99690476D01*
X152952380Y-99833333D01*
X152952380Y-99928571D01*
X152904761Y-100071428D01*
X152809523Y-100166666D01*
X152714285Y-100214285D01*
X152523809Y-100261904D01*
X152380952Y-100261904D01*
X152190476Y-100214285D01*
X152095238Y-100166666D01*
X152000000Y-100071428D01*
X151952380Y-99928571D01*
X151952380Y-99833333D01*
X152000000Y-99690476D01*
X152047619Y-99642857D01*
X152952380Y-98690476D02*
X152952380Y-99261904D01*
X152952380Y-98976190D02*
X151952380Y-98976190D01*
X152095238Y-99071428D01*
X152190476Y-99166666D01*
X152238095Y-99261904D01*
X152285714Y-97833333D02*
X152952380Y-97833333D01*
X151904761Y-98071428D02*
X152619047Y-98309523D01*
X152619047Y-97690476D01*
%TO.C,C13*%
X144857142Y-99642857D02*
X144904761Y-99690476D01*
X144952380Y-99833333D01*
X144952380Y-99928571D01*
X144904761Y-100071428D01*
X144809523Y-100166666D01*
X144714285Y-100214285D01*
X144523809Y-100261904D01*
X144380952Y-100261904D01*
X144190476Y-100214285D01*
X144095238Y-100166666D01*
X144000000Y-100071428D01*
X143952380Y-99928571D01*
X143952380Y-99833333D01*
X144000000Y-99690476D01*
X144047619Y-99642857D01*
X144952380Y-98690476D02*
X144952380Y-99261904D01*
X144952380Y-98976190D02*
X143952380Y-98976190D01*
X144095238Y-99071428D01*
X144190476Y-99166666D01*
X144238095Y-99261904D01*
X143952380Y-98357142D02*
X143952380Y-97738095D01*
X144333333Y-98071428D01*
X144333333Y-97928571D01*
X144380952Y-97833333D01*
X144428571Y-97785714D01*
X144523809Y-97738095D01*
X144761904Y-97738095D01*
X144857142Y-97785714D01*
X144904761Y-97833333D01*
X144952380Y-97928571D01*
X144952380Y-98214285D01*
X144904761Y-98309523D01*
X144857142Y-98357142D01*
%TO.C,C12*%
X155857142Y-77727142D02*
X155809523Y-77774761D01*
X155666666Y-77822380D01*
X155571428Y-77822380D01*
X155428571Y-77774761D01*
X155333333Y-77679523D01*
X155285714Y-77584285D01*
X155238095Y-77393809D01*
X155238095Y-77250952D01*
X155285714Y-77060476D01*
X155333333Y-76965238D01*
X155428571Y-76870000D01*
X155571428Y-76822380D01*
X155666666Y-76822380D01*
X155809523Y-76870000D01*
X155857142Y-76917619D01*
X156809523Y-77822380D02*
X156238095Y-77822380D01*
X156523809Y-77822380D02*
X156523809Y-76822380D01*
X156428571Y-76965238D01*
X156333333Y-77060476D01*
X156238095Y-77108095D01*
X157190476Y-76917619D02*
X157238095Y-76870000D01*
X157333333Y-76822380D01*
X157571428Y-76822380D01*
X157666666Y-76870000D01*
X157714285Y-76917619D01*
X157761904Y-77012857D01*
X157761904Y-77108095D01*
X157714285Y-77250952D01*
X157142857Y-77822380D01*
X157761904Y-77822380D01*
%TO.C,C11*%
X150857142Y-99642857D02*
X150904761Y-99690476D01*
X150952380Y-99833333D01*
X150952380Y-99928571D01*
X150904761Y-100071428D01*
X150809523Y-100166666D01*
X150714285Y-100214285D01*
X150523809Y-100261904D01*
X150380952Y-100261904D01*
X150190476Y-100214285D01*
X150095238Y-100166666D01*
X150000000Y-100071428D01*
X149952380Y-99928571D01*
X149952380Y-99833333D01*
X150000000Y-99690476D01*
X150047619Y-99642857D01*
X150952380Y-98690476D02*
X150952380Y-99261904D01*
X150952380Y-98976190D02*
X149952380Y-98976190D01*
X150095238Y-99071428D01*
X150190476Y-99166666D01*
X150238095Y-99261904D01*
X150952380Y-97738095D02*
X150952380Y-98309523D01*
X150952380Y-98023809D02*
X149952380Y-98023809D01*
X150095238Y-98119047D01*
X150190476Y-98214285D01*
X150238095Y-98309523D01*
%TO.C,C10*%
X161357142Y-91857142D02*
X161309523Y-91904761D01*
X161166666Y-91952380D01*
X161071428Y-91952380D01*
X160928571Y-91904761D01*
X160833333Y-91809523D01*
X160785714Y-91714285D01*
X160738095Y-91523809D01*
X160738095Y-91380952D01*
X160785714Y-91190476D01*
X160833333Y-91095238D01*
X160928571Y-91000000D01*
X161071428Y-90952380D01*
X161166666Y-90952380D01*
X161309523Y-91000000D01*
X161357142Y-91047619D01*
X162309523Y-91952380D02*
X161738095Y-91952380D01*
X162023809Y-91952380D02*
X162023809Y-90952380D01*
X161928571Y-91095238D01*
X161833333Y-91190476D01*
X161738095Y-91238095D01*
X162928571Y-90952380D02*
X163023809Y-90952380D01*
X163119047Y-91000000D01*
X163166666Y-91047619D01*
X163214285Y-91142857D01*
X163261904Y-91333333D01*
X163261904Y-91571428D01*
X163214285Y-91761904D01*
X163166666Y-91857142D01*
X163119047Y-91904761D01*
X163023809Y-91952380D01*
X162928571Y-91952380D01*
X162833333Y-91904761D01*
X162785714Y-91857142D01*
X162738095Y-91761904D01*
X162690476Y-91571428D01*
X162690476Y-91333333D01*
X162738095Y-91142857D01*
X162785714Y-91047619D01*
X162833333Y-91000000D01*
X162928571Y-90952380D01*
%TO.C,C9*%
X169333333Y-79357142D02*
X169285714Y-79404761D01*
X169142857Y-79452380D01*
X169047619Y-79452380D01*
X168904761Y-79404761D01*
X168809523Y-79309523D01*
X168761904Y-79214285D01*
X168714285Y-79023809D01*
X168714285Y-78880952D01*
X168761904Y-78690476D01*
X168809523Y-78595238D01*
X168904761Y-78500000D01*
X169047619Y-78452380D01*
X169142857Y-78452380D01*
X169285714Y-78500000D01*
X169333333Y-78547619D01*
X169809523Y-79452380D02*
X170000000Y-79452380D01*
X170095238Y-79404761D01*
X170142857Y-79357142D01*
X170238095Y-79214285D01*
X170285714Y-79023809D01*
X170285714Y-78642857D01*
X170238095Y-78547619D01*
X170190476Y-78500000D01*
X170095238Y-78452380D01*
X169904761Y-78452380D01*
X169809523Y-78500000D01*
X169761904Y-78547619D01*
X169714285Y-78642857D01*
X169714285Y-78880952D01*
X169761904Y-78976190D01*
X169809523Y-79023809D01*
X169904761Y-79071428D01*
X170095238Y-79071428D01*
X170190476Y-79023809D01*
X170238095Y-78976190D01*
X170285714Y-78880952D01*
%TO.C,C8*%
X169333333Y-81857142D02*
X169285714Y-81904761D01*
X169142857Y-81952380D01*
X169047619Y-81952380D01*
X168904761Y-81904761D01*
X168809523Y-81809523D01*
X168761904Y-81714285D01*
X168714285Y-81523809D01*
X168714285Y-81380952D01*
X168761904Y-81190476D01*
X168809523Y-81095238D01*
X168904761Y-81000000D01*
X169047619Y-80952380D01*
X169142857Y-80952380D01*
X169285714Y-81000000D01*
X169333333Y-81047619D01*
X169904761Y-81380952D02*
X169809523Y-81333333D01*
X169761904Y-81285714D01*
X169714285Y-81190476D01*
X169714285Y-81142857D01*
X169761904Y-81047619D01*
X169809523Y-81000000D01*
X169904761Y-80952380D01*
X170095238Y-80952380D01*
X170190476Y-81000000D01*
X170238095Y-81047619D01*
X170285714Y-81142857D01*
X170285714Y-81190476D01*
X170238095Y-81285714D01*
X170190476Y-81333333D01*
X170095238Y-81380952D01*
X169904761Y-81380952D01*
X169809523Y-81428571D01*
X169761904Y-81476190D01*
X169714285Y-81571428D01*
X169714285Y-81761904D01*
X169761904Y-81857142D01*
X169809523Y-81904761D01*
X169904761Y-81952380D01*
X170095238Y-81952380D01*
X170190476Y-81904761D01*
X170238095Y-81857142D01*
X170285714Y-81761904D01*
X170285714Y-81571428D01*
X170238095Y-81476190D01*
X170190476Y-81428571D01*
X170095238Y-81380952D01*
%TO.C,C7*%
X167333333Y-95287142D02*
X167285714Y-95334761D01*
X167142857Y-95382380D01*
X167047619Y-95382380D01*
X166904761Y-95334761D01*
X166809523Y-95239523D01*
X166761904Y-95144285D01*
X166714285Y-94953809D01*
X166714285Y-94810952D01*
X166761904Y-94620476D01*
X166809523Y-94525238D01*
X166904761Y-94430000D01*
X167047619Y-94382380D01*
X167142857Y-94382380D01*
X167285714Y-94430000D01*
X167333333Y-94477619D01*
X167666666Y-94382380D02*
X168333333Y-94382380D01*
X167904761Y-95382380D01*
%TO.C,C6*%
X136357142Y-62166666D02*
X136404761Y-62214285D01*
X136452380Y-62357142D01*
X136452380Y-62452380D01*
X136404761Y-62595238D01*
X136309523Y-62690476D01*
X136214285Y-62738095D01*
X136023809Y-62785714D01*
X135880952Y-62785714D01*
X135690476Y-62738095D01*
X135595238Y-62690476D01*
X135500000Y-62595238D01*
X135452380Y-62452380D01*
X135452380Y-62357142D01*
X135500000Y-62214285D01*
X135547619Y-62166666D01*
X135452380Y-61309523D02*
X135452380Y-61500000D01*
X135500000Y-61595238D01*
X135547619Y-61642857D01*
X135690476Y-61738095D01*
X135880952Y-61785714D01*
X136261904Y-61785714D01*
X136357142Y-61738095D01*
X136404761Y-61690476D01*
X136452380Y-61595238D01*
X136452380Y-61404761D01*
X136404761Y-61309523D01*
X136357142Y-61261904D01*
X136261904Y-61214285D01*
X136023809Y-61214285D01*
X135928571Y-61261904D01*
X135880952Y-61309523D01*
X135833333Y-61404761D01*
X135833333Y-61595238D01*
X135880952Y-61690476D01*
X135928571Y-61738095D01*
X136023809Y-61785714D01*
%TO.C,C5*%
X136357142Y-88666666D02*
X136404761Y-88714285D01*
X136452380Y-88857142D01*
X136452380Y-88952380D01*
X136404761Y-89095238D01*
X136309523Y-89190476D01*
X136214285Y-89238095D01*
X136023809Y-89285714D01*
X135880952Y-89285714D01*
X135690476Y-89238095D01*
X135595238Y-89190476D01*
X135500000Y-89095238D01*
X135452380Y-88952380D01*
X135452380Y-88857142D01*
X135500000Y-88714285D01*
X135547619Y-88666666D01*
X135452380Y-87761904D02*
X135452380Y-88238095D01*
X135928571Y-88285714D01*
X135880952Y-88238095D01*
X135833333Y-88142857D01*
X135833333Y-87904761D01*
X135880952Y-87809523D01*
X135928571Y-87761904D01*
X136023809Y-87714285D01*
X136261904Y-87714285D01*
X136357142Y-87761904D01*
X136404761Y-87809523D01*
X136452380Y-87904761D01*
X136452380Y-88142857D01*
X136404761Y-88238095D01*
X136357142Y-88285714D01*
%TO.C,C4*%
X134357142Y-62166666D02*
X134404761Y-62214285D01*
X134452380Y-62357142D01*
X134452380Y-62452380D01*
X134404761Y-62595238D01*
X134309523Y-62690476D01*
X134214285Y-62738095D01*
X134023809Y-62785714D01*
X133880952Y-62785714D01*
X133690476Y-62738095D01*
X133595238Y-62690476D01*
X133500000Y-62595238D01*
X133452380Y-62452380D01*
X133452380Y-62357142D01*
X133500000Y-62214285D01*
X133547619Y-62166666D01*
X133785714Y-61309523D02*
X134452380Y-61309523D01*
X133404761Y-61547619D02*
X134119047Y-61785714D01*
X134119047Y-61166666D01*
%TO.C,C3*%
X134357142Y-88666666D02*
X134404761Y-88714285D01*
X134452380Y-88857142D01*
X134452380Y-88952380D01*
X134404761Y-89095238D01*
X134309523Y-89190476D01*
X134214285Y-89238095D01*
X134023809Y-89285714D01*
X133880952Y-89285714D01*
X133690476Y-89238095D01*
X133595238Y-89190476D01*
X133500000Y-89095238D01*
X133452380Y-88952380D01*
X133452380Y-88857142D01*
X133500000Y-88714285D01*
X133547619Y-88666666D01*
X133452380Y-88333333D02*
X133452380Y-87714285D01*
X133833333Y-88047619D01*
X133833333Y-87904761D01*
X133880952Y-87809523D01*
X133928571Y-87761904D01*
X134023809Y-87714285D01*
X134261904Y-87714285D01*
X134357142Y-87761904D01*
X134404761Y-87809523D01*
X134452380Y-87904761D01*
X134452380Y-88190476D01*
X134404761Y-88285714D01*
X134357142Y-88333333D01*
%TO.C,C2*%
X146857142Y-98666666D02*
X146904761Y-98714285D01*
X146952380Y-98857142D01*
X146952380Y-98952380D01*
X146904761Y-99095238D01*
X146809523Y-99190476D01*
X146714285Y-99238095D01*
X146523809Y-99285714D01*
X146380952Y-99285714D01*
X146190476Y-99238095D01*
X146095238Y-99190476D01*
X146000000Y-99095238D01*
X145952380Y-98952380D01*
X145952380Y-98857142D01*
X146000000Y-98714285D01*
X146047619Y-98666666D01*
X146047619Y-98285714D02*
X146000000Y-98238095D01*
X145952380Y-98142857D01*
X145952380Y-97904761D01*
X146000000Y-97809523D01*
X146047619Y-97761904D01*
X146142857Y-97714285D01*
X146238095Y-97714285D01*
X146380952Y-97761904D01*
X146952380Y-98333333D01*
X146952380Y-97714285D01*
%TO.C,C1*%
X159333333Y-88357142D02*
X159285714Y-88404761D01*
X159142857Y-88452380D01*
X159047619Y-88452380D01*
X158904761Y-88404761D01*
X158809523Y-88309523D01*
X158761904Y-88214285D01*
X158714285Y-88023809D01*
X158714285Y-87880952D01*
X158761904Y-87690476D01*
X158809523Y-87595238D01*
X158904761Y-87500000D01*
X159047619Y-87452380D01*
X159142857Y-87452380D01*
X159285714Y-87500000D01*
X159333333Y-87547619D01*
X160285714Y-88452380D02*
X159714285Y-88452380D01*
X160000000Y-88452380D02*
X160000000Y-87452380D01*
X159904761Y-87595238D01*
X159809523Y-87690476D01*
X159714285Y-87738095D01*
%TD*%
M02*
