M48
; DRILL file {KiCad (5.1.10)-1} date 06/24/21 18:33:16
; FORMAT={-:-/ absolute / inch / decimal}
; #@! TF.CreationDate,2021-06-24T18:33:16-07:00
; #@! TF.GenerationSoftware,Kicad,Pcbnew,(5.1.10)-1
FMAT,2
INCH
T1C0.0157
T2C0.0197
T3C0.0315
T4C0.0374
T5C0.0394
T6C0.0433
T7C0.1260
T8C0.1378
%
G90
G05
T1
X3.9764Y-4.7244
X4.5276Y-4.6063
X4.5571Y-4.124
X4.685Y-4.685
X4.8425Y-4.1634
X5.4724Y-4.9213
X5.5906Y-1.9685
X5.6299Y-2.1654
X5.7087Y-4.6457
X6.2205Y-4.6063
X6.2598Y-4.7244
X6.378Y-4.1732
X6.6142Y-4.1339
T2
X3.4793Y-4.9748
X3.5096Y-4.9017
X3.5096Y-5.0479
X3.5827Y-4.8715
X3.5827Y-5.0781
X3.6558Y-4.9017
X3.6558Y-5.0479
X3.686Y-4.9748
X4.188Y-2.0472
X4.2183Y-1.9742
X4.2183Y-2.1203
X4.2913Y-1.9439
X4.2913Y-2.1506
X4.3644Y-1.9742
X4.3644Y-2.1203
X4.3947Y-2.0472
X6.2352Y-4.9764
X6.2655Y-4.9033
X6.2655Y-5.0495
X6.3386Y-4.873
X6.3386Y-5.0797
X6.4117Y-4.9033
X6.4117Y-5.0495
X6.4419Y-4.9764
X7.81Y-2.0472
X7.8403Y-1.9742
X7.8403Y-2.1203
X7.9134Y-1.9439
X7.9134Y-2.1506
X7.9865Y-1.9742
X7.9865Y-2.1203
X8.0167Y-2.0472
T3
X4.3701Y-3.3071
X4.4685Y-3.3071
X4.6559Y-3.0717
X4.6559Y-3.3677
X4.6575Y-3.6197
X4.6772Y-3.9197
X4.7559Y-3.0717
X4.7559Y-3.3677
X4.7559Y-3.6197
X4.7559Y-3.9197
X4.8559Y-3.0717
X4.8559Y-3.3677
X4.9213Y-2.4016
X4.9213Y-2.8016
X4.9559Y-3.0717
X4.9559Y-3.3677
X5.0059Y-3.8697
X5.0059Y-3.9681
X5.0559Y-3.0717
X5.0559Y-3.3677
X5.0787Y-2.3622
X5.0787Y-2.7622
X5.1559Y-3.0717
X5.1559Y-3.3677
X5.1559Y-3.6197
X5.1559Y-3.7181
X5.1906Y-4.5669
X5.2559Y-3.0717
X5.2559Y-3.3677
X5.2921Y-2.3559
X5.2921Y-2.7559
X5.3559Y-3.0717
X5.3559Y-3.3677
X5.3559Y-3.8697
X5.3559Y-3.9681
X5.4559Y-3.0717
X5.4559Y-3.3677
X5.5059Y-3.6197
X5.5059Y-3.7181
X5.5559Y-3.0717
X5.5559Y-3.3677
X5.5906Y-4.5669
X5.748Y-4.5669
X5.9386Y-3.0709
X6.063Y-2.2047
X6.148Y-4.5669
X6.3386Y-3.0709
X6.3386Y-3.8976
X6.463Y-2.2047
X6.4717Y-4.4638
X6.4717Y-4.5638
X6.4717Y-4.6638
X6.4717Y-4.7638
X6.7386Y-3.8976
X6.7717Y-4.4638
X6.7717Y-4.5638
X6.7717Y-4.6638
X6.7717Y-4.7638
X6.9327Y-4.4193
X7.3327Y-4.4193
T4
X6.9685Y-2.0079
X7.0669Y-2.0079
X7.1654Y-2.0079
X7.2638Y-2.0079
X7.3622Y-2.0079
X7.8346Y-3.3465
X7.8346Y-3.4449
X7.8346Y-3.5433
T5
X3.5362Y-4.1327
X3.5812Y-4.2107
X3.5813Y-4.0546
X3.6263Y-4.1326
X3.6264Y-3.9765
X3.6713Y-4.2106
X3.6714Y-4.0545
X3.6715Y-3.8984
X3.7163Y-4.1326
X3.7164Y-3.9765
X3.7166Y-3.8204
X3.7614Y-4.0545
X3.7615Y-3.8984
X3.8065Y-3.9764
X3.8516Y-3.8983
X4.3701Y-5.0551
X4.3701Y-5.1551
X4.4701Y-5.0551
X4.4701Y-5.1551
X4.5701Y-5.0551
X4.5701Y-5.1551
X4.6421Y-2.574
X4.6421Y-2.7709
X4.6701Y-5.0551
X4.6701Y-5.1551
X4.7701Y-5.0551
X4.7701Y-5.1551
X4.8701Y-5.0551
X4.8701Y-5.1551
X4.9701Y-5.0551
X4.9701Y-5.1551
X5.0701Y-5.0551
X5.0701Y-5.1551
X5.1701Y-5.0551
X5.1701Y-5.1551
X5.2701Y-5.0551
X5.2701Y-5.1551
X5.7421Y-2.574
X5.7421Y-2.7709
X5.9449Y-3.4252
X6.0409Y-3.6614
X6.0409Y-4.2614
X6.1409Y-3.6614
X6.1409Y-4.2614
X6.1417Y-3.4252
X6.2409Y-3.6614
X6.2409Y-4.2614
X6.3409Y-3.6614
X6.3409Y-4.2614
X6.4409Y-3.6614
X6.4409Y-4.2614
X6.5409Y-3.6614
X6.5409Y-4.2614
X6.5685Y-2.3953
X6.6409Y-3.6614
X6.6409Y-4.2614
X6.6685Y-2.3953
X6.7409Y-3.6614
X6.7409Y-4.2614
X6.7685Y-2.3953
X6.7685Y-3.1953
X6.8409Y-3.6614
X6.8409Y-4.2614
X6.8685Y-2.3953
X6.8685Y-3.1953
X6.9409Y-3.6614
X6.9409Y-4.2614
X6.9685Y-2.3953
X6.9685Y-3.1953
X7.0409Y-3.6614
X7.0409Y-4.2614
X7.0685Y-2.3953
X7.0685Y-3.1953
X7.1409Y-3.6614
X7.1409Y-4.2614
X7.1685Y-2.3953
X7.1685Y-3.1953
X7.2409Y-3.6614
X7.2409Y-4.2614
X7.2685Y-2.3953
X7.2685Y-3.1953
X7.3409Y-3.6614
X7.3409Y-4.2614
X7.3685Y-2.3953
X7.4409Y-3.6614
X7.4409Y-4.2614
T6
X3.8189Y-1.9685
X3.8189Y-2.0685
X3.8189Y-2.1685
X3.8189Y-2.2685
X3.8189Y-2.3685
X3.8189Y-2.4685
X3.8189Y-2.5685
X3.8189Y-2.6685
X4.685Y-4.2276
X4.685Y-4.5276
X5.0Y-4.2126
X5.048Y-2.0472
X5.148Y-2.0472
X5.248Y-2.0472
X5.3Y-4.2126
X5.348Y-2.0472
X5.448Y-2.0472
X5.548Y-2.0472
X5.648Y-2.0472
X5.748Y-2.0472
T7
X3.4617Y-4.4617
X3.9538Y-3.6094
T8
X3.5827Y-4.9748
X4.2913Y-2.0472
X6.3386Y-4.9764
X7.9134Y-2.0472
T0
M30
