%TF.GenerationSoftware,KiCad,Pcbnew,(6.0.5)*%
%TF.CreationDate,2023-02-01T20:40:05-08:00*%
%TF.ProjectId,MiSTer-G3,4d695354-6572-42d4-9733-2e6b69636164,rev?*%
%TF.SameCoordinates,Original*%
%TF.FileFunction,Soldermask,Bot*%
%TF.FilePolarity,Negative*%
%FSLAX46Y46*%
G04 Gerber Fmt 4.6, Leading zero omitted, Abs format (unit mm)*
G04 Created by KiCad (PCBNEW (6.0.5)) date 2023-02-01 20:40:05*
%MOMM*%
%LPD*%
G01*
G04 APERTURE LIST*
G04 Aperture macros list*
%AMRoundRect*
0 Rectangle with rounded corners*
0 $1 Rounding radius*
0 $2 $3 $4 $5 $6 $7 $8 $9 X,Y pos of 4 corners*
0 Add a 4 corners polygon primitive as box body*
4,1,4,$2,$3,$4,$5,$6,$7,$8,$9,$2,$3,0*
0 Add four circle primitives for the rounded corners*
1,1,$1+$1,$2,$3*
1,1,$1+$1,$4,$5*
1,1,$1+$1,$6,$7*
1,1,$1+$1,$8,$9*
0 Add four rect primitives between the rounded corners*
20,1,$1+$1,$2,$3,$4,$5,0*
20,1,$1+$1,$4,$5,$6,$7,0*
20,1,$1+$1,$6,$7,$8,$9,0*
20,1,$1+$1,$8,$9,$2,$3,0*%
%AMRotRect*
0 Rectangle, with rotation*
0 The origin of the aperture is its center*
0 $1 length*
0 $2 width*
0 $3 Rotation angle, in degrees counterclockwise*
0 Add horizontal line*
21,1,$1,$2,0,0,$3*%
G04 Aperture macros list end*
%ADD10O,1.600000X1.600000*%
%ADD11C,1.600000*%
%ADD12O,1.700000X1.950000*%
%ADD13RoundRect,0.250000X-0.600000X-0.725000X0.600000X-0.725000X0.600000X0.725000X-0.600000X0.725000X0*%
%ADD14O,1.950000X1.700000*%
%ADD15RoundRect,0.250000X0.725000X-0.600000X0.725000X0.600000X-0.725000X0.600000X-0.725000X-0.600000X0*%
%ADD16RoundRect,0.250000X-0.725000X0.600000X-0.725000X-0.600000X0.725000X-0.600000X0.725000X0.600000X0*%
%ADD17R,1.600000X1.600000*%
%ADD18C,4.000000*%
%ADD19RotRect,1.600000X1.600000X240.000000*%
%ADD20C,2.000000*%
%ADD21O,1.700000X1.700000*%
%ADD22R,1.700000X1.700000*%
%ADD23C,0.800000*%
%ADD24C,7.000000*%
%ADD25O,2.200000X2.200000*%
%ADD26R,2.200000X2.200000*%
%ADD27R,2.000000X2.000000*%
%ADD28O,1.200000X2.000000*%
G04 APERTURE END LIST*
D10*
%TO.C,R11*%
X179800000Y-95440000D03*
D11*
X179800000Y-105600000D03*
%TD*%
D10*
%TO.C,R10*%
X183300000Y-105660000D03*
D11*
X183300000Y-95500000D03*
%TD*%
D10*
%TO.C,R5*%
X145200000Y-68960000D03*
D11*
X145200000Y-58800000D03*
%TD*%
D10*
%TO.C,R4*%
X143460000Y-72300000D03*
D11*
X133300000Y-72300000D03*
%TD*%
D10*
%TO.C,R2*%
X161100000Y-95540000D03*
D11*
X161100000Y-105700000D03*
%TD*%
D10*
%TO.C,R1*%
X164300000Y-105760000D03*
D11*
X164300000Y-95600000D03*
%TD*%
D12*
%TO.C,HEADPHONES*%
X151500000Y-51700000D03*
X149000000Y-51700000D03*
X146500000Y-51700000D03*
X144000000Y-51700000D03*
D13*
X141500000Y-51700000D03*
%TD*%
D14*
%TO.C,ROTARY ENCODER*%
X199000000Y-82500000D03*
X199000000Y-85000000D03*
X199000000Y-87500000D03*
D15*
X199000000Y-90000000D03*
%TD*%
D12*
%TO.C,MISTER BUTTONS*%
X191500000Y-51750000D03*
X189000000Y-51750000D03*
X186500000Y-51750000D03*
X184000000Y-51750000D03*
D13*
X181500000Y-51750000D03*
%TD*%
D14*
%TO.C,FRONT PANEL*%
X199000000Y-62500000D03*
X199000000Y-65000000D03*
X199000000Y-67500000D03*
D15*
X199000000Y-70000000D03*
%TD*%
D14*
%TO.C,POWER*%
X97080000Y-58680000D03*
X97080000Y-56180000D03*
X97080000Y-53680000D03*
D16*
X97080000Y-51180000D03*
%TD*%
D12*
%TO.C,SPEAKERS*%
X132200000Y-51750000D03*
X129700000Y-51750000D03*
X127200000Y-51750000D03*
D13*
X124700000Y-51750000D03*
%TD*%
D11*
%TO.C,C12*%
X147600000Y-84800000D03*
D17*
X145600000Y-84800000D03*
%TD*%
D11*
%TO.C,C11*%
X147600000Y-78200000D03*
D17*
X145600000Y-78200000D03*
%TD*%
D10*
%TO.C,R9*%
X153960000Y-112600000D03*
D11*
X143800000Y-112600000D03*
%TD*%
D10*
%TO.C,U3*%
X165600000Y-120020000D03*
X157980000Y-112400000D03*
X163060000Y-120020000D03*
X160520000Y-112400000D03*
X160520000Y-120020000D03*
X163060000Y-112400000D03*
X157980000Y-120020000D03*
D17*
X165600000Y-112400000D03*
%TD*%
D18*
%TO.C,J2*%
X87927744Y-113328418D03*
X100427744Y-91677783D03*
D11*
X94400539Y-97037207D03*
X93255539Y-99020405D03*
X92110539Y-101003604D03*
X90965539Y-102986802D03*
X89820539Y-104970000D03*
X95542770Y-99018806D03*
X94397770Y-101002005D03*
X93252770Y-102985203D03*
X92107770Y-104968401D03*
X90962770Y-106951599D03*
X97830000Y-99017207D03*
X96685000Y-101000405D03*
X95540000Y-102983604D03*
X94395000Y-104966802D03*
D19*
X93250000Y-106950000D03*
%TD*%
D20*
%TO.C,U2*%
X166840000Y-60840000D03*
X169380000Y-60840000D03*
X171920000Y-60840000D03*
X171920000Y-81160000D03*
X174460000Y-60840000D03*
X174460000Y-81160000D03*
X177000000Y-60840000D03*
X177000000Y-81160000D03*
X179540000Y-60840000D03*
X179540000Y-81160000D03*
X182080000Y-60840000D03*
X182080000Y-81160000D03*
X184620000Y-60840000D03*
X184620000Y-81160000D03*
X187160000Y-60840000D03*
%TD*%
D10*
%TO.C,R8*%
X144200000Y-126560000D03*
D11*
X144200000Y-116400000D03*
%TD*%
D10*
%TO.C,R7*%
X149200000Y-116240000D03*
D11*
X149200000Y-126400000D03*
%TD*%
D10*
%TO.C,R6*%
X146090000Y-101250000D03*
D11*
X156250000Y-101250000D03*
%TD*%
D10*
%TO.C,R3*%
X157760000Y-96400000D03*
D11*
X147600000Y-96400000D03*
%TD*%
D12*
%TO.C,J4*%
X170500000Y-51750000D03*
X168000000Y-51750000D03*
X165500000Y-51750000D03*
X163000000Y-51750000D03*
D13*
X160500000Y-51750000D03*
%TD*%
D21*
%TO.C,J1*%
X133860000Y-130940000D03*
X133860000Y-128400000D03*
X131320000Y-130940000D03*
X131320000Y-128400000D03*
X128780000Y-130940000D03*
X128780000Y-128400000D03*
X126240000Y-130940000D03*
X126240000Y-128400000D03*
X123700000Y-130940000D03*
X123700000Y-128400000D03*
X121160000Y-130940000D03*
X121160000Y-128400000D03*
X118620000Y-130940000D03*
X118620000Y-128400000D03*
X116080000Y-130940000D03*
X116080000Y-128400000D03*
X113540000Y-130940000D03*
X113540000Y-128400000D03*
X111000000Y-130940000D03*
D22*
X111000000Y-128400000D03*
%TD*%
D23*
%TO.C,H4*%
X110856155Y-50143845D03*
X109000000Y-49375000D03*
X107143845Y-50143845D03*
X106375000Y-52000000D03*
X107143845Y-53856155D03*
X109000000Y-54625000D03*
X110856155Y-53856155D03*
X111625000Y-52000000D03*
D24*
X109000000Y-52000000D03*
%TD*%
D23*
%TO.C,H3*%
X202856155Y-50143845D03*
X201000000Y-49375000D03*
X199143845Y-50143845D03*
X198375000Y-52000000D03*
X199143845Y-53856155D03*
X201000000Y-54625000D03*
X202856155Y-53856155D03*
X203625000Y-52000000D03*
D24*
X201000000Y-52000000D03*
%TD*%
D23*
%TO.C,H2*%
X92856155Y-124503845D03*
X91000000Y-123735000D03*
X89143845Y-124503845D03*
X88375000Y-126360000D03*
X89143845Y-128216155D03*
X91000000Y-128985000D03*
X92856155Y-128216155D03*
X93625000Y-126360000D03*
D24*
X91000000Y-126360000D03*
%TD*%
D23*
%TO.C,H1*%
X162856155Y-124543845D03*
X161000000Y-123775000D03*
X159143845Y-124543845D03*
X158375000Y-126400000D03*
X159143845Y-128256155D03*
X161000000Y-129025000D03*
X162856155Y-128256155D03*
X163625000Y-126400000D03*
D24*
X161000000Y-126400000D03*
%TD*%
D25*
%TO.C,D2*%
X139800000Y-128820000D03*
D26*
X139800000Y-121200000D03*
%TD*%
D25*
%TO.C,D1*%
X119000000Y-107380000D03*
D26*
X119000000Y-115000000D03*
%TD*%
D20*
%TO.C,C10*%
X126746000Y-110156000D03*
X126746000Y-105156000D03*
%TD*%
%TO.C,C9*%
X137900000Y-62200000D03*
D27*
X132900000Y-62200000D03*
%TD*%
D20*
%TO.C,C8*%
X126300000Y-62100000D03*
D27*
X121300000Y-62100000D03*
%TD*%
D11*
%TO.C,C7*%
X128700000Y-73000000D03*
D17*
X126200000Y-73000000D03*
%TD*%
D11*
%TO.C,C6*%
X139850000Y-92416000D03*
D17*
X139850000Y-89916000D03*
%TD*%
D11*
%TO.C,C5*%
X130810000Y-92416000D03*
D17*
X130810000Y-89916000D03*
%TD*%
D11*
%TO.C,C4*%
X118404000Y-91186000D03*
D17*
X120904000Y-91186000D03*
%TD*%
D11*
%TO.C,C2*%
X135382000Y-97242000D03*
D17*
X135382000Y-94742000D03*
%TD*%
D11*
%TO.C,C1*%
X125730000Y-96988000D03*
D17*
X125730000Y-94488000D03*
%TD*%
D28*
%TO.C,U1*%
X141120000Y-85540000D03*
X141120000Y-78020000D03*
X138580000Y-85540000D03*
X138580000Y-78020000D03*
X136040000Y-85540000D03*
X136040000Y-78020000D03*
X133500000Y-85540000D03*
X133500000Y-78020000D03*
X130960000Y-85540000D03*
X130960000Y-78020000D03*
X128420000Y-85540000D03*
X128420000Y-78020000D03*
X125880000Y-85540000D03*
X125880000Y-78020000D03*
X123340000Y-85540000D03*
X123340000Y-78020000D03*
X120800000Y-85540000D03*
X120800000Y-78020000D03*
X118260000Y-85540000D03*
X118260000Y-78020000D03*
%TD*%
D11*
%TO.C,C3*%
X118650000Y-97536000D03*
D17*
X120650000Y-97536000D03*
%TD*%
%TO.C,A1*%
X189000000Y-93000000D03*
D10*
X155980000Y-108240000D03*
X186460000Y-93000000D03*
X158520000Y-108240000D03*
X183920000Y-93000000D03*
X161060000Y-108240000D03*
X181380000Y-93000000D03*
X163600000Y-108240000D03*
X178840000Y-93000000D03*
X166140000Y-108240000D03*
X176300000Y-93000000D03*
X168680000Y-108240000D03*
X173760000Y-93000000D03*
X171220000Y-108240000D03*
X171220000Y-93000000D03*
X173760000Y-108240000D03*
X168680000Y-93000000D03*
X176300000Y-108240000D03*
X166140000Y-93000000D03*
X178840000Y-108240000D03*
X163600000Y-93000000D03*
X181380000Y-108240000D03*
X161060000Y-93000000D03*
X183920000Y-108240000D03*
X158520000Y-93000000D03*
X186460000Y-108240000D03*
X155980000Y-93000000D03*
X189000000Y-108240000D03*
X153440000Y-93000000D03*
X153440000Y-108240000D03*
%TD*%
M02*
