%TF.GenerationSoftware,KiCad,Pcbnew,(5.1.10)-1*%
%TF.CreationDate,2021-06-24T18:33:19-07:00*%
%TF.ProjectId,MiSTer-G3,4d695354-6572-42d4-9733-2e6b69636164,rev?*%
%TF.SameCoordinates,Original*%
%TF.FileFunction,Soldermask,Bot*%
%TF.FilePolarity,Negative*%
%FSLAX46Y46*%
G04 Gerber Fmt 4.6, Leading zero omitted, Abs format (unit mm)*
G04 Created by KiCad (PCBNEW (5.1.10)-1) date 2021-06-24 18:33:19*
%MOMM*%
%LPD*%
G01*
G04 APERTURE LIST*
%ADD10O,1.600000X1.600000*%
%ADD11C,1.600000*%
%ADD12R,1.600000X1.600000*%
%ADD13C,4.000000*%
%ADD14C,0.100000*%
%ADD15C,2.000000*%
%ADD16O,1.950000X1.700000*%
%ADD17C,2.200000*%
%ADD18R,2.200000X2.200000*%
%ADD19O,1.700000X1.950000*%
%ADD20O,1.700000X1.700000*%
%ADD21R,1.700000X1.700000*%
%ADD22C,0.800000*%
%ADD23C,7.000000*%
%ADD24O,2.200000X2.200000*%
%ADD25R,2.000000X2.000000*%
%ADD26O,1.200000X2.000000*%
G04 APERTURE END LIST*
D10*
%TO.C,R9*%
X176090000Y-112250000D03*
D11*
X186250000Y-112250000D03*
%TD*%
D10*
%TO.C,U3*%
X164380000Y-121000000D03*
X172000000Y-113380000D03*
X164380000Y-118460000D03*
X172000000Y-115920000D03*
X164380000Y-115920000D03*
X172000000Y-118460000D03*
X164380000Y-113380000D03*
D12*
X172000000Y-121000000D03*
%TD*%
D13*
%TO.C,J2*%
X87927744Y-113328418D03*
X100427744Y-91677783D03*
D11*
X94400539Y-97037207D03*
X93255539Y-99020405D03*
X92110539Y-101003604D03*
X90965539Y-102986802D03*
X89820539Y-104970000D03*
X95542770Y-99018806D03*
X94397770Y-101002005D03*
X93252770Y-102985203D03*
X92107770Y-104968401D03*
X90962770Y-106951599D03*
X97830000Y-99017207D03*
X96685000Y-101000405D03*
X95540000Y-102983604D03*
X94395000Y-104966802D03*
D14*
G36*
X92957180Y-105857180D02*
G01*
X94342820Y-106657180D01*
X93542820Y-108042820D01*
X92157180Y-107242820D01*
X92957180Y-105857180D01*
G37*
%TD*%
D15*
%TO.C,U2*%
X166840000Y-60840000D03*
X169380000Y-60840000D03*
X171920000Y-60840000D03*
X171920000Y-81160000D03*
X174460000Y-60840000D03*
X174460000Y-81160000D03*
X177000000Y-60840000D03*
X177000000Y-81160000D03*
X179540000Y-60840000D03*
X179540000Y-81160000D03*
X182080000Y-60840000D03*
X182080000Y-81160000D03*
X184620000Y-60840000D03*
X184620000Y-81160000D03*
X187160000Y-60840000D03*
%TD*%
D10*
%TO.C,R8*%
X131840000Y-116000000D03*
D11*
X142000000Y-116000000D03*
%TD*%
D10*
%TO.C,R7*%
X156160000Y-116000000D03*
D11*
X146000000Y-116000000D03*
%TD*%
D10*
%TO.C,R6*%
X150840000Y-78000000D03*
D11*
X161000000Y-78000000D03*
%TD*%
D10*
%TO.C,R5*%
X164160000Y-56000000D03*
D11*
X154000000Y-56000000D03*
%TD*%
D10*
%TO.C,R4*%
X125000000Y-71160000D03*
D11*
X125000000Y-61000000D03*
%TD*%
D10*
%TO.C,R3*%
X171160000Y-99000000D03*
D11*
X161000000Y-99000000D03*
%TD*%
D10*
%TO.C,R2*%
X134420000Y-59840000D03*
D11*
X134420000Y-70000000D03*
%TD*%
D10*
%TO.C,R1*%
X129000000Y-70160000D03*
D11*
X129000000Y-60000000D03*
%TD*%
D16*
%TO.C,J6*%
X199000000Y-85000000D03*
X199000000Y-87500000D03*
G36*
G01*
X199725000Y-90850000D02*
X198275000Y-90850000D01*
G75*
G02*
X198025000Y-90600000I0J250000D01*
G01*
X198025000Y-89400000D01*
G75*
G02*
X198275000Y-89150000I250000J0D01*
G01*
X199725000Y-89150000D01*
G75*
G02*
X199975000Y-89400000I0J-250000D01*
G01*
X199975000Y-90600000D01*
G75*
G02*
X199725000Y-90850000I-250000J0D01*
G01*
G37*
%TD*%
D17*
%TO.C,J5*%
X97000000Y-67780000D03*
X97000000Y-65240000D03*
X97000000Y-62700000D03*
X97000000Y-60160000D03*
X97000000Y-57620000D03*
X97000000Y-55080000D03*
X97000000Y-52540000D03*
D18*
X97000000Y-50000000D03*
%TD*%
D19*
%TO.C,J4*%
X187000000Y-51000000D03*
X184500000Y-51000000D03*
X182000000Y-51000000D03*
X179500000Y-51000000D03*
G36*
G01*
X176150000Y-51725000D02*
X176150000Y-50275000D01*
G75*
G02*
X176400000Y-50025000I250000J0D01*
G01*
X177600000Y-50025000D01*
G75*
G02*
X177850000Y-50275000I0J-250000D01*
G01*
X177850000Y-51725000D01*
G75*
G02*
X177600000Y-51975000I-250000J0D01*
G01*
X176400000Y-51975000D01*
G75*
G02*
X176150000Y-51725000I0J250000D01*
G01*
G37*
%TD*%
D17*
%TO.C,J3*%
X128220000Y-52000000D03*
X130760000Y-52000000D03*
X133300000Y-52000000D03*
X135840000Y-52000000D03*
X138380000Y-52000000D03*
X140920000Y-52000000D03*
X143460000Y-52000000D03*
D18*
X146000000Y-52000000D03*
%TD*%
D20*
%TO.C,J1*%
X133860000Y-130940000D03*
X133860000Y-128400000D03*
X131320000Y-130940000D03*
X131320000Y-128400000D03*
X128780000Y-130940000D03*
X128780000Y-128400000D03*
X126240000Y-130940000D03*
X126240000Y-128400000D03*
X123700000Y-130940000D03*
X123700000Y-128400000D03*
X121160000Y-130940000D03*
X121160000Y-128400000D03*
X118620000Y-130940000D03*
X118620000Y-128400000D03*
X116080000Y-130940000D03*
X116080000Y-128400000D03*
X113540000Y-130940000D03*
X113540000Y-128400000D03*
X111000000Y-130940000D03*
D21*
X111000000Y-128400000D03*
%TD*%
D22*
%TO.C,H4*%
X110856155Y-50143845D03*
X109000000Y-49375000D03*
X107143845Y-50143845D03*
X106375000Y-52000000D03*
X107143845Y-53856155D03*
X109000000Y-54625000D03*
X110856155Y-53856155D03*
X111625000Y-52000000D03*
D23*
X109000000Y-52000000D03*
%TD*%
D22*
%TO.C,H3*%
X202856155Y-50143845D03*
X201000000Y-49375000D03*
X199143845Y-50143845D03*
X198375000Y-52000000D03*
X199143845Y-53856155D03*
X201000000Y-54625000D03*
X202856155Y-53856155D03*
X203625000Y-52000000D03*
D23*
X201000000Y-52000000D03*
%TD*%
D22*
%TO.C,H2*%
X92856155Y-124503845D03*
X91000000Y-123735000D03*
X89143845Y-124503845D03*
X88375000Y-126360000D03*
X89143845Y-128216155D03*
X91000000Y-128985000D03*
X92856155Y-128216155D03*
X93625000Y-126360000D03*
D23*
X91000000Y-126360000D03*
%TD*%
D22*
%TO.C,H1*%
X162856155Y-124543845D03*
X161000000Y-123775000D03*
X159143845Y-124543845D03*
X158375000Y-126400000D03*
X159143845Y-128256155D03*
X161000000Y-129025000D03*
X162856155Y-128256155D03*
X163625000Y-126400000D03*
D23*
X161000000Y-126400000D03*
%TD*%
D24*
%TO.C,D2*%
X134620000Y-107000000D03*
D18*
X127000000Y-107000000D03*
%TD*%
D24*
%TO.C,D1*%
X119000000Y-107380000D03*
D18*
X119000000Y-115000000D03*
%TD*%
D15*
%TO.C,C10*%
X156000000Y-87000000D03*
X151000000Y-87000000D03*
%TD*%
%TO.C,C9*%
X145850000Y-65380000D03*
D25*
X145850000Y-70380000D03*
%TD*%
D15*
%TO.C,C8*%
X117910000Y-65380000D03*
D25*
X117910000Y-70380000D03*
%TD*%
D11*
%TO.C,C7*%
X113500000Y-84000000D03*
D12*
X111000000Y-84000000D03*
%TD*%
D11*
%TO.C,C6*%
X139850000Y-94440000D03*
D12*
X139850000Y-91940000D03*
%TD*%
D11*
%TO.C,C5*%
X130960000Y-94440000D03*
D12*
X130960000Y-91940000D03*
%TD*%
D11*
%TO.C,C4*%
X118300000Y-91940000D03*
D12*
X120800000Y-91940000D03*
%TD*%
D11*
%TO.C,C2*%
X136040000Y-100790000D03*
D12*
X136040000Y-98290000D03*
%TD*%
D11*
%TO.C,C1*%
X127150000Y-100790000D03*
D12*
X127150000Y-98290000D03*
%TD*%
D26*
%TO.C,U1*%
X141120000Y-85540000D03*
X141120000Y-78020000D03*
X138580000Y-85540000D03*
X138580000Y-78020000D03*
X136040000Y-85540000D03*
X136040000Y-78020000D03*
X133500000Y-85540000D03*
X133500000Y-78020000D03*
X130960000Y-85540000D03*
X130960000Y-78020000D03*
X128420000Y-85540000D03*
X128420000Y-78020000D03*
X125880000Y-85540000D03*
X125880000Y-78020000D03*
X123340000Y-85540000D03*
X123340000Y-78020000D03*
X120800000Y-85540000D03*
X120800000Y-78020000D03*
X118260000Y-85540000D03*
X118260000Y-78020000D03*
%TD*%
D11*
%TO.C,C3*%
X118800000Y-99560000D03*
D12*
X120800000Y-99560000D03*
%TD*%
%TO.C,A1*%
X189000000Y-93000000D03*
D10*
X155980000Y-108240000D03*
X186460000Y-93000000D03*
X158520000Y-108240000D03*
X183920000Y-93000000D03*
X161060000Y-108240000D03*
X181380000Y-93000000D03*
X163600000Y-108240000D03*
X178840000Y-93000000D03*
X166140000Y-108240000D03*
X176300000Y-93000000D03*
X168680000Y-108240000D03*
X173760000Y-93000000D03*
X171220000Y-108240000D03*
X171220000Y-93000000D03*
X173760000Y-108240000D03*
X168680000Y-93000000D03*
X176300000Y-108240000D03*
X166140000Y-93000000D03*
X178840000Y-108240000D03*
X163600000Y-93000000D03*
X181380000Y-108240000D03*
X161060000Y-93000000D03*
X183920000Y-108240000D03*
X158520000Y-93000000D03*
X186460000Y-108240000D03*
X155980000Y-93000000D03*
X189000000Y-108240000D03*
X153440000Y-93000000D03*
X153440000Y-108240000D03*
%TD*%
M02*
