%TF.GenerationSoftware,KiCad,Pcbnew,(5.1.10)-1*%
%TF.CreationDate,2021-06-24T18:33:19-07:00*%
%TF.ProjectId,MiSTer-G3,4d695354-6572-42d4-9733-2e6b69636164,rev?*%
%TF.SameCoordinates,Original*%
%TF.FileFunction,Copper,L1,Top*%
%TF.FilePolarity,Positive*%
%FSLAX46Y46*%
G04 Gerber Fmt 4.6, Leading zero omitted, Abs format (unit mm)*
G04 Created by KiCad (PCBNEW (5.1.10)-1) date 2021-06-24 18:33:19*
%MOMM*%
%LPD*%
G01*
G04 APERTURE LIST*
%TA.AperFunction,ComponentPad*%
%ADD10O,1.600000X1.600000*%
%TD*%
%TA.AperFunction,ComponentPad*%
%ADD11C,1.600000*%
%TD*%
%TA.AperFunction,ComponentPad*%
%ADD12R,1.600000X1.600000*%
%TD*%
%TA.AperFunction,ComponentPad*%
%ADD13C,4.000000*%
%TD*%
%TA.AperFunction,ComponentPad*%
%ADD14C,0.100000*%
%TD*%
%TA.AperFunction,ComponentPad*%
%ADD15C,2.000000*%
%TD*%
%TA.AperFunction,ComponentPad*%
%ADD16O,1.950000X1.700000*%
%TD*%
%TA.AperFunction,ComponentPad*%
%ADD17C,2.200000*%
%TD*%
%TA.AperFunction,ComponentPad*%
%ADD18R,2.200000X2.200000*%
%TD*%
%TA.AperFunction,ComponentPad*%
%ADD19O,1.700000X1.950000*%
%TD*%
%TA.AperFunction,ComponentPad*%
%ADD20O,1.700000X1.700000*%
%TD*%
%TA.AperFunction,ComponentPad*%
%ADD21R,1.700000X1.700000*%
%TD*%
%TA.AperFunction,ComponentPad*%
%ADD22C,0.800000*%
%TD*%
%TA.AperFunction,ComponentPad*%
%ADD23C,7.000000*%
%TD*%
%TA.AperFunction,ComponentPad*%
%ADD24O,2.200000X2.200000*%
%TD*%
%TA.AperFunction,ComponentPad*%
%ADD25R,2.000000X2.000000*%
%TD*%
%TA.AperFunction,ComponentPad*%
%ADD26O,1.200000X2.000000*%
%TD*%
%TA.AperFunction,ViaPad*%
%ADD27C,0.800000*%
%TD*%
%TA.AperFunction,Conductor*%
%ADD28C,0.250000*%
%TD*%
%TA.AperFunction,Conductor*%
%ADD29C,1.000000*%
%TD*%
G04 APERTURE END LIST*
D10*
%TO.P,R9,2*%
%TO.N,Net-(R9-Pad2)*%
X176090000Y-112250000D03*
D11*
%TO.P,R9,1*%
%TO.N,GND*%
X186250000Y-112250000D03*
%TD*%
D10*
%TO.P,U3,8*%
%TO.N,GND*%
X164380000Y-121000000D03*
%TO.P,U3,4*%
%TO.N,N/C*%
X172000000Y-113380000D03*
%TO.P,U3,7*%
%TO.N,LPIACT*%
X164380000Y-118460000D03*
%TO.P,U3,3*%
%TO.N,Net-(R9-Pad2)*%
X172000000Y-115920000D03*
%TO.P,U3,6*%
%TO.N,LPIACT*%
X164380000Y-115920000D03*
%TO.P,U3,2*%
%TO.N,POWER_EN*%
X172000000Y-118460000D03*
%TO.P,U3,5*%
%TO.N,5V_TRICKLE*%
X164380000Y-113380000D03*
D12*
%TO.P,U3,1*%
%TO.N,N/C*%
X172000000Y-121000000D03*
%TD*%
D13*
%TO.P,J2,0*%
%TO.N,N/C*%
X87927744Y-113328418D03*
X100427744Y-91677783D03*
D11*
%TO.P,J2,15*%
X94400539Y-97037207D03*
%TO.P,J2,14*%
%TO.N,V_SYNC*%
X93255539Y-99020405D03*
%TO.P,J2,13*%
%TO.N,H_SYNC*%
X92110539Y-101003604D03*
%TO.P,J2,12*%
%TO.N,N/C*%
X90965539Y-102986802D03*
%TO.P,J2,11*%
X89820539Y-104970000D03*
%TO.P,J2,10*%
%TO.N,GND*%
X95542770Y-99018806D03*
%TO.P,J2,9*%
%TO.N,N/C*%
X94397770Y-101002005D03*
%TO.P,J2,8*%
%TO.N,GND*%
X93252770Y-102985203D03*
%TO.P,J2,7*%
X92107770Y-104968401D03*
%TO.P,J2,6*%
X90962770Y-106951599D03*
%TO.P,J2,5*%
X97830000Y-99017207D03*
%TO.P,J2,4*%
%TO.N,N/C*%
X96685000Y-101000405D03*
%TO.P,J2,3*%
%TO.N,BLUE*%
X95540000Y-102983604D03*
%TO.P,J2,2*%
%TO.N,GREEN*%
X94395000Y-104966802D03*
%TA.AperFunction,ComponentPad*%
D14*
%TO.P,J2,1*%
%TO.N,RED*%
G36*
X92957180Y-105857180D02*
G01*
X94342820Y-106657180D01*
X93542820Y-108042820D01*
X92157180Y-107242820D01*
X92957180Y-105857180D01*
G37*
%TD.AperFunction*%
%TD*%
D15*
%TO.P,U2,9*%
%TO.N,RIN*%
X166840000Y-60840000D03*
%TO.P,U2,8*%
%TO.N,GND*%
X169380000Y-60840000D03*
%TO.P,U2,7*%
%TO.N,LIN*%
X171920000Y-60840000D03*
%TO.P,U2,12*%
%TO.N,N/C*%
X171920000Y-81160000D03*
%TO.P,U2,6*%
%TO.N,I2S_BCLK*%
X174460000Y-60840000D03*
%TO.P,U2,13*%
%TO.N,N/C*%
X174460000Y-81160000D03*
%TO.P,U2,5*%
%TO.N,I2S_DIN*%
X177000000Y-60840000D03*
%TO.P,U2,14*%
%TO.N,N/C*%
X177000000Y-81160000D03*
%TO.P,U2,4*%
%TO.N,I2S_WSEL*%
X179540000Y-60840000D03*
%TO.P,U2,15*%
%TO.N,N/C*%
X179540000Y-81160000D03*
%TO.P,U2,3*%
%TO.N,GND*%
X182080000Y-60840000D03*
%TO.P,U2,16*%
%TO.N,N/C*%
X182080000Y-81160000D03*
%TO.P,U2,2*%
X184620000Y-60840000D03*
%TO.P,U2,17*%
X184620000Y-81160000D03*
%TO.P,U2,1*%
%TO.N,5V_PSU*%
X187160000Y-60840000D03*
%TD*%
D10*
%TO.P,R8,2*%
%TO.N,IVAD_SCL*%
X131840000Y-116000000D03*
D11*
%TO.P,R8,1*%
%TO.N,5V_MCU*%
X142000000Y-116000000D03*
%TD*%
D10*
%TO.P,R7,2*%
%TO.N,5V_MCU*%
X156160000Y-116000000D03*
D11*
%TO.P,R7,1*%
%TO.N,IVAD_SDA*%
X146000000Y-116000000D03*
%TD*%
D10*
%TO.P,R6,2*%
%TO.N,VOLUME*%
X150840000Y-78000000D03*
D11*
%TO.P,R6,1*%
%TO.N,Net-(A1-Pad12)*%
X161000000Y-78000000D03*
%TD*%
D10*
%TO.P,R5,2*%
%TO.N,GND*%
X164160000Y-56000000D03*
D11*
%TO.P,R5,1*%
%TO.N,LHEAD*%
X154000000Y-56000000D03*
%TD*%
D10*
%TO.P,R4,2*%
%TO.N,GND*%
X125000000Y-71160000D03*
D11*
%TO.P,R4,1*%
%TO.N,RHEAD*%
X125000000Y-61000000D03*
%TD*%
D10*
%TO.P,R3,2*%
%TO.N,GND*%
X171160000Y-99000000D03*
D11*
%TO.P,R3,1*%
%TO.N,AMP_ACTIVE*%
X161000000Y-99000000D03*
%TD*%
D10*
%TO.P,R2,2*%
%TO.N,SHEAD*%
X134420000Y-59840000D03*
D11*
%TO.P,R2,1*%
%TO.N,5V_PSU*%
X134420000Y-70000000D03*
%TD*%
D10*
%TO.P,R1,2*%
%TO.N,Net-(R1-Pad2)*%
X129000000Y-70160000D03*
D11*
%TO.P,R1,1*%
%TO.N,SHEAD*%
X129000000Y-60000000D03*
%TD*%
D16*
%TO.P,J6,3*%
%TO.N,ROT_B*%
X199000000Y-85000000D03*
%TO.P,J6,2*%
%TO.N,GND*%
X199000000Y-87500000D03*
%TO.P,J6,1*%
%TO.N,ROT_A*%
%TA.AperFunction,ComponentPad*%
G36*
G01*
X199725000Y-90850000D02*
X198275000Y-90850000D01*
G75*
G02*
X198025000Y-90600000I0J250000D01*
G01*
X198025000Y-89400000D01*
G75*
G02*
X198275000Y-89150000I250000J0D01*
G01*
X199725000Y-89150000D01*
G75*
G02*
X199975000Y-89400000I0J-250000D01*
G01*
X199975000Y-90600000D01*
G75*
G02*
X199725000Y-90850000I-250000J0D01*
G01*
G37*
%TD.AperFunction*%
%TD*%
D17*
%TO.P,J5,8*%
%TO.N,N/C*%
X97000000Y-67780000D03*
%TO.P,J5,7*%
%TO.N,POWER_BTN*%
X97000000Y-65240000D03*
%TO.P,J5,6*%
%TO.N,AMBER_LED*%
X97000000Y-62700000D03*
%TO.P,J5,5*%
%TO.N,GREEN_LED*%
X97000000Y-60160000D03*
%TO.P,J5,4*%
%TO.N,PROT*%
X97000000Y-57620000D03*
%TO.P,J5,3*%
%TO.N,DCO*%
X97000000Y-55080000D03*
%TO.P,J5,2*%
%TO.N,GND*%
X97000000Y-52540000D03*
D18*
%TO.P,J5,1*%
%TO.N,5V_PSU*%
X97000000Y-50000000D03*
%TD*%
D19*
%TO.P,J4,5*%
%TO.N,N/C*%
X187000000Y-51000000D03*
%TO.P,J4,4*%
%TO.N,GND*%
X184500000Y-51000000D03*
%TO.P,J4,3*%
%TO.N,I2S_DIN*%
X182000000Y-51000000D03*
%TO.P,J4,2*%
%TO.N,I2S_BCLK*%
X179500000Y-51000000D03*
%TO.P,J4,1*%
%TO.N,I2S_WSEL*%
%TA.AperFunction,ComponentPad*%
G36*
G01*
X176150000Y-51725000D02*
X176150000Y-50275000D01*
G75*
G02*
X176400000Y-50025000I250000J0D01*
G01*
X177600000Y-50025000D01*
G75*
G02*
X177850000Y-50275000I0J-250000D01*
G01*
X177850000Y-51725000D01*
G75*
G02*
X177600000Y-51975000I-250000J0D01*
G01*
X176400000Y-51975000D01*
G75*
G02*
X176150000Y-51725000I0J250000D01*
G01*
G37*
%TD.AperFunction*%
%TD*%
D17*
%TO.P,J3,8*%
%TO.N,GND*%
X128220000Y-52000000D03*
%TO.P,J3,7*%
%TO.N,SHEAD*%
X130760000Y-52000000D03*
%TO.P,J3,6*%
%TO.N,RHEAD*%
X133300000Y-52000000D03*
%TO.P,J3,5*%
%TO.N,LHEAD*%
X135840000Y-52000000D03*
%TO.P,J3,4*%
%TO.N,RSPKR+*%
X138380000Y-52000000D03*
%TO.P,J3,3*%
%TO.N,RSPKR-*%
X140920000Y-52000000D03*
%TO.P,J3,2*%
%TO.N,LSPKR-*%
X143460000Y-52000000D03*
D18*
%TO.P,J3,1*%
%TO.N,LSPKR+*%
X146000000Y-52000000D03*
%TD*%
D20*
%TO.P,J1,20*%
%TO.N,GND*%
X133860000Y-130940000D03*
%TO.P,J1,19*%
%TO.N,N/C*%
X133860000Y-128400000D03*
%TO.P,J1,18*%
%TO.N,GND*%
X131320000Y-130940000D03*
%TO.P,J1,17*%
%TO.N,RED*%
X131320000Y-128400000D03*
%TO.P,J1,16*%
%TO.N,GND*%
X128780000Y-130940000D03*
%TO.P,J1,15*%
%TO.N,GREEN*%
X128780000Y-128400000D03*
%TO.P,J1,14*%
%TO.N,GND*%
X126240000Y-130940000D03*
%TO.P,J1,13*%
%TO.N,BLUE*%
X126240000Y-128400000D03*
%TO.P,J1,12*%
%TO.N,LPIACT*%
X123700000Y-130940000D03*
%TO.P,J1,11*%
%TO.N,V_SYNC*%
X123700000Y-128400000D03*
%TO.P,J1,10*%
%TO.N,LPIACT*%
X121160000Y-130940000D03*
%TO.P,J1,9*%
%TO.N,H_SYNC*%
X121160000Y-128400000D03*
%TO.P,J1,8*%
%TO.N,N/C*%
X118620000Y-130940000D03*
%TO.P,J1,7*%
%TO.N,PROT*%
X118620000Y-128400000D03*
%TO.P,J1,6*%
%TO.N,5V_TRICKLE*%
X116080000Y-130940000D03*
%TO.P,J1,5*%
%TO.N,DCO*%
X116080000Y-128400000D03*
%TO.P,J1,4*%
%TO.N,GND*%
X113540000Y-130940000D03*
%TO.P,J1,3*%
X113540000Y-128400000D03*
%TO.P,J1,2*%
%TO.N,IVAD_SCL*%
X111000000Y-130940000D03*
D21*
%TO.P,J1,1*%
%TO.N,IVAD_SDA*%
X111000000Y-128400000D03*
%TD*%
D22*
%TO.P,H4,1*%
%TO.N,GND*%
X110856155Y-50143845D03*
X109000000Y-49375000D03*
X107143845Y-50143845D03*
X106375000Y-52000000D03*
X107143845Y-53856155D03*
X109000000Y-54625000D03*
X110856155Y-53856155D03*
X111625000Y-52000000D03*
D23*
X109000000Y-52000000D03*
%TD*%
D22*
%TO.P,H3,1*%
%TO.N,GND*%
X202856155Y-50143845D03*
X201000000Y-49375000D03*
X199143845Y-50143845D03*
X198375000Y-52000000D03*
X199143845Y-53856155D03*
X201000000Y-54625000D03*
X202856155Y-53856155D03*
X203625000Y-52000000D03*
D23*
X201000000Y-52000000D03*
%TD*%
D22*
%TO.P,H2,1*%
%TO.N,GND*%
X92856155Y-124503845D03*
X91000000Y-123735000D03*
X89143845Y-124503845D03*
X88375000Y-126360000D03*
X89143845Y-128216155D03*
X91000000Y-128985000D03*
X92856155Y-128216155D03*
X93625000Y-126360000D03*
D23*
X91000000Y-126360000D03*
%TD*%
D22*
%TO.P,H1,1*%
%TO.N,GND*%
X162856155Y-124543845D03*
X161000000Y-123775000D03*
X159143845Y-124543845D03*
X158375000Y-126400000D03*
X159143845Y-128256155D03*
X161000000Y-129025000D03*
X162856155Y-128256155D03*
X163625000Y-126400000D03*
D23*
X161000000Y-126400000D03*
%TD*%
D24*
%TO.P,D2,2*%
%TO.N,5V_TRICKLE*%
X134620000Y-107000000D03*
D18*
%TO.P,D2,1*%
%TO.N,5V_MCU*%
X127000000Y-107000000D03*
%TD*%
D24*
%TO.P,D1,2*%
%TO.N,5V_PSU*%
X119000000Y-107380000D03*
D18*
%TO.P,D1,1*%
%TO.N,5V_MCU*%
X119000000Y-115000000D03*
%TD*%
D15*
%TO.P,C10,2*%
%TO.N,GND*%
X156000000Y-87000000D03*
%TO.P,C10,1*%
%TO.N,VOLUME*%
X151000000Y-87000000D03*
%TD*%
%TO.P,C9,2*%
%TO.N,LHEAD*%
X145850000Y-65380000D03*
D25*
%TO.P,C9,1*%
%TO.N,LSPKR+*%
X145850000Y-70380000D03*
%TD*%
D15*
%TO.P,C8,2*%
%TO.N,RHEAD*%
X117910000Y-65380000D03*
D25*
%TO.P,C8,1*%
%TO.N,RSPKR+*%
X117910000Y-70380000D03*
%TD*%
D11*
%TO.P,C7,2*%
%TO.N,GND*%
X113500000Y-84000000D03*
D12*
%TO.P,C7,1*%
%TO.N,Net-(C7-Pad1)*%
X111000000Y-84000000D03*
%TD*%
D11*
%TO.P,C6,2*%
%TO.N,GND*%
X139850000Y-94440000D03*
D12*
%TO.P,C6,1*%
%TO.N,5V_PSU*%
X139850000Y-91940000D03*
%TD*%
D11*
%TO.P,C5,2*%
%TO.N,GND*%
X130960000Y-94440000D03*
D12*
%TO.P,C5,1*%
%TO.N,5V_PSU*%
X130960000Y-91940000D03*
%TD*%
D11*
%TO.P,C4,2*%
%TO.N,GND*%
X118300000Y-91940000D03*
D12*
%TO.P,C4,1*%
%TO.N,5V_PSU*%
X120800000Y-91940000D03*
%TD*%
D11*
%TO.P,C2,2*%
%TO.N,GND*%
X136040000Y-100790000D03*
D12*
%TO.P,C2,1*%
%TO.N,Net-(C2-Pad1)*%
X136040000Y-98290000D03*
%TD*%
D11*
%TO.P,C1,2*%
%TO.N,GND*%
X127150000Y-100790000D03*
D12*
%TO.P,C1,1*%
%TO.N,Net-(C1-Pad1)*%
X127150000Y-98290000D03*
%TD*%
D26*
%TO.P,U1,10*%
%TO.N,LSPKR-*%
X141120000Y-85540000D03*
%TO.P,U1,11*%
%TO.N,GND*%
X141120000Y-78020000D03*
%TO.P,U1,9*%
%TO.N,5V_PSU*%
X138580000Y-85540000D03*
%TO.P,U1,12*%
%TO.N,LSPKR+*%
X138580000Y-78020000D03*
%TO.P,U1,8*%
%TO.N,LIN*%
X136040000Y-85540000D03*
%TO.P,U1,13*%
%TO.N,N/C*%
X136040000Y-78020000D03*
%TO.P,U1,7*%
%TO.N,Net-(C2-Pad1)*%
X133500000Y-85540000D03*
%TO.P,U1,14*%
%TO.N,AMP_ACTIVE*%
X133500000Y-78020000D03*
%TO.P,U1,6*%
%TO.N,5V_PSU*%
X130960000Y-85540000D03*
%TO.P,U1,15*%
%TO.N,GND*%
X130960000Y-78020000D03*
%TO.P,U1,5*%
%TO.N,Net-(C1-Pad1)*%
X128420000Y-85540000D03*
%TO.P,U1,16*%
%TO.N,Net-(C7-Pad1)*%
X128420000Y-78020000D03*
%TO.P,U1,4*%
%TO.N,RIN*%
X125880000Y-85540000D03*
%TO.P,U1,17*%
%TO.N,GND*%
X125880000Y-78020000D03*
%TO.P,U1,3*%
%TO.N,5V_PSU*%
X123340000Y-85540000D03*
%TO.P,U1,18*%
%TO.N,VOLUME*%
X123340000Y-78020000D03*
%TO.P,U1,2*%
%TO.N,RSPKR-*%
X120800000Y-85540000D03*
%TO.P,U1,19*%
%TO.N,Net-(R1-Pad2)*%
X120800000Y-78020000D03*
%TO.P,U1,1*%
%TO.N,GND*%
X118260000Y-85540000D03*
%TO.P,U1,20*%
%TO.N,RSPKR+*%
X118260000Y-78020000D03*
%TD*%
D11*
%TO.P,C3,2*%
%TO.N,GND*%
X118800000Y-99560000D03*
D12*
%TO.P,C3,1*%
%TO.N,5V_PSU*%
X120800000Y-99560000D03*
%TD*%
%TO.P,A1,1*%
%TO.N,N/C*%
X189000000Y-93000000D03*
D10*
%TO.P,A1,17*%
X155980000Y-108240000D03*
%TO.P,A1,2*%
X186460000Y-93000000D03*
%TO.P,A1,18*%
X158520000Y-108240000D03*
%TO.P,A1,3*%
X183920000Y-93000000D03*
%TO.P,A1,19*%
%TO.N,POWER_EN*%
X161060000Y-108240000D03*
%TO.P,A1,4*%
%TO.N,GND*%
X181380000Y-93000000D03*
%TO.P,A1,20*%
%TO.N,N/C*%
X163600000Y-108240000D03*
%TO.P,A1,5*%
%TO.N,ROT_A*%
X178840000Y-93000000D03*
%TO.P,A1,21*%
%TO.N,N/C*%
X166140000Y-108240000D03*
%TO.P,A1,6*%
%TO.N,ROT_B*%
X176300000Y-93000000D03*
%TO.P,A1,22*%
%TO.N,N/C*%
X168680000Y-108240000D03*
%TO.P,A1,7*%
%TO.N,GREEN_LED*%
X173760000Y-93000000D03*
%TO.P,A1,23*%
%TO.N,IVAD_SDA*%
X171220000Y-108240000D03*
%TO.P,A1,8*%
%TO.N,AMBER_LED*%
X171220000Y-93000000D03*
%TO.P,A1,24*%
%TO.N,IVAD_SCL*%
X173760000Y-108240000D03*
%TO.P,A1,9*%
%TO.N,POWER_BTN*%
X168680000Y-93000000D03*
%TO.P,A1,25*%
%TO.N,N/C*%
X176300000Y-108240000D03*
%TO.P,A1,10*%
%TO.N,AMP_ACTIVE*%
X166140000Y-93000000D03*
%TO.P,A1,26*%
%TO.N,N/C*%
X178840000Y-108240000D03*
%TO.P,A1,11*%
X163600000Y-93000000D03*
%TO.P,A1,27*%
%TO.N,5V_MCU*%
X181380000Y-108240000D03*
%TO.P,A1,12*%
%TO.N,Net-(A1-Pad12)*%
X161060000Y-93000000D03*
%TO.P,A1,28*%
%TO.N,N/C*%
X183920000Y-108240000D03*
%TO.P,A1,13*%
X158520000Y-93000000D03*
%TO.P,A1,29*%
%TO.N,GND*%
X186460000Y-108240000D03*
%TO.P,A1,14*%
%TO.N,N/C*%
X155980000Y-93000000D03*
%TO.P,A1,30*%
X189000000Y-108240000D03*
%TO.P,A1,15*%
X153440000Y-93000000D03*
%TO.P,A1,16*%
X153440000Y-108240000D03*
%TD*%
D27*
%TO.N,VOLUME*%
X123000000Y-105750000D03*
X115750000Y-104750000D03*
%TO.N,LSPKR-*%
X143000000Y-55000000D03*
%TO.N,RSPKR-*%
X142000000Y-50000000D03*
%TO.N,IVAD_SDA*%
X168000000Y-105000000D03*
X145000000Y-118000000D03*
%TO.N,IVAD_SCL*%
X139000000Y-125000000D03*
%TO.N,5V_MCU*%
X158000000Y-117000000D03*
X159000000Y-120000000D03*
%TO.N,GREEN*%
X119000000Y-119000000D03*
%TO.N,BLUE*%
X115000000Y-117000000D03*
%TO.N,H_SYNC*%
X101000000Y-120000000D03*
%TO.N,POWER_EN*%
X162000000Y-106000000D03*
%TD*%
D28*
%TO.N,GND*%
X90962770Y-106113401D02*
X92107770Y-104968401D01*
X90962770Y-106951599D02*
X90962770Y-106113401D01*
X92107770Y-104130203D02*
X93252770Y-102985203D01*
X92107770Y-104968401D02*
X92107770Y-104130203D01*
X97828401Y-99018806D02*
X97830000Y-99017207D01*
X95542770Y-99018806D02*
X97828401Y-99018806D01*
X130960000Y-78020000D02*
X130960000Y-78790000D01*
X127205010Y-76694990D02*
X125880000Y-78020000D01*
X129634990Y-76694990D02*
X127205010Y-76694990D01*
X130960000Y-78020000D02*
X129634990Y-76694990D01*
%TO.N,5V_TRICKLE*%
X141000000Y-113380000D02*
X134620000Y-107000000D01*
X164380000Y-113380000D02*
X141000000Y-113380000D01*
%TO.N,Net-(A1-Pad12)*%
X161000000Y-92940000D02*
X161060000Y-93000000D01*
D29*
%TO.N,Net-(C1-Pad1)*%
X127150000Y-86810000D02*
X128420000Y-85540000D01*
X127150000Y-98290000D02*
X127150000Y-86810000D01*
%TO.N,Net-(C2-Pad1)*%
X136040000Y-88080000D02*
X133500000Y-85540000D01*
X136040000Y-98290000D02*
X136040000Y-88080000D01*
D28*
%TO.N,Net-(C7-Pad1)*%
X112125001Y-82874999D02*
X123565001Y-82874999D01*
X123565001Y-82874999D02*
X128420000Y-78020000D01*
X111000000Y-84000000D02*
X112125001Y-82874999D01*
%TO.N,RHEAD*%
X120620000Y-65380000D02*
X125000000Y-61000000D01*
X117910000Y-65380000D02*
X120620000Y-65380000D01*
X135545001Y-60380001D02*
X135545001Y-54245001D01*
X135545001Y-54245001D02*
X133300000Y-52000000D01*
X134125003Y-61799999D02*
X135545001Y-60380001D01*
X125799999Y-61799999D02*
X134125003Y-61799999D01*
X125000000Y-61000000D02*
X125799999Y-61799999D01*
D29*
%TO.N,RSPKR+*%
X116209999Y-68679999D02*
X117910000Y-70380000D01*
X116209999Y-61345999D02*
X116209999Y-68679999D01*
X127355999Y-50199999D02*
X116209999Y-61345999D01*
X138135633Y-50199999D02*
X127355999Y-50199999D01*
X138380000Y-50444366D02*
X138135633Y-50199999D01*
X138380000Y-52000000D02*
X138380000Y-50444366D01*
X117910000Y-77670000D02*
X118260000Y-78020000D01*
X117910000Y-70380000D02*
X117910000Y-77670000D01*
D28*
%TO.N,LHEAD*%
X154000000Y-57230000D02*
X154000000Y-56000000D01*
X145850000Y-65380000D02*
X154000000Y-57230000D01*
X145850000Y-62010000D02*
X135840000Y-52000000D01*
X145850000Y-65380000D02*
X145850000Y-62010000D01*
D29*
%TO.N,LSPKR+*%
X145850000Y-70750000D02*
X138580000Y-78020000D01*
X145850000Y-70380000D02*
X145850000Y-70750000D01*
X155500001Y-60729999D02*
X145850000Y-70380000D01*
X155500001Y-55279999D02*
X155500001Y-60729999D01*
X152220002Y-52000000D02*
X155500001Y-55279999D01*
X146000000Y-52000000D02*
X152220002Y-52000000D01*
D28*
%TO.N,VOLUME*%
X150840000Y-86840000D02*
X151000000Y-87000000D01*
X151000000Y-87000000D02*
X151000000Y-90000000D01*
X151000000Y-90000000D02*
X136250000Y-104750000D01*
X136250000Y-104750000D02*
X125250000Y-104750000D01*
X124250000Y-105750000D02*
X123000000Y-105750000D01*
X125250000Y-104750000D02*
X124250000Y-105750000D01*
X115750000Y-104750000D02*
X107750000Y-96750000D01*
X107750000Y-96750000D02*
X107750000Y-81250000D01*
X107750000Y-81250000D02*
X108500000Y-80500000D01*
X120860000Y-80500000D02*
X123340000Y-78020000D01*
X108500000Y-80500000D02*
X120860000Y-80500000D01*
%TO.N,SHEAD*%
X129160000Y-59840000D02*
X129000000Y-60000000D01*
X134420000Y-59840000D02*
X129160000Y-59840000D01*
X129000000Y-53760000D02*
X130760000Y-52000000D01*
X129000000Y-60000000D02*
X129000000Y-53760000D01*
D29*
%TO.N,LSPKR-*%
X143460000Y-54540000D02*
X143000000Y-55000000D01*
X143460000Y-52000000D02*
X143460000Y-54540000D01*
%TO.N,RSPKR-*%
X140920000Y-51080000D02*
X142000000Y-50000000D01*
X140920000Y-52000000D02*
X140920000Y-51080000D01*
D28*
%TO.N,Net-(R1-Pad2)*%
X121140000Y-78020000D02*
X120800000Y-78020000D01*
X129000000Y-70160000D02*
X121140000Y-78020000D01*
%TO.N,LIN*%
X170594999Y-62165001D02*
X162834999Y-62165001D01*
X171920000Y-60840000D02*
X170594999Y-62165001D01*
X140785010Y-84214990D02*
X137365010Y-84214990D01*
X137365010Y-84214990D02*
X136040000Y-85540000D01*
X162834999Y-62165001D02*
X140785010Y-84214990D01*
%TO.N,RIN*%
X166840000Y-60840000D02*
X162160000Y-60840000D01*
X162160000Y-60840000D02*
X143000000Y-80000000D01*
X131420000Y-80000000D02*
X125880000Y-85540000D01*
X143000000Y-80000000D02*
X131420000Y-80000000D01*
%TO.N,LPIACT*%
X164380000Y-118460000D02*
X164380000Y-115920000D01*
X124875001Y-132115001D02*
X123700000Y-130940000D01*
X134424001Y-132115001D02*
X124875001Y-132115001D01*
X148079002Y-118460000D02*
X134424001Y-132115001D01*
X164380000Y-118460000D02*
X148079002Y-118460000D01*
X123700000Y-130940000D02*
X121160000Y-130940000D01*
%TO.N,IVAD_SDA*%
X168000000Y-105020000D02*
X168000000Y-105000000D01*
X171220000Y-108240000D02*
X168000000Y-105020000D01*
X146000000Y-117000000D02*
X145000000Y-118000000D01*
X146000000Y-116000000D02*
X146000000Y-117000000D01*
%TO.N,ROT_A*%
X181840000Y-90000000D02*
X178840000Y-93000000D01*
X199000000Y-90000000D02*
X181840000Y-90000000D01*
%TO.N,IVAD_SCL*%
X131840000Y-117840000D02*
X139000000Y-125000000D01*
X131840000Y-116000000D02*
X131840000Y-117840000D01*
%TO.N,ROT_B*%
X184300000Y-85000000D02*
X176300000Y-93000000D01*
X199000000Y-85000000D02*
X184300000Y-85000000D01*
%TO.N,AMP_ACTIVE*%
X166140000Y-93860000D02*
X166140000Y-93000000D01*
X161000000Y-99000000D02*
X166140000Y-93860000D01*
%TO.N,5V_MCU*%
X119000000Y-115000000D02*
X127000000Y-107000000D01*
X136000000Y-116000000D02*
X142000000Y-116000000D01*
X127000000Y-107000000D02*
X136000000Y-116000000D01*
X143125001Y-114874999D02*
X142000000Y-116000000D01*
X155034999Y-114874999D02*
X143125001Y-114874999D01*
X156160000Y-116000000D02*
X155034999Y-114874999D01*
X157000000Y-116000000D02*
X158000000Y-117000000D01*
X156160000Y-116000000D02*
X157000000Y-116000000D01*
X173060001Y-122125001D02*
X181380000Y-113805002D01*
X161125001Y-122125001D02*
X173060001Y-122125001D01*
X181380000Y-113805002D02*
X181380000Y-108240000D01*
X159000000Y-120000000D02*
X161125001Y-122125001D01*
D29*
%TO.N,5V_PSU*%
X123340000Y-89400000D02*
X120800000Y-91940000D01*
X123340000Y-85540000D02*
X123340000Y-89400000D01*
X120800000Y-91940000D02*
X120800000Y-99560000D01*
X120800000Y-105580000D02*
X119000000Y-107380000D01*
X120800000Y-99560000D02*
X120800000Y-105580000D01*
X130960000Y-91940000D02*
X130960000Y-85540000D01*
X139850000Y-86810000D02*
X138580000Y-85540000D01*
X139850000Y-91940000D02*
X139850000Y-86810000D01*
X128575010Y-103174990D02*
X123205010Y-103174990D01*
X129459999Y-102290001D02*
X128575010Y-103174990D01*
X129459999Y-93440001D02*
X129459999Y-102290001D01*
X123205010Y-103174990D02*
X119000000Y-107380000D01*
X130960000Y-91940000D02*
X129459999Y-93440001D01*
X135875012Y-103174990D02*
X128575010Y-103174990D01*
X138349999Y-100700003D02*
X135875012Y-103174990D01*
X138349999Y-93440001D02*
X138349999Y-100700003D01*
X139850000Y-91940000D02*
X138349999Y-93440001D01*
X99100000Y-50000000D02*
X105750000Y-56650000D01*
X97000000Y-50000000D02*
X99100000Y-50000000D01*
X105750000Y-56650000D02*
X105750000Y-101750000D01*
X111380000Y-107380000D02*
X119000000Y-107380000D01*
X105750000Y-101750000D02*
X111380000Y-107380000D01*
X150069998Y-82000000D02*
X166000000Y-82000000D01*
X138349999Y-93719999D02*
X150069998Y-82000000D01*
X166000000Y-82000000D02*
X187160000Y-60840000D01*
X138349999Y-100700003D02*
X138349999Y-93719999D01*
D28*
%TO.N,RED*%
X93250000Y-106950000D02*
X106300000Y-120000000D01*
X122920000Y-120000000D02*
X131320000Y-128400000D01*
X106300000Y-120000000D02*
X122920000Y-120000000D01*
%TO.N,GREEN*%
X94395000Y-104966802D02*
X107428198Y-118000000D01*
X118000000Y-118000000D02*
X119000000Y-119000000D01*
X107428198Y-118000000D02*
X118000000Y-118000000D01*
%TO.N,BLUE*%
X95540000Y-102983604D02*
X108556396Y-116000000D01*
X114000000Y-116000000D02*
X115000000Y-117000000D01*
X108556396Y-116000000D02*
X114000000Y-116000000D01*
%TO.N,V_SYNC*%
X117300000Y-122000000D02*
X123700000Y-128400000D01*
X101000000Y-122000000D02*
X117300000Y-122000000D01*
X86000000Y-107000000D02*
X101000000Y-122000000D01*
X89979595Y-99020405D02*
X86000000Y-103000000D01*
X86000000Y-103000000D02*
X86000000Y-107000000D01*
X93255539Y-99020405D02*
X89979595Y-99020405D01*
%TO.N,H_SYNC*%
X92110539Y-101003604D02*
X89996396Y-101003604D01*
X89996396Y-101003604D02*
X88000000Y-103000000D01*
X88000000Y-103000000D02*
X88000000Y-107000000D01*
X88000000Y-107000000D02*
X101000000Y-120000000D01*
%TO.N,PROT*%
X116994989Y-126774989D02*
X118620000Y-128400000D01*
X84000000Y-120363590D02*
X85186400Y-121549990D01*
X85186400Y-121549990D02*
X95186401Y-121549991D01*
X84000000Y-103000000D02*
X84000000Y-120363590D01*
X100411399Y-126774989D02*
X116994989Y-126774989D01*
X95186401Y-121549991D02*
X100411399Y-126774989D01*
X97000000Y-57620000D02*
X95574999Y-59045001D01*
X95574999Y-69074999D02*
X95574999Y-87925001D01*
X95574999Y-59045001D02*
X95574999Y-69074999D01*
X95574999Y-69074999D02*
X95574999Y-69277587D01*
X95574999Y-87925001D02*
X86500000Y-97000000D01*
X86500000Y-100500000D02*
X84000000Y-103000000D01*
X86500000Y-97000000D02*
X86500000Y-100500000D01*
%TO.N,DCO*%
X85000000Y-122000000D02*
X95000000Y-122000000D01*
X95000000Y-122000000D02*
X100224999Y-127224999D01*
X83000000Y-120000000D02*
X85000000Y-122000000D01*
X83000000Y-103000000D02*
X83000000Y-120000000D01*
X85500000Y-96000000D02*
X85500000Y-100500000D01*
X94000000Y-87500000D02*
X85500000Y-96000000D01*
X100224999Y-127224999D02*
X114904999Y-127224999D01*
X85500000Y-100500000D02*
X83000000Y-103000000D01*
X94000000Y-56160000D02*
X94000000Y-87500000D01*
X95080000Y-55080000D02*
X94000000Y-56160000D01*
X114904999Y-127224999D02*
X116080000Y-128400000D01*
X97000000Y-55080000D02*
X95080000Y-55080000D01*
%TO.N,I2S_DIN*%
X177000000Y-56000000D02*
X182000000Y-51000000D01*
X177000000Y-60840000D02*
X177000000Y-56000000D01*
%TO.N,I2S_BCLK*%
X174460000Y-56040000D02*
X179500000Y-51000000D01*
X174460000Y-60840000D02*
X174460000Y-56040000D01*
%TO.N,I2S_WSEL*%
X178300010Y-49699990D02*
X177000000Y-51000000D01*
X188175010Y-50388295D02*
X187486705Y-49699990D01*
X188175010Y-52204990D02*
X188175010Y-50388295D01*
X187486705Y-49699990D02*
X178300010Y-49699990D01*
X179540000Y-60840000D02*
X188175010Y-52204990D01*
%TO.N,POWER_EN*%
X161060000Y-106940000D02*
X162000000Y-106000000D01*
X161060000Y-108240000D02*
X161060000Y-106940000D01*
%TO.N,Net-(R9-Pad2)*%
X175670000Y-112250000D02*
X176090000Y-112250000D01*
X172000000Y-115920000D02*
X175670000Y-112250000D01*
%TD*%
M02*
