%TF.GenerationSoftware,KiCad,Pcbnew,(6.0.5)*%
%TF.CreationDate,2023-02-01T20:40:05-08:00*%
%TF.ProjectId,MiSTer-G3,4d695354-6572-42d4-9733-2e6b69636164,rev?*%
%TF.SameCoordinates,Original*%
%TF.FileFunction,Copper,L1,Top*%
%TF.FilePolarity,Positive*%
%FSLAX46Y46*%
G04 Gerber Fmt 4.6, Leading zero omitted, Abs format (unit mm)*
G04 Created by KiCad (PCBNEW (6.0.5)) date 2023-02-01 20:40:05*
%MOMM*%
%LPD*%
G01*
G04 APERTURE LIST*
G04 Aperture macros list*
%AMRoundRect*
0 Rectangle with rounded corners*
0 $1 Rounding radius*
0 $2 $3 $4 $5 $6 $7 $8 $9 X,Y pos of 4 corners*
0 Add a 4 corners polygon primitive as box body*
4,1,4,$2,$3,$4,$5,$6,$7,$8,$9,$2,$3,0*
0 Add four circle primitives for the rounded corners*
1,1,$1+$1,$2,$3*
1,1,$1+$1,$4,$5*
1,1,$1+$1,$6,$7*
1,1,$1+$1,$8,$9*
0 Add four rect primitives between the rounded corners*
20,1,$1+$1,$2,$3,$4,$5,0*
20,1,$1+$1,$4,$5,$6,$7,0*
20,1,$1+$1,$6,$7,$8,$9,0*
20,1,$1+$1,$8,$9,$2,$3,0*%
%AMRotRect*
0 Rectangle, with rotation*
0 The origin of the aperture is its center*
0 $1 length*
0 $2 width*
0 $3 Rotation angle, in degrees counterclockwise*
0 Add horizontal line*
21,1,$1,$2,0,0,$3*%
G04 Aperture macros list end*
%TA.AperFunction,ComponentPad*%
%ADD10O,1.600000X1.600000*%
%TD*%
%TA.AperFunction,ComponentPad*%
%ADD11C,1.600000*%
%TD*%
%TA.AperFunction,ComponentPad*%
%ADD12O,1.700000X1.950000*%
%TD*%
%TA.AperFunction,ComponentPad*%
%ADD13RoundRect,0.250000X-0.600000X-0.725000X0.600000X-0.725000X0.600000X0.725000X-0.600000X0.725000X0*%
%TD*%
%TA.AperFunction,ComponentPad*%
%ADD14O,1.950000X1.700000*%
%TD*%
%TA.AperFunction,ComponentPad*%
%ADD15RoundRect,0.250000X0.725000X-0.600000X0.725000X0.600000X-0.725000X0.600000X-0.725000X-0.600000X0*%
%TD*%
%TA.AperFunction,ComponentPad*%
%ADD16RoundRect,0.250000X-0.725000X0.600000X-0.725000X-0.600000X0.725000X-0.600000X0.725000X0.600000X0*%
%TD*%
%TA.AperFunction,ComponentPad*%
%ADD17R,1.600000X1.600000*%
%TD*%
%TA.AperFunction,ComponentPad*%
%ADD18C,4.000000*%
%TD*%
%TA.AperFunction,ComponentPad*%
%ADD19RotRect,1.600000X1.600000X240.000000*%
%TD*%
%TA.AperFunction,ComponentPad*%
%ADD20C,2.000000*%
%TD*%
%TA.AperFunction,ComponentPad*%
%ADD21O,1.700000X1.700000*%
%TD*%
%TA.AperFunction,ComponentPad*%
%ADD22R,1.700000X1.700000*%
%TD*%
%TA.AperFunction,ComponentPad*%
%ADD23C,0.800000*%
%TD*%
%TA.AperFunction,ComponentPad*%
%ADD24C,7.000000*%
%TD*%
%TA.AperFunction,ComponentPad*%
%ADD25O,2.200000X2.200000*%
%TD*%
%TA.AperFunction,ComponentPad*%
%ADD26R,2.200000X2.200000*%
%TD*%
%TA.AperFunction,ComponentPad*%
%ADD27R,2.000000X2.000000*%
%TD*%
%TA.AperFunction,ComponentPad*%
%ADD28O,1.200000X2.000000*%
%TD*%
%TA.AperFunction,ViaPad*%
%ADD29C,0.800000*%
%TD*%
%TA.AperFunction,Conductor*%
%ADD30C,0.250000*%
%TD*%
%TA.AperFunction,Conductor*%
%ADD31C,1.000000*%
%TD*%
%TA.AperFunction,Conductor*%
%ADD32C,0.500000*%
%TD*%
G04 APERTURE END LIST*
D10*
%TO.P,R11,2*%
%TO.N,SHEAD2*%
X179800000Y-95440000D03*
D11*
%TO.P,R11,1*%
%TO.N,5V_MCU*%
X179800000Y-105600000D03*
%TD*%
D10*
%TO.P,R10,2*%
%TO.N,~{HEAD_DETECT2}*%
X183300000Y-105660000D03*
D11*
%TO.P,R10,1*%
%TO.N,SHEAD2*%
X183300000Y-95500000D03*
%TD*%
D10*
%TO.P,R5,2*%
%TO.N,GND*%
X145200000Y-68960000D03*
D11*
%TO.P,R5,1*%
%TO.N,LHEAD*%
X145200000Y-58800000D03*
%TD*%
D10*
%TO.P,R4,2*%
%TO.N,GND*%
X143460000Y-72300000D03*
D11*
%TO.P,R4,1*%
%TO.N,RHEAD*%
X133300000Y-72300000D03*
%TD*%
D10*
%TO.P,R2,2*%
%TO.N,SHEAD1*%
X161100000Y-95540000D03*
D11*
%TO.P,R2,1*%
%TO.N,5V_MCU*%
X161100000Y-105700000D03*
%TD*%
D10*
%TO.P,R1,2*%
%TO.N,~{HEAD_DETECT1}*%
X164300000Y-105760000D03*
D11*
%TO.P,R1,1*%
%TO.N,SHEAD1*%
X164300000Y-95600000D03*
%TD*%
D12*
%TO.P,HEADPHONES,5*%
%TO.N,GND*%
X151500000Y-51700000D03*
%TO.P,HEADPHONES,4*%
%TO.N,SHEAD2*%
X149000000Y-51700000D03*
%TO.P,HEADPHONES,3*%
%TO.N,SHEAD1*%
X146500000Y-51700000D03*
%TO.P,HEADPHONES,2*%
%TO.N,LHEAD*%
X144000000Y-51700000D03*
D13*
%TO.P,HEADPHONES,1*%
%TO.N,RHEAD*%
X141500000Y-51700000D03*
%TD*%
D14*
%TO.P,ROTARY ENCODER,4*%
%TO.N,ROT_BTN*%
X199000000Y-82500000D03*
%TO.P,ROTARY ENCODER,3*%
%TO.N,ROT_B*%
X199000000Y-85000000D03*
%TO.P,ROTARY ENCODER,2*%
%TO.N,GND*%
X199000000Y-87500000D03*
D15*
%TO.P,ROTARY ENCODER,1*%
%TO.N,ROT_A*%
X199000000Y-90000000D03*
%TD*%
D12*
%TO.P,MISTER BUTTONS,5*%
%TO.N,GND*%
X191500000Y-51750000D03*
%TO.P,MISTER BUTTONS,4*%
%TO.N,N/C*%
X189000000Y-51750000D03*
%TO.P,MISTER BUTTONS,3*%
%TO.N,BTN_RESET*%
X186500000Y-51750000D03*
%TO.P,MISTER BUTTONS,2*%
%TO.N,BTN_OSD*%
X184000000Y-51750000D03*
D13*
%TO.P,MISTER BUTTONS,1*%
%TO.N,BTN_USER*%
X181500000Y-51750000D03*
%TD*%
D14*
%TO.P,FRONT PANEL,4*%
%TO.N,GND*%
X199000000Y-62500000D03*
%TO.P,FRONT PANEL,3*%
%TO.N,POWER_BTN*%
X199000000Y-65000000D03*
%TO.P,FRONT PANEL,2*%
%TO.N,AMBER_LED*%
X199000000Y-67500000D03*
D15*
%TO.P,FRONT PANEL,1*%
%TO.N,GREEN_LED*%
X199000000Y-70000000D03*
%TD*%
D14*
%TO.P,POWER,4*%
%TO.N,PROT*%
X97080000Y-58680000D03*
%TO.P,POWER,3*%
%TO.N,DCO*%
X97080000Y-56180000D03*
%TO.P,POWER,2*%
%TO.N,GND*%
X97080000Y-53680000D03*
D16*
%TO.P,POWER,1*%
%TO.N,5V_PSU*%
X97080000Y-51180000D03*
%TD*%
D12*
%TO.P,SPEAKERS,4*%
%TO.N,LSPKR-*%
X132200000Y-51750000D03*
%TO.P,SPEAKERS,3*%
%TO.N,LSPKR+*%
X129700000Y-51750000D03*
%TO.P,SPEAKERS,2*%
%TO.N,RSPKR-*%
X127200000Y-51750000D03*
D13*
%TO.P,SPEAKERS,1*%
%TO.N,RSPKR+*%
X124700000Y-51750000D03*
%TD*%
D11*
%TO.P,C12,2*%
%TO.N,LIN*%
X147600000Y-84800000D03*
D17*
%TO.P,C12,1*%
%TO.N,Net-(C12-Pad1)*%
X145600000Y-84800000D03*
%TD*%
D11*
%TO.P,C11,2*%
%TO.N,RIN*%
X147600000Y-78200000D03*
D17*
%TO.P,C11,1*%
%TO.N,Net-(C11-Pad1)*%
X145600000Y-78200000D03*
%TD*%
D10*
%TO.P,R9,2*%
%TO.N,Net-(R9-Pad2)*%
X153960000Y-112600000D03*
D11*
%TO.P,R9,1*%
%TO.N,GND*%
X143800000Y-112600000D03*
%TD*%
D10*
%TO.P,U3,8*%
%TO.N,GND*%
X165600000Y-120020000D03*
%TO.P,U3,4*%
%TO.N,N/C*%
X157980000Y-112400000D03*
%TO.P,U3,7*%
%TO.N,LPIACT*%
X163060000Y-120020000D03*
%TO.P,U3,3*%
%TO.N,Net-(R9-Pad2)*%
X160520000Y-112400000D03*
%TO.P,U3,6*%
%TO.N,LPIACT*%
X160520000Y-120020000D03*
%TO.P,U3,2*%
%TO.N,POWER_EN*%
X163060000Y-112400000D03*
%TO.P,U3,5*%
%TO.N,5V_TRICKLE*%
X157980000Y-120020000D03*
D17*
%TO.P,U3,1*%
%TO.N,N/C*%
X165600000Y-112400000D03*
%TD*%
D18*
%TO.P,J2,0*%
%TO.N,N/C*%
X87927744Y-113328418D03*
X100427744Y-91677783D03*
D11*
%TO.P,J2,15*%
X94400539Y-97037207D03*
%TO.P,J2,14*%
%TO.N,V_SYNC*%
X93255539Y-99020405D03*
%TO.P,J2,13*%
%TO.N,H_SYNC*%
X92110539Y-101003604D03*
%TO.P,J2,12*%
%TO.N,N/C*%
X90965539Y-102986802D03*
%TO.P,J2,11*%
X89820539Y-104970000D03*
%TO.P,J2,10*%
%TO.N,GND*%
X95542770Y-99018806D03*
%TO.P,J2,9*%
%TO.N,N/C*%
X94397770Y-101002005D03*
%TO.P,J2,8*%
%TO.N,GND*%
X93252770Y-102985203D03*
%TO.P,J2,7*%
X92107770Y-104968401D03*
%TO.P,J2,6*%
X90962770Y-106951599D03*
%TO.P,J2,5*%
X97830000Y-99017207D03*
%TO.P,J2,4*%
%TO.N,N/C*%
X96685000Y-101000405D03*
%TO.P,J2,3*%
%TO.N,BLUE*%
X95540000Y-102983604D03*
%TO.P,J2,2*%
%TO.N,GREEN*%
X94395000Y-104966802D03*
D19*
%TO.P,J2,1*%
%TO.N,RED*%
X93250000Y-106950000D03*
%TD*%
D20*
%TO.P,U2,9*%
%TO.N,RIN*%
X166840000Y-60840000D03*
%TO.P,U2,8*%
%TO.N,GND*%
X169380000Y-60840000D03*
%TO.P,U2,7*%
%TO.N,LIN*%
X171920000Y-60840000D03*
%TO.P,U2,12*%
%TO.N,N/C*%
X171920000Y-81160000D03*
%TO.P,U2,6*%
%TO.N,I2S_BCLK*%
X174460000Y-60840000D03*
%TO.P,U2,13*%
%TO.N,N/C*%
X174460000Y-81160000D03*
%TO.P,U2,5*%
%TO.N,I2S_DIN*%
X177000000Y-60840000D03*
%TO.P,U2,14*%
%TO.N,N/C*%
X177000000Y-81160000D03*
%TO.P,U2,4*%
%TO.N,I2S_WSEL*%
X179540000Y-60840000D03*
%TO.P,U2,15*%
%TO.N,N/C*%
X179540000Y-81160000D03*
%TO.P,U2,3*%
%TO.N,GND*%
X182080000Y-60840000D03*
%TO.P,U2,16*%
%TO.N,N/C*%
X182080000Y-81160000D03*
%TO.P,U2,2*%
X184620000Y-60840000D03*
%TO.P,U2,17*%
X184620000Y-81160000D03*
%TO.P,U2,1*%
%TO.N,5V_PSU*%
X187160000Y-60840000D03*
%TD*%
D10*
%TO.P,R8,2*%
%TO.N,IVAD_SCL*%
X144200000Y-126560000D03*
D11*
%TO.P,R8,1*%
%TO.N,5V_MCU*%
X144200000Y-116400000D03*
%TD*%
D10*
%TO.P,R7,2*%
%TO.N,5V_MCU*%
X149200000Y-116240000D03*
D11*
%TO.P,R7,1*%
%TO.N,IVAD_SDA*%
X149200000Y-126400000D03*
%TD*%
D10*
%TO.P,R6,2*%
%TO.N,VOLUME*%
X146090000Y-101250000D03*
D11*
%TO.P,R6,1*%
%TO.N,Net-(A1-Pad13)*%
X156250000Y-101250000D03*
%TD*%
D10*
%TO.P,R3,2*%
%TO.N,GND*%
X157760000Y-96400000D03*
D11*
%TO.P,R3,1*%
%TO.N,AMP_ACTIVE*%
X147600000Y-96400000D03*
%TD*%
D12*
%TO.P,J4,5*%
%TO.N,N/C*%
X170500000Y-51750000D03*
%TO.P,J4,4*%
%TO.N,GND*%
X168000000Y-51750000D03*
%TO.P,J4,3*%
%TO.N,I2S_DIN*%
X165500000Y-51750000D03*
%TO.P,J4,2*%
%TO.N,I2S_BCLK*%
X163000000Y-51750000D03*
D13*
%TO.P,J4,1*%
%TO.N,I2S_WSEL*%
X160500000Y-51750000D03*
%TD*%
D21*
%TO.P,J1,20*%
%TO.N,GND*%
X133860000Y-130940000D03*
%TO.P,J1,19*%
%TO.N,N/C*%
X133860000Y-128400000D03*
%TO.P,J1,18*%
%TO.N,GND*%
X131320000Y-130940000D03*
%TO.P,J1,17*%
%TO.N,RED*%
X131320000Y-128400000D03*
%TO.P,J1,16*%
%TO.N,GND*%
X128780000Y-130940000D03*
%TO.P,J1,15*%
%TO.N,GREEN*%
X128780000Y-128400000D03*
%TO.P,J1,14*%
%TO.N,GND*%
X126240000Y-130940000D03*
%TO.P,J1,13*%
%TO.N,BLUE*%
X126240000Y-128400000D03*
%TO.P,J1,12*%
%TO.N,LPIACT*%
X123700000Y-130940000D03*
%TO.P,J1,11*%
%TO.N,V_SYNC*%
X123700000Y-128400000D03*
%TO.P,J1,10*%
%TO.N,LPIACT*%
X121160000Y-130940000D03*
%TO.P,J1,9*%
%TO.N,H_SYNC*%
X121160000Y-128400000D03*
%TO.P,J1,8*%
%TO.N,N/C*%
X118620000Y-130940000D03*
%TO.P,J1,7*%
%TO.N,PROT*%
X118620000Y-128400000D03*
%TO.P,J1,6*%
%TO.N,5V_TRICKLE*%
X116080000Y-130940000D03*
%TO.P,J1,5*%
%TO.N,DCO*%
X116080000Y-128400000D03*
%TO.P,J1,4*%
%TO.N,GND*%
X113540000Y-130940000D03*
%TO.P,J1,3*%
X113540000Y-128400000D03*
%TO.P,J1,2*%
%TO.N,IVAD_SCL*%
X111000000Y-130940000D03*
D22*
%TO.P,J1,1*%
%TO.N,IVAD_SDA*%
X111000000Y-128400000D03*
%TD*%
D23*
%TO.P,H4,1*%
%TO.N,GND*%
X110856155Y-50143845D03*
X109000000Y-49375000D03*
X107143845Y-50143845D03*
X106375000Y-52000000D03*
X107143845Y-53856155D03*
X109000000Y-54625000D03*
X110856155Y-53856155D03*
X111625000Y-52000000D03*
D24*
X109000000Y-52000000D03*
%TD*%
D23*
%TO.P,H3,1*%
%TO.N,GND*%
X202856155Y-50143845D03*
X201000000Y-49375000D03*
X199143845Y-50143845D03*
X198375000Y-52000000D03*
X199143845Y-53856155D03*
X201000000Y-54625000D03*
X202856155Y-53856155D03*
X203625000Y-52000000D03*
D24*
X201000000Y-52000000D03*
%TD*%
D23*
%TO.P,H2,1*%
%TO.N,GND*%
X92856155Y-124503845D03*
X91000000Y-123735000D03*
X89143845Y-124503845D03*
X88375000Y-126360000D03*
X89143845Y-128216155D03*
X91000000Y-128985000D03*
X92856155Y-128216155D03*
X93625000Y-126360000D03*
D24*
X91000000Y-126360000D03*
%TD*%
D23*
%TO.P,H1,1*%
%TO.N,GND*%
X162856155Y-124543845D03*
X161000000Y-123775000D03*
X159143845Y-124543845D03*
X158375000Y-126400000D03*
X159143845Y-128256155D03*
X161000000Y-129025000D03*
X162856155Y-128256155D03*
X163625000Y-126400000D03*
D24*
X161000000Y-126400000D03*
%TD*%
D25*
%TO.P,D2,2*%
%TO.N,5V_TRICKLE*%
X139800000Y-128820000D03*
D26*
%TO.P,D2,1*%
%TO.N,5V_MCU*%
X139800000Y-121200000D03*
%TD*%
D25*
%TO.P,D1,2*%
%TO.N,5V_PSU*%
X119000000Y-107380000D03*
D26*
%TO.P,D1,1*%
%TO.N,5V_MCU*%
X119000000Y-115000000D03*
%TD*%
D20*
%TO.P,C10,2*%
%TO.N,GND*%
X126746000Y-110156000D03*
%TO.P,C10,1*%
%TO.N,VOLUME*%
X126746000Y-105156000D03*
%TD*%
%TO.P,C9,2*%
%TO.N,LHEAD*%
X137900000Y-62200000D03*
D27*
%TO.P,C9,1*%
%TO.N,LSPKR+*%
X132900000Y-62200000D03*
%TD*%
D20*
%TO.P,C8,2*%
%TO.N,RHEAD*%
X126300000Y-62100000D03*
D27*
%TO.P,C8,1*%
%TO.N,RSPKR+*%
X121300000Y-62100000D03*
%TD*%
D11*
%TO.P,C7,2*%
%TO.N,GND*%
X128700000Y-73000000D03*
D17*
%TO.P,C7,1*%
%TO.N,Net-(C7-Pad1)*%
X126200000Y-73000000D03*
%TD*%
D11*
%TO.P,C6,2*%
%TO.N,GND*%
X139850000Y-92416000D03*
D17*
%TO.P,C6,1*%
%TO.N,5V_PSU*%
X139850000Y-89916000D03*
%TD*%
D11*
%TO.P,C5,2*%
%TO.N,GND*%
X130810000Y-92416000D03*
D17*
%TO.P,C5,1*%
%TO.N,5V_PSU*%
X130810000Y-89916000D03*
%TD*%
D11*
%TO.P,C4,2*%
%TO.N,GND*%
X118404000Y-91186000D03*
D17*
%TO.P,C4,1*%
%TO.N,5V_PSU*%
X120904000Y-91186000D03*
%TD*%
D11*
%TO.P,C2,2*%
%TO.N,GND*%
X135382000Y-97242000D03*
D17*
%TO.P,C2,1*%
%TO.N,Net-(C2-Pad1)*%
X135382000Y-94742000D03*
%TD*%
D11*
%TO.P,C1,2*%
%TO.N,GND*%
X125730000Y-96988000D03*
D17*
%TO.P,C1,1*%
%TO.N,Net-(C1-Pad1)*%
X125730000Y-94488000D03*
%TD*%
D28*
%TO.P,U1,10*%
%TO.N,LSPKR-*%
X141120000Y-85540000D03*
%TO.P,U1,11*%
%TO.N,GND*%
X141120000Y-78020000D03*
%TO.P,U1,9*%
%TO.N,5V_PSU*%
X138580000Y-85540000D03*
%TO.P,U1,12*%
%TO.N,LSPKR+*%
X138580000Y-78020000D03*
%TO.P,U1,8*%
%TO.N,Net-(C12-Pad1)*%
X136040000Y-85540000D03*
%TO.P,U1,13*%
%TO.N,N/C*%
X136040000Y-78020000D03*
%TO.P,U1,7*%
%TO.N,Net-(C2-Pad1)*%
X133500000Y-85540000D03*
%TO.P,U1,14*%
%TO.N,AMP_ACTIVE*%
X133500000Y-78020000D03*
%TO.P,U1,6*%
%TO.N,5V_PSU*%
X130960000Y-85540000D03*
%TO.P,U1,15*%
%TO.N,GND*%
X130960000Y-78020000D03*
%TO.P,U1,5*%
%TO.N,Net-(C1-Pad1)*%
X128420000Y-85540000D03*
%TO.P,U1,16*%
%TO.N,Net-(C7-Pad1)*%
X128420000Y-78020000D03*
%TO.P,U1,4*%
%TO.N,Net-(C11-Pad1)*%
X125880000Y-85540000D03*
%TO.P,U1,17*%
%TO.N,GND*%
X125880000Y-78020000D03*
%TO.P,U1,3*%
%TO.N,5V_PSU*%
X123340000Y-85540000D03*
%TO.P,U1,18*%
%TO.N,VOLUME*%
X123340000Y-78020000D03*
%TO.P,U1,2*%
%TO.N,RSPKR-*%
X120800000Y-85540000D03*
%TO.P,U1,19*%
%TO.N,AMP_SE*%
X120800000Y-78020000D03*
%TO.P,U1,1*%
%TO.N,GND*%
X118260000Y-85540000D03*
%TO.P,U1,20*%
%TO.N,RSPKR+*%
X118260000Y-78020000D03*
%TD*%
D11*
%TO.P,C3,2*%
%TO.N,GND*%
X118650000Y-97536000D03*
D17*
%TO.P,C3,1*%
%TO.N,5V_PSU*%
X120650000Y-97536000D03*
%TD*%
%TO.P,A1,1*%
%TO.N,N/C*%
X189000000Y-93000000D03*
D10*
%TO.P,A1,17*%
X155980000Y-108240000D03*
%TO.P,A1,2*%
X186460000Y-93000000D03*
%TO.P,A1,18*%
X158520000Y-108240000D03*
%TO.P,A1,3*%
X183920000Y-93000000D03*
%TO.P,A1,19*%
%TO.N,POWER_EN*%
X161060000Y-108240000D03*
%TO.P,A1,4*%
%TO.N,GND*%
X181380000Y-93000000D03*
%TO.P,A1,20*%
%TO.N,~{HEAD_DETECT1}*%
X163600000Y-108240000D03*
%TO.P,A1,5*%
%TO.N,GREEN_LED*%
X178840000Y-93000000D03*
%TO.P,A1,21*%
%TO.N,~{HEAD_DETECT2}*%
X166140000Y-108240000D03*
%TO.P,A1,6*%
%TO.N,AMBER_LED*%
X176300000Y-93000000D03*
%TO.P,A1,22*%
%TO.N,N/C*%
X168680000Y-108240000D03*
%TO.P,A1,7*%
%TO.N,POWER_BTN*%
X173760000Y-93000000D03*
%TO.P,A1,23*%
%TO.N,IVAD_SDA*%
X171220000Y-108240000D03*
%TO.P,A1,8*%
%TO.N,BTN_RESET*%
X171220000Y-93000000D03*
%TO.P,A1,24*%
%TO.N,IVAD_SCL*%
X173760000Y-108240000D03*
%TO.P,A1,9*%
%TO.N,BTN_OSD*%
X168680000Y-93000000D03*
%TO.P,A1,25*%
%TO.N,ROT_B*%
X176300000Y-108240000D03*
%TO.P,A1,10*%
%TO.N,BTN_USER*%
X166140000Y-93000000D03*
%TO.P,A1,26*%
%TO.N,ROT_A*%
X178840000Y-108240000D03*
%TO.P,A1,11*%
%TO.N,ROT_BTN*%
X163600000Y-93000000D03*
%TO.P,A1,27*%
%TO.N,5V_MCU*%
X181380000Y-108240000D03*
%TO.P,A1,12*%
%TO.N,N/C*%
X161060000Y-93000000D03*
%TO.P,A1,28*%
X183920000Y-108240000D03*
%TO.P,A1,13*%
%TO.N,Net-(A1-Pad13)*%
X158520000Y-93000000D03*
%TO.P,A1,29*%
%TO.N,GND*%
X186460000Y-108240000D03*
%TO.P,A1,14*%
%TO.N,AMP_SE*%
X155980000Y-93000000D03*
%TO.P,A1,30*%
%TO.N,N/C*%
X189000000Y-108240000D03*
%TO.P,A1,15*%
%TO.N,AMP_ACTIVE*%
X153440000Y-93000000D03*
%TO.P,A1,16*%
%TO.N,N/C*%
X153440000Y-108240000D03*
%TD*%
D29*
%TO.N,VOLUME*%
X123238818Y-104696818D03*
X119634000Y-102616000D03*
X121439990Y-79502000D03*
%TO.N,AMP_ACTIVE*%
X129286000Y-104394000D03*
X127508000Y-102074990D03*
%TO.N,BLUE*%
X119800000Y-120725000D03*
X116000000Y-117000000D03*
%TO.N,Net-(C11-Pad1)*%
X141600000Y-80000000D03*
%TO.N,Net-(C12-Pad1)*%
X141800000Y-83200000D03*
%TO.N,SHEAD2*%
X151000000Y-87300000D03*
X153677818Y-88277818D03*
%TO.N,SHEAD1*%
X150292892Y-88025000D03*
X152900000Y-89300000D03*
%TO.N,AMP_SE*%
X122200000Y-105900000D03*
X119600000Y-104400000D03*
%TD*%
D30*
%TO.N,GND*%
X90962770Y-106113401D02*
X92107770Y-104968401D01*
X90962770Y-106951599D02*
X90962770Y-106113401D01*
X92107770Y-104130203D02*
X93252770Y-102985203D01*
X92107770Y-104968401D02*
X92107770Y-104130203D01*
X97828401Y-99018806D02*
X97830000Y-99017207D01*
X95542770Y-99018806D02*
X97828401Y-99018806D01*
%TO.N,5V_TRICKLE*%
X148600000Y-120020000D02*
X139800000Y-128820000D01*
X157980000Y-120020000D02*
X148600000Y-120020000D01*
X136054989Y-132565011D02*
X139800000Y-128820000D01*
X117705011Y-132565011D02*
X136054989Y-132565011D01*
X116080000Y-130940000D02*
X117705011Y-132565011D01*
D31*
%TO.N,Net-(C1-Pad1)*%
X125730000Y-88230000D02*
X128420000Y-85540000D01*
X125730000Y-94488000D02*
X125730000Y-88230000D01*
%TO.N,Net-(C2-Pad1)*%
X135382000Y-87422000D02*
X133500000Y-85540000D01*
X135382000Y-94742000D02*
X135382000Y-87422000D01*
D30*
%TO.N,Net-(C7-Pad1)*%
X126200000Y-75800000D02*
X128420000Y-78020000D01*
X126200000Y-73000000D02*
X126200000Y-75800000D01*
%TO.N,RHEAD*%
X140249990Y-50449990D02*
X141500000Y-51700000D01*
X129213295Y-50449990D02*
X140249990Y-50449990D01*
X128524990Y-59875010D02*
X128524990Y-51138295D01*
X128524990Y-51138295D02*
X129213295Y-50449990D01*
X126300000Y-62100000D02*
X128524990Y-59875010D01*
X133300000Y-69100000D02*
X133300000Y-72300000D01*
X126300000Y-62100000D02*
X133300000Y-69100000D01*
D32*
%TO.N,RSPKR+*%
X118260000Y-65140000D02*
X121300000Y-62100000D01*
X118260000Y-78020000D02*
X118260000Y-65140000D01*
X121300000Y-55150000D02*
X124700000Y-51750000D01*
X121300000Y-62100000D02*
X121300000Y-55150000D01*
D30*
%TO.N,LHEAD*%
X141800000Y-62200000D02*
X145200000Y-58800000D01*
X137900000Y-62200000D02*
X141800000Y-62200000D01*
X145200000Y-52900000D02*
X144000000Y-51700000D01*
X145200000Y-58800000D02*
X145200000Y-52900000D01*
D32*
%TO.N,LSPKR+*%
X135199990Y-64499990D02*
X132900000Y-62200000D01*
X135199990Y-74639990D02*
X135199990Y-64499990D01*
X138580000Y-78020000D02*
X135199990Y-74639990D01*
X132900000Y-54950000D02*
X129700000Y-51750000D01*
X132900000Y-62200000D02*
X132900000Y-54950000D01*
D30*
%TO.N,VOLUME*%
X142220999Y-105119001D02*
X126782999Y-105119001D01*
X126782999Y-105119001D02*
X126746000Y-105156000D01*
X146090000Y-101250000D02*
X142220999Y-105119001D01*
X123698000Y-105156000D02*
X123238818Y-104696818D01*
X126746000Y-105156000D02*
X123698000Y-105156000D01*
X119634000Y-102616000D02*
X117094000Y-100076000D01*
X117094000Y-83847990D02*
X121439990Y-79502000D01*
X117094000Y-100076000D02*
X117094000Y-83847990D01*
D32*
%TO.N,LSPKR-*%
X142650001Y-77665063D02*
X135900000Y-70915062D01*
X142650001Y-83608001D02*
X142650001Y-77665063D01*
X140718002Y-85540000D02*
X142650001Y-83608001D01*
X141120000Y-85540000D02*
X140718002Y-85540000D01*
X135900000Y-55450000D02*
X132200000Y-51750000D01*
X135900000Y-70915062D02*
X135900000Y-55450000D01*
%TO.N,RSPKR-*%
X122289990Y-63964008D02*
X127200000Y-59053998D01*
X122289990Y-84050010D02*
X122289990Y-63964008D01*
X127200000Y-59053998D02*
X127200000Y-51750000D01*
X120800000Y-85540000D02*
X122289990Y-84050010D01*
D30*
%TO.N,LIN*%
X171560000Y-60840000D02*
X171920000Y-60840000D01*
X147600000Y-84800000D02*
X171560000Y-60840000D01*
%TO.N,RIN*%
X147600000Y-78200000D02*
X147600000Y-73200000D01*
X159960000Y-60840000D02*
X166840000Y-60840000D01*
X147600000Y-73200000D02*
X159960000Y-60840000D01*
%TO.N,LPIACT*%
X124875001Y-132115001D02*
X123700000Y-130940000D01*
X147644003Y-118894999D02*
X134424001Y-132115001D01*
X159394999Y-118894999D02*
X147644003Y-118894999D01*
X134424001Y-132115001D02*
X124875001Y-132115001D01*
X160520000Y-120020000D02*
X159394999Y-118894999D01*
X123700000Y-130940000D02*
X121160000Y-130940000D01*
X160520000Y-120020000D02*
X163060000Y-120020000D01*
%TO.N,GREEN_LED*%
X199000000Y-70850000D02*
X191500046Y-78349954D01*
X199000000Y-70000000D02*
X199000000Y-70850000D01*
X191500045Y-82932005D02*
X186982040Y-87450010D01*
X191500046Y-78349954D02*
X191500045Y-82932005D01*
X184389990Y-87450010D02*
X178840000Y-93000000D01*
X186982040Y-87450010D02*
X184389990Y-87450010D01*
%TO.N,AMBER_LED*%
X191050036Y-82745604D02*
X186795640Y-87000000D01*
X191050037Y-75449963D02*
X191050036Y-82745604D01*
X199000000Y-67500000D02*
X191050037Y-75449963D01*
X182300000Y-87000000D02*
X176300000Y-93000000D01*
X186795640Y-87000000D02*
X182300000Y-87000000D01*
%TO.N,POWER_BTN*%
X190600027Y-73399973D02*
X190600027Y-82559203D01*
X190600027Y-82559203D02*
X186659230Y-86500000D01*
X199000000Y-65000000D02*
X190600027Y-73399973D01*
X180260000Y-86500000D02*
X173760000Y-93000000D01*
X186659230Y-86500000D02*
X180260000Y-86500000D01*
%TO.N,IVAD_SDA*%
X149000000Y-126400000D02*
X149200000Y-126400000D01*
X167825001Y-122574999D02*
X171220000Y-119180000D01*
X153025001Y-122574999D02*
X167825001Y-122574999D01*
X171220000Y-119180000D02*
X171220000Y-108240000D01*
X149200000Y-126400000D02*
X153025001Y-122574999D01*
X148963590Y-126400000D02*
X149200000Y-126400000D01*
X142134970Y-133465030D02*
X149200000Y-126400000D01*
X111786028Y-133465030D02*
X142134970Y-133465030D01*
X109824999Y-131504001D02*
X111786028Y-133465030D01*
X109824999Y-129575001D02*
X109824999Y-131504001D01*
X111000000Y-128400000D02*
X109824999Y-129575001D01*
%TO.N,ROT_A*%
X178840000Y-108240000D02*
X180800000Y-110200000D01*
X180800000Y-110200000D02*
X189800000Y-110200000D01*
X199000000Y-101000000D02*
X199000000Y-90000000D01*
X189800000Y-110200000D02*
X199000000Y-101000000D01*
%TO.N,IVAD_SCL*%
X113075021Y-133015021D02*
X137744979Y-133015021D01*
X137744979Y-133015021D02*
X144200000Y-126560000D01*
X111000000Y-130940000D02*
X113075021Y-133015021D01*
X148635011Y-122124989D02*
X167638601Y-122124989D01*
X144200000Y-126560000D02*
X148635011Y-122124989D01*
X170679999Y-107114999D02*
X172634999Y-107114999D01*
X170094999Y-107699999D02*
X170679999Y-107114999D01*
X170094999Y-119668591D02*
X170094999Y-107699999D01*
X172634999Y-107114999D02*
X173760000Y-108240000D01*
X167638601Y-122124989D02*
X170094999Y-119668591D01*
%TO.N,ROT_B*%
X176300000Y-108240000D02*
X179060000Y-111000000D01*
X179060000Y-111000000D02*
X190400000Y-111000000D01*
X190400000Y-111000000D02*
X201200000Y-100200000D01*
X201200000Y-87200000D02*
X199000000Y-85000000D01*
X201200000Y-100200000D02*
X201200000Y-87200000D01*
%TO.N,AMP_ACTIVE*%
X153440000Y-93000000D02*
X153440000Y-94718000D01*
X151758000Y-96400000D02*
X147600000Y-96400000D01*
X153440000Y-94718000D02*
X151758000Y-96400000D01*
X139606000Y-104394000D02*
X129286000Y-104394000D01*
X147600000Y-96400000D02*
X139606000Y-104394000D01*
X132174990Y-79345010D02*
X133500000Y-78020000D01*
X130366829Y-79345010D02*
X132174990Y-79345010D01*
X124604999Y-85106840D02*
X130366829Y-79345010D01*
X124604999Y-99171989D02*
X124604999Y-85106840D01*
X127508000Y-102074990D02*
X124604999Y-99171989D01*
%TO.N,5V_MCU*%
X149040000Y-116400000D02*
X149200000Y-116240000D01*
X139800000Y-120800000D02*
X144200000Y-116400000D01*
X133600000Y-115000000D02*
X139800000Y-121200000D01*
X144200000Y-116400000D02*
X149040000Y-116400000D01*
X119000000Y-115000000D02*
X133600000Y-115000000D01*
X139800000Y-121200000D02*
X139800000Y-120800000D01*
X178834999Y-104634999D02*
X179800000Y-105600000D01*
X162165001Y-104634999D02*
X178834999Y-104634999D01*
X161100000Y-105700000D02*
X162165001Y-104634999D01*
X181380000Y-107180000D02*
X181380000Y-108240000D01*
X179800000Y-105600000D02*
X181380000Y-107180000D01*
X150500000Y-105700000D02*
X161100000Y-105700000D01*
X149200000Y-107000000D02*
X150500000Y-105700000D01*
X149200000Y-116240000D02*
X149200000Y-107000000D01*
D31*
%TO.N,5V_PSU*%
X105750000Y-59850000D02*
X97080000Y-51180000D01*
X111380000Y-107380000D02*
X105750000Y-101750000D01*
X119000000Y-107380000D02*
X111380000Y-107380000D01*
X105750000Y-101750000D02*
X105750000Y-59850000D01*
X120800000Y-105580000D02*
X119000000Y-107380000D01*
X123340000Y-85540000D02*
X123340000Y-89400000D01*
X120800000Y-99560000D02*
X120800000Y-105580000D01*
X123340000Y-89400000D02*
X120800000Y-91940000D01*
X120800000Y-91940000D02*
X120800000Y-99560000D01*
X158400000Y-82000000D02*
X166000000Y-82000000D01*
X166000000Y-82000000D02*
X187160000Y-60840000D01*
X119000000Y-107380000D02*
X123205010Y-103174990D01*
X139850000Y-89916000D02*
X141478000Y-89916000D01*
X145981000Y-94419000D02*
X158400000Y-82000000D01*
X141478000Y-89916000D02*
X145981000Y-94419000D01*
X137225010Y-103174990D02*
X145981000Y-94419000D01*
X138580000Y-88646000D02*
X139850000Y-89916000D01*
X138580000Y-85540000D02*
X138580000Y-88646000D01*
X129590990Y-103174990D02*
X129590990Y-94538990D01*
X123205010Y-103174990D02*
X129590990Y-103174990D01*
X129590990Y-103174990D02*
X137225010Y-103174990D01*
X129590990Y-94538990D02*
X128778000Y-93726000D01*
X128778000Y-91948000D02*
X130810000Y-89916000D01*
X128778000Y-93726000D02*
X128778000Y-91948000D01*
X130810000Y-85690000D02*
X130960000Y-85540000D01*
X130810000Y-89916000D02*
X130810000Y-85690000D01*
D30*
%TO.N,RED*%
X93250000Y-106950000D02*
X106300000Y-120000000D01*
X122920000Y-120000000D02*
X131320000Y-128400000D01*
X106300000Y-120000000D02*
X122920000Y-120000000D01*
%TO.N,GREEN*%
X94395000Y-104966802D02*
X107428198Y-118000000D01*
X129955001Y-129575001D02*
X128780000Y-128400000D01*
X132495001Y-128964001D02*
X131884001Y-129575001D01*
X131884001Y-129575001D02*
X129955001Y-129575001D01*
X132495001Y-127835999D02*
X132495001Y-128964001D01*
X107428198Y-118000000D02*
X122659002Y-118000000D01*
X123829501Y-119170499D02*
X132495001Y-127835999D01*
X122659002Y-118000000D02*
X123829501Y-119170499D01*
X123659002Y-119000000D02*
X123829501Y-119170499D01*
%TO.N,BLUE*%
X95540000Y-102983604D02*
X108556396Y-116000000D01*
X126240000Y-127165000D02*
X119800000Y-120725000D01*
X126240000Y-128400000D02*
X126240000Y-127165000D01*
X109556396Y-117000000D02*
X108556396Y-116000000D01*
X116000000Y-117000000D02*
X109556396Y-117000000D01*
%TO.N,V_SYNC*%
X117300000Y-122000000D02*
X123700000Y-128400000D01*
X101000000Y-122000000D02*
X117300000Y-122000000D01*
X86000000Y-107000000D02*
X101000000Y-122000000D01*
X89979595Y-99020405D02*
X86000000Y-103000000D01*
X86000000Y-103000000D02*
X86000000Y-107000000D01*
X93255539Y-99020405D02*
X89979595Y-99020405D01*
%TO.N,H_SYNC*%
X92110539Y-101003604D02*
X89996396Y-101003604D01*
X89996396Y-101003604D02*
X88000000Y-103000000D01*
X88000000Y-103000000D02*
X88000000Y-107000000D01*
X88000000Y-107000000D02*
X101000000Y-120000000D01*
X124264001Y-129575001D02*
X122335001Y-129575001D01*
X124875001Y-128964001D02*
X124264001Y-129575001D01*
X124875001Y-127835999D02*
X124875001Y-128964001D01*
X122335001Y-129575001D02*
X121160000Y-128400000D01*
X117489012Y-120450010D02*
X124875001Y-127835999D01*
X101450010Y-120450010D02*
X117489012Y-120450010D01*
X101000000Y-120000000D02*
X101450010Y-120450010D01*
%TO.N,PROT*%
X116994989Y-126774989D02*
X118620000Y-128400000D01*
X84000000Y-120363590D02*
X85186400Y-121549990D01*
X85186400Y-121549990D02*
X95186401Y-121549991D01*
X84000000Y-103000000D02*
X84000000Y-120363590D01*
X100411399Y-126774989D02*
X116994989Y-126774989D01*
X95186401Y-121549991D02*
X100411399Y-126774989D01*
X95574999Y-69074999D02*
X95574999Y-87925001D01*
X95574999Y-69074999D02*
X95574999Y-69277587D01*
X95574999Y-87925001D02*
X86500000Y-97000000D01*
X86500000Y-100500000D02*
X84000000Y-103000000D01*
X86500000Y-97000000D02*
X86500000Y-100500000D01*
X95574999Y-60185001D02*
X97080000Y-58680000D01*
X95574999Y-69074999D02*
X95574999Y-60185001D01*
%TO.N,DCO*%
X85000000Y-122000000D02*
X95000000Y-122000000D01*
X95000000Y-122000000D02*
X100224999Y-127224999D01*
X83000000Y-120000000D02*
X85000000Y-122000000D01*
X83000000Y-103000000D02*
X83000000Y-120000000D01*
X85500000Y-96000000D02*
X85500000Y-100500000D01*
X94000000Y-87500000D02*
X85500000Y-96000000D01*
X100224999Y-127224999D02*
X114904999Y-127224999D01*
X85500000Y-100500000D02*
X83000000Y-103000000D01*
X114904999Y-127224999D02*
X116080000Y-128400000D01*
X94000000Y-59260000D02*
X97080000Y-56180000D01*
X94000000Y-87500000D02*
X94000000Y-59260000D01*
%TO.N,I2S_DIN*%
X165500000Y-51750000D02*
X169750000Y-56000000D01*
X172160000Y-56000000D02*
X177000000Y-60840000D01*
X169750000Y-56000000D02*
X172160000Y-56000000D01*
%TO.N,I2S_BCLK*%
X171370000Y-57750000D02*
X174460000Y-60840000D01*
X169000000Y-57750000D02*
X171370000Y-57750000D01*
X163000000Y-51750000D02*
X169000000Y-57750000D01*
%TO.N,I2S_WSEL*%
X160500000Y-51750000D02*
X160500000Y-50000000D01*
X160500000Y-50000000D02*
X161500000Y-49000000D01*
X161500000Y-49000000D02*
X173750000Y-49000000D01*
X179540000Y-54790000D02*
X179540000Y-60840000D01*
X173750000Y-49000000D02*
X179540000Y-54790000D01*
%TO.N,POWER_EN*%
X161060000Y-110400000D02*
X163060000Y-112400000D01*
X161060000Y-108240000D02*
X161060000Y-110400000D01*
%TO.N,Net-(R9-Pad2)*%
X159394999Y-111274999D02*
X160520000Y-112400000D01*
X155285001Y-111274999D02*
X159394999Y-111274999D01*
X153960000Y-112600000D02*
X155285001Y-111274999D01*
%TO.N,Net-(A1-Pad13)*%
X158400000Y-93120000D02*
X158520000Y-93000000D01*
X159319999Y-98180001D02*
X156250000Y-101250000D01*
X159319999Y-93799999D02*
X159319999Y-98180001D01*
X158520000Y-93000000D02*
X159319999Y-93799999D01*
%TO.N,Net-(C11-Pad1)*%
X125880000Y-85540000D02*
X125880000Y-84720000D01*
X125880000Y-84720000D02*
X127200000Y-83400000D01*
X138200000Y-83400000D02*
X141600000Y-80000000D01*
X127200000Y-83400000D02*
X138200000Y-83400000D01*
%TO.N,Net-(C12-Pad1)*%
X137729990Y-83850010D02*
X136040000Y-85540000D01*
X141149990Y-83850010D02*
X137729990Y-83850010D01*
X141800000Y-83200000D02*
X141149990Y-83850010D01*
%TO.N,BTN_USER*%
X181500000Y-51750000D02*
X189250000Y-59500000D01*
X189250000Y-59500000D02*
X189250000Y-82000000D01*
X189250000Y-82000000D02*
X186250000Y-85000000D01*
X174140000Y-85000000D02*
X166140000Y-93000000D01*
X186250000Y-85000000D02*
X174140000Y-85000000D01*
%TO.N,BTN_OSD*%
X189700010Y-59313600D02*
X189700009Y-82186401D01*
X189700009Y-82186401D02*
X186386410Y-85500000D01*
X184000000Y-53613590D02*
X189700010Y-59313600D01*
X184000000Y-51750000D02*
X184000000Y-53613590D01*
X176180000Y-85500000D02*
X168680000Y-93000000D01*
X186386410Y-85500000D02*
X176180000Y-85500000D01*
%TO.N,BTN_RESET*%
X190150018Y-55400018D02*
X190150018Y-82372802D01*
X190150018Y-82372802D02*
X186522820Y-86000000D01*
X186500000Y-51750000D02*
X190150018Y-55400018D01*
X178220000Y-86000000D02*
X171220000Y-93000000D01*
X186522820Y-86000000D02*
X178220000Y-86000000D01*
%TO.N,ROT_BTN*%
X163600000Y-93000000D02*
X170300000Y-99700000D01*
X170300000Y-99700000D02*
X189000000Y-99700000D01*
X197699990Y-83800010D02*
X199000000Y-82500000D01*
X197699990Y-91000010D02*
X197699990Y-83800010D01*
X189000000Y-99700000D02*
X197699990Y-91000010D01*
%TO.N,SHEAD2*%
X183240000Y-95440000D02*
X183300000Y-95500000D01*
X179800000Y-95440000D02*
X183240000Y-95440000D01*
X145914998Y-87300000D02*
X151000000Y-87300000D01*
X144474999Y-85860001D02*
X145914998Y-87300000D01*
X149000000Y-51700000D02*
X149000000Y-71163590D01*
X149000000Y-71163590D02*
X144474999Y-75688591D01*
X144474999Y-75688591D02*
X144474999Y-85860001D01*
X165014999Y-93540001D02*
X166914998Y-95440000D01*
X165014999Y-92749997D02*
X165014999Y-93540001D01*
X160542820Y-88277818D02*
X165014999Y-92749997D01*
X166914998Y-95440000D02*
X179800000Y-95440000D01*
X153677818Y-88277818D02*
X160542820Y-88277818D01*
%TO.N,SHEAD1*%
X161160000Y-95600000D02*
X161100000Y-95540000D01*
X165200000Y-95600000D02*
X161160000Y-95600000D01*
X146500000Y-52925000D02*
X147775000Y-54200000D01*
X146500000Y-51700000D02*
X146500000Y-52925000D01*
X144024990Y-86046402D02*
X146003588Y-88025000D01*
X146003588Y-88025000D02*
X150292892Y-88025000D01*
X144024989Y-75502191D02*
X144024990Y-86046402D01*
X147775000Y-71752180D02*
X144024989Y-75502191D01*
X147775000Y-54200000D02*
X147775000Y-71752180D01*
X159934999Y-94374999D02*
X161100000Y-95540000D01*
X159934999Y-92749997D02*
X159934999Y-94374999D01*
X156485002Y-89300000D02*
X159934999Y-92749997D01*
X152900000Y-89300000D02*
X156485002Y-89300000D01*
%TO.N,~{HEAD_DETECT1}*%
X163600000Y-106460000D02*
X164300000Y-105760000D01*
X163600000Y-108240000D02*
X163600000Y-106460000D01*
%TO.N,~{HEAD_DETECT2}*%
X182505001Y-106454999D02*
X183300000Y-105660000D01*
X181920001Y-109365001D02*
X182505001Y-108780001D01*
X180839999Y-109365001D02*
X181920001Y-109365001D01*
X180254999Y-108780001D02*
X180839999Y-109365001D01*
X180254999Y-107720001D02*
X180254999Y-108780001D01*
X179199987Y-106664989D02*
X180254999Y-107720001D01*
X167715011Y-106664989D02*
X179199987Y-106664989D01*
X182505001Y-108780001D02*
X182505001Y-106454999D01*
X166140000Y-108240000D02*
X167715011Y-106664989D01*
%TO.N,AMP_SE*%
X121140000Y-78020000D02*
X120800000Y-78020000D01*
X119600000Y-104400000D02*
X116200000Y-101000000D01*
X120800000Y-78300000D02*
X120800000Y-78020000D01*
X116200000Y-82620000D02*
X120800000Y-78020000D01*
X116200000Y-101000000D02*
X116200000Y-82620000D01*
X122781001Y-106481001D02*
X122200000Y-105900000D01*
X147934001Y-106481001D02*
X122781001Y-106481001D01*
X155980000Y-98435002D02*
X147934001Y-106481001D01*
X155980000Y-93000000D02*
X155980000Y-98435002D01*
%TD*%
M02*
