%TF.GenerationSoftware,KiCad,Pcbnew,(5.1.10)-1*%
%TF.CreationDate,2021-06-24T18:33:19-07:00*%
%TF.ProjectId,MiSTer-G3,4d695354-6572-42d4-9733-2e6b69636164,rev?*%
%TF.SameCoordinates,Original*%
%TF.FileFunction,Legend,Top*%
%TF.FilePolarity,Positive*%
%FSLAX46Y46*%
G04 Gerber Fmt 4.6, Leading zero omitted, Abs format (unit mm)*
G04 Created by KiCad (PCBNEW (5.1.10)-1) date 2021-06-24 18:33:19*
%MOMM*%
%LPD*%
G01*
G04 APERTURE LIST*
%ADD10C,0.300000*%
%ADD11C,0.500000*%
%ADD12C,0.150000*%
%ADD13C,0.120000*%
G04 APERTURE END LIST*
D10*
X175071428Y-98178571D02*
X175071428Y-99250000D01*
X175000000Y-99464285D01*
X174857142Y-99607142D01*
X174642857Y-99678571D01*
X174500000Y-99678571D01*
X176642857Y-99535714D02*
X176571428Y-99607142D01*
X176357142Y-99678571D01*
X176214285Y-99678571D01*
X176000000Y-99607142D01*
X175857142Y-99464285D01*
X175785714Y-99321428D01*
X175714285Y-99035714D01*
X175714285Y-98821428D01*
X175785714Y-98535714D01*
X175857142Y-98392857D01*
X176000000Y-98250000D01*
X176214285Y-98178571D01*
X176357142Y-98178571D01*
X176571428Y-98250000D01*
X176642857Y-98321428D01*
X178000000Y-99678571D02*
X177285714Y-99678571D01*
X177285714Y-98178571D01*
X178928571Y-98178571D02*
X178928571Y-99250000D01*
X178857142Y-99464285D01*
X178714285Y-99607142D01*
X178500000Y-99678571D01*
X178357142Y-99678571D01*
X180500000Y-99535714D02*
X180428571Y-99607142D01*
X180214285Y-99678571D01*
X180071428Y-99678571D01*
X179857142Y-99607142D01*
X179714285Y-99464285D01*
X179642857Y-99321428D01*
X179571428Y-99035714D01*
X179571428Y-98821428D01*
X179642857Y-98535714D01*
X179714285Y-98392857D01*
X179857142Y-98250000D01*
X180071428Y-98178571D01*
X180214285Y-98178571D01*
X180428571Y-98250000D01*
X180500000Y-98321428D01*
X181857142Y-99678571D02*
X181142857Y-99678571D01*
X181142857Y-98178571D01*
X182785714Y-98178571D02*
X182785714Y-99250000D01*
X182714285Y-99464285D01*
X182571428Y-99607142D01*
X182357142Y-99678571D01*
X182214285Y-99678571D01*
X184357142Y-99535714D02*
X184285714Y-99607142D01*
X184071428Y-99678571D01*
X183928571Y-99678571D01*
X183714285Y-99607142D01*
X183571428Y-99464285D01*
X183500000Y-99321428D01*
X183428571Y-99035714D01*
X183428571Y-98821428D01*
X183500000Y-98535714D01*
X183571428Y-98392857D01*
X183714285Y-98250000D01*
X183928571Y-98178571D01*
X184071428Y-98178571D01*
X184285714Y-98250000D01*
X184357142Y-98321428D01*
X185714285Y-99678571D02*
X185000000Y-99678571D01*
X185000000Y-98178571D01*
X186642857Y-98178571D02*
X186642857Y-99250000D01*
X186571428Y-99464285D01*
X186428571Y-99607142D01*
X186214285Y-99678571D01*
X186071428Y-99678571D01*
X188214285Y-99535714D02*
X188142857Y-99607142D01*
X187928571Y-99678571D01*
X187785714Y-99678571D01*
X187571428Y-99607142D01*
X187428571Y-99464285D01*
X187357142Y-99321428D01*
X187285714Y-99035714D01*
X187285714Y-98821428D01*
X187357142Y-98535714D01*
X187428571Y-98392857D01*
X187571428Y-98250000D01*
X187785714Y-98178571D01*
X187928571Y-98178571D01*
X188142857Y-98250000D01*
X188214285Y-98321428D01*
X189571428Y-99678571D02*
X188857142Y-99678571D01*
X188857142Y-98178571D01*
X102428571Y-119928571D02*
X102785714Y-120928571D01*
X103142857Y-119928571D01*
X104500000Y-120928571D02*
X103642857Y-120928571D01*
X104071428Y-120928571D02*
X104071428Y-119428571D01*
X103928571Y-119642857D01*
X103785714Y-119785714D01*
X103642857Y-119857142D01*
D11*
X98676636Y-113654761D02*
X98926636Y-111654761D01*
X99414732Y-113083333D01*
X100259970Y-111654761D01*
X100009970Y-113654761D01*
X101248065Y-113654761D02*
X101069494Y-113559523D01*
X100986160Y-113464285D01*
X100914732Y-113273809D01*
X100986160Y-112702380D01*
X101105208Y-112511904D01*
X101212351Y-112416666D01*
X101414732Y-112321428D01*
X101700446Y-112321428D01*
X101879017Y-112416666D01*
X101962351Y-112511904D01*
X102033779Y-112702380D01*
X101962351Y-113273809D01*
X101843303Y-113464285D01*
X101736160Y-113559523D01*
X101533779Y-113654761D01*
X101248065Y-113654761D01*
X102771875Y-113654761D02*
X102938541Y-112321428D01*
X102890922Y-112702380D02*
X103009970Y-112511904D01*
X103117113Y-112416666D01*
X103319494Y-112321428D01*
X103509970Y-112321428D01*
X104879017Y-113559523D02*
X104676636Y-113654761D01*
X104295684Y-113654761D01*
X104117113Y-113559523D01*
X104033779Y-113464285D01*
X103962351Y-113273809D01*
X104033779Y-112702380D01*
X104152827Y-112511904D01*
X104259970Y-112416666D01*
X104462351Y-112321428D01*
X104843303Y-112321428D01*
X105021875Y-112416666D01*
X105724255Y-113654761D02*
X105974255Y-111654761D01*
X106581398Y-113654761D02*
X106712351Y-112607142D01*
X106640922Y-112416666D01*
X106462351Y-112321428D01*
X106176636Y-112321428D01*
X105974255Y-112416666D01*
X105867113Y-112511904D01*
X107819494Y-113654761D02*
X107640922Y-113559523D01*
X107557589Y-113464285D01*
X107486160Y-113273809D01*
X107557589Y-112702380D01*
X107676636Y-112511904D01*
X107783779Y-112416666D01*
X107986160Y-112321428D01*
X108271875Y-112321428D01*
X108450446Y-112416666D01*
X108533779Y-112511904D01*
X108605208Y-112702380D01*
X108533779Y-113273809D01*
X108414732Y-113464285D01*
X108307589Y-113559523D01*
X108105208Y-113654761D01*
X107819494Y-113654761D01*
X99367113Y-116964285D02*
X99259970Y-117059523D01*
X98962351Y-117154761D01*
X98771875Y-117154761D01*
X98498065Y-117059523D01*
X98331398Y-116869047D01*
X98259970Y-116678571D01*
X98212351Y-116297619D01*
X98248065Y-116011904D01*
X98390922Y-115630952D01*
X98509970Y-115440476D01*
X98724255Y-115250000D01*
X99021875Y-115154761D01*
X99212351Y-115154761D01*
X99486160Y-115250000D01*
X99569494Y-115345238D01*
X100200446Y-117154761D02*
X100367113Y-115821428D01*
X100450446Y-115154761D02*
X100343303Y-115250000D01*
X100426636Y-115345238D01*
X100533779Y-115250000D01*
X100450446Y-115154761D01*
X100426636Y-115345238D01*
X101152827Y-117154761D02*
X101319494Y-115821428D01*
X101271875Y-116202380D02*
X101390922Y-116011904D01*
X101498065Y-115916666D01*
X101700446Y-115821428D01*
X101890922Y-115821428D01*
X103259970Y-117059523D02*
X103057589Y-117154761D01*
X102676636Y-117154761D01*
X102498065Y-117059523D01*
X102414732Y-116964285D01*
X102343303Y-116773809D01*
X102414732Y-116202380D01*
X102533779Y-116011904D01*
X102640922Y-115916666D01*
X102843303Y-115821428D01*
X103224255Y-115821428D01*
X103402827Y-115916666D01*
X105129017Y-115821428D02*
X104962351Y-117154761D01*
X104271875Y-115821428D02*
X104140922Y-116869047D01*
X104212351Y-117059523D01*
X104390922Y-117154761D01*
X104676636Y-117154761D01*
X104879017Y-117059523D01*
X104986160Y-116964285D01*
X105914732Y-117154761D02*
X106081398Y-115821428D01*
X106164732Y-115154761D02*
X106057589Y-115250000D01*
X106140922Y-115345238D01*
X106248065Y-115250000D01*
X106164732Y-115154761D01*
X106140922Y-115345238D01*
X106748065Y-115821428D02*
X107509970Y-115821428D01*
X107117113Y-115154761D02*
X106902827Y-116869047D01*
X106974255Y-117059523D01*
X107152827Y-117154761D01*
X107343303Y-117154761D01*
X108295684Y-117154761D02*
X108117113Y-117059523D01*
X108033779Y-116964285D01*
X107962351Y-116773809D01*
X108033779Y-116202380D01*
X108152827Y-116011904D01*
X108259970Y-115916666D01*
X108462351Y-115821428D01*
X108748065Y-115821428D01*
X108926636Y-115916666D01*
X109009970Y-116011904D01*
X109081398Y-116202380D01*
X109009970Y-116773809D01*
X108890922Y-116964285D01*
X108783779Y-117059523D01*
X108581398Y-117154761D01*
X108295684Y-117154761D01*
D12*
X124202380Y-134928571D02*
X124202380Y-135404761D01*
X123202380Y-135404761D01*
X124202380Y-134595238D02*
X123202380Y-134595238D01*
X123202380Y-134214285D01*
X123250000Y-134119047D01*
X123297619Y-134071428D01*
X123392857Y-134023809D01*
X123535714Y-134023809D01*
X123630952Y-134071428D01*
X123678571Y-134119047D01*
X123726190Y-134214285D01*
X123726190Y-134595238D01*
X124202380Y-133595238D02*
X123202380Y-133595238D01*
X121702380Y-135761904D02*
X120702380Y-135761904D01*
X120702380Y-135380952D01*
X120750000Y-135285714D01*
X120797619Y-135238095D01*
X120892857Y-135190476D01*
X121035714Y-135190476D01*
X121130952Y-135238095D01*
X121178571Y-135285714D01*
X121226190Y-135380952D01*
X121226190Y-135761904D01*
X121178571Y-134428571D02*
X121178571Y-134761904D01*
X121702380Y-134761904D02*
X120702380Y-134761904D01*
X120702380Y-134285714D01*
X120702380Y-134000000D02*
X121702380Y-133761904D01*
X120988095Y-133571428D01*
X121702380Y-133380952D01*
X120702380Y-133142857D01*
X115452380Y-134190476D02*
X115452380Y-134666666D01*
X115928571Y-134714285D01*
X115880952Y-134666666D01*
X115833333Y-134571428D01*
X115833333Y-134333333D01*
X115880952Y-134238095D01*
X115928571Y-134190476D01*
X116023809Y-134142857D01*
X116261904Y-134142857D01*
X116357142Y-134190476D01*
X116404761Y-134238095D01*
X116452380Y-134333333D01*
X116452380Y-134571428D01*
X116404761Y-134666666D01*
X116357142Y-134714285D01*
X115452380Y-133857142D02*
X116452380Y-133523809D01*
X115452380Y-133190476D01*
X131702380Y-125392857D02*
X131226190Y-125726190D01*
X131702380Y-125964285D02*
X130702380Y-125964285D01*
X130702380Y-125583333D01*
X130750000Y-125488095D01*
X130797619Y-125440476D01*
X130892857Y-125392857D01*
X131035714Y-125392857D01*
X131130952Y-125440476D01*
X131178571Y-125488095D01*
X131226190Y-125583333D01*
X131226190Y-125964285D01*
X131178571Y-124964285D02*
X131178571Y-124630952D01*
X131702380Y-124488095D02*
X131702380Y-124964285D01*
X130702380Y-124964285D01*
X130702380Y-124488095D01*
X131702380Y-124059523D02*
X130702380Y-124059523D01*
X130702380Y-123821428D01*
X130750000Y-123678571D01*
X130845238Y-123583333D01*
X130940476Y-123535714D01*
X131130952Y-123488095D01*
X131273809Y-123488095D01*
X131464285Y-123535714D01*
X131559523Y-123583333D01*
X131654761Y-123678571D01*
X131702380Y-123821428D01*
X131702380Y-124059523D01*
X128250000Y-125416666D02*
X128202380Y-125511904D01*
X128202380Y-125654761D01*
X128250000Y-125797619D01*
X128345238Y-125892857D01*
X128440476Y-125940476D01*
X128630952Y-125988095D01*
X128773809Y-125988095D01*
X128964285Y-125940476D01*
X129059523Y-125892857D01*
X129154761Y-125797619D01*
X129202380Y-125654761D01*
X129202380Y-125559523D01*
X129154761Y-125416666D01*
X129107142Y-125369047D01*
X128773809Y-125369047D01*
X128773809Y-125559523D01*
X129202380Y-124369047D02*
X128726190Y-124702380D01*
X129202380Y-124940476D02*
X128202380Y-124940476D01*
X128202380Y-124559523D01*
X128250000Y-124464285D01*
X128297619Y-124416666D01*
X128392857Y-124369047D01*
X128535714Y-124369047D01*
X128630952Y-124416666D01*
X128678571Y-124464285D01*
X128726190Y-124559523D01*
X128726190Y-124940476D01*
X128678571Y-123940476D02*
X128678571Y-123607142D01*
X129202380Y-123464285D02*
X129202380Y-123940476D01*
X128202380Y-123940476D01*
X128202380Y-123464285D01*
X128678571Y-123035714D02*
X128678571Y-122702380D01*
X129202380Y-122559523D02*
X129202380Y-123035714D01*
X128202380Y-123035714D01*
X128202380Y-122559523D01*
X129202380Y-122130952D02*
X128202380Y-122130952D01*
X129202380Y-121559523D01*
X128202380Y-121559523D01*
X126178571Y-125559523D02*
X126226190Y-125416666D01*
X126273809Y-125369047D01*
X126369047Y-125321428D01*
X126511904Y-125321428D01*
X126607142Y-125369047D01*
X126654761Y-125416666D01*
X126702380Y-125511904D01*
X126702380Y-125892857D01*
X125702380Y-125892857D01*
X125702380Y-125559523D01*
X125750000Y-125464285D01*
X125797619Y-125416666D01*
X125892857Y-125369047D01*
X125988095Y-125369047D01*
X126083333Y-125416666D01*
X126130952Y-125464285D01*
X126178571Y-125559523D01*
X126178571Y-125892857D01*
X126702380Y-124416666D02*
X126702380Y-124892857D01*
X125702380Y-124892857D01*
X125702380Y-124083333D02*
X126511904Y-124083333D01*
X126607142Y-124035714D01*
X126654761Y-123988095D01*
X126702380Y-123892857D01*
X126702380Y-123702380D01*
X126654761Y-123607142D01*
X126607142Y-123559523D01*
X126511904Y-123511904D01*
X125702380Y-123511904D01*
X126178571Y-123035714D02*
X126178571Y-122702380D01*
X126702380Y-122559523D02*
X126702380Y-123035714D01*
X125702380Y-123035714D01*
X125702380Y-122559523D01*
X123202380Y-126142857D02*
X124202380Y-125809523D01*
X123202380Y-125476190D01*
X124297619Y-125380952D02*
X124297619Y-124619047D01*
X124154761Y-124428571D02*
X124202380Y-124285714D01*
X124202380Y-124047619D01*
X124154761Y-123952380D01*
X124107142Y-123904761D01*
X124011904Y-123857142D01*
X123916666Y-123857142D01*
X123821428Y-123904761D01*
X123773809Y-123952380D01*
X123726190Y-124047619D01*
X123678571Y-124238095D01*
X123630952Y-124333333D01*
X123583333Y-124380952D01*
X123488095Y-124428571D01*
X123392857Y-124428571D01*
X123297619Y-124380952D01*
X123250000Y-124333333D01*
X123202380Y-124238095D01*
X123202380Y-124000000D01*
X123250000Y-123857142D01*
X123726190Y-123238095D02*
X124202380Y-123238095D01*
X123202380Y-123571428D02*
X123726190Y-123238095D01*
X123202380Y-122904761D01*
X124202380Y-122571428D02*
X123202380Y-122571428D01*
X124202380Y-122000000D01*
X123202380Y-122000000D01*
X124107142Y-120952380D02*
X124154761Y-121000000D01*
X124202380Y-121142857D01*
X124202380Y-121238095D01*
X124154761Y-121380952D01*
X124059523Y-121476190D01*
X123964285Y-121523809D01*
X123773809Y-121571428D01*
X123630952Y-121571428D01*
X123440476Y-121523809D01*
X123345238Y-121476190D01*
X123250000Y-121380952D01*
X123202380Y-121238095D01*
X123202380Y-121142857D01*
X123250000Y-121000000D01*
X123297619Y-120952380D01*
X121702380Y-126095238D02*
X120702380Y-126095238D01*
X121178571Y-126095238D02*
X121178571Y-125523809D01*
X121702380Y-125523809D02*
X120702380Y-125523809D01*
X121797619Y-125285714D02*
X121797619Y-124523809D01*
X121654761Y-124333333D02*
X121702380Y-124190476D01*
X121702380Y-123952380D01*
X121654761Y-123857142D01*
X121607142Y-123809523D01*
X121511904Y-123761904D01*
X121416666Y-123761904D01*
X121321428Y-123809523D01*
X121273809Y-123857142D01*
X121226190Y-123952380D01*
X121178571Y-124142857D01*
X121130952Y-124238095D01*
X121083333Y-124285714D01*
X120988095Y-124333333D01*
X120892857Y-124333333D01*
X120797619Y-124285714D01*
X120750000Y-124238095D01*
X120702380Y-124142857D01*
X120702380Y-123904761D01*
X120750000Y-123761904D01*
X121226190Y-123142857D02*
X121702380Y-123142857D01*
X120702380Y-123476190D02*
X121226190Y-123142857D01*
X120702380Y-122809523D01*
X121702380Y-122476190D02*
X120702380Y-122476190D01*
X121702380Y-121904761D01*
X120702380Y-121904761D01*
X121607142Y-120857142D02*
X121654761Y-120904761D01*
X121702380Y-121047619D01*
X121702380Y-121142857D01*
X121654761Y-121285714D01*
X121559523Y-121380952D01*
X121464285Y-121428571D01*
X121273809Y-121476190D01*
X121130952Y-121476190D01*
X120940476Y-121428571D01*
X120845238Y-121380952D01*
X120750000Y-121285714D01*
X120702380Y-121142857D01*
X120702380Y-121047619D01*
X120750000Y-120904761D01*
X120797619Y-120857142D01*
X119202380Y-126166666D02*
X118202380Y-126166666D01*
X118202380Y-125785714D01*
X118250000Y-125690476D01*
X118297619Y-125642857D01*
X118392857Y-125595238D01*
X118535714Y-125595238D01*
X118630952Y-125642857D01*
X118678571Y-125690476D01*
X118726190Y-125785714D01*
X118726190Y-126166666D01*
X119202380Y-124595238D02*
X118726190Y-124928571D01*
X119202380Y-125166666D02*
X118202380Y-125166666D01*
X118202380Y-124785714D01*
X118250000Y-124690476D01*
X118297619Y-124642857D01*
X118392857Y-124595238D01*
X118535714Y-124595238D01*
X118630952Y-124642857D01*
X118678571Y-124690476D01*
X118726190Y-124785714D01*
X118726190Y-125166666D01*
X118202380Y-123976190D02*
X118202380Y-123785714D01*
X118250000Y-123690476D01*
X118345238Y-123595238D01*
X118535714Y-123547619D01*
X118869047Y-123547619D01*
X119059523Y-123595238D01*
X119154761Y-123690476D01*
X119202380Y-123785714D01*
X119202380Y-123976190D01*
X119154761Y-124071428D01*
X119059523Y-124166666D01*
X118869047Y-124214285D01*
X118535714Y-124214285D01*
X118345238Y-124166666D01*
X118250000Y-124071428D01*
X118202380Y-123976190D01*
X118202380Y-123261904D02*
X118202380Y-122690476D01*
X119202380Y-122976190D02*
X118202380Y-122976190D01*
X116452380Y-126035714D02*
X115452380Y-126035714D01*
X115452380Y-125797619D01*
X115500000Y-125654761D01*
X115595238Y-125559523D01*
X115690476Y-125511904D01*
X115880952Y-125464285D01*
X116023809Y-125464285D01*
X116214285Y-125511904D01*
X116309523Y-125559523D01*
X116404761Y-125654761D01*
X116452380Y-125797619D01*
X116452380Y-126035714D01*
X116357142Y-124464285D02*
X116404761Y-124511904D01*
X116452380Y-124654761D01*
X116452380Y-124750000D01*
X116404761Y-124892857D01*
X116309523Y-124988095D01*
X116214285Y-125035714D01*
X116023809Y-125083333D01*
X115880952Y-125083333D01*
X115690476Y-125035714D01*
X115595238Y-124988095D01*
X115500000Y-124892857D01*
X115452380Y-124750000D01*
X115452380Y-124654761D01*
X115500000Y-124511904D01*
X115547619Y-124464285D01*
X115452380Y-123845238D02*
X115452380Y-123654761D01*
X115500000Y-123559523D01*
X115595238Y-123464285D01*
X115785714Y-123416666D01*
X116119047Y-123416666D01*
X116309523Y-123464285D01*
X116404761Y-123559523D01*
X116452380Y-123654761D01*
X116452380Y-123845238D01*
X116404761Y-123940476D01*
X116309523Y-124035714D01*
X116119047Y-124083333D01*
X115785714Y-124083333D01*
X115595238Y-124035714D01*
X115500000Y-123940476D01*
X115452380Y-123845238D01*
X111404761Y-125964285D02*
X111452380Y-125821428D01*
X111452380Y-125583333D01*
X111404761Y-125488095D01*
X111357142Y-125440476D01*
X111261904Y-125392857D01*
X111166666Y-125392857D01*
X111071428Y-125440476D01*
X111023809Y-125488095D01*
X110976190Y-125583333D01*
X110928571Y-125773809D01*
X110880952Y-125869047D01*
X110833333Y-125916666D01*
X110738095Y-125964285D01*
X110642857Y-125964285D01*
X110547619Y-125916666D01*
X110500000Y-125869047D01*
X110452380Y-125773809D01*
X110452380Y-125535714D01*
X110500000Y-125392857D01*
X111452380Y-124964285D02*
X110452380Y-124964285D01*
X110452380Y-124726190D01*
X110500000Y-124583333D01*
X110595238Y-124488095D01*
X110690476Y-124440476D01*
X110880952Y-124392857D01*
X111023809Y-124392857D01*
X111214285Y-124440476D01*
X111309523Y-124488095D01*
X111404761Y-124583333D01*
X111452380Y-124726190D01*
X111452380Y-124964285D01*
X111166666Y-124011904D02*
X111166666Y-123535714D01*
X111452380Y-124107142D02*
X110452380Y-123773809D01*
X111452380Y-123440476D01*
X111404761Y-135690476D02*
X111452380Y-135547619D01*
X111452380Y-135309523D01*
X111404761Y-135214285D01*
X111357142Y-135166666D01*
X111261904Y-135119047D01*
X111166666Y-135119047D01*
X111071428Y-135166666D01*
X111023809Y-135214285D01*
X110976190Y-135309523D01*
X110928571Y-135500000D01*
X110880952Y-135595238D01*
X110833333Y-135642857D01*
X110738095Y-135690476D01*
X110642857Y-135690476D01*
X110547619Y-135642857D01*
X110500000Y-135595238D01*
X110452380Y-135500000D01*
X110452380Y-135261904D01*
X110500000Y-135119047D01*
X111357142Y-134119047D02*
X111404761Y-134166666D01*
X111452380Y-134309523D01*
X111452380Y-134404761D01*
X111404761Y-134547619D01*
X111309523Y-134642857D01*
X111214285Y-134690476D01*
X111023809Y-134738095D01*
X110880952Y-134738095D01*
X110690476Y-134690476D01*
X110595238Y-134642857D01*
X110500000Y-134547619D01*
X110452380Y-134404761D01*
X110452380Y-134309523D01*
X110500000Y-134166666D01*
X110547619Y-134119047D01*
X111452380Y-133214285D02*
X111452380Y-133690476D01*
X110452380Y-133690476D01*
X194511904Y-90166666D02*
X194988095Y-90166666D01*
X194416666Y-90452380D02*
X194750000Y-89452380D01*
X195083333Y-90452380D01*
X192988095Y-87000000D02*
X192892857Y-86952380D01*
X192750000Y-86952380D01*
X192607142Y-87000000D01*
X192511904Y-87095238D01*
X192464285Y-87190476D01*
X192416666Y-87380952D01*
X192416666Y-87523809D01*
X192464285Y-87714285D01*
X192511904Y-87809523D01*
X192607142Y-87904761D01*
X192750000Y-87952380D01*
X192845238Y-87952380D01*
X192988095Y-87904761D01*
X193035714Y-87857142D01*
X193035714Y-87523809D01*
X192845238Y-87523809D01*
X193464285Y-87952380D02*
X193464285Y-86952380D01*
X194035714Y-87952380D01*
X194035714Y-86952380D01*
X194511904Y-87952380D02*
X194511904Y-86952380D01*
X194750000Y-86952380D01*
X194892857Y-87000000D01*
X194988095Y-87095238D01*
X195035714Y-87190476D01*
X195083333Y-87380952D01*
X195083333Y-87523809D01*
X195035714Y-87714285D01*
X194988095Y-87809523D01*
X194892857Y-87904761D01*
X194750000Y-87952380D01*
X194511904Y-87952380D01*
X194821428Y-84928571D02*
X194964285Y-84976190D01*
X195011904Y-85023809D01*
X195059523Y-85119047D01*
X195059523Y-85261904D01*
X195011904Y-85357142D01*
X194964285Y-85404761D01*
X194869047Y-85452380D01*
X194488095Y-85452380D01*
X194488095Y-84452380D01*
X194821428Y-84452380D01*
X194916666Y-84500000D01*
X194964285Y-84547619D01*
X195011904Y-84642857D01*
X195011904Y-84738095D01*
X194964285Y-84833333D01*
X194916666Y-84880952D01*
X194821428Y-84928571D01*
X194488095Y-84928571D01*
X183125389Y-56129636D02*
X183054678Y-56153206D01*
X182983967Y-56223917D01*
X182936827Y-56318198D01*
X182936827Y-56412478D01*
X182960397Y-56483189D01*
X183031108Y-56601040D01*
X183101818Y-56671751D01*
X183219669Y-56742462D01*
X183290380Y-56766032D01*
X183384661Y-56766032D01*
X183478942Y-56718891D01*
X183526082Y-56671751D01*
X183573223Y-56577470D01*
X183573223Y-56530330D01*
X183408231Y-56365338D01*
X183313950Y-56459619D01*
X183832495Y-56365338D02*
X183337521Y-55870363D01*
X184115338Y-56082495D01*
X183620363Y-55587521D01*
X184351040Y-55846793D02*
X183856066Y-55351818D01*
X183973917Y-55233967D01*
X184068198Y-55186827D01*
X184162478Y-55186827D01*
X184233189Y-55210397D01*
X184351040Y-55281108D01*
X184421751Y-55351818D01*
X184492462Y-55469669D01*
X184516032Y-55540380D01*
X184516032Y-55634661D01*
X184468891Y-55728942D01*
X184351040Y-55846793D01*
X180967157Y-56730677D02*
X180472182Y-56235702D01*
X180590033Y-56117851D01*
X180684314Y-56070710D01*
X180778595Y-56070710D01*
X180849306Y-56094280D01*
X180967157Y-56164991D01*
X181037867Y-56235702D01*
X181108578Y-56353553D01*
X181132148Y-56424264D01*
X181132148Y-56518544D01*
X181085008Y-56612825D01*
X180967157Y-56730677D01*
X181462132Y-56235702D02*
X180967157Y-55740727D01*
X181697834Y-56000000D02*
X181202859Y-55505025D01*
X181980677Y-55717157D01*
X181485702Y-55222182D01*
X177804678Y-56624610D02*
X177898959Y-56577470D01*
X177946099Y-56577470D01*
X178016810Y-56601040D01*
X178087521Y-56671751D01*
X178111091Y-56742462D01*
X178111091Y-56789602D01*
X178087521Y-56860313D01*
X177898959Y-57048875D01*
X177403984Y-56553900D01*
X177568976Y-56388908D01*
X177639686Y-56365338D01*
X177686827Y-56365338D01*
X177757537Y-56388908D01*
X177804678Y-56436049D01*
X177828248Y-56506759D01*
X177828248Y-56553900D01*
X177804678Y-56624610D01*
X177639686Y-56789602D01*
X178629636Y-56223917D02*
X178629636Y-56271057D01*
X178582495Y-56365338D01*
X178535355Y-56412478D01*
X178441074Y-56459619D01*
X178346793Y-56459619D01*
X178276082Y-56436049D01*
X178158231Y-56365338D01*
X178087521Y-56294627D01*
X178016810Y-56176776D01*
X177993240Y-56106066D01*
X177993240Y-56011785D01*
X178040380Y-55917504D01*
X178087521Y-55870363D01*
X178181801Y-55823223D01*
X178228942Y-55823223D01*
X179124610Y-55823223D02*
X178888908Y-56058925D01*
X178393933Y-55563950D01*
X179289602Y-55658231D02*
X178794627Y-55163256D01*
X179572445Y-55375389D02*
X179077470Y-55304678D01*
X179077470Y-54880414D02*
X179077470Y-55446099D01*
X174106844Y-56601040D02*
X174719669Y-56978164D01*
X174460397Y-56530330D01*
X174908231Y-56789602D01*
X174531108Y-56176776D01*
X175167504Y-56483189D02*
X175261785Y-56436049D01*
X175379636Y-56318198D01*
X175403206Y-56247487D01*
X175403206Y-56200346D01*
X175379636Y-56129636D01*
X175332495Y-56082495D01*
X175261785Y-56058925D01*
X175214644Y-56058925D01*
X175143933Y-56082495D01*
X175026082Y-56153206D01*
X174955372Y-56176776D01*
X174908231Y-56176776D01*
X174837521Y-56153206D01*
X174790380Y-56106066D01*
X174766810Y-56035355D01*
X174766810Y-55988214D01*
X174790380Y-55917504D01*
X174908231Y-55799653D01*
X175002512Y-55752512D01*
X175426776Y-55752512D02*
X175591768Y-55587521D01*
X175921751Y-55776082D02*
X175686049Y-56011785D01*
X175191074Y-55516810D01*
X175426776Y-55281108D01*
X176369585Y-55328248D02*
X176133883Y-55563950D01*
X175638908Y-55068976D01*
X126738095Y-56500000D02*
X126642857Y-56452380D01*
X126500000Y-56452380D01*
X126357142Y-56500000D01*
X126261904Y-56595238D01*
X126214285Y-56690476D01*
X126166666Y-56880952D01*
X126166666Y-57023809D01*
X126214285Y-57214285D01*
X126261904Y-57309523D01*
X126357142Y-57404761D01*
X126500000Y-57452380D01*
X126595238Y-57452380D01*
X126738095Y-57404761D01*
X126785714Y-57357142D01*
X126785714Y-57023809D01*
X126595238Y-57023809D01*
X127214285Y-57452380D02*
X127214285Y-56452380D01*
X127785714Y-57452380D01*
X127785714Y-56452380D01*
X128261904Y-57452380D02*
X128261904Y-56452380D01*
X128500000Y-56452380D01*
X128642857Y-56500000D01*
X128738095Y-56595238D01*
X128785714Y-56690476D01*
X128833333Y-56880952D01*
X128833333Y-57023809D01*
X128785714Y-57214285D01*
X128738095Y-57309523D01*
X128642857Y-57404761D01*
X128500000Y-57452380D01*
X128261904Y-57452380D01*
X129940476Y-57404761D02*
X130083333Y-57452380D01*
X130321428Y-57452380D01*
X130416666Y-57404761D01*
X130464285Y-57357142D01*
X130511904Y-57261904D01*
X130511904Y-57166666D01*
X130464285Y-57071428D01*
X130416666Y-57023809D01*
X130321428Y-56976190D01*
X130130952Y-56928571D01*
X130035714Y-56880952D01*
X129988095Y-56833333D01*
X129940476Y-56738095D01*
X129940476Y-56642857D01*
X129988095Y-56547619D01*
X130035714Y-56500000D01*
X130130952Y-56452380D01*
X130369047Y-56452380D01*
X130511904Y-56500000D01*
X130940476Y-57452380D02*
X130940476Y-56452380D01*
X130940476Y-56928571D02*
X131511904Y-56928571D01*
X131511904Y-57452380D02*
X131511904Y-56452380D01*
X133035714Y-57452380D02*
X132702380Y-56976190D01*
X132464285Y-57452380D02*
X132464285Y-56452380D01*
X132845238Y-56452380D01*
X132940476Y-56500000D01*
X132988095Y-56547619D01*
X133035714Y-56642857D01*
X133035714Y-56785714D01*
X132988095Y-56880952D01*
X132940476Y-56928571D01*
X132845238Y-56976190D01*
X132464285Y-56976190D01*
X133464285Y-57452380D02*
X133464285Y-56452380D01*
X133464285Y-56928571D02*
X134035714Y-56928571D01*
X134035714Y-57452380D02*
X134035714Y-56452380D01*
X135535714Y-57452380D02*
X135059523Y-57452380D01*
X135059523Y-56452380D01*
X135869047Y-57452380D02*
X135869047Y-56452380D01*
X135869047Y-56928571D02*
X136440476Y-56928571D01*
X136440476Y-57452380D02*
X136440476Y-56452380D01*
X138190476Y-57452380D02*
X137857142Y-56976190D01*
X137619047Y-57452380D02*
X137619047Y-56452380D01*
X138000000Y-56452380D01*
X138095238Y-56500000D01*
X138142857Y-56547619D01*
X138190476Y-56642857D01*
X138190476Y-56785714D01*
X138142857Y-56880952D01*
X138095238Y-56928571D01*
X138000000Y-56976190D01*
X137619047Y-56976190D01*
X138619047Y-57071428D02*
X139380952Y-57071428D01*
X139000000Y-57452380D02*
X139000000Y-56690476D01*
X140690476Y-57452380D02*
X140357142Y-56976190D01*
X140119047Y-57452380D02*
X140119047Y-56452380D01*
X140500000Y-56452380D01*
X140595238Y-56500000D01*
X140642857Y-56547619D01*
X140690476Y-56642857D01*
X140690476Y-56785714D01*
X140642857Y-56880952D01*
X140595238Y-56928571D01*
X140500000Y-56976190D01*
X140119047Y-56976190D01*
X141119047Y-57071428D02*
X141880952Y-57071428D01*
X143190476Y-57452380D02*
X142714285Y-57452380D01*
X142714285Y-56452380D01*
X143523809Y-57071428D02*
X144285714Y-57071428D01*
X145690476Y-57452380D02*
X145214285Y-57452380D01*
X145214285Y-56452380D01*
X146023809Y-57071428D02*
X146785714Y-57071428D01*
X146404761Y-57452380D02*
X146404761Y-56690476D01*
X189500000Y-58928571D02*
X189690476Y-59119047D01*
X189500000Y-59309523D01*
X189309523Y-59119047D01*
X189500000Y-58928571D01*
X189500000Y-59309523D01*
X93000000Y-108928571D02*
X93190476Y-109119047D01*
X93000000Y-109309523D01*
X92809523Y-109119047D01*
X93000000Y-108928571D01*
X93000000Y-109309523D01*
X109000000Y-125928571D02*
X109190476Y-126119047D01*
X109000000Y-126309523D01*
X108809523Y-126119047D01*
X109000000Y-125928571D01*
X109000000Y-126309523D01*
X173500000Y-122928571D02*
X173690476Y-123119047D01*
X173500000Y-123309523D01*
X173309523Y-123119047D01*
X173500000Y-122928571D01*
X173500000Y-123309523D01*
X191000000Y-90428571D02*
X191190476Y-90619047D01*
X191000000Y-90809523D01*
X190809523Y-90619047D01*
X191000000Y-90428571D01*
X191000000Y-90809523D01*
X116500000Y-87428571D02*
X116690476Y-87619047D01*
X116500000Y-87809523D01*
X116309523Y-87619047D01*
X116500000Y-87428571D01*
X116500000Y-87809523D01*
X101811785Y-49473809D02*
X101335595Y-49473809D01*
X101287976Y-50235714D01*
X101335595Y-50159523D01*
X101430833Y-50083333D01*
X101668928Y-50083333D01*
X101764166Y-50159523D01*
X101811785Y-50235714D01*
X101859404Y-50388095D01*
X101859404Y-50769047D01*
X101811785Y-50921428D01*
X101764166Y-50997619D01*
X101668928Y-51073809D01*
X101430833Y-51073809D01*
X101335595Y-50997619D01*
X101287976Y-50921428D01*
X102145119Y-49473809D02*
X102478452Y-51073809D01*
X102811785Y-49473809D01*
X101859404Y-52100000D02*
X101764166Y-52023809D01*
X101621309Y-52023809D01*
X101478452Y-52100000D01*
X101383214Y-52252380D01*
X101335595Y-52404761D01*
X101287976Y-52709523D01*
X101287976Y-52938095D01*
X101335595Y-53242857D01*
X101383214Y-53395238D01*
X101478452Y-53547619D01*
X101621309Y-53623809D01*
X101716547Y-53623809D01*
X101859404Y-53547619D01*
X101907023Y-53471428D01*
X101907023Y-52938095D01*
X101716547Y-52938095D01*
X102335595Y-53623809D02*
X102335595Y-52023809D01*
X102907023Y-53623809D01*
X102907023Y-52023809D01*
X103383214Y-53623809D02*
X103383214Y-52023809D01*
X103621309Y-52023809D01*
X103764166Y-52100000D01*
X103859404Y-52252380D01*
X103907023Y-52404761D01*
X103954642Y-52709523D01*
X103954642Y-52938095D01*
X103907023Y-53242857D01*
X103859404Y-53395238D01*
X103764166Y-53547619D01*
X103621309Y-53623809D01*
X103383214Y-53623809D01*
X101335595Y-56173809D02*
X101335595Y-54573809D01*
X101573690Y-54573809D01*
X101716547Y-54650000D01*
X101811785Y-54802380D01*
X101859404Y-54954761D01*
X101907023Y-55259523D01*
X101907023Y-55488095D01*
X101859404Y-55792857D01*
X101811785Y-55945238D01*
X101716547Y-56097619D01*
X101573690Y-56173809D01*
X101335595Y-56173809D01*
X102907023Y-56021428D02*
X102859404Y-56097619D01*
X102716547Y-56173809D01*
X102621309Y-56173809D01*
X102478452Y-56097619D01*
X102383214Y-55945238D01*
X102335595Y-55792857D01*
X102287976Y-55488095D01*
X102287976Y-55259523D01*
X102335595Y-54954761D01*
X102383214Y-54802380D01*
X102478452Y-54650000D01*
X102621309Y-54573809D01*
X102716547Y-54573809D01*
X102859404Y-54650000D01*
X102907023Y-54726190D01*
X103526071Y-54573809D02*
X103716547Y-54573809D01*
X103811785Y-54650000D01*
X103907023Y-54802380D01*
X103954642Y-55107142D01*
X103954642Y-55640476D01*
X103907023Y-55945238D01*
X103811785Y-56097619D01*
X103716547Y-56173809D01*
X103526071Y-56173809D01*
X103430833Y-56097619D01*
X103335595Y-55945238D01*
X103287976Y-55640476D01*
X103287976Y-55107142D01*
X103335595Y-54802380D01*
X103430833Y-54650000D01*
X103526071Y-54573809D01*
X101335595Y-58723809D02*
X101335595Y-57123809D01*
X101716547Y-57123809D01*
X101811785Y-57200000D01*
X101859404Y-57276190D01*
X101907023Y-57428571D01*
X101907023Y-57657142D01*
X101859404Y-57809523D01*
X101811785Y-57885714D01*
X101716547Y-57961904D01*
X101335595Y-57961904D01*
X102907023Y-58723809D02*
X102573690Y-57961904D01*
X102335595Y-58723809D02*
X102335595Y-57123809D01*
X102716547Y-57123809D01*
X102811785Y-57200000D01*
X102859404Y-57276190D01*
X102907023Y-57428571D01*
X102907023Y-57657142D01*
X102859404Y-57809523D01*
X102811785Y-57885714D01*
X102716547Y-57961904D01*
X102335595Y-57961904D01*
X103526071Y-57123809D02*
X103716547Y-57123809D01*
X103811785Y-57200000D01*
X103907023Y-57352380D01*
X103954642Y-57657142D01*
X103954642Y-58190476D01*
X103907023Y-58495238D01*
X103811785Y-58647619D01*
X103716547Y-58723809D01*
X103526071Y-58723809D01*
X103430833Y-58647619D01*
X103335595Y-58495238D01*
X103287976Y-58190476D01*
X103287976Y-57657142D01*
X103335595Y-57352380D01*
X103430833Y-57200000D01*
X103526071Y-57123809D01*
X104240357Y-57123809D02*
X104811785Y-57123809D01*
X104526071Y-58723809D02*
X104526071Y-57123809D01*
X101859404Y-59750000D02*
X101764166Y-59673809D01*
X101621309Y-59673809D01*
X101478452Y-59750000D01*
X101383214Y-59902380D01*
X101335595Y-60054761D01*
X101287976Y-60359523D01*
X101287976Y-60588095D01*
X101335595Y-60892857D01*
X101383214Y-61045238D01*
X101478452Y-61197619D01*
X101621309Y-61273809D01*
X101716547Y-61273809D01*
X101859404Y-61197619D01*
X101907023Y-61121428D01*
X101907023Y-60588095D01*
X101716547Y-60588095D01*
X102907023Y-61273809D02*
X102573690Y-60511904D01*
X102335595Y-61273809D02*
X102335595Y-59673809D01*
X102716547Y-59673809D01*
X102811785Y-59750000D01*
X102859404Y-59826190D01*
X102907023Y-59978571D01*
X102907023Y-60207142D01*
X102859404Y-60359523D01*
X102811785Y-60435714D01*
X102716547Y-60511904D01*
X102335595Y-60511904D01*
X103335595Y-60435714D02*
X103668928Y-60435714D01*
X103811785Y-61273809D02*
X103335595Y-61273809D01*
X103335595Y-59673809D01*
X103811785Y-59673809D01*
X104240357Y-60435714D02*
X104573690Y-60435714D01*
X104716547Y-61273809D02*
X104240357Y-61273809D01*
X104240357Y-59673809D01*
X104716547Y-59673809D01*
X105145119Y-61273809D02*
X105145119Y-59673809D01*
X105716547Y-61273809D01*
X105716547Y-59673809D01*
X107430833Y-61273809D02*
X106954642Y-61273809D01*
X106954642Y-59673809D01*
X107764166Y-60435714D02*
X108097500Y-60435714D01*
X108240357Y-61273809D02*
X107764166Y-61273809D01*
X107764166Y-59673809D01*
X108240357Y-59673809D01*
X108668928Y-61273809D02*
X108668928Y-59673809D01*
X108907023Y-59673809D01*
X109049880Y-59750000D01*
X109145119Y-59902380D01*
X109192738Y-60054761D01*
X109240357Y-60359523D01*
X109240357Y-60588095D01*
X109192738Y-60892857D01*
X109145119Y-61045238D01*
X109049880Y-61197619D01*
X108907023Y-61273809D01*
X108668928Y-61273809D01*
X101287976Y-63366666D02*
X101764166Y-63366666D01*
X101192738Y-63823809D02*
X101526071Y-62223809D01*
X101859404Y-63823809D01*
X102192738Y-63823809D02*
X102192738Y-62223809D01*
X102526071Y-63366666D01*
X102859404Y-62223809D01*
X102859404Y-63823809D01*
X103668928Y-62985714D02*
X103811785Y-63061904D01*
X103859404Y-63138095D01*
X103907023Y-63290476D01*
X103907023Y-63519047D01*
X103859404Y-63671428D01*
X103811785Y-63747619D01*
X103716547Y-63823809D01*
X103335595Y-63823809D01*
X103335595Y-62223809D01*
X103668928Y-62223809D01*
X103764166Y-62300000D01*
X103811785Y-62376190D01*
X103859404Y-62528571D01*
X103859404Y-62680952D01*
X103811785Y-62833333D01*
X103764166Y-62909523D01*
X103668928Y-62985714D01*
X103335595Y-62985714D01*
X104335595Y-62985714D02*
X104668928Y-62985714D01*
X104811785Y-63823809D02*
X104335595Y-63823809D01*
X104335595Y-62223809D01*
X104811785Y-62223809D01*
X105811785Y-63823809D02*
X105478452Y-63061904D01*
X105240357Y-63823809D02*
X105240357Y-62223809D01*
X105621309Y-62223809D01*
X105716547Y-62300000D01*
X105764166Y-62376190D01*
X105811785Y-62528571D01*
X105811785Y-62757142D01*
X105764166Y-62909523D01*
X105716547Y-62985714D01*
X105621309Y-63061904D01*
X105240357Y-63061904D01*
X106002261Y-63976190D02*
X106764166Y-63976190D01*
X107478452Y-63823809D02*
X107002261Y-63823809D01*
X107002261Y-62223809D01*
X107811785Y-62985714D02*
X108145119Y-62985714D01*
X108287976Y-63823809D02*
X107811785Y-63823809D01*
X107811785Y-62223809D01*
X108287976Y-62223809D01*
X108716547Y-63823809D02*
X108716547Y-62223809D01*
X108954642Y-62223809D01*
X109097500Y-62300000D01*
X109192738Y-62452380D01*
X109240357Y-62604761D01*
X109287976Y-62909523D01*
X109287976Y-63138095D01*
X109240357Y-63442857D01*
X109192738Y-63595238D01*
X109097500Y-63747619D01*
X108954642Y-63823809D01*
X108716547Y-63823809D01*
X101335595Y-66373809D02*
X101335595Y-64773809D01*
X101716547Y-64773809D01*
X101811785Y-64850000D01*
X101859404Y-64926190D01*
X101907023Y-65078571D01*
X101907023Y-65307142D01*
X101859404Y-65459523D01*
X101811785Y-65535714D01*
X101716547Y-65611904D01*
X101335595Y-65611904D01*
X102526071Y-64773809D02*
X102716547Y-64773809D01*
X102811785Y-64850000D01*
X102907023Y-65002380D01*
X102954642Y-65307142D01*
X102954642Y-65840476D01*
X102907023Y-66145238D01*
X102811785Y-66297619D01*
X102716547Y-66373809D01*
X102526071Y-66373809D01*
X102430833Y-66297619D01*
X102335595Y-66145238D01*
X102287976Y-65840476D01*
X102287976Y-65307142D01*
X102335595Y-65002380D01*
X102430833Y-64850000D01*
X102526071Y-64773809D01*
X103287976Y-64773809D02*
X103526071Y-66373809D01*
X103716547Y-65230952D01*
X103907023Y-66373809D01*
X104145119Y-64773809D01*
X104526071Y-65535714D02*
X104859404Y-65535714D01*
X105002261Y-66373809D02*
X104526071Y-66373809D01*
X104526071Y-64773809D01*
X105002261Y-64773809D01*
X106002261Y-66373809D02*
X105668928Y-65611904D01*
X105430833Y-66373809D02*
X105430833Y-64773809D01*
X105811785Y-64773809D01*
X105907023Y-64850000D01*
X105954642Y-64926190D01*
X106002261Y-65078571D01*
X106002261Y-65307142D01*
X105954642Y-65459523D01*
X105907023Y-65535714D01*
X105811785Y-65611904D01*
X105430833Y-65611904D01*
X106192738Y-66526190D02*
X106954642Y-66526190D01*
X107526071Y-65535714D02*
X107668928Y-65611904D01*
X107716547Y-65688095D01*
X107764166Y-65840476D01*
X107764166Y-66069047D01*
X107716547Y-66221428D01*
X107668928Y-66297619D01*
X107573690Y-66373809D01*
X107192738Y-66373809D01*
X107192738Y-64773809D01*
X107526071Y-64773809D01*
X107621309Y-64850000D01*
X107668928Y-64926190D01*
X107716547Y-65078571D01*
X107716547Y-65230952D01*
X107668928Y-65383333D01*
X107621309Y-65459523D01*
X107526071Y-65535714D01*
X107192738Y-65535714D01*
X108049880Y-64773809D02*
X108621309Y-64773809D01*
X108335595Y-66373809D02*
X108335595Y-64773809D01*
X108954642Y-66373809D02*
X108954642Y-64773809D01*
X109526071Y-66373809D01*
X109526071Y-64773809D01*
D13*
%TO.C,R9*%
X184440000Y-113620000D02*
X184440000Y-110880000D01*
X184440000Y-110880000D02*
X177900000Y-110880000D01*
X177900000Y-110880000D02*
X177900000Y-113620000D01*
X177900000Y-113620000D02*
X184440000Y-113620000D01*
X185210000Y-112250000D02*
X184440000Y-112250000D01*
X177130000Y-112250000D02*
X177900000Y-112250000D01*
%TO.C,U3*%
X169190000Y-122330000D02*
X170840000Y-122330000D01*
X170840000Y-122330000D02*
X170840000Y-112050000D01*
X170840000Y-112050000D02*
X165540000Y-112050000D01*
X165540000Y-112050000D02*
X165540000Y-122330000D01*
X165540000Y-122330000D02*
X167190000Y-122330000D01*
X167190000Y-122330000D02*
G75*
G02*
X169190000Y-122330000I1000000J0D01*
G01*
%TO.C,J2*%
X92541189Y-83677697D02*
X104570282Y-90622697D01*
X104570282Y-90622697D02*
X89085282Y-117443504D01*
X89085282Y-117443504D02*
X77056189Y-110498504D01*
X95569801Y-108000663D02*
X95319801Y-108433675D01*
X95319801Y-108433675D02*
X95069801Y-108000663D01*
X95069801Y-108000663D02*
X95569801Y-108000663D01*
%TO.C,R8*%
X140190000Y-117370000D02*
X140190000Y-114630000D01*
X140190000Y-114630000D02*
X133650000Y-114630000D01*
X133650000Y-114630000D02*
X133650000Y-117370000D01*
X133650000Y-117370000D02*
X140190000Y-117370000D01*
X140960000Y-116000000D02*
X140190000Y-116000000D01*
X132880000Y-116000000D02*
X133650000Y-116000000D01*
%TO.C,R7*%
X147810000Y-114630000D02*
X147810000Y-117370000D01*
X147810000Y-117370000D02*
X154350000Y-117370000D01*
X154350000Y-117370000D02*
X154350000Y-114630000D01*
X154350000Y-114630000D02*
X147810000Y-114630000D01*
X147040000Y-116000000D02*
X147810000Y-116000000D01*
X155120000Y-116000000D02*
X154350000Y-116000000D01*
%TO.C,R6*%
X159190000Y-79370000D02*
X159190000Y-76630000D01*
X159190000Y-76630000D02*
X152650000Y-76630000D01*
X152650000Y-76630000D02*
X152650000Y-79370000D01*
X152650000Y-79370000D02*
X159190000Y-79370000D01*
X159960000Y-78000000D02*
X159190000Y-78000000D01*
X151880000Y-78000000D02*
X152650000Y-78000000D01*
%TO.C,R5*%
X155810000Y-54630000D02*
X155810000Y-57370000D01*
X155810000Y-57370000D02*
X162350000Y-57370000D01*
X162350000Y-57370000D02*
X162350000Y-54630000D01*
X162350000Y-54630000D02*
X155810000Y-54630000D01*
X155040000Y-56000000D02*
X155810000Y-56000000D01*
X163120000Y-56000000D02*
X162350000Y-56000000D01*
%TO.C,R4*%
X126370000Y-62810000D02*
X123630000Y-62810000D01*
X123630000Y-62810000D02*
X123630000Y-69350000D01*
X123630000Y-69350000D02*
X126370000Y-69350000D01*
X126370000Y-69350000D02*
X126370000Y-62810000D01*
X125000000Y-62040000D02*
X125000000Y-62810000D01*
X125000000Y-70120000D02*
X125000000Y-69350000D01*
%TO.C,R3*%
X162810000Y-97630000D02*
X162810000Y-100370000D01*
X162810000Y-100370000D02*
X169350000Y-100370000D01*
X169350000Y-100370000D02*
X169350000Y-97630000D01*
X169350000Y-97630000D02*
X162810000Y-97630000D01*
X162040000Y-99000000D02*
X162810000Y-99000000D01*
X170120000Y-99000000D02*
X169350000Y-99000000D01*
%TO.C,R2*%
X133050000Y-68190000D02*
X135790000Y-68190000D01*
X135790000Y-68190000D02*
X135790000Y-61650000D01*
X135790000Y-61650000D02*
X133050000Y-61650000D01*
X133050000Y-61650000D02*
X133050000Y-68190000D01*
X134420000Y-68960000D02*
X134420000Y-68190000D01*
X134420000Y-60880000D02*
X134420000Y-61650000D01*
%TO.C,R1*%
X130370000Y-61810000D02*
X127630000Y-61810000D01*
X127630000Y-61810000D02*
X127630000Y-68350000D01*
X127630000Y-68350000D02*
X130370000Y-68350000D01*
X130370000Y-68350000D02*
X130370000Y-61810000D01*
X129000000Y-61040000D02*
X129000000Y-61810000D01*
X129000000Y-69120000D02*
X129000000Y-68350000D01*
%TO.C,J6*%
X196540000Y-92560000D02*
X202510000Y-92560000D01*
X202510000Y-92560000D02*
X202510000Y-82440000D01*
X202510000Y-82440000D02*
X196540000Y-82440000D01*
X196540000Y-82440000D02*
X196540000Y-92560000D01*
X196550000Y-89250000D02*
X197300000Y-89250000D01*
X197300000Y-89250000D02*
X197300000Y-85750000D01*
X197300000Y-85750000D02*
X196550000Y-85750000D01*
X196550000Y-85750000D02*
X196550000Y-89250000D01*
X196550000Y-92550000D02*
X197300000Y-92550000D01*
X197300000Y-92550000D02*
X197300000Y-90750000D01*
X197300000Y-90750000D02*
X196550000Y-90750000D01*
X196550000Y-90750000D02*
X196550000Y-92550000D01*
X196550000Y-84250000D02*
X197300000Y-84250000D01*
X197300000Y-84250000D02*
X197300000Y-82450000D01*
X197300000Y-82450000D02*
X196550000Y-82450000D01*
X196550000Y-82450000D02*
X196550000Y-84250000D01*
X198800000Y-92550000D02*
X198800000Y-91800000D01*
X198800000Y-91800000D02*
X201750000Y-91800000D01*
X201750000Y-91800000D02*
X201750000Y-87500000D01*
X198800000Y-82450000D02*
X198800000Y-83200000D01*
X198800000Y-83200000D02*
X201750000Y-83200000D01*
X201750000Y-83200000D02*
X201750000Y-87500000D01*
X196250000Y-91600000D02*
X196250000Y-92850000D01*
X196250000Y-92850000D02*
X197500000Y-92850000D01*
%TO.C,J5*%
X94400000Y-48440000D02*
X94400000Y-69341000D01*
X99700000Y-48440000D02*
X99700000Y-69341000D01*
X100160000Y-48440000D02*
X100160000Y-69341000D01*
X93840000Y-48440000D02*
X93840000Y-69341000D01*
X100160000Y-48440000D02*
X93840000Y-48440000D01*
X100160000Y-69341000D02*
X93840000Y-69341000D01*
X94340000Y-48200000D02*
X93600000Y-48200000D01*
X93600000Y-48200000D02*
X93600000Y-48700000D01*
%TO.C,J4*%
X174440000Y-48540000D02*
X174440000Y-54510000D01*
X174440000Y-54510000D02*
X189560000Y-54510000D01*
X189560000Y-54510000D02*
X189560000Y-48540000D01*
X189560000Y-48540000D02*
X174440000Y-48540000D01*
X177750000Y-48550000D02*
X177750000Y-49300000D01*
X177750000Y-49300000D02*
X186250000Y-49300000D01*
X186250000Y-49300000D02*
X186250000Y-48550000D01*
X186250000Y-48550000D02*
X177750000Y-48550000D01*
X174450000Y-48550000D02*
X174450000Y-49300000D01*
X174450000Y-49300000D02*
X176250000Y-49300000D01*
X176250000Y-49300000D02*
X176250000Y-48550000D01*
X176250000Y-48550000D02*
X174450000Y-48550000D01*
X187750000Y-48550000D02*
X187750000Y-49300000D01*
X187750000Y-49300000D02*
X189550000Y-49300000D01*
X189550000Y-49300000D02*
X189550000Y-48550000D01*
X189550000Y-48550000D02*
X187750000Y-48550000D01*
X174450000Y-50800000D02*
X175200000Y-50800000D01*
X175200000Y-50800000D02*
X175200000Y-53750000D01*
X175200000Y-53750000D02*
X182000000Y-53750000D01*
X189550000Y-50800000D02*
X188800000Y-50800000D01*
X188800000Y-50800000D02*
X188800000Y-53750000D01*
X188800000Y-53750000D02*
X182000000Y-53750000D01*
X175400000Y-48250000D02*
X174150000Y-48250000D01*
X174150000Y-48250000D02*
X174150000Y-49500000D01*
%TO.C,J3*%
X147560000Y-49400000D02*
X126659000Y-49400000D01*
X147560000Y-54700000D02*
X126659000Y-54700000D01*
X147560000Y-55160000D02*
X126659000Y-55160000D01*
X147560000Y-48840000D02*
X126659000Y-48840000D01*
X147560000Y-55160000D02*
X147560000Y-48840000D01*
X126659000Y-55160000D02*
X126659000Y-48840000D01*
X147800000Y-49340000D02*
X147800000Y-48600000D01*
X147800000Y-48600000D02*
X147300000Y-48600000D01*
%TO.C,D2*%
X128090000Y-105660000D02*
X128090000Y-105530000D01*
X128090000Y-105530000D02*
X133530000Y-105530000D01*
X133530000Y-105530000D02*
X133530000Y-105660000D01*
X128090000Y-108340000D02*
X128090000Y-108470000D01*
X128090000Y-108470000D02*
X133530000Y-108470000D01*
X133530000Y-108470000D02*
X133530000Y-108340000D01*
X128990000Y-105530000D02*
X128990000Y-108470000D01*
X129110000Y-105530000D02*
X129110000Y-108470000D01*
X128870000Y-105530000D02*
X128870000Y-108470000D01*
%TO.C,D1*%
X117660000Y-113910000D02*
X117530000Y-113910000D01*
X117530000Y-113910000D02*
X117530000Y-108470000D01*
X117530000Y-108470000D02*
X117660000Y-108470000D01*
X120340000Y-113910000D02*
X120470000Y-113910000D01*
X120470000Y-113910000D02*
X120470000Y-108470000D01*
X120470000Y-108470000D02*
X120340000Y-108470000D01*
X117530000Y-113010000D02*
X120470000Y-113010000D01*
X117530000Y-112890000D02*
X120470000Y-112890000D01*
X117530000Y-113130000D02*
X120470000Y-113130000D01*
%TO.C,C10*%
X148130000Y-84380000D02*
X158870000Y-84380000D01*
X148130000Y-89620000D02*
X158870000Y-89620000D01*
X148130000Y-84380000D02*
X148130000Y-89620000D01*
X158870000Y-84380000D02*
X158870000Y-89620000D01*
%TO.C,C9*%
X150970000Y-67880000D02*
G75*
G03*
X150970000Y-67880000I-5120000J0D01*
G01*
X140770000Y-67880000D02*
X150930000Y-67880000D01*
X140770000Y-67840000D02*
X150930000Y-67840000D01*
X140770000Y-67800000D02*
X150930000Y-67800000D01*
X140771000Y-67760000D02*
X150929000Y-67760000D01*
X140772000Y-67720000D02*
X150928000Y-67720000D01*
X140773000Y-67680000D02*
X150927000Y-67680000D01*
X140775000Y-67640000D02*
X150925000Y-67640000D01*
X140777000Y-67600000D02*
X150923000Y-67600000D01*
X140780000Y-67560000D02*
X150920000Y-67560000D01*
X140782000Y-67520000D02*
X150918000Y-67520000D01*
X140785000Y-67480000D02*
X150915000Y-67480000D01*
X140788000Y-67440000D02*
X150912000Y-67440000D01*
X140792000Y-67400000D02*
X150908000Y-67400000D01*
X140796000Y-67360000D02*
X150904000Y-67360000D01*
X140800000Y-67320000D02*
X150900000Y-67320000D01*
X140805000Y-67280000D02*
X150895000Y-67280000D01*
X140810000Y-67240000D02*
X150890000Y-67240000D01*
X140815000Y-67200000D02*
X150885000Y-67200000D01*
X140820000Y-67159000D02*
X150880000Y-67159000D01*
X140826000Y-67119000D02*
X150874000Y-67119000D01*
X140832000Y-67079000D02*
X150868000Y-67079000D01*
X140839000Y-67039000D02*
X150861000Y-67039000D01*
X140846000Y-66999000D02*
X150854000Y-66999000D01*
X140853000Y-66959000D02*
X150847000Y-66959000D01*
X140860000Y-66919000D02*
X150840000Y-66919000D01*
X140868000Y-66879000D02*
X150832000Y-66879000D01*
X140876000Y-66839000D02*
X150824000Y-66839000D01*
X140885000Y-66799000D02*
X150815000Y-66799000D01*
X140894000Y-66759000D02*
X150806000Y-66759000D01*
X140903000Y-66719000D02*
X150797000Y-66719000D01*
X140912000Y-66679000D02*
X150788000Y-66679000D01*
X140922000Y-66639000D02*
X150778000Y-66639000D01*
X140932000Y-66599000D02*
X144609000Y-66599000D01*
X147091000Y-66599000D02*
X150768000Y-66599000D01*
X140943000Y-66559000D02*
X144609000Y-66559000D01*
X147091000Y-66559000D02*
X150757000Y-66559000D01*
X140953000Y-66519000D02*
X144609000Y-66519000D01*
X147091000Y-66519000D02*
X150747000Y-66519000D01*
X140965000Y-66479000D02*
X144609000Y-66479000D01*
X147091000Y-66479000D02*
X150735000Y-66479000D01*
X140976000Y-66439000D02*
X144609000Y-66439000D01*
X147091000Y-66439000D02*
X150724000Y-66439000D01*
X140988000Y-66399000D02*
X144609000Y-66399000D01*
X147091000Y-66399000D02*
X150712000Y-66399000D01*
X141000000Y-66359000D02*
X144609000Y-66359000D01*
X147091000Y-66359000D02*
X150700000Y-66359000D01*
X141013000Y-66319000D02*
X144609000Y-66319000D01*
X147091000Y-66319000D02*
X150687000Y-66319000D01*
X141026000Y-66279000D02*
X144609000Y-66279000D01*
X147091000Y-66279000D02*
X150674000Y-66279000D01*
X141039000Y-66239000D02*
X144609000Y-66239000D01*
X147091000Y-66239000D02*
X150661000Y-66239000D01*
X141053000Y-66199000D02*
X144609000Y-66199000D01*
X147091000Y-66199000D02*
X150647000Y-66199000D01*
X141067000Y-66159000D02*
X144609000Y-66159000D01*
X147091000Y-66159000D02*
X150633000Y-66159000D01*
X141082000Y-66119000D02*
X144609000Y-66119000D01*
X147091000Y-66119000D02*
X150618000Y-66119000D01*
X141096000Y-66079000D02*
X144609000Y-66079000D01*
X147091000Y-66079000D02*
X150604000Y-66079000D01*
X141112000Y-66039000D02*
X144609000Y-66039000D01*
X147091000Y-66039000D02*
X150588000Y-66039000D01*
X141127000Y-65999000D02*
X144609000Y-65999000D01*
X147091000Y-65999000D02*
X150573000Y-65999000D01*
X141143000Y-65959000D02*
X144609000Y-65959000D01*
X147091000Y-65959000D02*
X150557000Y-65959000D01*
X141160000Y-65919000D02*
X144609000Y-65919000D01*
X147091000Y-65919000D02*
X150540000Y-65919000D01*
X141176000Y-65879000D02*
X144609000Y-65879000D01*
X147091000Y-65879000D02*
X150524000Y-65879000D01*
X141193000Y-65839000D02*
X144609000Y-65839000D01*
X147091000Y-65839000D02*
X150507000Y-65839000D01*
X141211000Y-65799000D02*
X144609000Y-65799000D01*
X147091000Y-65799000D02*
X150489000Y-65799000D01*
X141229000Y-65759000D02*
X144609000Y-65759000D01*
X147091000Y-65759000D02*
X150471000Y-65759000D01*
X141247000Y-65719000D02*
X144609000Y-65719000D01*
X147091000Y-65719000D02*
X150453000Y-65719000D01*
X141266000Y-65679000D02*
X144609000Y-65679000D01*
X147091000Y-65679000D02*
X150434000Y-65679000D01*
X141286000Y-65639000D02*
X144609000Y-65639000D01*
X147091000Y-65639000D02*
X150414000Y-65639000D01*
X141305000Y-65599000D02*
X144609000Y-65599000D01*
X147091000Y-65599000D02*
X150395000Y-65599000D01*
X141325000Y-65559000D02*
X144609000Y-65559000D01*
X147091000Y-65559000D02*
X150375000Y-65559000D01*
X141346000Y-65519000D02*
X144609000Y-65519000D01*
X147091000Y-65519000D02*
X150354000Y-65519000D01*
X141367000Y-65479000D02*
X144609000Y-65479000D01*
X147091000Y-65479000D02*
X150333000Y-65479000D01*
X141388000Y-65439000D02*
X144609000Y-65439000D01*
X147091000Y-65439000D02*
X150312000Y-65439000D01*
X141410000Y-65399000D02*
X144609000Y-65399000D01*
X147091000Y-65399000D02*
X150290000Y-65399000D01*
X141433000Y-65359000D02*
X144609000Y-65359000D01*
X147091000Y-65359000D02*
X150267000Y-65359000D01*
X141455000Y-65319000D02*
X144609000Y-65319000D01*
X147091000Y-65319000D02*
X150245000Y-65319000D01*
X141479000Y-65279000D02*
X144609000Y-65279000D01*
X147091000Y-65279000D02*
X150221000Y-65279000D01*
X141503000Y-65239000D02*
X144609000Y-65239000D01*
X147091000Y-65239000D02*
X150197000Y-65239000D01*
X141527000Y-65199000D02*
X144609000Y-65199000D01*
X147091000Y-65199000D02*
X150173000Y-65199000D01*
X141552000Y-65159000D02*
X144609000Y-65159000D01*
X147091000Y-65159000D02*
X150148000Y-65159000D01*
X141577000Y-65119000D02*
X144609000Y-65119000D01*
X147091000Y-65119000D02*
X150123000Y-65119000D01*
X141603000Y-65079000D02*
X144609000Y-65079000D01*
X147091000Y-65079000D02*
X150097000Y-65079000D01*
X141629000Y-65039000D02*
X144609000Y-65039000D01*
X147091000Y-65039000D02*
X150071000Y-65039000D01*
X141656000Y-64999000D02*
X144609000Y-64999000D01*
X147091000Y-64999000D02*
X150044000Y-64999000D01*
X141684000Y-64959000D02*
X144609000Y-64959000D01*
X147091000Y-64959000D02*
X150016000Y-64959000D01*
X141712000Y-64919000D02*
X144609000Y-64919000D01*
X147091000Y-64919000D02*
X149988000Y-64919000D01*
X141740000Y-64879000D02*
X144609000Y-64879000D01*
X147091000Y-64879000D02*
X149960000Y-64879000D01*
X141770000Y-64839000D02*
X144609000Y-64839000D01*
X147091000Y-64839000D02*
X149930000Y-64839000D01*
X141800000Y-64799000D02*
X144609000Y-64799000D01*
X147091000Y-64799000D02*
X149900000Y-64799000D01*
X141830000Y-64759000D02*
X144609000Y-64759000D01*
X147091000Y-64759000D02*
X149870000Y-64759000D01*
X141861000Y-64719000D02*
X144609000Y-64719000D01*
X147091000Y-64719000D02*
X149839000Y-64719000D01*
X141893000Y-64679000D02*
X144609000Y-64679000D01*
X147091000Y-64679000D02*
X149807000Y-64679000D01*
X141925000Y-64639000D02*
X144609000Y-64639000D01*
X147091000Y-64639000D02*
X149775000Y-64639000D01*
X141958000Y-64599000D02*
X144609000Y-64599000D01*
X147091000Y-64599000D02*
X149742000Y-64599000D01*
X141992000Y-64559000D02*
X144609000Y-64559000D01*
X147091000Y-64559000D02*
X149708000Y-64559000D01*
X142026000Y-64519000D02*
X144609000Y-64519000D01*
X147091000Y-64519000D02*
X149674000Y-64519000D01*
X142061000Y-64479000D02*
X144609000Y-64479000D01*
X147091000Y-64479000D02*
X149639000Y-64479000D01*
X142097000Y-64439000D02*
X144609000Y-64439000D01*
X147091000Y-64439000D02*
X149603000Y-64439000D01*
X142134000Y-64399000D02*
X144609000Y-64399000D01*
X147091000Y-64399000D02*
X149566000Y-64399000D01*
X142171000Y-64359000D02*
X144609000Y-64359000D01*
X147091000Y-64359000D02*
X149529000Y-64359000D01*
X142210000Y-64319000D02*
X144609000Y-64319000D01*
X147091000Y-64319000D02*
X149490000Y-64319000D01*
X142249000Y-64279000D02*
X144609000Y-64279000D01*
X147091000Y-64279000D02*
X149451000Y-64279000D01*
X142289000Y-64239000D02*
X144609000Y-64239000D01*
X147091000Y-64239000D02*
X149411000Y-64239000D01*
X142330000Y-64199000D02*
X144609000Y-64199000D01*
X147091000Y-64199000D02*
X149370000Y-64199000D01*
X142372000Y-64159000D02*
X144609000Y-64159000D01*
X147091000Y-64159000D02*
X149328000Y-64159000D01*
X142414000Y-64119000D02*
X149286000Y-64119000D01*
X142458000Y-64079000D02*
X149242000Y-64079000D01*
X142503000Y-64039000D02*
X149197000Y-64039000D01*
X142549000Y-63999000D02*
X149151000Y-63999000D01*
X142596000Y-63959000D02*
X149104000Y-63959000D01*
X142644000Y-63919000D02*
X149056000Y-63919000D01*
X142694000Y-63879000D02*
X149006000Y-63879000D01*
X142744000Y-63839000D02*
X148956000Y-63839000D01*
X142796000Y-63799000D02*
X148904000Y-63799000D01*
X142850000Y-63759000D02*
X148850000Y-63759000D01*
X142905000Y-63719000D02*
X148795000Y-63719000D01*
X142961000Y-63679000D02*
X148739000Y-63679000D01*
X143020000Y-63639000D02*
X148680000Y-63639000D01*
X143080000Y-63599000D02*
X148620000Y-63599000D01*
X143141000Y-63559000D02*
X148559000Y-63559000D01*
X143205000Y-63519000D02*
X148495000Y-63519000D01*
X143271000Y-63479000D02*
X148429000Y-63479000D01*
X143340000Y-63439000D02*
X148360000Y-63439000D01*
X143411000Y-63399000D02*
X148289000Y-63399000D01*
X143485000Y-63359000D02*
X148215000Y-63359000D01*
X143561000Y-63319000D02*
X148139000Y-63319000D01*
X143641000Y-63279000D02*
X148059000Y-63279000D01*
X143725000Y-63239000D02*
X147975000Y-63239000D01*
X143813000Y-63199000D02*
X147887000Y-63199000D01*
X143906000Y-63159000D02*
X147794000Y-63159000D01*
X144004000Y-63119000D02*
X147696000Y-63119000D01*
X144108000Y-63079000D02*
X147592000Y-63079000D01*
X144220000Y-63039000D02*
X147480000Y-63039000D01*
X144340000Y-62999000D02*
X147360000Y-62999000D01*
X144472000Y-62959000D02*
X147228000Y-62959000D01*
X144620000Y-62919000D02*
X147080000Y-62919000D01*
X144788000Y-62879000D02*
X146912000Y-62879000D01*
X144988000Y-62839000D02*
X146712000Y-62839000D01*
X145251000Y-62799000D02*
X146449000Y-62799000D01*
X142975000Y-73359646D02*
X142975000Y-72359646D01*
X142475000Y-72859646D02*
X143475000Y-72859646D01*
%TO.C,C8*%
X123030000Y-67880000D02*
G75*
G03*
X123030000Y-67880000I-5120000J0D01*
G01*
X112830000Y-67880000D02*
X122990000Y-67880000D01*
X112830000Y-67840000D02*
X122990000Y-67840000D01*
X112830000Y-67800000D02*
X122990000Y-67800000D01*
X112831000Y-67760000D02*
X122989000Y-67760000D01*
X112832000Y-67720000D02*
X122988000Y-67720000D01*
X112833000Y-67680000D02*
X122987000Y-67680000D01*
X112835000Y-67640000D02*
X122985000Y-67640000D01*
X112837000Y-67600000D02*
X122983000Y-67600000D01*
X112840000Y-67560000D02*
X122980000Y-67560000D01*
X112842000Y-67520000D02*
X122978000Y-67520000D01*
X112845000Y-67480000D02*
X122975000Y-67480000D01*
X112848000Y-67440000D02*
X122972000Y-67440000D01*
X112852000Y-67400000D02*
X122968000Y-67400000D01*
X112856000Y-67360000D02*
X122964000Y-67360000D01*
X112860000Y-67320000D02*
X122960000Y-67320000D01*
X112865000Y-67280000D02*
X122955000Y-67280000D01*
X112870000Y-67240000D02*
X122950000Y-67240000D01*
X112875000Y-67200000D02*
X122945000Y-67200000D01*
X112880000Y-67159000D02*
X122940000Y-67159000D01*
X112886000Y-67119000D02*
X122934000Y-67119000D01*
X112892000Y-67079000D02*
X122928000Y-67079000D01*
X112899000Y-67039000D02*
X122921000Y-67039000D01*
X112906000Y-66999000D02*
X122914000Y-66999000D01*
X112913000Y-66959000D02*
X122907000Y-66959000D01*
X112920000Y-66919000D02*
X122900000Y-66919000D01*
X112928000Y-66879000D02*
X122892000Y-66879000D01*
X112936000Y-66839000D02*
X122884000Y-66839000D01*
X112945000Y-66799000D02*
X122875000Y-66799000D01*
X112954000Y-66759000D02*
X122866000Y-66759000D01*
X112963000Y-66719000D02*
X122857000Y-66719000D01*
X112972000Y-66679000D02*
X122848000Y-66679000D01*
X112982000Y-66639000D02*
X122838000Y-66639000D01*
X112992000Y-66599000D02*
X116669000Y-66599000D01*
X119151000Y-66599000D02*
X122828000Y-66599000D01*
X113003000Y-66559000D02*
X116669000Y-66559000D01*
X119151000Y-66559000D02*
X122817000Y-66559000D01*
X113013000Y-66519000D02*
X116669000Y-66519000D01*
X119151000Y-66519000D02*
X122807000Y-66519000D01*
X113025000Y-66479000D02*
X116669000Y-66479000D01*
X119151000Y-66479000D02*
X122795000Y-66479000D01*
X113036000Y-66439000D02*
X116669000Y-66439000D01*
X119151000Y-66439000D02*
X122784000Y-66439000D01*
X113048000Y-66399000D02*
X116669000Y-66399000D01*
X119151000Y-66399000D02*
X122772000Y-66399000D01*
X113060000Y-66359000D02*
X116669000Y-66359000D01*
X119151000Y-66359000D02*
X122760000Y-66359000D01*
X113073000Y-66319000D02*
X116669000Y-66319000D01*
X119151000Y-66319000D02*
X122747000Y-66319000D01*
X113086000Y-66279000D02*
X116669000Y-66279000D01*
X119151000Y-66279000D02*
X122734000Y-66279000D01*
X113099000Y-66239000D02*
X116669000Y-66239000D01*
X119151000Y-66239000D02*
X122721000Y-66239000D01*
X113113000Y-66199000D02*
X116669000Y-66199000D01*
X119151000Y-66199000D02*
X122707000Y-66199000D01*
X113127000Y-66159000D02*
X116669000Y-66159000D01*
X119151000Y-66159000D02*
X122693000Y-66159000D01*
X113142000Y-66119000D02*
X116669000Y-66119000D01*
X119151000Y-66119000D02*
X122678000Y-66119000D01*
X113156000Y-66079000D02*
X116669000Y-66079000D01*
X119151000Y-66079000D02*
X122664000Y-66079000D01*
X113172000Y-66039000D02*
X116669000Y-66039000D01*
X119151000Y-66039000D02*
X122648000Y-66039000D01*
X113187000Y-65999000D02*
X116669000Y-65999000D01*
X119151000Y-65999000D02*
X122633000Y-65999000D01*
X113203000Y-65959000D02*
X116669000Y-65959000D01*
X119151000Y-65959000D02*
X122617000Y-65959000D01*
X113220000Y-65919000D02*
X116669000Y-65919000D01*
X119151000Y-65919000D02*
X122600000Y-65919000D01*
X113236000Y-65879000D02*
X116669000Y-65879000D01*
X119151000Y-65879000D02*
X122584000Y-65879000D01*
X113253000Y-65839000D02*
X116669000Y-65839000D01*
X119151000Y-65839000D02*
X122567000Y-65839000D01*
X113271000Y-65799000D02*
X116669000Y-65799000D01*
X119151000Y-65799000D02*
X122549000Y-65799000D01*
X113289000Y-65759000D02*
X116669000Y-65759000D01*
X119151000Y-65759000D02*
X122531000Y-65759000D01*
X113307000Y-65719000D02*
X116669000Y-65719000D01*
X119151000Y-65719000D02*
X122513000Y-65719000D01*
X113326000Y-65679000D02*
X116669000Y-65679000D01*
X119151000Y-65679000D02*
X122494000Y-65679000D01*
X113346000Y-65639000D02*
X116669000Y-65639000D01*
X119151000Y-65639000D02*
X122474000Y-65639000D01*
X113365000Y-65599000D02*
X116669000Y-65599000D01*
X119151000Y-65599000D02*
X122455000Y-65599000D01*
X113385000Y-65559000D02*
X116669000Y-65559000D01*
X119151000Y-65559000D02*
X122435000Y-65559000D01*
X113406000Y-65519000D02*
X116669000Y-65519000D01*
X119151000Y-65519000D02*
X122414000Y-65519000D01*
X113427000Y-65479000D02*
X116669000Y-65479000D01*
X119151000Y-65479000D02*
X122393000Y-65479000D01*
X113448000Y-65439000D02*
X116669000Y-65439000D01*
X119151000Y-65439000D02*
X122372000Y-65439000D01*
X113470000Y-65399000D02*
X116669000Y-65399000D01*
X119151000Y-65399000D02*
X122350000Y-65399000D01*
X113493000Y-65359000D02*
X116669000Y-65359000D01*
X119151000Y-65359000D02*
X122327000Y-65359000D01*
X113515000Y-65319000D02*
X116669000Y-65319000D01*
X119151000Y-65319000D02*
X122305000Y-65319000D01*
X113539000Y-65279000D02*
X116669000Y-65279000D01*
X119151000Y-65279000D02*
X122281000Y-65279000D01*
X113563000Y-65239000D02*
X116669000Y-65239000D01*
X119151000Y-65239000D02*
X122257000Y-65239000D01*
X113587000Y-65199000D02*
X116669000Y-65199000D01*
X119151000Y-65199000D02*
X122233000Y-65199000D01*
X113612000Y-65159000D02*
X116669000Y-65159000D01*
X119151000Y-65159000D02*
X122208000Y-65159000D01*
X113637000Y-65119000D02*
X116669000Y-65119000D01*
X119151000Y-65119000D02*
X122183000Y-65119000D01*
X113663000Y-65079000D02*
X116669000Y-65079000D01*
X119151000Y-65079000D02*
X122157000Y-65079000D01*
X113689000Y-65039000D02*
X116669000Y-65039000D01*
X119151000Y-65039000D02*
X122131000Y-65039000D01*
X113716000Y-64999000D02*
X116669000Y-64999000D01*
X119151000Y-64999000D02*
X122104000Y-64999000D01*
X113744000Y-64959000D02*
X116669000Y-64959000D01*
X119151000Y-64959000D02*
X122076000Y-64959000D01*
X113772000Y-64919000D02*
X116669000Y-64919000D01*
X119151000Y-64919000D02*
X122048000Y-64919000D01*
X113800000Y-64879000D02*
X116669000Y-64879000D01*
X119151000Y-64879000D02*
X122020000Y-64879000D01*
X113830000Y-64839000D02*
X116669000Y-64839000D01*
X119151000Y-64839000D02*
X121990000Y-64839000D01*
X113860000Y-64799000D02*
X116669000Y-64799000D01*
X119151000Y-64799000D02*
X121960000Y-64799000D01*
X113890000Y-64759000D02*
X116669000Y-64759000D01*
X119151000Y-64759000D02*
X121930000Y-64759000D01*
X113921000Y-64719000D02*
X116669000Y-64719000D01*
X119151000Y-64719000D02*
X121899000Y-64719000D01*
X113953000Y-64679000D02*
X116669000Y-64679000D01*
X119151000Y-64679000D02*
X121867000Y-64679000D01*
X113985000Y-64639000D02*
X116669000Y-64639000D01*
X119151000Y-64639000D02*
X121835000Y-64639000D01*
X114018000Y-64599000D02*
X116669000Y-64599000D01*
X119151000Y-64599000D02*
X121802000Y-64599000D01*
X114052000Y-64559000D02*
X116669000Y-64559000D01*
X119151000Y-64559000D02*
X121768000Y-64559000D01*
X114086000Y-64519000D02*
X116669000Y-64519000D01*
X119151000Y-64519000D02*
X121734000Y-64519000D01*
X114121000Y-64479000D02*
X116669000Y-64479000D01*
X119151000Y-64479000D02*
X121699000Y-64479000D01*
X114157000Y-64439000D02*
X116669000Y-64439000D01*
X119151000Y-64439000D02*
X121663000Y-64439000D01*
X114194000Y-64399000D02*
X116669000Y-64399000D01*
X119151000Y-64399000D02*
X121626000Y-64399000D01*
X114231000Y-64359000D02*
X116669000Y-64359000D01*
X119151000Y-64359000D02*
X121589000Y-64359000D01*
X114270000Y-64319000D02*
X116669000Y-64319000D01*
X119151000Y-64319000D02*
X121550000Y-64319000D01*
X114309000Y-64279000D02*
X116669000Y-64279000D01*
X119151000Y-64279000D02*
X121511000Y-64279000D01*
X114349000Y-64239000D02*
X116669000Y-64239000D01*
X119151000Y-64239000D02*
X121471000Y-64239000D01*
X114390000Y-64199000D02*
X116669000Y-64199000D01*
X119151000Y-64199000D02*
X121430000Y-64199000D01*
X114432000Y-64159000D02*
X116669000Y-64159000D01*
X119151000Y-64159000D02*
X121388000Y-64159000D01*
X114474000Y-64119000D02*
X121346000Y-64119000D01*
X114518000Y-64079000D02*
X121302000Y-64079000D01*
X114563000Y-64039000D02*
X121257000Y-64039000D01*
X114609000Y-63999000D02*
X121211000Y-63999000D01*
X114656000Y-63959000D02*
X121164000Y-63959000D01*
X114704000Y-63919000D02*
X121116000Y-63919000D01*
X114754000Y-63879000D02*
X121066000Y-63879000D01*
X114804000Y-63839000D02*
X121016000Y-63839000D01*
X114856000Y-63799000D02*
X120964000Y-63799000D01*
X114910000Y-63759000D02*
X120910000Y-63759000D01*
X114965000Y-63719000D02*
X120855000Y-63719000D01*
X115021000Y-63679000D02*
X120799000Y-63679000D01*
X115080000Y-63639000D02*
X120740000Y-63639000D01*
X115140000Y-63599000D02*
X120680000Y-63599000D01*
X115201000Y-63559000D02*
X120619000Y-63559000D01*
X115265000Y-63519000D02*
X120555000Y-63519000D01*
X115331000Y-63479000D02*
X120489000Y-63479000D01*
X115400000Y-63439000D02*
X120420000Y-63439000D01*
X115471000Y-63399000D02*
X120349000Y-63399000D01*
X115545000Y-63359000D02*
X120275000Y-63359000D01*
X115621000Y-63319000D02*
X120199000Y-63319000D01*
X115701000Y-63279000D02*
X120119000Y-63279000D01*
X115785000Y-63239000D02*
X120035000Y-63239000D01*
X115873000Y-63199000D02*
X119947000Y-63199000D01*
X115966000Y-63159000D02*
X119854000Y-63159000D01*
X116064000Y-63119000D02*
X119756000Y-63119000D01*
X116168000Y-63079000D02*
X119652000Y-63079000D01*
X116280000Y-63039000D02*
X119540000Y-63039000D01*
X116400000Y-62999000D02*
X119420000Y-62999000D01*
X116532000Y-62959000D02*
X119288000Y-62959000D01*
X116680000Y-62919000D02*
X119140000Y-62919000D01*
X116848000Y-62879000D02*
X118972000Y-62879000D01*
X117048000Y-62839000D02*
X118772000Y-62839000D01*
X117311000Y-62799000D02*
X118509000Y-62799000D01*
X115035000Y-73359646D02*
X115035000Y-72359646D01*
X114535000Y-72859646D02*
X115535000Y-72859646D01*
%TO.C,C7*%
X114870000Y-84000000D02*
G75*
G03*
X114870000Y-84000000I-2620000J0D01*
G01*
X112250000Y-81420000D02*
X112250000Y-86580000D01*
X112290000Y-81420000D02*
X112290000Y-86580000D01*
X112330000Y-81421000D02*
X112330000Y-86579000D01*
X112370000Y-81422000D02*
X112370000Y-86578000D01*
X112410000Y-81424000D02*
X112410000Y-86576000D01*
X112450000Y-81427000D02*
X112450000Y-86573000D01*
X112490000Y-81431000D02*
X112490000Y-82960000D01*
X112490000Y-85040000D02*
X112490000Y-86569000D01*
X112530000Y-81435000D02*
X112530000Y-82960000D01*
X112530000Y-85040000D02*
X112530000Y-86565000D01*
X112570000Y-81439000D02*
X112570000Y-82960000D01*
X112570000Y-85040000D02*
X112570000Y-86561000D01*
X112610000Y-81444000D02*
X112610000Y-82960000D01*
X112610000Y-85040000D02*
X112610000Y-86556000D01*
X112650000Y-81450000D02*
X112650000Y-82960000D01*
X112650000Y-85040000D02*
X112650000Y-86550000D01*
X112690000Y-81457000D02*
X112690000Y-82960000D01*
X112690000Y-85040000D02*
X112690000Y-86543000D01*
X112730000Y-81464000D02*
X112730000Y-82960000D01*
X112730000Y-85040000D02*
X112730000Y-86536000D01*
X112770000Y-81472000D02*
X112770000Y-82960000D01*
X112770000Y-85040000D02*
X112770000Y-86528000D01*
X112810000Y-81480000D02*
X112810000Y-82960000D01*
X112810000Y-85040000D02*
X112810000Y-86520000D01*
X112850000Y-81489000D02*
X112850000Y-82960000D01*
X112850000Y-85040000D02*
X112850000Y-86511000D01*
X112890000Y-81499000D02*
X112890000Y-82960000D01*
X112890000Y-85040000D02*
X112890000Y-86501000D01*
X112930000Y-81509000D02*
X112930000Y-82960000D01*
X112930000Y-85040000D02*
X112930000Y-86491000D01*
X112971000Y-81520000D02*
X112971000Y-82960000D01*
X112971000Y-85040000D02*
X112971000Y-86480000D01*
X113011000Y-81532000D02*
X113011000Y-82960000D01*
X113011000Y-85040000D02*
X113011000Y-86468000D01*
X113051000Y-81545000D02*
X113051000Y-82960000D01*
X113051000Y-85040000D02*
X113051000Y-86455000D01*
X113091000Y-81558000D02*
X113091000Y-82960000D01*
X113091000Y-85040000D02*
X113091000Y-86442000D01*
X113131000Y-81572000D02*
X113131000Y-82960000D01*
X113131000Y-85040000D02*
X113131000Y-86428000D01*
X113171000Y-81586000D02*
X113171000Y-82960000D01*
X113171000Y-85040000D02*
X113171000Y-86414000D01*
X113211000Y-81602000D02*
X113211000Y-82960000D01*
X113211000Y-85040000D02*
X113211000Y-86398000D01*
X113251000Y-81618000D02*
X113251000Y-82960000D01*
X113251000Y-85040000D02*
X113251000Y-86382000D01*
X113291000Y-81635000D02*
X113291000Y-82960000D01*
X113291000Y-85040000D02*
X113291000Y-86365000D01*
X113331000Y-81652000D02*
X113331000Y-82960000D01*
X113331000Y-85040000D02*
X113331000Y-86348000D01*
X113371000Y-81671000D02*
X113371000Y-82960000D01*
X113371000Y-85040000D02*
X113371000Y-86329000D01*
X113411000Y-81690000D02*
X113411000Y-82960000D01*
X113411000Y-85040000D02*
X113411000Y-86310000D01*
X113451000Y-81710000D02*
X113451000Y-82960000D01*
X113451000Y-85040000D02*
X113451000Y-86290000D01*
X113491000Y-81732000D02*
X113491000Y-82960000D01*
X113491000Y-85040000D02*
X113491000Y-86268000D01*
X113531000Y-81753000D02*
X113531000Y-82960000D01*
X113531000Y-85040000D02*
X113531000Y-86247000D01*
X113571000Y-81776000D02*
X113571000Y-82960000D01*
X113571000Y-85040000D02*
X113571000Y-86224000D01*
X113611000Y-81800000D02*
X113611000Y-82960000D01*
X113611000Y-85040000D02*
X113611000Y-86200000D01*
X113651000Y-81825000D02*
X113651000Y-82960000D01*
X113651000Y-85040000D02*
X113651000Y-86175000D01*
X113691000Y-81851000D02*
X113691000Y-82960000D01*
X113691000Y-85040000D02*
X113691000Y-86149000D01*
X113731000Y-81878000D02*
X113731000Y-82960000D01*
X113731000Y-85040000D02*
X113731000Y-86122000D01*
X113771000Y-81905000D02*
X113771000Y-82960000D01*
X113771000Y-85040000D02*
X113771000Y-86095000D01*
X113811000Y-81935000D02*
X113811000Y-82960000D01*
X113811000Y-85040000D02*
X113811000Y-86065000D01*
X113851000Y-81965000D02*
X113851000Y-82960000D01*
X113851000Y-85040000D02*
X113851000Y-86035000D01*
X113891000Y-81996000D02*
X113891000Y-82960000D01*
X113891000Y-85040000D02*
X113891000Y-86004000D01*
X113931000Y-82029000D02*
X113931000Y-82960000D01*
X113931000Y-85040000D02*
X113931000Y-85971000D01*
X113971000Y-82063000D02*
X113971000Y-82960000D01*
X113971000Y-85040000D02*
X113971000Y-85937000D01*
X114011000Y-82099000D02*
X114011000Y-82960000D01*
X114011000Y-85040000D02*
X114011000Y-85901000D01*
X114051000Y-82136000D02*
X114051000Y-82960000D01*
X114051000Y-85040000D02*
X114051000Y-85864000D01*
X114091000Y-82174000D02*
X114091000Y-82960000D01*
X114091000Y-85040000D02*
X114091000Y-85826000D01*
X114131000Y-82215000D02*
X114131000Y-82960000D01*
X114131000Y-85040000D02*
X114131000Y-85785000D01*
X114171000Y-82257000D02*
X114171000Y-82960000D01*
X114171000Y-85040000D02*
X114171000Y-85743000D01*
X114211000Y-82301000D02*
X114211000Y-82960000D01*
X114211000Y-85040000D02*
X114211000Y-85699000D01*
X114251000Y-82347000D02*
X114251000Y-82960000D01*
X114251000Y-85040000D02*
X114251000Y-85653000D01*
X114291000Y-82395000D02*
X114291000Y-82960000D01*
X114291000Y-85040000D02*
X114291000Y-85605000D01*
X114331000Y-82446000D02*
X114331000Y-82960000D01*
X114331000Y-85040000D02*
X114331000Y-85554000D01*
X114371000Y-82500000D02*
X114371000Y-82960000D01*
X114371000Y-85040000D02*
X114371000Y-85500000D01*
X114411000Y-82557000D02*
X114411000Y-82960000D01*
X114411000Y-85040000D02*
X114411000Y-85443000D01*
X114451000Y-82617000D02*
X114451000Y-82960000D01*
X114451000Y-85040000D02*
X114451000Y-85383000D01*
X114491000Y-82681000D02*
X114491000Y-82960000D01*
X114491000Y-85040000D02*
X114491000Y-85319000D01*
X114531000Y-82749000D02*
X114531000Y-82960000D01*
X114531000Y-85040000D02*
X114531000Y-85251000D01*
X114571000Y-82822000D02*
X114571000Y-85178000D01*
X114611000Y-82902000D02*
X114611000Y-85098000D01*
X114651000Y-82989000D02*
X114651000Y-85011000D01*
X114691000Y-83085000D02*
X114691000Y-84915000D01*
X114731000Y-83195000D02*
X114731000Y-84805000D01*
X114771000Y-83323000D02*
X114771000Y-84677000D01*
X114811000Y-83482000D02*
X114811000Y-84518000D01*
X114851000Y-83716000D02*
X114851000Y-84284000D01*
X109445225Y-82525000D02*
X109945225Y-82525000D01*
X109695225Y-82275000D02*
X109695225Y-82775000D01*
%TO.C,C6*%
X142470000Y-93190000D02*
G75*
G03*
X142470000Y-93190000I-2620000J0D01*
G01*
X142430000Y-93190000D02*
X137270000Y-93190000D01*
X142430000Y-93230000D02*
X137270000Y-93230000D01*
X142429000Y-93270000D02*
X137271000Y-93270000D01*
X142428000Y-93310000D02*
X137272000Y-93310000D01*
X142426000Y-93350000D02*
X137274000Y-93350000D01*
X142423000Y-93390000D02*
X137277000Y-93390000D01*
X142419000Y-93430000D02*
X140890000Y-93430000D01*
X138810000Y-93430000D02*
X137281000Y-93430000D01*
X142415000Y-93470000D02*
X140890000Y-93470000D01*
X138810000Y-93470000D02*
X137285000Y-93470000D01*
X142411000Y-93510000D02*
X140890000Y-93510000D01*
X138810000Y-93510000D02*
X137289000Y-93510000D01*
X142406000Y-93550000D02*
X140890000Y-93550000D01*
X138810000Y-93550000D02*
X137294000Y-93550000D01*
X142400000Y-93590000D02*
X140890000Y-93590000D01*
X138810000Y-93590000D02*
X137300000Y-93590000D01*
X142393000Y-93630000D02*
X140890000Y-93630000D01*
X138810000Y-93630000D02*
X137307000Y-93630000D01*
X142386000Y-93670000D02*
X140890000Y-93670000D01*
X138810000Y-93670000D02*
X137314000Y-93670000D01*
X142378000Y-93710000D02*
X140890000Y-93710000D01*
X138810000Y-93710000D02*
X137322000Y-93710000D01*
X142370000Y-93750000D02*
X140890000Y-93750000D01*
X138810000Y-93750000D02*
X137330000Y-93750000D01*
X142361000Y-93790000D02*
X140890000Y-93790000D01*
X138810000Y-93790000D02*
X137339000Y-93790000D01*
X142351000Y-93830000D02*
X140890000Y-93830000D01*
X138810000Y-93830000D02*
X137349000Y-93830000D01*
X142341000Y-93870000D02*
X140890000Y-93870000D01*
X138810000Y-93870000D02*
X137359000Y-93870000D01*
X142330000Y-93911000D02*
X140890000Y-93911000D01*
X138810000Y-93911000D02*
X137370000Y-93911000D01*
X142318000Y-93951000D02*
X140890000Y-93951000D01*
X138810000Y-93951000D02*
X137382000Y-93951000D01*
X142305000Y-93991000D02*
X140890000Y-93991000D01*
X138810000Y-93991000D02*
X137395000Y-93991000D01*
X142292000Y-94031000D02*
X140890000Y-94031000D01*
X138810000Y-94031000D02*
X137408000Y-94031000D01*
X142278000Y-94071000D02*
X140890000Y-94071000D01*
X138810000Y-94071000D02*
X137422000Y-94071000D01*
X142264000Y-94111000D02*
X140890000Y-94111000D01*
X138810000Y-94111000D02*
X137436000Y-94111000D01*
X142248000Y-94151000D02*
X140890000Y-94151000D01*
X138810000Y-94151000D02*
X137452000Y-94151000D01*
X142232000Y-94191000D02*
X140890000Y-94191000D01*
X138810000Y-94191000D02*
X137468000Y-94191000D01*
X142215000Y-94231000D02*
X140890000Y-94231000D01*
X138810000Y-94231000D02*
X137485000Y-94231000D01*
X142198000Y-94271000D02*
X140890000Y-94271000D01*
X138810000Y-94271000D02*
X137502000Y-94271000D01*
X142179000Y-94311000D02*
X140890000Y-94311000D01*
X138810000Y-94311000D02*
X137521000Y-94311000D01*
X142160000Y-94351000D02*
X140890000Y-94351000D01*
X138810000Y-94351000D02*
X137540000Y-94351000D01*
X142140000Y-94391000D02*
X140890000Y-94391000D01*
X138810000Y-94391000D02*
X137560000Y-94391000D01*
X142118000Y-94431000D02*
X140890000Y-94431000D01*
X138810000Y-94431000D02*
X137582000Y-94431000D01*
X142097000Y-94471000D02*
X140890000Y-94471000D01*
X138810000Y-94471000D02*
X137603000Y-94471000D01*
X142074000Y-94511000D02*
X140890000Y-94511000D01*
X138810000Y-94511000D02*
X137626000Y-94511000D01*
X142050000Y-94551000D02*
X140890000Y-94551000D01*
X138810000Y-94551000D02*
X137650000Y-94551000D01*
X142025000Y-94591000D02*
X140890000Y-94591000D01*
X138810000Y-94591000D02*
X137675000Y-94591000D01*
X141999000Y-94631000D02*
X140890000Y-94631000D01*
X138810000Y-94631000D02*
X137701000Y-94631000D01*
X141972000Y-94671000D02*
X140890000Y-94671000D01*
X138810000Y-94671000D02*
X137728000Y-94671000D01*
X141945000Y-94711000D02*
X140890000Y-94711000D01*
X138810000Y-94711000D02*
X137755000Y-94711000D01*
X141915000Y-94751000D02*
X140890000Y-94751000D01*
X138810000Y-94751000D02*
X137785000Y-94751000D01*
X141885000Y-94791000D02*
X140890000Y-94791000D01*
X138810000Y-94791000D02*
X137815000Y-94791000D01*
X141854000Y-94831000D02*
X140890000Y-94831000D01*
X138810000Y-94831000D02*
X137846000Y-94831000D01*
X141821000Y-94871000D02*
X140890000Y-94871000D01*
X138810000Y-94871000D02*
X137879000Y-94871000D01*
X141787000Y-94911000D02*
X140890000Y-94911000D01*
X138810000Y-94911000D02*
X137913000Y-94911000D01*
X141751000Y-94951000D02*
X140890000Y-94951000D01*
X138810000Y-94951000D02*
X137949000Y-94951000D01*
X141714000Y-94991000D02*
X140890000Y-94991000D01*
X138810000Y-94991000D02*
X137986000Y-94991000D01*
X141676000Y-95031000D02*
X140890000Y-95031000D01*
X138810000Y-95031000D02*
X138024000Y-95031000D01*
X141635000Y-95071000D02*
X140890000Y-95071000D01*
X138810000Y-95071000D02*
X138065000Y-95071000D01*
X141593000Y-95111000D02*
X140890000Y-95111000D01*
X138810000Y-95111000D02*
X138107000Y-95111000D01*
X141549000Y-95151000D02*
X140890000Y-95151000D01*
X138810000Y-95151000D02*
X138151000Y-95151000D01*
X141503000Y-95191000D02*
X140890000Y-95191000D01*
X138810000Y-95191000D02*
X138197000Y-95191000D01*
X141455000Y-95231000D02*
X140890000Y-95231000D01*
X138810000Y-95231000D02*
X138245000Y-95231000D01*
X141404000Y-95271000D02*
X140890000Y-95271000D01*
X138810000Y-95271000D02*
X138296000Y-95271000D01*
X141350000Y-95311000D02*
X140890000Y-95311000D01*
X138810000Y-95311000D02*
X138350000Y-95311000D01*
X141293000Y-95351000D02*
X140890000Y-95351000D01*
X138810000Y-95351000D02*
X138407000Y-95351000D01*
X141233000Y-95391000D02*
X140890000Y-95391000D01*
X138810000Y-95391000D02*
X138467000Y-95391000D01*
X141169000Y-95431000D02*
X140890000Y-95431000D01*
X138810000Y-95431000D02*
X138531000Y-95431000D01*
X141101000Y-95471000D02*
X140890000Y-95471000D01*
X138810000Y-95471000D02*
X138599000Y-95471000D01*
X141028000Y-95511000D02*
X138672000Y-95511000D01*
X140948000Y-95551000D02*
X138752000Y-95551000D01*
X140861000Y-95591000D02*
X138839000Y-95591000D01*
X140765000Y-95631000D02*
X138935000Y-95631000D01*
X140655000Y-95671000D02*
X139045000Y-95671000D01*
X140527000Y-95711000D02*
X139173000Y-95711000D01*
X140368000Y-95751000D02*
X139332000Y-95751000D01*
X140134000Y-95791000D02*
X139566000Y-95791000D01*
X141325000Y-90385225D02*
X141325000Y-90885225D01*
X141575000Y-90635225D02*
X141075000Y-90635225D01*
%TO.C,C5*%
X133580000Y-93190000D02*
G75*
G03*
X133580000Y-93190000I-2620000J0D01*
G01*
X133540000Y-93190000D02*
X128380000Y-93190000D01*
X133540000Y-93230000D02*
X128380000Y-93230000D01*
X133539000Y-93270000D02*
X128381000Y-93270000D01*
X133538000Y-93310000D02*
X128382000Y-93310000D01*
X133536000Y-93350000D02*
X128384000Y-93350000D01*
X133533000Y-93390000D02*
X128387000Y-93390000D01*
X133529000Y-93430000D02*
X132000000Y-93430000D01*
X129920000Y-93430000D02*
X128391000Y-93430000D01*
X133525000Y-93470000D02*
X132000000Y-93470000D01*
X129920000Y-93470000D02*
X128395000Y-93470000D01*
X133521000Y-93510000D02*
X132000000Y-93510000D01*
X129920000Y-93510000D02*
X128399000Y-93510000D01*
X133516000Y-93550000D02*
X132000000Y-93550000D01*
X129920000Y-93550000D02*
X128404000Y-93550000D01*
X133510000Y-93590000D02*
X132000000Y-93590000D01*
X129920000Y-93590000D02*
X128410000Y-93590000D01*
X133503000Y-93630000D02*
X132000000Y-93630000D01*
X129920000Y-93630000D02*
X128417000Y-93630000D01*
X133496000Y-93670000D02*
X132000000Y-93670000D01*
X129920000Y-93670000D02*
X128424000Y-93670000D01*
X133488000Y-93710000D02*
X132000000Y-93710000D01*
X129920000Y-93710000D02*
X128432000Y-93710000D01*
X133480000Y-93750000D02*
X132000000Y-93750000D01*
X129920000Y-93750000D02*
X128440000Y-93750000D01*
X133471000Y-93790000D02*
X132000000Y-93790000D01*
X129920000Y-93790000D02*
X128449000Y-93790000D01*
X133461000Y-93830000D02*
X132000000Y-93830000D01*
X129920000Y-93830000D02*
X128459000Y-93830000D01*
X133451000Y-93870000D02*
X132000000Y-93870000D01*
X129920000Y-93870000D02*
X128469000Y-93870000D01*
X133440000Y-93911000D02*
X132000000Y-93911000D01*
X129920000Y-93911000D02*
X128480000Y-93911000D01*
X133428000Y-93951000D02*
X132000000Y-93951000D01*
X129920000Y-93951000D02*
X128492000Y-93951000D01*
X133415000Y-93991000D02*
X132000000Y-93991000D01*
X129920000Y-93991000D02*
X128505000Y-93991000D01*
X133402000Y-94031000D02*
X132000000Y-94031000D01*
X129920000Y-94031000D02*
X128518000Y-94031000D01*
X133388000Y-94071000D02*
X132000000Y-94071000D01*
X129920000Y-94071000D02*
X128532000Y-94071000D01*
X133374000Y-94111000D02*
X132000000Y-94111000D01*
X129920000Y-94111000D02*
X128546000Y-94111000D01*
X133358000Y-94151000D02*
X132000000Y-94151000D01*
X129920000Y-94151000D02*
X128562000Y-94151000D01*
X133342000Y-94191000D02*
X132000000Y-94191000D01*
X129920000Y-94191000D02*
X128578000Y-94191000D01*
X133325000Y-94231000D02*
X132000000Y-94231000D01*
X129920000Y-94231000D02*
X128595000Y-94231000D01*
X133308000Y-94271000D02*
X132000000Y-94271000D01*
X129920000Y-94271000D02*
X128612000Y-94271000D01*
X133289000Y-94311000D02*
X132000000Y-94311000D01*
X129920000Y-94311000D02*
X128631000Y-94311000D01*
X133270000Y-94351000D02*
X132000000Y-94351000D01*
X129920000Y-94351000D02*
X128650000Y-94351000D01*
X133250000Y-94391000D02*
X132000000Y-94391000D01*
X129920000Y-94391000D02*
X128670000Y-94391000D01*
X133228000Y-94431000D02*
X132000000Y-94431000D01*
X129920000Y-94431000D02*
X128692000Y-94431000D01*
X133207000Y-94471000D02*
X132000000Y-94471000D01*
X129920000Y-94471000D02*
X128713000Y-94471000D01*
X133184000Y-94511000D02*
X132000000Y-94511000D01*
X129920000Y-94511000D02*
X128736000Y-94511000D01*
X133160000Y-94551000D02*
X132000000Y-94551000D01*
X129920000Y-94551000D02*
X128760000Y-94551000D01*
X133135000Y-94591000D02*
X132000000Y-94591000D01*
X129920000Y-94591000D02*
X128785000Y-94591000D01*
X133109000Y-94631000D02*
X132000000Y-94631000D01*
X129920000Y-94631000D02*
X128811000Y-94631000D01*
X133082000Y-94671000D02*
X132000000Y-94671000D01*
X129920000Y-94671000D02*
X128838000Y-94671000D01*
X133055000Y-94711000D02*
X132000000Y-94711000D01*
X129920000Y-94711000D02*
X128865000Y-94711000D01*
X133025000Y-94751000D02*
X132000000Y-94751000D01*
X129920000Y-94751000D02*
X128895000Y-94751000D01*
X132995000Y-94791000D02*
X132000000Y-94791000D01*
X129920000Y-94791000D02*
X128925000Y-94791000D01*
X132964000Y-94831000D02*
X132000000Y-94831000D01*
X129920000Y-94831000D02*
X128956000Y-94831000D01*
X132931000Y-94871000D02*
X132000000Y-94871000D01*
X129920000Y-94871000D02*
X128989000Y-94871000D01*
X132897000Y-94911000D02*
X132000000Y-94911000D01*
X129920000Y-94911000D02*
X129023000Y-94911000D01*
X132861000Y-94951000D02*
X132000000Y-94951000D01*
X129920000Y-94951000D02*
X129059000Y-94951000D01*
X132824000Y-94991000D02*
X132000000Y-94991000D01*
X129920000Y-94991000D02*
X129096000Y-94991000D01*
X132786000Y-95031000D02*
X132000000Y-95031000D01*
X129920000Y-95031000D02*
X129134000Y-95031000D01*
X132745000Y-95071000D02*
X132000000Y-95071000D01*
X129920000Y-95071000D02*
X129175000Y-95071000D01*
X132703000Y-95111000D02*
X132000000Y-95111000D01*
X129920000Y-95111000D02*
X129217000Y-95111000D01*
X132659000Y-95151000D02*
X132000000Y-95151000D01*
X129920000Y-95151000D02*
X129261000Y-95151000D01*
X132613000Y-95191000D02*
X132000000Y-95191000D01*
X129920000Y-95191000D02*
X129307000Y-95191000D01*
X132565000Y-95231000D02*
X132000000Y-95231000D01*
X129920000Y-95231000D02*
X129355000Y-95231000D01*
X132514000Y-95271000D02*
X132000000Y-95271000D01*
X129920000Y-95271000D02*
X129406000Y-95271000D01*
X132460000Y-95311000D02*
X132000000Y-95311000D01*
X129920000Y-95311000D02*
X129460000Y-95311000D01*
X132403000Y-95351000D02*
X132000000Y-95351000D01*
X129920000Y-95351000D02*
X129517000Y-95351000D01*
X132343000Y-95391000D02*
X132000000Y-95391000D01*
X129920000Y-95391000D02*
X129577000Y-95391000D01*
X132279000Y-95431000D02*
X132000000Y-95431000D01*
X129920000Y-95431000D02*
X129641000Y-95431000D01*
X132211000Y-95471000D02*
X132000000Y-95471000D01*
X129920000Y-95471000D02*
X129709000Y-95471000D01*
X132138000Y-95511000D02*
X129782000Y-95511000D01*
X132058000Y-95551000D02*
X129862000Y-95551000D01*
X131971000Y-95591000D02*
X129949000Y-95591000D01*
X131875000Y-95631000D02*
X130045000Y-95631000D01*
X131765000Y-95671000D02*
X130155000Y-95671000D01*
X131637000Y-95711000D02*
X130283000Y-95711000D01*
X131478000Y-95751000D02*
X130442000Y-95751000D01*
X131244000Y-95791000D02*
X130676000Y-95791000D01*
X132435000Y-90385225D02*
X132435000Y-90885225D01*
X132685000Y-90635225D02*
X132185000Y-90635225D01*
%TO.C,C4*%
X122170000Y-91940000D02*
G75*
G03*
X122170000Y-91940000I-2620000J0D01*
G01*
X119550000Y-94520000D02*
X119550000Y-89360000D01*
X119510000Y-94520000D02*
X119510000Y-89360000D01*
X119470000Y-94519000D02*
X119470000Y-89361000D01*
X119430000Y-94518000D02*
X119430000Y-89362000D01*
X119390000Y-94516000D02*
X119390000Y-89364000D01*
X119350000Y-94513000D02*
X119350000Y-89367000D01*
X119310000Y-94509000D02*
X119310000Y-92980000D01*
X119310000Y-90900000D02*
X119310000Y-89371000D01*
X119270000Y-94505000D02*
X119270000Y-92980000D01*
X119270000Y-90900000D02*
X119270000Y-89375000D01*
X119230000Y-94501000D02*
X119230000Y-92980000D01*
X119230000Y-90900000D02*
X119230000Y-89379000D01*
X119190000Y-94496000D02*
X119190000Y-92980000D01*
X119190000Y-90900000D02*
X119190000Y-89384000D01*
X119150000Y-94490000D02*
X119150000Y-92980000D01*
X119150000Y-90900000D02*
X119150000Y-89390000D01*
X119110000Y-94483000D02*
X119110000Y-92980000D01*
X119110000Y-90900000D02*
X119110000Y-89397000D01*
X119070000Y-94476000D02*
X119070000Y-92980000D01*
X119070000Y-90900000D02*
X119070000Y-89404000D01*
X119030000Y-94468000D02*
X119030000Y-92980000D01*
X119030000Y-90900000D02*
X119030000Y-89412000D01*
X118990000Y-94460000D02*
X118990000Y-92980000D01*
X118990000Y-90900000D02*
X118990000Y-89420000D01*
X118950000Y-94451000D02*
X118950000Y-92980000D01*
X118950000Y-90900000D02*
X118950000Y-89429000D01*
X118910000Y-94441000D02*
X118910000Y-92980000D01*
X118910000Y-90900000D02*
X118910000Y-89439000D01*
X118870000Y-94431000D02*
X118870000Y-92980000D01*
X118870000Y-90900000D02*
X118870000Y-89449000D01*
X118829000Y-94420000D02*
X118829000Y-92980000D01*
X118829000Y-90900000D02*
X118829000Y-89460000D01*
X118789000Y-94408000D02*
X118789000Y-92980000D01*
X118789000Y-90900000D02*
X118789000Y-89472000D01*
X118749000Y-94395000D02*
X118749000Y-92980000D01*
X118749000Y-90900000D02*
X118749000Y-89485000D01*
X118709000Y-94382000D02*
X118709000Y-92980000D01*
X118709000Y-90900000D02*
X118709000Y-89498000D01*
X118669000Y-94368000D02*
X118669000Y-92980000D01*
X118669000Y-90900000D02*
X118669000Y-89512000D01*
X118629000Y-94354000D02*
X118629000Y-92980000D01*
X118629000Y-90900000D02*
X118629000Y-89526000D01*
X118589000Y-94338000D02*
X118589000Y-92980000D01*
X118589000Y-90900000D02*
X118589000Y-89542000D01*
X118549000Y-94322000D02*
X118549000Y-92980000D01*
X118549000Y-90900000D02*
X118549000Y-89558000D01*
X118509000Y-94305000D02*
X118509000Y-92980000D01*
X118509000Y-90900000D02*
X118509000Y-89575000D01*
X118469000Y-94288000D02*
X118469000Y-92980000D01*
X118469000Y-90900000D02*
X118469000Y-89592000D01*
X118429000Y-94269000D02*
X118429000Y-92980000D01*
X118429000Y-90900000D02*
X118429000Y-89611000D01*
X118389000Y-94250000D02*
X118389000Y-92980000D01*
X118389000Y-90900000D02*
X118389000Y-89630000D01*
X118349000Y-94230000D02*
X118349000Y-92980000D01*
X118349000Y-90900000D02*
X118349000Y-89650000D01*
X118309000Y-94208000D02*
X118309000Y-92980000D01*
X118309000Y-90900000D02*
X118309000Y-89672000D01*
X118269000Y-94187000D02*
X118269000Y-92980000D01*
X118269000Y-90900000D02*
X118269000Y-89693000D01*
X118229000Y-94164000D02*
X118229000Y-92980000D01*
X118229000Y-90900000D02*
X118229000Y-89716000D01*
X118189000Y-94140000D02*
X118189000Y-92980000D01*
X118189000Y-90900000D02*
X118189000Y-89740000D01*
X118149000Y-94115000D02*
X118149000Y-92980000D01*
X118149000Y-90900000D02*
X118149000Y-89765000D01*
X118109000Y-94089000D02*
X118109000Y-92980000D01*
X118109000Y-90900000D02*
X118109000Y-89791000D01*
X118069000Y-94062000D02*
X118069000Y-92980000D01*
X118069000Y-90900000D02*
X118069000Y-89818000D01*
X118029000Y-94035000D02*
X118029000Y-92980000D01*
X118029000Y-90900000D02*
X118029000Y-89845000D01*
X117989000Y-94005000D02*
X117989000Y-92980000D01*
X117989000Y-90900000D02*
X117989000Y-89875000D01*
X117949000Y-93975000D02*
X117949000Y-92980000D01*
X117949000Y-90900000D02*
X117949000Y-89905000D01*
X117909000Y-93944000D02*
X117909000Y-92980000D01*
X117909000Y-90900000D02*
X117909000Y-89936000D01*
X117869000Y-93911000D02*
X117869000Y-92980000D01*
X117869000Y-90900000D02*
X117869000Y-89969000D01*
X117829000Y-93877000D02*
X117829000Y-92980000D01*
X117829000Y-90900000D02*
X117829000Y-90003000D01*
X117789000Y-93841000D02*
X117789000Y-92980000D01*
X117789000Y-90900000D02*
X117789000Y-90039000D01*
X117749000Y-93804000D02*
X117749000Y-92980000D01*
X117749000Y-90900000D02*
X117749000Y-90076000D01*
X117709000Y-93766000D02*
X117709000Y-92980000D01*
X117709000Y-90900000D02*
X117709000Y-90114000D01*
X117669000Y-93725000D02*
X117669000Y-92980000D01*
X117669000Y-90900000D02*
X117669000Y-90155000D01*
X117629000Y-93683000D02*
X117629000Y-92980000D01*
X117629000Y-90900000D02*
X117629000Y-90197000D01*
X117589000Y-93639000D02*
X117589000Y-92980000D01*
X117589000Y-90900000D02*
X117589000Y-90241000D01*
X117549000Y-93593000D02*
X117549000Y-92980000D01*
X117549000Y-90900000D02*
X117549000Y-90287000D01*
X117509000Y-93545000D02*
X117509000Y-92980000D01*
X117509000Y-90900000D02*
X117509000Y-90335000D01*
X117469000Y-93494000D02*
X117469000Y-92980000D01*
X117469000Y-90900000D02*
X117469000Y-90386000D01*
X117429000Y-93440000D02*
X117429000Y-92980000D01*
X117429000Y-90900000D02*
X117429000Y-90440000D01*
X117389000Y-93383000D02*
X117389000Y-92980000D01*
X117389000Y-90900000D02*
X117389000Y-90497000D01*
X117349000Y-93323000D02*
X117349000Y-92980000D01*
X117349000Y-90900000D02*
X117349000Y-90557000D01*
X117309000Y-93259000D02*
X117309000Y-92980000D01*
X117309000Y-90900000D02*
X117309000Y-90621000D01*
X117269000Y-93191000D02*
X117269000Y-92980000D01*
X117269000Y-90900000D02*
X117269000Y-90689000D01*
X117229000Y-93118000D02*
X117229000Y-90762000D01*
X117189000Y-93038000D02*
X117189000Y-90842000D01*
X117149000Y-92951000D02*
X117149000Y-90929000D01*
X117109000Y-92855000D02*
X117109000Y-91025000D01*
X117069000Y-92745000D02*
X117069000Y-91135000D01*
X117029000Y-92617000D02*
X117029000Y-91263000D01*
X116989000Y-92458000D02*
X116989000Y-91422000D01*
X116949000Y-92224000D02*
X116949000Y-91656000D01*
X122354775Y-93415000D02*
X121854775Y-93415000D01*
X122104775Y-93665000D02*
X122104775Y-93165000D01*
%TO.C,C2*%
X138660000Y-99540000D02*
G75*
G03*
X138660000Y-99540000I-2620000J0D01*
G01*
X138620000Y-99540000D02*
X133460000Y-99540000D01*
X138620000Y-99580000D02*
X133460000Y-99580000D01*
X138619000Y-99620000D02*
X133461000Y-99620000D01*
X138618000Y-99660000D02*
X133462000Y-99660000D01*
X138616000Y-99700000D02*
X133464000Y-99700000D01*
X138613000Y-99740000D02*
X133467000Y-99740000D01*
X138609000Y-99780000D02*
X137080000Y-99780000D01*
X135000000Y-99780000D02*
X133471000Y-99780000D01*
X138605000Y-99820000D02*
X137080000Y-99820000D01*
X135000000Y-99820000D02*
X133475000Y-99820000D01*
X138601000Y-99860000D02*
X137080000Y-99860000D01*
X135000000Y-99860000D02*
X133479000Y-99860000D01*
X138596000Y-99900000D02*
X137080000Y-99900000D01*
X135000000Y-99900000D02*
X133484000Y-99900000D01*
X138590000Y-99940000D02*
X137080000Y-99940000D01*
X135000000Y-99940000D02*
X133490000Y-99940000D01*
X138583000Y-99980000D02*
X137080000Y-99980000D01*
X135000000Y-99980000D02*
X133497000Y-99980000D01*
X138576000Y-100020000D02*
X137080000Y-100020000D01*
X135000000Y-100020000D02*
X133504000Y-100020000D01*
X138568000Y-100060000D02*
X137080000Y-100060000D01*
X135000000Y-100060000D02*
X133512000Y-100060000D01*
X138560000Y-100100000D02*
X137080000Y-100100000D01*
X135000000Y-100100000D02*
X133520000Y-100100000D01*
X138551000Y-100140000D02*
X137080000Y-100140000D01*
X135000000Y-100140000D02*
X133529000Y-100140000D01*
X138541000Y-100180000D02*
X137080000Y-100180000D01*
X135000000Y-100180000D02*
X133539000Y-100180000D01*
X138531000Y-100220000D02*
X137080000Y-100220000D01*
X135000000Y-100220000D02*
X133549000Y-100220000D01*
X138520000Y-100261000D02*
X137080000Y-100261000D01*
X135000000Y-100261000D02*
X133560000Y-100261000D01*
X138508000Y-100301000D02*
X137080000Y-100301000D01*
X135000000Y-100301000D02*
X133572000Y-100301000D01*
X138495000Y-100341000D02*
X137080000Y-100341000D01*
X135000000Y-100341000D02*
X133585000Y-100341000D01*
X138482000Y-100381000D02*
X137080000Y-100381000D01*
X135000000Y-100381000D02*
X133598000Y-100381000D01*
X138468000Y-100421000D02*
X137080000Y-100421000D01*
X135000000Y-100421000D02*
X133612000Y-100421000D01*
X138454000Y-100461000D02*
X137080000Y-100461000D01*
X135000000Y-100461000D02*
X133626000Y-100461000D01*
X138438000Y-100501000D02*
X137080000Y-100501000D01*
X135000000Y-100501000D02*
X133642000Y-100501000D01*
X138422000Y-100541000D02*
X137080000Y-100541000D01*
X135000000Y-100541000D02*
X133658000Y-100541000D01*
X138405000Y-100581000D02*
X137080000Y-100581000D01*
X135000000Y-100581000D02*
X133675000Y-100581000D01*
X138388000Y-100621000D02*
X137080000Y-100621000D01*
X135000000Y-100621000D02*
X133692000Y-100621000D01*
X138369000Y-100661000D02*
X137080000Y-100661000D01*
X135000000Y-100661000D02*
X133711000Y-100661000D01*
X138350000Y-100701000D02*
X137080000Y-100701000D01*
X135000000Y-100701000D02*
X133730000Y-100701000D01*
X138330000Y-100741000D02*
X137080000Y-100741000D01*
X135000000Y-100741000D02*
X133750000Y-100741000D01*
X138308000Y-100781000D02*
X137080000Y-100781000D01*
X135000000Y-100781000D02*
X133772000Y-100781000D01*
X138287000Y-100821000D02*
X137080000Y-100821000D01*
X135000000Y-100821000D02*
X133793000Y-100821000D01*
X138264000Y-100861000D02*
X137080000Y-100861000D01*
X135000000Y-100861000D02*
X133816000Y-100861000D01*
X138240000Y-100901000D02*
X137080000Y-100901000D01*
X135000000Y-100901000D02*
X133840000Y-100901000D01*
X138215000Y-100941000D02*
X137080000Y-100941000D01*
X135000000Y-100941000D02*
X133865000Y-100941000D01*
X138189000Y-100981000D02*
X137080000Y-100981000D01*
X135000000Y-100981000D02*
X133891000Y-100981000D01*
X138162000Y-101021000D02*
X137080000Y-101021000D01*
X135000000Y-101021000D02*
X133918000Y-101021000D01*
X138135000Y-101061000D02*
X137080000Y-101061000D01*
X135000000Y-101061000D02*
X133945000Y-101061000D01*
X138105000Y-101101000D02*
X137080000Y-101101000D01*
X135000000Y-101101000D02*
X133975000Y-101101000D01*
X138075000Y-101141000D02*
X137080000Y-101141000D01*
X135000000Y-101141000D02*
X134005000Y-101141000D01*
X138044000Y-101181000D02*
X137080000Y-101181000D01*
X135000000Y-101181000D02*
X134036000Y-101181000D01*
X138011000Y-101221000D02*
X137080000Y-101221000D01*
X135000000Y-101221000D02*
X134069000Y-101221000D01*
X137977000Y-101261000D02*
X137080000Y-101261000D01*
X135000000Y-101261000D02*
X134103000Y-101261000D01*
X137941000Y-101301000D02*
X137080000Y-101301000D01*
X135000000Y-101301000D02*
X134139000Y-101301000D01*
X137904000Y-101341000D02*
X137080000Y-101341000D01*
X135000000Y-101341000D02*
X134176000Y-101341000D01*
X137866000Y-101381000D02*
X137080000Y-101381000D01*
X135000000Y-101381000D02*
X134214000Y-101381000D01*
X137825000Y-101421000D02*
X137080000Y-101421000D01*
X135000000Y-101421000D02*
X134255000Y-101421000D01*
X137783000Y-101461000D02*
X137080000Y-101461000D01*
X135000000Y-101461000D02*
X134297000Y-101461000D01*
X137739000Y-101501000D02*
X137080000Y-101501000D01*
X135000000Y-101501000D02*
X134341000Y-101501000D01*
X137693000Y-101541000D02*
X137080000Y-101541000D01*
X135000000Y-101541000D02*
X134387000Y-101541000D01*
X137645000Y-101581000D02*
X137080000Y-101581000D01*
X135000000Y-101581000D02*
X134435000Y-101581000D01*
X137594000Y-101621000D02*
X137080000Y-101621000D01*
X135000000Y-101621000D02*
X134486000Y-101621000D01*
X137540000Y-101661000D02*
X137080000Y-101661000D01*
X135000000Y-101661000D02*
X134540000Y-101661000D01*
X137483000Y-101701000D02*
X137080000Y-101701000D01*
X135000000Y-101701000D02*
X134597000Y-101701000D01*
X137423000Y-101741000D02*
X137080000Y-101741000D01*
X135000000Y-101741000D02*
X134657000Y-101741000D01*
X137359000Y-101781000D02*
X137080000Y-101781000D01*
X135000000Y-101781000D02*
X134721000Y-101781000D01*
X137291000Y-101821000D02*
X137080000Y-101821000D01*
X135000000Y-101821000D02*
X134789000Y-101821000D01*
X137218000Y-101861000D02*
X134862000Y-101861000D01*
X137138000Y-101901000D02*
X134942000Y-101901000D01*
X137051000Y-101941000D02*
X135029000Y-101941000D01*
X136955000Y-101981000D02*
X135125000Y-101981000D01*
X136845000Y-102021000D02*
X135235000Y-102021000D01*
X136717000Y-102061000D02*
X135363000Y-102061000D01*
X136558000Y-102101000D02*
X135522000Y-102101000D01*
X136324000Y-102141000D02*
X135756000Y-102141000D01*
X137515000Y-96735225D02*
X137515000Y-97235225D01*
X137765000Y-96985225D02*
X137265000Y-96985225D01*
%TO.C,C1*%
X129770000Y-99540000D02*
G75*
G03*
X129770000Y-99540000I-2620000J0D01*
G01*
X129730000Y-99540000D02*
X124570000Y-99540000D01*
X129730000Y-99580000D02*
X124570000Y-99580000D01*
X129729000Y-99620000D02*
X124571000Y-99620000D01*
X129728000Y-99660000D02*
X124572000Y-99660000D01*
X129726000Y-99700000D02*
X124574000Y-99700000D01*
X129723000Y-99740000D02*
X124577000Y-99740000D01*
X129719000Y-99780000D02*
X128190000Y-99780000D01*
X126110000Y-99780000D02*
X124581000Y-99780000D01*
X129715000Y-99820000D02*
X128190000Y-99820000D01*
X126110000Y-99820000D02*
X124585000Y-99820000D01*
X129711000Y-99860000D02*
X128190000Y-99860000D01*
X126110000Y-99860000D02*
X124589000Y-99860000D01*
X129706000Y-99900000D02*
X128190000Y-99900000D01*
X126110000Y-99900000D02*
X124594000Y-99900000D01*
X129700000Y-99940000D02*
X128190000Y-99940000D01*
X126110000Y-99940000D02*
X124600000Y-99940000D01*
X129693000Y-99980000D02*
X128190000Y-99980000D01*
X126110000Y-99980000D02*
X124607000Y-99980000D01*
X129686000Y-100020000D02*
X128190000Y-100020000D01*
X126110000Y-100020000D02*
X124614000Y-100020000D01*
X129678000Y-100060000D02*
X128190000Y-100060000D01*
X126110000Y-100060000D02*
X124622000Y-100060000D01*
X129670000Y-100100000D02*
X128190000Y-100100000D01*
X126110000Y-100100000D02*
X124630000Y-100100000D01*
X129661000Y-100140000D02*
X128190000Y-100140000D01*
X126110000Y-100140000D02*
X124639000Y-100140000D01*
X129651000Y-100180000D02*
X128190000Y-100180000D01*
X126110000Y-100180000D02*
X124649000Y-100180000D01*
X129641000Y-100220000D02*
X128190000Y-100220000D01*
X126110000Y-100220000D02*
X124659000Y-100220000D01*
X129630000Y-100261000D02*
X128190000Y-100261000D01*
X126110000Y-100261000D02*
X124670000Y-100261000D01*
X129618000Y-100301000D02*
X128190000Y-100301000D01*
X126110000Y-100301000D02*
X124682000Y-100301000D01*
X129605000Y-100341000D02*
X128190000Y-100341000D01*
X126110000Y-100341000D02*
X124695000Y-100341000D01*
X129592000Y-100381000D02*
X128190000Y-100381000D01*
X126110000Y-100381000D02*
X124708000Y-100381000D01*
X129578000Y-100421000D02*
X128190000Y-100421000D01*
X126110000Y-100421000D02*
X124722000Y-100421000D01*
X129564000Y-100461000D02*
X128190000Y-100461000D01*
X126110000Y-100461000D02*
X124736000Y-100461000D01*
X129548000Y-100501000D02*
X128190000Y-100501000D01*
X126110000Y-100501000D02*
X124752000Y-100501000D01*
X129532000Y-100541000D02*
X128190000Y-100541000D01*
X126110000Y-100541000D02*
X124768000Y-100541000D01*
X129515000Y-100581000D02*
X128190000Y-100581000D01*
X126110000Y-100581000D02*
X124785000Y-100581000D01*
X129498000Y-100621000D02*
X128190000Y-100621000D01*
X126110000Y-100621000D02*
X124802000Y-100621000D01*
X129479000Y-100661000D02*
X128190000Y-100661000D01*
X126110000Y-100661000D02*
X124821000Y-100661000D01*
X129460000Y-100701000D02*
X128190000Y-100701000D01*
X126110000Y-100701000D02*
X124840000Y-100701000D01*
X129440000Y-100741000D02*
X128190000Y-100741000D01*
X126110000Y-100741000D02*
X124860000Y-100741000D01*
X129418000Y-100781000D02*
X128190000Y-100781000D01*
X126110000Y-100781000D02*
X124882000Y-100781000D01*
X129397000Y-100821000D02*
X128190000Y-100821000D01*
X126110000Y-100821000D02*
X124903000Y-100821000D01*
X129374000Y-100861000D02*
X128190000Y-100861000D01*
X126110000Y-100861000D02*
X124926000Y-100861000D01*
X129350000Y-100901000D02*
X128190000Y-100901000D01*
X126110000Y-100901000D02*
X124950000Y-100901000D01*
X129325000Y-100941000D02*
X128190000Y-100941000D01*
X126110000Y-100941000D02*
X124975000Y-100941000D01*
X129299000Y-100981000D02*
X128190000Y-100981000D01*
X126110000Y-100981000D02*
X125001000Y-100981000D01*
X129272000Y-101021000D02*
X128190000Y-101021000D01*
X126110000Y-101021000D02*
X125028000Y-101021000D01*
X129245000Y-101061000D02*
X128190000Y-101061000D01*
X126110000Y-101061000D02*
X125055000Y-101061000D01*
X129215000Y-101101000D02*
X128190000Y-101101000D01*
X126110000Y-101101000D02*
X125085000Y-101101000D01*
X129185000Y-101141000D02*
X128190000Y-101141000D01*
X126110000Y-101141000D02*
X125115000Y-101141000D01*
X129154000Y-101181000D02*
X128190000Y-101181000D01*
X126110000Y-101181000D02*
X125146000Y-101181000D01*
X129121000Y-101221000D02*
X128190000Y-101221000D01*
X126110000Y-101221000D02*
X125179000Y-101221000D01*
X129087000Y-101261000D02*
X128190000Y-101261000D01*
X126110000Y-101261000D02*
X125213000Y-101261000D01*
X129051000Y-101301000D02*
X128190000Y-101301000D01*
X126110000Y-101301000D02*
X125249000Y-101301000D01*
X129014000Y-101341000D02*
X128190000Y-101341000D01*
X126110000Y-101341000D02*
X125286000Y-101341000D01*
X128976000Y-101381000D02*
X128190000Y-101381000D01*
X126110000Y-101381000D02*
X125324000Y-101381000D01*
X128935000Y-101421000D02*
X128190000Y-101421000D01*
X126110000Y-101421000D02*
X125365000Y-101421000D01*
X128893000Y-101461000D02*
X128190000Y-101461000D01*
X126110000Y-101461000D02*
X125407000Y-101461000D01*
X128849000Y-101501000D02*
X128190000Y-101501000D01*
X126110000Y-101501000D02*
X125451000Y-101501000D01*
X128803000Y-101541000D02*
X128190000Y-101541000D01*
X126110000Y-101541000D02*
X125497000Y-101541000D01*
X128755000Y-101581000D02*
X128190000Y-101581000D01*
X126110000Y-101581000D02*
X125545000Y-101581000D01*
X128704000Y-101621000D02*
X128190000Y-101621000D01*
X126110000Y-101621000D02*
X125596000Y-101621000D01*
X128650000Y-101661000D02*
X128190000Y-101661000D01*
X126110000Y-101661000D02*
X125650000Y-101661000D01*
X128593000Y-101701000D02*
X128190000Y-101701000D01*
X126110000Y-101701000D02*
X125707000Y-101701000D01*
X128533000Y-101741000D02*
X128190000Y-101741000D01*
X126110000Y-101741000D02*
X125767000Y-101741000D01*
X128469000Y-101781000D02*
X128190000Y-101781000D01*
X126110000Y-101781000D02*
X125831000Y-101781000D01*
X128401000Y-101821000D02*
X128190000Y-101821000D01*
X126110000Y-101821000D02*
X125899000Y-101821000D01*
X128328000Y-101861000D02*
X125972000Y-101861000D01*
X128248000Y-101901000D02*
X126052000Y-101901000D01*
X128161000Y-101941000D02*
X126139000Y-101941000D01*
X128065000Y-101981000D02*
X126235000Y-101981000D01*
X127955000Y-102021000D02*
X126345000Y-102021000D01*
X127827000Y-102061000D02*
X126473000Y-102061000D01*
X127668000Y-102101000D02*
X126632000Y-102101000D01*
X127434000Y-102141000D02*
X126866000Y-102141000D01*
X128625000Y-96735225D02*
X128625000Y-97235225D01*
X128875000Y-96985225D02*
X128375000Y-96985225D01*
%TO.C,U1*%
X117160000Y-83533333D02*
X117160000Y-87039999D01*
X117520000Y-83533333D02*
X117160000Y-83533333D01*
X117520000Y-80026667D02*
X117520000Y-83533333D01*
X117160000Y-80026667D02*
X117520000Y-80026667D01*
X117160000Y-76520000D02*
X117160000Y-80026667D01*
X142220000Y-76520001D02*
X117160000Y-76520000D01*
X142220000Y-87040000D02*
X142220000Y-76520001D01*
X117160000Y-87039999D02*
X142220000Y-87040000D01*
%TO.C,C3*%
X122354775Y-101285000D02*
X122354775Y-100785000D01*
X122604775Y-101035000D02*
X122104775Y-101035000D01*
X117199000Y-99844000D02*
X117199000Y-99276000D01*
X117239000Y-100078000D02*
X117239000Y-99042000D01*
X117279000Y-100237000D02*
X117279000Y-98883000D01*
X117319000Y-100365000D02*
X117319000Y-98755000D01*
X117359000Y-100475000D02*
X117359000Y-98645000D01*
X117399000Y-100571000D02*
X117399000Y-98549000D01*
X117439000Y-100658000D02*
X117439000Y-98462000D01*
X117479000Y-100738000D02*
X117479000Y-98382000D01*
X117519000Y-100811000D02*
X117519000Y-98309000D01*
X117559000Y-100879000D02*
X117559000Y-98241000D01*
X117599000Y-100943000D02*
X117599000Y-98177000D01*
X117639000Y-101003000D02*
X117639000Y-98117000D01*
X117679000Y-101060000D02*
X117679000Y-98060000D01*
X117719000Y-101114000D02*
X117719000Y-98006000D01*
X117759000Y-101165000D02*
X117759000Y-97955000D01*
X117799000Y-98520000D02*
X117799000Y-97907000D01*
X117799000Y-101213000D02*
X117799000Y-100600000D01*
X117839000Y-98520000D02*
X117839000Y-97861000D01*
X117839000Y-101259000D02*
X117839000Y-100600000D01*
X117879000Y-98520000D02*
X117879000Y-97817000D01*
X117879000Y-101303000D02*
X117879000Y-100600000D01*
X117919000Y-98520000D02*
X117919000Y-97775000D01*
X117919000Y-101345000D02*
X117919000Y-100600000D01*
X117959000Y-98520000D02*
X117959000Y-97734000D01*
X117959000Y-101386000D02*
X117959000Y-100600000D01*
X117999000Y-98520000D02*
X117999000Y-97696000D01*
X117999000Y-101424000D02*
X117999000Y-100600000D01*
X118039000Y-98520000D02*
X118039000Y-97659000D01*
X118039000Y-101461000D02*
X118039000Y-100600000D01*
X118079000Y-98520000D02*
X118079000Y-97623000D01*
X118079000Y-101497000D02*
X118079000Y-100600000D01*
X118119000Y-98520000D02*
X118119000Y-97589000D01*
X118119000Y-101531000D02*
X118119000Y-100600000D01*
X118159000Y-98520000D02*
X118159000Y-97556000D01*
X118159000Y-101564000D02*
X118159000Y-100600000D01*
X118199000Y-98520000D02*
X118199000Y-97525000D01*
X118199000Y-101595000D02*
X118199000Y-100600000D01*
X118239000Y-98520000D02*
X118239000Y-97495000D01*
X118239000Y-101625000D02*
X118239000Y-100600000D01*
X118279000Y-98520000D02*
X118279000Y-97465000D01*
X118279000Y-101655000D02*
X118279000Y-100600000D01*
X118319000Y-98520000D02*
X118319000Y-97438000D01*
X118319000Y-101682000D02*
X118319000Y-100600000D01*
X118359000Y-98520000D02*
X118359000Y-97411000D01*
X118359000Y-101709000D02*
X118359000Y-100600000D01*
X118399000Y-98520000D02*
X118399000Y-97385000D01*
X118399000Y-101735000D02*
X118399000Y-100600000D01*
X118439000Y-98520000D02*
X118439000Y-97360000D01*
X118439000Y-101760000D02*
X118439000Y-100600000D01*
X118479000Y-98520000D02*
X118479000Y-97336000D01*
X118479000Y-101784000D02*
X118479000Y-100600000D01*
X118519000Y-98520000D02*
X118519000Y-97313000D01*
X118519000Y-101807000D02*
X118519000Y-100600000D01*
X118559000Y-98520000D02*
X118559000Y-97292000D01*
X118559000Y-101828000D02*
X118559000Y-100600000D01*
X118599000Y-98520000D02*
X118599000Y-97270000D01*
X118599000Y-101850000D02*
X118599000Y-100600000D01*
X118639000Y-98520000D02*
X118639000Y-97250000D01*
X118639000Y-101870000D02*
X118639000Y-100600000D01*
X118679000Y-98520000D02*
X118679000Y-97231000D01*
X118679000Y-101889000D02*
X118679000Y-100600000D01*
X118719000Y-98520000D02*
X118719000Y-97212000D01*
X118719000Y-101908000D02*
X118719000Y-100600000D01*
X118759000Y-98520000D02*
X118759000Y-97195000D01*
X118759000Y-101925000D02*
X118759000Y-100600000D01*
X118799000Y-98520000D02*
X118799000Y-97178000D01*
X118799000Y-101942000D02*
X118799000Y-100600000D01*
X118839000Y-98520000D02*
X118839000Y-97162000D01*
X118839000Y-101958000D02*
X118839000Y-100600000D01*
X118879000Y-98520000D02*
X118879000Y-97146000D01*
X118879000Y-101974000D02*
X118879000Y-100600000D01*
X118919000Y-98520000D02*
X118919000Y-97132000D01*
X118919000Y-101988000D02*
X118919000Y-100600000D01*
X118959000Y-98520000D02*
X118959000Y-97118000D01*
X118959000Y-102002000D02*
X118959000Y-100600000D01*
X118999000Y-98520000D02*
X118999000Y-97105000D01*
X118999000Y-102015000D02*
X118999000Y-100600000D01*
X119039000Y-98520000D02*
X119039000Y-97092000D01*
X119039000Y-102028000D02*
X119039000Y-100600000D01*
X119079000Y-98520000D02*
X119079000Y-97080000D01*
X119079000Y-102040000D02*
X119079000Y-100600000D01*
X119120000Y-98520000D02*
X119120000Y-97069000D01*
X119120000Y-102051000D02*
X119120000Y-100600000D01*
X119160000Y-98520000D02*
X119160000Y-97059000D01*
X119160000Y-102061000D02*
X119160000Y-100600000D01*
X119200000Y-98520000D02*
X119200000Y-97049000D01*
X119200000Y-102071000D02*
X119200000Y-100600000D01*
X119240000Y-98520000D02*
X119240000Y-97040000D01*
X119240000Y-102080000D02*
X119240000Y-100600000D01*
X119280000Y-98520000D02*
X119280000Y-97032000D01*
X119280000Y-102088000D02*
X119280000Y-100600000D01*
X119320000Y-98520000D02*
X119320000Y-97024000D01*
X119320000Y-102096000D02*
X119320000Y-100600000D01*
X119360000Y-98520000D02*
X119360000Y-97017000D01*
X119360000Y-102103000D02*
X119360000Y-100600000D01*
X119400000Y-98520000D02*
X119400000Y-97010000D01*
X119400000Y-102110000D02*
X119400000Y-100600000D01*
X119440000Y-98520000D02*
X119440000Y-97004000D01*
X119440000Y-102116000D02*
X119440000Y-100600000D01*
X119480000Y-98520000D02*
X119480000Y-96999000D01*
X119480000Y-102121000D02*
X119480000Y-100600000D01*
X119520000Y-98520000D02*
X119520000Y-96995000D01*
X119520000Y-102125000D02*
X119520000Y-100600000D01*
X119560000Y-98520000D02*
X119560000Y-96991000D01*
X119560000Y-102129000D02*
X119560000Y-100600000D01*
X119600000Y-98520000D02*
X119600000Y-96987000D01*
X119600000Y-102133000D02*
X119600000Y-100600000D01*
X119640000Y-98520000D02*
X119640000Y-96984000D01*
X119640000Y-102136000D02*
X119640000Y-100600000D01*
X119680000Y-98520000D02*
X119680000Y-96982000D01*
X119680000Y-102138000D02*
X119680000Y-100600000D01*
X119720000Y-98520000D02*
X119720000Y-96981000D01*
X119720000Y-102139000D02*
X119720000Y-100600000D01*
X119760000Y-102140000D02*
X119760000Y-100600000D01*
X119760000Y-98520000D02*
X119760000Y-96980000D01*
X119800000Y-102140000D02*
X119800000Y-100600000D01*
X119800000Y-98520000D02*
X119800000Y-96980000D01*
X122420000Y-99560000D02*
G75*
G03*
X122420000Y-99560000I-2620000J0D01*
G01*
%TO.C,A1*%
X187730000Y-94270000D02*
X190270000Y-94270000D01*
X190270000Y-94270000D02*
X190270000Y-91600000D01*
X187730000Y-91600000D02*
X149500000Y-91600000D01*
X192940000Y-91600000D02*
X190270000Y-91600000D01*
X190270000Y-106970000D02*
X190270000Y-109640000D01*
X190270000Y-106970000D02*
X152170000Y-106970000D01*
X152170000Y-106970000D02*
X152170000Y-109640000D01*
X187730000Y-94270000D02*
X187730000Y-91600000D01*
X187730000Y-94270000D02*
X152170000Y-94270000D01*
X152170000Y-94270000D02*
X152170000Y-91600000D01*
X149500000Y-91600000D02*
X149500000Y-109640000D01*
X149500000Y-109640000D02*
X192940000Y-109640000D01*
X192940000Y-109640000D02*
X192940000Y-91600000D01*
%TO.C,R9*%
D12*
X181003333Y-115072380D02*
X180670000Y-114596190D01*
X180431904Y-115072380D02*
X180431904Y-114072380D01*
X180812857Y-114072380D01*
X180908095Y-114120000D01*
X180955714Y-114167619D01*
X181003333Y-114262857D01*
X181003333Y-114405714D01*
X180955714Y-114500952D01*
X180908095Y-114548571D01*
X180812857Y-114596190D01*
X180431904Y-114596190D01*
X181479523Y-115072380D02*
X181670000Y-115072380D01*
X181765238Y-115024761D01*
X181812857Y-114977142D01*
X181908095Y-114834285D01*
X181955714Y-114643809D01*
X181955714Y-114262857D01*
X181908095Y-114167619D01*
X181860476Y-114120000D01*
X181765238Y-114072380D01*
X181574761Y-114072380D01*
X181479523Y-114120000D01*
X181431904Y-114167619D01*
X181384285Y-114262857D01*
X181384285Y-114500952D01*
X181431904Y-114596190D01*
X181479523Y-114643809D01*
X181574761Y-114691428D01*
X181765238Y-114691428D01*
X181860476Y-114643809D01*
X181908095Y-114596190D01*
X181955714Y-114500952D01*
X179931904Y-109427619D02*
X179979523Y-109380000D01*
X180074761Y-109332380D01*
X180312857Y-109332380D01*
X180408095Y-109380000D01*
X180455714Y-109427619D01*
X180503333Y-109522857D01*
X180503333Y-109618095D01*
X180455714Y-109760952D01*
X179884285Y-110332380D01*
X180503333Y-110332380D01*
X180884285Y-109427619D02*
X180931904Y-109380000D01*
X181027142Y-109332380D01*
X181265238Y-109332380D01*
X181360476Y-109380000D01*
X181408095Y-109427619D01*
X181455714Y-109522857D01*
X181455714Y-109618095D01*
X181408095Y-109760952D01*
X180836666Y-110332380D01*
X181455714Y-110332380D01*
X182074761Y-109332380D02*
X182170000Y-109332380D01*
X182265238Y-109380000D01*
X182312857Y-109427619D01*
X182360476Y-109522857D01*
X182408095Y-109713333D01*
X182408095Y-109951428D01*
X182360476Y-110141904D01*
X182312857Y-110237142D01*
X182265238Y-110284761D01*
X182170000Y-110332380D01*
X182074761Y-110332380D01*
X181979523Y-110284761D01*
X181931904Y-110237142D01*
X181884285Y-110141904D01*
X181836666Y-109951428D01*
X181836666Y-109713333D01*
X181884285Y-109522857D01*
X181931904Y-109427619D01*
X181979523Y-109380000D01*
X182074761Y-109332380D01*
%TO.C,U3*%
X167428095Y-122782380D02*
X167428095Y-123591904D01*
X167475714Y-123687142D01*
X167523333Y-123734761D01*
X167618571Y-123782380D01*
X167809047Y-123782380D01*
X167904285Y-123734761D01*
X167951904Y-123687142D01*
X167999523Y-123591904D01*
X167999523Y-122782380D01*
X168380476Y-122782380D02*
X168999523Y-122782380D01*
X168666190Y-123163333D01*
X168809047Y-123163333D01*
X168904285Y-123210952D01*
X168951904Y-123258571D01*
X168999523Y-123353809D01*
X168999523Y-123591904D01*
X168951904Y-123687142D01*
X168904285Y-123734761D01*
X168809047Y-123782380D01*
X168523333Y-123782380D01*
X168428095Y-123734761D01*
X168380476Y-123687142D01*
X166070952Y-111502380D02*
X165594761Y-111502380D01*
X165594761Y-110502380D01*
X166975714Y-111407142D02*
X166928095Y-111454761D01*
X166785238Y-111502380D01*
X166690000Y-111502380D01*
X166547142Y-111454761D01*
X166451904Y-111359523D01*
X166404285Y-111264285D01*
X166356666Y-111073809D01*
X166356666Y-110930952D01*
X166404285Y-110740476D01*
X166451904Y-110645238D01*
X166547142Y-110550000D01*
X166690000Y-110502380D01*
X166785238Y-110502380D01*
X166928095Y-110550000D01*
X166975714Y-110597619D01*
X167975714Y-111407142D02*
X167928095Y-111454761D01*
X167785238Y-111502380D01*
X167690000Y-111502380D01*
X167547142Y-111454761D01*
X167451904Y-111359523D01*
X167404285Y-111264285D01*
X167356666Y-111073809D01*
X167356666Y-110930952D01*
X167404285Y-110740476D01*
X167451904Y-110645238D01*
X167547142Y-110550000D01*
X167690000Y-110502380D01*
X167785238Y-110502380D01*
X167928095Y-110550000D01*
X167975714Y-110597619D01*
X168928095Y-111502380D02*
X168356666Y-111502380D01*
X168642380Y-111502380D02*
X168642380Y-110502380D01*
X168547142Y-110645238D01*
X168451904Y-110740476D01*
X168356666Y-110788095D01*
X169880476Y-111502380D02*
X169309047Y-111502380D01*
X169594761Y-111502380D02*
X169594761Y-110502380D01*
X169499523Y-110645238D01*
X169404285Y-110740476D01*
X169309047Y-110788095D01*
X170499523Y-110502380D02*
X170594761Y-110502380D01*
X170690000Y-110550000D01*
X170737619Y-110597619D01*
X170785238Y-110692857D01*
X170832857Y-110883333D01*
X170832857Y-111121428D01*
X170785238Y-111311904D01*
X170737619Y-111407142D01*
X170690000Y-111454761D01*
X170594761Y-111502380D01*
X170499523Y-111502380D01*
X170404285Y-111454761D01*
X170356666Y-111407142D01*
X170309047Y-111311904D01*
X170261428Y-111121428D01*
X170261428Y-110883333D01*
X170309047Y-110692857D01*
X170356666Y-110597619D01*
X170404285Y-110550000D01*
X170499523Y-110502380D01*
%TO.C,J2*%
X97000927Y-104517965D02*
X97619516Y-104875108D01*
X97719425Y-104987776D01*
X97754284Y-105117874D01*
X97724095Y-105265401D01*
X97676476Y-105347880D01*
X97297691Y-104194430D02*
X97280261Y-104129382D01*
X97286641Y-104023093D01*
X97405689Y-103816897D01*
X97494547Y-103758228D01*
X97559596Y-103740798D01*
X97665884Y-103747178D01*
X97748363Y-103794797D01*
X97848271Y-103907465D01*
X98057428Y-104688051D01*
X98366952Y-104151940D01*
X97763843Y-108277899D02*
X98796535Y-108489223D01*
X98097176Y-107700548D01*
X98566987Y-106982050D02*
X98478128Y-107040719D01*
X98406700Y-107164437D01*
X98376511Y-107311965D01*
X98411370Y-107442062D01*
X98470039Y-107530921D01*
X98611187Y-107667398D01*
X98734905Y-107738827D01*
X98923672Y-107792826D01*
X99029960Y-107799205D01*
X99160057Y-107764346D01*
X99272725Y-107664437D01*
X99320344Y-107581959D01*
X99350534Y-107434431D01*
X99333104Y-107369382D01*
X99044429Y-107202716D01*
X98949191Y-107367673D01*
X99358623Y-106944230D02*
X99596718Y-106531837D01*
X99558440Y-107169566D02*
X98859081Y-106380891D01*
X99891773Y-106592215D01*
X100439392Y-105643711D02*
X99573367Y-105143711D01*
X100100137Y-104897985D02*
X100677487Y-105231318D01*
X100182616Y-104945604D02*
X100165186Y-104880555D01*
X100171565Y-104774267D01*
X100242994Y-104650549D01*
X100331852Y-104591880D01*
X100438141Y-104598260D01*
X100891773Y-104860165D01*
X100552518Y-104114438D02*
X101418543Y-104614438D01*
X100593757Y-104138248D02*
X100600137Y-104031960D01*
X100695375Y-103867002D01*
X100784233Y-103808333D01*
X100849282Y-103790903D01*
X100955570Y-103797283D01*
X101203006Y-103940140D01*
X101261675Y-104028999D01*
X101279105Y-104094048D01*
X101272725Y-104200336D01*
X101177487Y-104365293D01*
X101088629Y-104423962D01*
X101219185Y-102959738D02*
X101796535Y-103293071D01*
X101004899Y-103330891D02*
X101458531Y-103592796D01*
X101564819Y-103599176D01*
X101653678Y-103540507D01*
X101725106Y-103416789D01*
X101731486Y-103310501D01*
X101714056Y-103245452D01*
X101385851Y-102671063D02*
X101576327Y-102341148D01*
X101168605Y-102380678D02*
X101910912Y-102809249D01*
X102017200Y-102815629D01*
X102106059Y-102756960D01*
X102153678Y-102674481D01*
%TO.C,U2*%
X177508095Y-67912380D02*
X177508095Y-68721904D01*
X177555714Y-68817142D01*
X177603333Y-68864761D01*
X177698571Y-68912380D01*
X177889047Y-68912380D01*
X177984285Y-68864761D01*
X178031904Y-68817142D01*
X178079523Y-68721904D01*
X178079523Y-67912380D01*
X178508095Y-68007619D02*
X178555714Y-67960000D01*
X178650952Y-67912380D01*
X178889047Y-67912380D01*
X178984285Y-67960000D01*
X179031904Y-68007619D01*
X179079523Y-68102857D01*
X179079523Y-68198095D01*
X179031904Y-68340952D01*
X178460476Y-68912380D01*
X179079523Y-68912380D01*
X173452380Y-70452380D02*
X173452380Y-71261904D01*
X173500000Y-71357142D01*
X173547619Y-71404761D01*
X173642857Y-71452380D01*
X173833333Y-71452380D01*
X173928571Y-71404761D01*
X173976190Y-71357142D01*
X174023809Y-71261904D01*
X174023809Y-70452380D01*
X174500000Y-71452380D02*
X174500000Y-70452380D01*
X174738095Y-70452380D01*
X174880952Y-70500000D01*
X174976190Y-70595238D01*
X175023809Y-70690476D01*
X175071428Y-70880952D01*
X175071428Y-71023809D01*
X175023809Y-71214285D01*
X174976190Y-71309523D01*
X174880952Y-71404761D01*
X174738095Y-71452380D01*
X174500000Y-71452380D01*
X175452380Y-71166666D02*
X175928571Y-71166666D01*
X175357142Y-71452380D02*
X175690476Y-70452380D01*
X176023809Y-71452380D01*
X176880952Y-71452380D02*
X176309523Y-71452380D01*
X176595238Y-71452380D02*
X176595238Y-70452380D01*
X176500000Y-70595238D01*
X176404761Y-70690476D01*
X176309523Y-70738095D01*
X177214285Y-70452380D02*
X177833333Y-70452380D01*
X177500000Y-70833333D01*
X177642857Y-70833333D01*
X177738095Y-70880952D01*
X177785714Y-70928571D01*
X177833333Y-71023809D01*
X177833333Y-71261904D01*
X177785714Y-71357142D01*
X177738095Y-71404761D01*
X177642857Y-71452380D01*
X177357142Y-71452380D01*
X177261904Y-71404761D01*
X177214285Y-71357142D01*
X178166666Y-70452380D02*
X178785714Y-70452380D01*
X178452380Y-70833333D01*
X178595238Y-70833333D01*
X178690476Y-70880952D01*
X178738095Y-70928571D01*
X178785714Y-71023809D01*
X178785714Y-71261904D01*
X178738095Y-71357142D01*
X178690476Y-71404761D01*
X178595238Y-71452380D01*
X178309523Y-71452380D01*
X178214285Y-71404761D01*
X178166666Y-71357142D01*
X179642857Y-70785714D02*
X179642857Y-71452380D01*
X179404761Y-70404761D02*
X179166666Y-71119047D01*
X179785714Y-71119047D01*
X180119047Y-71166666D02*
X180595238Y-71166666D01*
X180023809Y-71452380D02*
X180357142Y-70452380D01*
X180690476Y-71452380D01*
X170181904Y-79072380D02*
X170181904Y-78072380D01*
X170420000Y-78072380D01*
X170562857Y-78120000D01*
X170658095Y-78215238D01*
X170705714Y-78310476D01*
X170753333Y-78500952D01*
X170753333Y-78643809D01*
X170705714Y-78834285D01*
X170658095Y-78929523D01*
X170562857Y-79024761D01*
X170420000Y-79072380D01*
X170181904Y-79072380D01*
X171181904Y-78548571D02*
X171515238Y-78548571D01*
X171658095Y-79072380D02*
X171181904Y-79072380D01*
X171181904Y-78072380D01*
X171658095Y-78072380D01*
X172086666Y-78548571D02*
X172420000Y-78548571D01*
X172562857Y-79072380D02*
X172086666Y-79072380D01*
X172086666Y-78072380D01*
X172562857Y-78072380D01*
X172991428Y-79072380D02*
X172991428Y-78072380D01*
X173324761Y-78786666D01*
X173658095Y-78072380D01*
X173658095Y-79072380D01*
X173388571Y-84152380D02*
X173388571Y-83152380D01*
X173769523Y-83152380D01*
X173864761Y-83200000D01*
X173912380Y-83247619D01*
X173960000Y-83342857D01*
X173960000Y-83485714D01*
X173912380Y-83580952D01*
X173864761Y-83628571D01*
X173769523Y-83676190D01*
X173388571Y-83676190D01*
X174864761Y-84152380D02*
X174388571Y-84152380D01*
X174388571Y-83152380D01*
X175674285Y-84152380D02*
X175198095Y-84152380D01*
X175198095Y-83152380D01*
X175809523Y-79024761D02*
X175952380Y-79072380D01*
X176190476Y-79072380D01*
X176285714Y-79024761D01*
X176333333Y-78977142D01*
X176380952Y-78881904D01*
X176380952Y-78786666D01*
X176333333Y-78691428D01*
X176285714Y-78643809D01*
X176190476Y-78596190D01*
X176000000Y-78548571D01*
X175904761Y-78500952D01*
X175857142Y-78453333D01*
X175809523Y-78358095D01*
X175809523Y-78262857D01*
X175857142Y-78167619D01*
X175904761Y-78120000D01*
X176000000Y-78072380D01*
X176238095Y-78072380D01*
X176380952Y-78120000D01*
X177142857Y-78548571D02*
X176809523Y-78548571D01*
X176809523Y-79072380D02*
X176809523Y-78072380D01*
X177285714Y-78072380D01*
X177857142Y-78072380D02*
X177952380Y-78072380D01*
X178047619Y-78120000D01*
X178095238Y-78167619D01*
X178142857Y-78262857D01*
X178190476Y-78453333D01*
X178190476Y-78691428D01*
X178142857Y-78881904D01*
X178095238Y-78977142D01*
X178047619Y-79024761D01*
X177952380Y-79072380D01*
X177857142Y-79072380D01*
X177761904Y-79024761D01*
X177714285Y-78977142D01*
X177666666Y-78881904D01*
X177619047Y-78691428D01*
X177619047Y-78453333D01*
X177666666Y-78262857D01*
X177714285Y-78167619D01*
X177761904Y-78120000D01*
X177857142Y-78072380D01*
X177849523Y-84152380D02*
X177849523Y-83152380D01*
X178182857Y-83866666D01*
X178516190Y-83152380D01*
X178516190Y-84152380D01*
X178992380Y-83152380D02*
X178992380Y-83961904D01*
X179040000Y-84057142D01*
X179087619Y-84104761D01*
X179182857Y-84152380D01*
X179373333Y-84152380D01*
X179468571Y-84104761D01*
X179516190Y-84057142D01*
X179563809Y-83961904D01*
X179563809Y-83152380D01*
X179897142Y-83152380D02*
X180468571Y-83152380D01*
X180182857Y-84152380D02*
X180182857Y-83152380D01*
X180801904Y-83628571D02*
X181135238Y-83628571D01*
X181278095Y-84152380D02*
X180801904Y-84152380D01*
X180801904Y-83152380D01*
X181278095Y-83152380D01*
X180889523Y-79024761D02*
X181032380Y-79072380D01*
X181270476Y-79072380D01*
X181365714Y-79024761D01*
X181413333Y-78977142D01*
X181460952Y-78881904D01*
X181460952Y-78786666D01*
X181413333Y-78691428D01*
X181365714Y-78643809D01*
X181270476Y-78596190D01*
X181080000Y-78548571D01*
X180984761Y-78500952D01*
X180937142Y-78453333D01*
X180889523Y-78358095D01*
X180889523Y-78262857D01*
X180937142Y-78167619D01*
X180984761Y-78120000D01*
X181080000Y-78072380D01*
X181318095Y-78072380D01*
X181460952Y-78120000D01*
X182222857Y-78548571D02*
X181889523Y-78548571D01*
X181889523Y-79072380D02*
X181889523Y-78072380D01*
X182365714Y-78072380D01*
X183270476Y-79072380D02*
X182699047Y-79072380D01*
X182984761Y-79072380D02*
X182984761Y-78072380D01*
X182889523Y-78215238D01*
X182794285Y-78310476D01*
X182699047Y-78358095D01*
X182929523Y-84104761D02*
X183072380Y-84152380D01*
X183310476Y-84152380D01*
X183405714Y-84104761D01*
X183453333Y-84057142D01*
X183500952Y-83961904D01*
X183500952Y-83866666D01*
X183453333Y-83771428D01*
X183405714Y-83723809D01*
X183310476Y-83676190D01*
X183120000Y-83628571D01*
X183024761Y-83580952D01*
X182977142Y-83533333D01*
X182929523Y-83438095D01*
X182929523Y-83342857D01*
X182977142Y-83247619D01*
X183024761Y-83200000D01*
X183120000Y-83152380D01*
X183358095Y-83152380D01*
X183500952Y-83200000D01*
X184500952Y-84057142D02*
X184453333Y-84104761D01*
X184310476Y-84152380D01*
X184215238Y-84152380D01*
X184072380Y-84104761D01*
X183977142Y-84009523D01*
X183929523Y-83914285D01*
X183881904Y-83723809D01*
X183881904Y-83580952D01*
X183929523Y-83390476D01*
X183977142Y-83295238D01*
X184072380Y-83200000D01*
X184215238Y-83152380D01*
X184310476Y-83152380D01*
X184453333Y-83200000D01*
X184500952Y-83247619D01*
X185405714Y-84152380D02*
X184929523Y-84152380D01*
X184929523Y-83152380D01*
X185739047Y-84152380D02*
X185739047Y-83152380D01*
X186310476Y-84152380D02*
X185881904Y-83580952D01*
X186310476Y-83152380D02*
X185739047Y-83723809D01*
X165959047Y-58752380D02*
X165625714Y-58276190D01*
X165387619Y-58752380D02*
X165387619Y-57752380D01*
X165768571Y-57752380D01*
X165863809Y-57800000D01*
X165911428Y-57847619D01*
X165959047Y-57942857D01*
X165959047Y-58085714D01*
X165911428Y-58180952D01*
X165863809Y-58228571D01*
X165768571Y-58276190D01*
X165387619Y-58276190D01*
X166530476Y-58752380D02*
X166435238Y-58704761D01*
X166387619Y-58657142D01*
X166340000Y-58561904D01*
X166340000Y-58276190D01*
X166387619Y-58180952D01*
X166435238Y-58133333D01*
X166530476Y-58085714D01*
X166673333Y-58085714D01*
X166768571Y-58133333D01*
X166816190Y-58180952D01*
X166863809Y-58276190D01*
X166863809Y-58561904D01*
X166816190Y-58657142D01*
X166768571Y-58704761D01*
X166673333Y-58752380D01*
X166530476Y-58752380D01*
X167720952Y-58085714D02*
X167720952Y-58752380D01*
X167292380Y-58085714D02*
X167292380Y-58609523D01*
X167340000Y-58704761D01*
X167435238Y-58752380D01*
X167578095Y-58752380D01*
X167673333Y-58704761D01*
X167720952Y-58657142D01*
X168054285Y-58085714D02*
X168435238Y-58085714D01*
X168197142Y-57752380D02*
X168197142Y-58609523D01*
X168244761Y-58704761D01*
X168340000Y-58752380D01*
X168435238Y-58752380D01*
X167618095Y-63546666D02*
X168094285Y-63546666D01*
X167522857Y-63832380D02*
X167856190Y-62832380D01*
X168189523Y-63832380D01*
X169046666Y-62880000D02*
X168951428Y-62832380D01*
X168808571Y-62832380D01*
X168665714Y-62880000D01*
X168570476Y-62975238D01*
X168522857Y-63070476D01*
X168475238Y-63260952D01*
X168475238Y-63403809D01*
X168522857Y-63594285D01*
X168570476Y-63689523D01*
X168665714Y-63784761D01*
X168808571Y-63832380D01*
X168903809Y-63832380D01*
X169046666Y-63784761D01*
X169094285Y-63737142D01*
X169094285Y-63403809D01*
X168903809Y-63403809D01*
X169522857Y-63832380D02*
X169522857Y-62832380D01*
X170094285Y-63832380D01*
X170094285Y-62832380D01*
X170570476Y-63832380D02*
X170570476Y-62832380D01*
X170808571Y-62832380D01*
X170951428Y-62880000D01*
X171046666Y-62975238D01*
X171094285Y-63070476D01*
X171141904Y-63260952D01*
X171141904Y-63403809D01*
X171094285Y-63594285D01*
X171046666Y-63689523D01*
X170951428Y-63784761D01*
X170808571Y-63832380D01*
X170570476Y-63832380D01*
X171039047Y-58752380D02*
X170562857Y-58752380D01*
X170562857Y-57752380D01*
X171515238Y-58752380D02*
X171420000Y-58704761D01*
X171372380Y-58657142D01*
X171324761Y-58561904D01*
X171324761Y-58276190D01*
X171372380Y-58180952D01*
X171420000Y-58133333D01*
X171515238Y-58085714D01*
X171658095Y-58085714D01*
X171753333Y-58133333D01*
X171800952Y-58180952D01*
X171848571Y-58276190D01*
X171848571Y-58561904D01*
X171800952Y-58657142D01*
X171753333Y-58704761D01*
X171658095Y-58752380D01*
X171515238Y-58752380D01*
X172705714Y-58085714D02*
X172705714Y-58752380D01*
X172277142Y-58085714D02*
X172277142Y-58609523D01*
X172324761Y-58704761D01*
X172420000Y-58752380D01*
X172562857Y-58752380D01*
X172658095Y-58704761D01*
X172705714Y-58657142D01*
X173039047Y-58085714D02*
X173420000Y-58085714D01*
X173181904Y-57752380D02*
X173181904Y-58609523D01*
X173229523Y-58704761D01*
X173324761Y-58752380D01*
X173420000Y-58752380D01*
X173126666Y-63308571D02*
X173269523Y-63356190D01*
X173317142Y-63403809D01*
X173364761Y-63499047D01*
X173364761Y-63641904D01*
X173317142Y-63737142D01*
X173269523Y-63784761D01*
X173174285Y-63832380D01*
X172793333Y-63832380D01*
X172793333Y-62832380D01*
X173126666Y-62832380D01*
X173221904Y-62880000D01*
X173269523Y-62927619D01*
X173317142Y-63022857D01*
X173317142Y-63118095D01*
X173269523Y-63213333D01*
X173221904Y-63260952D01*
X173126666Y-63308571D01*
X172793333Y-63308571D01*
X174364761Y-63737142D02*
X174317142Y-63784761D01*
X174174285Y-63832380D01*
X174079047Y-63832380D01*
X173936190Y-63784761D01*
X173840952Y-63689523D01*
X173793333Y-63594285D01*
X173745714Y-63403809D01*
X173745714Y-63260952D01*
X173793333Y-63070476D01*
X173840952Y-62975238D01*
X173936190Y-62880000D01*
X174079047Y-62832380D01*
X174174285Y-62832380D01*
X174317142Y-62880000D01*
X174364761Y-62927619D01*
X175269523Y-63832380D02*
X174793333Y-63832380D01*
X174793333Y-62832380D01*
X175602857Y-63832380D02*
X175602857Y-62832380D01*
X176174285Y-63832380D02*
X175745714Y-63260952D01*
X176174285Y-62832380D02*
X175602857Y-63403809D01*
X175976190Y-58752380D02*
X175976190Y-57752380D01*
X176214285Y-57752380D01*
X176357142Y-57800000D01*
X176452380Y-57895238D01*
X176500000Y-57990476D01*
X176547619Y-58180952D01*
X176547619Y-58323809D01*
X176500000Y-58514285D01*
X176452380Y-58609523D01*
X176357142Y-58704761D01*
X176214285Y-58752380D01*
X175976190Y-58752380D01*
X176976190Y-58752380D02*
X176976190Y-57752380D01*
X177452380Y-58752380D02*
X177452380Y-57752380D01*
X178023809Y-58752380D01*
X178023809Y-57752380D01*
X177778095Y-62832380D02*
X178016190Y-63832380D01*
X178206666Y-63118095D01*
X178397142Y-63832380D01*
X178635238Y-62832380D01*
X178968571Y-63784761D02*
X179111428Y-63832380D01*
X179349523Y-63832380D01*
X179444761Y-63784761D01*
X179492380Y-63737142D01*
X179540000Y-63641904D01*
X179540000Y-63546666D01*
X179492380Y-63451428D01*
X179444761Y-63403809D01*
X179349523Y-63356190D01*
X179159047Y-63308571D01*
X179063809Y-63260952D01*
X179016190Y-63213333D01*
X178968571Y-63118095D01*
X178968571Y-63022857D01*
X179016190Y-62927619D01*
X179063809Y-62880000D01*
X179159047Y-62832380D01*
X179397142Y-62832380D01*
X179540000Y-62880000D01*
X179968571Y-63308571D02*
X180301904Y-63308571D01*
X180444761Y-63832380D02*
X179968571Y-63832380D01*
X179968571Y-62832380D01*
X180444761Y-62832380D01*
X181349523Y-63832380D02*
X180873333Y-63832380D01*
X180873333Y-62832380D01*
X181318095Y-57800000D02*
X181222857Y-57752380D01*
X181080000Y-57752380D01*
X180937142Y-57800000D01*
X180841904Y-57895238D01*
X180794285Y-57990476D01*
X180746666Y-58180952D01*
X180746666Y-58323809D01*
X180794285Y-58514285D01*
X180841904Y-58609523D01*
X180937142Y-58704761D01*
X181080000Y-58752380D01*
X181175238Y-58752380D01*
X181318095Y-58704761D01*
X181365714Y-58657142D01*
X181365714Y-58323809D01*
X181175238Y-58323809D01*
X181794285Y-58752380D02*
X181794285Y-57752380D01*
X182365714Y-58752380D01*
X182365714Y-57752380D01*
X182841904Y-58752380D02*
X182841904Y-57752380D01*
X183080000Y-57752380D01*
X183222857Y-57800000D01*
X183318095Y-57895238D01*
X183365714Y-57990476D01*
X183413333Y-58180952D01*
X183413333Y-58323809D01*
X183365714Y-58514285D01*
X183318095Y-58609523D01*
X183222857Y-58704761D01*
X183080000Y-58752380D01*
X182841904Y-58752380D01*
X183334285Y-62832380D02*
X183953333Y-62832380D01*
X183620000Y-63213333D01*
X183762857Y-63213333D01*
X183858095Y-63260952D01*
X183905714Y-63308571D01*
X183953333Y-63403809D01*
X183953333Y-63641904D01*
X183905714Y-63737142D01*
X183858095Y-63784761D01*
X183762857Y-63832380D01*
X183477142Y-63832380D01*
X183381904Y-63784761D01*
X183334285Y-63737142D01*
X184239047Y-62832380D02*
X184572380Y-63832380D01*
X184905714Y-62832380D01*
X185429523Y-62832380D02*
X185620000Y-62832380D01*
X185715238Y-62880000D01*
X185810476Y-62975238D01*
X185858095Y-63165714D01*
X185858095Y-63499047D01*
X185810476Y-63689523D01*
X185715238Y-63784761D01*
X185620000Y-63832380D01*
X185429523Y-63832380D01*
X185334285Y-63784761D01*
X185239047Y-63689523D01*
X185191428Y-63499047D01*
X185191428Y-63165714D01*
X185239047Y-62975238D01*
X185334285Y-62880000D01*
X185429523Y-62832380D01*
X186064761Y-57752380D02*
X186398095Y-58752380D01*
X186731428Y-57752380D01*
X187064761Y-58752380D02*
X187064761Y-57752380D01*
X187540952Y-58752380D02*
X187540952Y-57752380D01*
X188112380Y-58752380D01*
X188112380Y-57752380D01*
%TO.C,R8*%
X136753333Y-118822380D02*
X136420000Y-118346190D01*
X136181904Y-118822380D02*
X136181904Y-117822380D01*
X136562857Y-117822380D01*
X136658095Y-117870000D01*
X136705714Y-117917619D01*
X136753333Y-118012857D01*
X136753333Y-118155714D01*
X136705714Y-118250952D01*
X136658095Y-118298571D01*
X136562857Y-118346190D01*
X136181904Y-118346190D01*
X137324761Y-118250952D02*
X137229523Y-118203333D01*
X137181904Y-118155714D01*
X137134285Y-118060476D01*
X137134285Y-118012857D01*
X137181904Y-117917619D01*
X137229523Y-117870000D01*
X137324761Y-117822380D01*
X137515238Y-117822380D01*
X137610476Y-117870000D01*
X137658095Y-117917619D01*
X137705714Y-118012857D01*
X137705714Y-118060476D01*
X137658095Y-118155714D01*
X137610476Y-118203333D01*
X137515238Y-118250952D01*
X137324761Y-118250952D01*
X137229523Y-118298571D01*
X137181904Y-118346190D01*
X137134285Y-118441428D01*
X137134285Y-118631904D01*
X137181904Y-118727142D01*
X137229523Y-118774761D01*
X137324761Y-118822380D01*
X137515238Y-118822380D01*
X137610476Y-118774761D01*
X137658095Y-118727142D01*
X137705714Y-118631904D01*
X137705714Y-118441428D01*
X137658095Y-118346190D01*
X137610476Y-118298571D01*
X137515238Y-118250952D01*
X135991428Y-113415714D02*
X135991428Y-114082380D01*
X135753333Y-113034761D02*
X135515238Y-113749047D01*
X136134285Y-113749047D01*
X136515238Y-113987142D02*
X136562857Y-114034761D01*
X136515238Y-114082380D01*
X136467619Y-114034761D01*
X136515238Y-113987142D01*
X136515238Y-114082380D01*
X136896190Y-113082380D02*
X137562857Y-113082380D01*
X137134285Y-114082380D01*
X137943809Y-114082380D02*
X137943809Y-113082380D01*
X138039047Y-113701428D02*
X138324761Y-114082380D01*
X138324761Y-113415714D02*
X137943809Y-113796666D01*
%TO.C,R7*%
X150913333Y-114082380D02*
X150580000Y-113606190D01*
X150341904Y-114082380D02*
X150341904Y-113082380D01*
X150722857Y-113082380D01*
X150818095Y-113130000D01*
X150865714Y-113177619D01*
X150913333Y-113272857D01*
X150913333Y-113415714D01*
X150865714Y-113510952D01*
X150818095Y-113558571D01*
X150722857Y-113606190D01*
X150341904Y-113606190D01*
X151246666Y-113082380D02*
X151913333Y-113082380D01*
X151484761Y-114082380D01*
X150151428Y-118155714D02*
X150151428Y-118822380D01*
X149913333Y-117774761D02*
X149675238Y-118489047D01*
X150294285Y-118489047D01*
X150675238Y-118727142D02*
X150722857Y-118774761D01*
X150675238Y-118822380D01*
X150627619Y-118774761D01*
X150675238Y-118727142D01*
X150675238Y-118822380D01*
X151056190Y-117822380D02*
X151722857Y-117822380D01*
X151294285Y-118822380D01*
X152103809Y-118822380D02*
X152103809Y-117822380D01*
X152199047Y-118441428D02*
X152484761Y-118822380D01*
X152484761Y-118155714D02*
X152103809Y-118536666D01*
%TO.C,R6*%
X155324761Y-76082380D02*
X154753333Y-76082380D01*
X155039047Y-76082380D02*
X155039047Y-75082380D01*
X154943809Y-75225238D01*
X154848571Y-75320476D01*
X154753333Y-75368095D01*
X155943809Y-75082380D02*
X156039047Y-75082380D01*
X156134285Y-75130000D01*
X156181904Y-75177619D01*
X156229523Y-75272857D01*
X156277142Y-75463333D01*
X156277142Y-75701428D01*
X156229523Y-75891904D01*
X156181904Y-75987142D01*
X156134285Y-76034761D01*
X156039047Y-76082380D01*
X155943809Y-76082380D01*
X155848571Y-76034761D01*
X155800952Y-75987142D01*
X155753333Y-75891904D01*
X155705714Y-75701428D01*
X155705714Y-75463333D01*
X155753333Y-75272857D01*
X155800952Y-75177619D01*
X155848571Y-75130000D01*
X155943809Y-75082380D01*
X156705714Y-76082380D02*
X156705714Y-75082380D01*
X156800952Y-75701428D02*
X157086666Y-76082380D01*
X157086666Y-75415714D02*
X156705714Y-75796666D01*
X155753333Y-78452380D02*
X155420000Y-77976190D01*
X155181904Y-78452380D02*
X155181904Y-77452380D01*
X155562857Y-77452380D01*
X155658095Y-77500000D01*
X155705714Y-77547619D01*
X155753333Y-77642857D01*
X155753333Y-77785714D01*
X155705714Y-77880952D01*
X155658095Y-77928571D01*
X155562857Y-77976190D01*
X155181904Y-77976190D01*
X156610476Y-77452380D02*
X156420000Y-77452380D01*
X156324761Y-77500000D01*
X156277142Y-77547619D01*
X156181904Y-77690476D01*
X156134285Y-77880952D01*
X156134285Y-78261904D01*
X156181904Y-78357142D01*
X156229523Y-78404761D01*
X156324761Y-78452380D01*
X156515238Y-78452380D01*
X156610476Y-78404761D01*
X156658095Y-78357142D01*
X156705714Y-78261904D01*
X156705714Y-78023809D01*
X156658095Y-77928571D01*
X156610476Y-77880952D01*
X156515238Y-77833333D01*
X156324761Y-77833333D01*
X156229523Y-77880952D01*
X156181904Y-77928571D01*
X156134285Y-78023809D01*
%TO.C,R5*%
X158960952Y-58822380D02*
X158389523Y-58822380D01*
X158675238Y-58822380D02*
X158675238Y-57822380D01*
X158580000Y-57965238D01*
X158484761Y-58060476D01*
X158389523Y-58108095D01*
X159389523Y-58822380D02*
X159389523Y-57822380D01*
X159484761Y-58441428D02*
X159770476Y-58822380D01*
X159770476Y-58155714D02*
X159389523Y-58536666D01*
X158913333Y-56452380D02*
X158580000Y-55976190D01*
X158341904Y-56452380D02*
X158341904Y-55452380D01*
X158722857Y-55452380D01*
X158818095Y-55500000D01*
X158865714Y-55547619D01*
X158913333Y-55642857D01*
X158913333Y-55785714D01*
X158865714Y-55880952D01*
X158818095Y-55928571D01*
X158722857Y-55976190D01*
X158341904Y-55976190D01*
X159818095Y-55452380D02*
X159341904Y-55452380D01*
X159294285Y-55928571D01*
X159341904Y-55880952D01*
X159437142Y-55833333D01*
X159675238Y-55833333D01*
X159770476Y-55880952D01*
X159818095Y-55928571D01*
X159865714Y-56023809D01*
X159865714Y-56261904D01*
X159818095Y-56357142D01*
X159770476Y-56404761D01*
X159675238Y-56452380D01*
X159437142Y-56452380D01*
X159341904Y-56404761D01*
X159294285Y-56357142D01*
%TO.C,R4*%
X122952380Y-63619047D02*
X122952380Y-64190476D01*
X122952380Y-63904761D02*
X121952380Y-63904761D01*
X122095238Y-64000000D01*
X122190476Y-64095238D01*
X122238095Y-64190476D01*
X122952380Y-63190476D02*
X121952380Y-63190476D01*
X122571428Y-63095238D02*
X122952380Y-62809523D01*
X122285714Y-62809523D02*
X122666666Y-63190476D01*
X125452380Y-66246666D02*
X124976190Y-66580000D01*
X125452380Y-66818095D02*
X124452380Y-66818095D01*
X124452380Y-66437142D01*
X124500000Y-66341904D01*
X124547619Y-66294285D01*
X124642857Y-66246666D01*
X124785714Y-66246666D01*
X124880952Y-66294285D01*
X124928571Y-66341904D01*
X124976190Y-66437142D01*
X124976190Y-66818095D01*
X124785714Y-65389523D02*
X125452380Y-65389523D01*
X124404761Y-65627619D02*
X125119047Y-65865714D01*
X125119047Y-65246666D01*
%TO.C,R3*%
X165913333Y-97082380D02*
X165580000Y-96606190D01*
X165341904Y-97082380D02*
X165341904Y-96082380D01*
X165722857Y-96082380D01*
X165818095Y-96130000D01*
X165865714Y-96177619D01*
X165913333Y-96272857D01*
X165913333Y-96415714D01*
X165865714Y-96510952D01*
X165818095Y-96558571D01*
X165722857Y-96606190D01*
X165341904Y-96606190D01*
X166246666Y-96082380D02*
X166865714Y-96082380D01*
X166532380Y-96463333D01*
X166675238Y-96463333D01*
X166770476Y-96510952D01*
X166818095Y-96558571D01*
X166865714Y-96653809D01*
X166865714Y-96891904D01*
X166818095Y-96987142D01*
X166770476Y-97034761D01*
X166675238Y-97082380D01*
X166389523Y-97082380D01*
X166294285Y-97034761D01*
X166246666Y-96987142D01*
X165484761Y-101822380D02*
X164913333Y-101822380D01*
X165199047Y-101822380D02*
X165199047Y-100822380D01*
X165103809Y-100965238D01*
X165008571Y-101060476D01*
X164913333Y-101108095D01*
X166103809Y-100822380D02*
X166199047Y-100822380D01*
X166294285Y-100870000D01*
X166341904Y-100917619D01*
X166389523Y-101012857D01*
X166437142Y-101203333D01*
X166437142Y-101441428D01*
X166389523Y-101631904D01*
X166341904Y-101727142D01*
X166294285Y-101774761D01*
X166199047Y-101822380D01*
X166103809Y-101822380D01*
X166008571Y-101774761D01*
X165960952Y-101727142D01*
X165913333Y-101631904D01*
X165865714Y-101441428D01*
X165865714Y-101203333D01*
X165913333Y-101012857D01*
X165960952Y-100917619D01*
X166008571Y-100870000D01*
X166103809Y-100822380D01*
X166865714Y-101822380D02*
X166865714Y-100822380D01*
X166960952Y-101441428D02*
X167246666Y-101822380D01*
X167246666Y-101155714D02*
X166865714Y-101536666D01*
%TO.C,R2*%
X136952380Y-65991428D02*
X136952380Y-66562857D01*
X136952380Y-66277142D02*
X135952380Y-66277142D01*
X136095238Y-66372380D01*
X136190476Y-66467619D01*
X136238095Y-66562857D01*
X135952380Y-65372380D02*
X135952380Y-65277142D01*
X136000000Y-65181904D01*
X136047619Y-65134285D01*
X136142857Y-65086666D01*
X136333333Y-65039047D01*
X136571428Y-65039047D01*
X136761904Y-65086666D01*
X136857142Y-65134285D01*
X136904761Y-65181904D01*
X136952380Y-65277142D01*
X136952380Y-65372380D01*
X136904761Y-65467619D01*
X136857142Y-65515238D01*
X136761904Y-65562857D01*
X136571428Y-65610476D01*
X136333333Y-65610476D01*
X136142857Y-65562857D01*
X136047619Y-65515238D01*
X136000000Y-65467619D01*
X135952380Y-65372380D01*
X135952380Y-64420000D02*
X135952380Y-64324761D01*
X136000000Y-64229523D01*
X136047619Y-64181904D01*
X136142857Y-64134285D01*
X136333333Y-64086666D01*
X136571428Y-64086666D01*
X136761904Y-64134285D01*
X136857142Y-64181904D01*
X136904761Y-64229523D01*
X136952380Y-64324761D01*
X136952380Y-64420000D01*
X136904761Y-64515238D01*
X136857142Y-64562857D01*
X136761904Y-64610476D01*
X136571428Y-64658095D01*
X136333333Y-64658095D01*
X136142857Y-64610476D01*
X136047619Y-64562857D01*
X136000000Y-64515238D01*
X135952380Y-64420000D01*
X136952380Y-63658095D02*
X135952380Y-63658095D01*
X136571428Y-63562857D02*
X136952380Y-63277142D01*
X136285714Y-63277142D02*
X136666666Y-63658095D01*
X134872380Y-65086666D02*
X134396190Y-65420000D01*
X134872380Y-65658095D02*
X133872380Y-65658095D01*
X133872380Y-65277142D01*
X133920000Y-65181904D01*
X133967619Y-65134285D01*
X134062857Y-65086666D01*
X134205714Y-65086666D01*
X134300952Y-65134285D01*
X134348571Y-65181904D01*
X134396190Y-65277142D01*
X134396190Y-65658095D01*
X133967619Y-64705714D02*
X133920000Y-64658095D01*
X133872380Y-64562857D01*
X133872380Y-64324761D01*
X133920000Y-64229523D01*
X133967619Y-64181904D01*
X134062857Y-64134285D01*
X134158095Y-64134285D01*
X134300952Y-64181904D01*
X134872380Y-64753333D01*
X134872380Y-64134285D01*
%TO.C,R1*%
X131452380Y-66151428D02*
X131452380Y-66722857D01*
X131452380Y-66437142D02*
X130452380Y-66437142D01*
X130595238Y-66532380D01*
X130690476Y-66627619D01*
X130738095Y-66722857D01*
X130452380Y-65532380D02*
X130452380Y-65437142D01*
X130500000Y-65341904D01*
X130547619Y-65294285D01*
X130642857Y-65246666D01*
X130833333Y-65199047D01*
X131071428Y-65199047D01*
X131261904Y-65246666D01*
X131357142Y-65294285D01*
X131404761Y-65341904D01*
X131452380Y-65437142D01*
X131452380Y-65532380D01*
X131404761Y-65627619D01*
X131357142Y-65675238D01*
X131261904Y-65722857D01*
X131071428Y-65770476D01*
X130833333Y-65770476D01*
X130642857Y-65722857D01*
X130547619Y-65675238D01*
X130500000Y-65627619D01*
X130452380Y-65532380D01*
X130452380Y-64580000D02*
X130452380Y-64484761D01*
X130500000Y-64389523D01*
X130547619Y-64341904D01*
X130642857Y-64294285D01*
X130833333Y-64246666D01*
X131071428Y-64246666D01*
X131261904Y-64294285D01*
X131357142Y-64341904D01*
X131404761Y-64389523D01*
X131452380Y-64484761D01*
X131452380Y-64580000D01*
X131404761Y-64675238D01*
X131357142Y-64722857D01*
X131261904Y-64770476D01*
X131071428Y-64818095D01*
X130833333Y-64818095D01*
X130642857Y-64770476D01*
X130547619Y-64722857D01*
X130500000Y-64675238D01*
X130452380Y-64580000D01*
X131452380Y-63818095D02*
X130452380Y-63818095D01*
X131071428Y-63722857D02*
X131452380Y-63437142D01*
X130785714Y-63437142D02*
X131166666Y-63818095D01*
X129452380Y-65246666D02*
X128976190Y-65580000D01*
X129452380Y-65818095D02*
X128452380Y-65818095D01*
X128452380Y-65437142D01*
X128500000Y-65341904D01*
X128547619Y-65294285D01*
X128642857Y-65246666D01*
X128785714Y-65246666D01*
X128880952Y-65294285D01*
X128928571Y-65341904D01*
X128976190Y-65437142D01*
X128976190Y-65818095D01*
X129452380Y-64294285D02*
X129452380Y-64865714D01*
X129452380Y-64580000D02*
X128452380Y-64580000D01*
X128595238Y-64675238D01*
X128690476Y-64770476D01*
X128738095Y-64865714D01*
%TO.C,J6*%
X199452380Y-94583333D02*
X200166666Y-94583333D01*
X200309523Y-94630952D01*
X200404761Y-94726190D01*
X200452380Y-94869047D01*
X200452380Y-94964285D01*
X199452380Y-93678571D02*
X199452380Y-93869047D01*
X199500000Y-93964285D01*
X199547619Y-94011904D01*
X199690476Y-94107142D01*
X199880952Y-94154761D01*
X200261904Y-94154761D01*
X200357142Y-94107142D01*
X200404761Y-94059523D01*
X200452380Y-93964285D01*
X200452380Y-93773809D01*
X200404761Y-93678571D01*
X200357142Y-93630952D01*
X200261904Y-93583333D01*
X200023809Y-93583333D01*
X199928571Y-93630952D01*
X199880952Y-93678571D01*
X199833333Y-93773809D01*
X199833333Y-93964285D01*
X199880952Y-94059523D01*
X199928571Y-94107142D01*
X200023809Y-94154761D01*
X204052380Y-92428571D02*
X203576190Y-92761904D01*
X204052380Y-93000000D02*
X203052380Y-93000000D01*
X203052380Y-92619047D01*
X203100000Y-92523809D01*
X203147619Y-92476190D01*
X203242857Y-92428571D01*
X203385714Y-92428571D01*
X203480952Y-92476190D01*
X203528571Y-92523809D01*
X203576190Y-92619047D01*
X203576190Y-93000000D01*
X204052380Y-91857142D02*
X204004761Y-91952380D01*
X203957142Y-92000000D01*
X203861904Y-92047619D01*
X203576190Y-92047619D01*
X203480952Y-92000000D01*
X203433333Y-91952380D01*
X203385714Y-91857142D01*
X203385714Y-91714285D01*
X203433333Y-91619047D01*
X203480952Y-91571428D01*
X203576190Y-91523809D01*
X203861904Y-91523809D01*
X203957142Y-91571428D01*
X204004761Y-91619047D01*
X204052380Y-91714285D01*
X204052380Y-91857142D01*
X203385714Y-91238095D02*
X203385714Y-90857142D01*
X203052380Y-91095238D02*
X203909523Y-91095238D01*
X204004761Y-91047619D01*
X204052380Y-90952380D01*
X204052380Y-90857142D01*
X204052380Y-90095238D02*
X203528571Y-90095238D01*
X203433333Y-90142857D01*
X203385714Y-90238095D01*
X203385714Y-90428571D01*
X203433333Y-90523809D01*
X204004761Y-90095238D02*
X204052380Y-90190476D01*
X204052380Y-90428571D01*
X204004761Y-90523809D01*
X203909523Y-90571428D01*
X203814285Y-90571428D01*
X203719047Y-90523809D01*
X203671428Y-90428571D01*
X203671428Y-90190476D01*
X203623809Y-90095238D01*
X204052380Y-89619047D02*
X203385714Y-89619047D01*
X203576190Y-89619047D02*
X203480952Y-89571428D01*
X203433333Y-89523809D01*
X203385714Y-89428571D01*
X203385714Y-89333333D01*
X203385714Y-89095238D02*
X204052380Y-88857142D01*
X203385714Y-88619047D02*
X204052380Y-88857142D01*
X204290476Y-88952380D01*
X204338095Y-89000000D01*
X204385714Y-89095238D01*
X203528571Y-87476190D02*
X203528571Y-87142857D01*
X204052380Y-87000000D02*
X204052380Y-87476190D01*
X203052380Y-87476190D01*
X203052380Y-87000000D01*
X203385714Y-86571428D02*
X204052380Y-86571428D01*
X203480952Y-86571428D02*
X203433333Y-86523809D01*
X203385714Y-86428571D01*
X203385714Y-86285714D01*
X203433333Y-86190476D01*
X203528571Y-86142857D01*
X204052380Y-86142857D01*
X204004761Y-85238095D02*
X204052380Y-85333333D01*
X204052380Y-85523809D01*
X204004761Y-85619047D01*
X203957142Y-85666666D01*
X203861904Y-85714285D01*
X203576190Y-85714285D01*
X203480952Y-85666666D01*
X203433333Y-85619047D01*
X203385714Y-85523809D01*
X203385714Y-85333333D01*
X203433333Y-85238095D01*
X204052380Y-84666666D02*
X204004761Y-84761904D01*
X203957142Y-84809523D01*
X203861904Y-84857142D01*
X203576190Y-84857142D01*
X203480952Y-84809523D01*
X203433333Y-84761904D01*
X203385714Y-84666666D01*
X203385714Y-84523809D01*
X203433333Y-84428571D01*
X203480952Y-84380952D01*
X203576190Y-84333333D01*
X203861904Y-84333333D01*
X203957142Y-84380952D01*
X204004761Y-84428571D01*
X204052380Y-84523809D01*
X204052380Y-84666666D01*
X204052380Y-83476190D02*
X203052380Y-83476190D01*
X204004761Y-83476190D02*
X204052380Y-83571428D01*
X204052380Y-83761904D01*
X204004761Y-83857142D01*
X203957142Y-83904761D01*
X203861904Y-83952380D01*
X203576190Y-83952380D01*
X203480952Y-83904761D01*
X203433333Y-83857142D01*
X203385714Y-83761904D01*
X203385714Y-83571428D01*
X203433333Y-83476190D01*
X204004761Y-82619047D02*
X204052380Y-82714285D01*
X204052380Y-82904761D01*
X204004761Y-83000000D01*
X203909523Y-83047619D01*
X203528571Y-83047619D01*
X203433333Y-83000000D01*
X203385714Y-82904761D01*
X203385714Y-82714285D01*
X203433333Y-82619047D01*
X203528571Y-82571428D01*
X203623809Y-82571428D01*
X203719047Y-83047619D01*
X204052380Y-82142857D02*
X203385714Y-82142857D01*
X203576190Y-82142857D02*
X203480952Y-82095238D01*
X203433333Y-82047619D01*
X203385714Y-81952380D01*
X203385714Y-81857142D01*
%TO.C,J5*%
X93292380Y-60866190D02*
X92292380Y-60866190D01*
X92292380Y-60485238D01*
X92340000Y-60390000D01*
X92387619Y-60342380D01*
X92482857Y-60294761D01*
X92625714Y-60294761D01*
X92720952Y-60342380D01*
X92768571Y-60390000D01*
X92816190Y-60485238D01*
X92816190Y-60866190D01*
X93292380Y-59723333D02*
X93244761Y-59818571D01*
X93197142Y-59866190D01*
X93101904Y-59913809D01*
X92816190Y-59913809D01*
X92720952Y-59866190D01*
X92673333Y-59818571D01*
X92625714Y-59723333D01*
X92625714Y-59580476D01*
X92673333Y-59485238D01*
X92720952Y-59437619D01*
X92816190Y-59390000D01*
X93101904Y-59390000D01*
X93197142Y-59437619D01*
X93244761Y-59485238D01*
X93292380Y-59580476D01*
X93292380Y-59723333D01*
X92625714Y-59056666D02*
X93292380Y-58866190D01*
X92816190Y-58675714D01*
X93292380Y-58485238D01*
X92625714Y-58294761D01*
X93244761Y-57532857D02*
X93292380Y-57628095D01*
X93292380Y-57818571D01*
X93244761Y-57913809D01*
X93149523Y-57961428D01*
X92768571Y-57961428D01*
X92673333Y-57913809D01*
X92625714Y-57818571D01*
X92625714Y-57628095D01*
X92673333Y-57532857D01*
X92768571Y-57485238D01*
X92863809Y-57485238D01*
X92959047Y-57961428D01*
X93292380Y-57056666D02*
X92625714Y-57056666D01*
X92816190Y-57056666D02*
X92720952Y-57009047D01*
X92673333Y-56961428D01*
X92625714Y-56866190D01*
X92625714Y-56770952D01*
%TO.C,J4*%
X190547619Y-51702380D02*
X190547619Y-50702380D01*
X190976190Y-50797619D02*
X191023809Y-50750000D01*
X191119047Y-50702380D01*
X191357142Y-50702380D01*
X191452380Y-50750000D01*
X191500000Y-50797619D01*
X191547619Y-50892857D01*
X191547619Y-50988095D01*
X191500000Y-51130952D01*
X190928571Y-51702380D01*
X191547619Y-51702380D01*
X191928571Y-51654761D02*
X192071428Y-51702380D01*
X192309523Y-51702380D01*
X192404761Y-51654761D01*
X192452380Y-51607142D01*
X192500000Y-51511904D01*
X192500000Y-51416666D01*
X192452380Y-51321428D01*
X192404761Y-51273809D01*
X192309523Y-51226190D01*
X192119047Y-51178571D01*
X192023809Y-51130952D01*
X191976190Y-51083333D01*
X191928571Y-50988095D01*
X191928571Y-50892857D01*
X191976190Y-50797619D01*
X192023809Y-50750000D01*
X192119047Y-50702380D01*
X192357142Y-50702380D01*
X192500000Y-50750000D01*
X181666666Y-53152380D02*
X181666666Y-53866666D01*
X181619047Y-54009523D01*
X181523809Y-54104761D01*
X181380952Y-54152380D01*
X181285714Y-54152380D01*
X182571428Y-53485714D02*
X182571428Y-54152380D01*
X182333333Y-53104761D02*
X182095238Y-53819047D01*
X182714285Y-53819047D01*
%TO.C,J3*%
X136776666Y-53452380D02*
X136776666Y-54166666D01*
X136729047Y-54309523D01*
X136633809Y-54404761D01*
X136490952Y-54452380D01*
X136395714Y-54452380D01*
X137157619Y-53452380D02*
X137776666Y-53452380D01*
X137443333Y-53833333D01*
X137586190Y-53833333D01*
X137681428Y-53880952D01*
X137729047Y-53928571D01*
X137776666Y-54023809D01*
X137776666Y-54261904D01*
X137729047Y-54357142D01*
X137681428Y-54404761D01*
X137586190Y-54452380D01*
X137300476Y-54452380D01*
X137205238Y-54404761D01*
X137157619Y-54357142D01*
X135276666Y-48006666D02*
X135752857Y-48006666D01*
X135181428Y-48292380D02*
X135514761Y-47292380D01*
X135848095Y-48292380D01*
X136610000Y-47625714D02*
X136610000Y-48292380D01*
X136181428Y-47625714D02*
X136181428Y-48149523D01*
X136229047Y-48244761D01*
X136324285Y-48292380D01*
X136467142Y-48292380D01*
X136562380Y-48244761D01*
X136610000Y-48197142D01*
X137514761Y-48292380D02*
X137514761Y-47292380D01*
X137514761Y-48244761D02*
X137419523Y-48292380D01*
X137229047Y-48292380D01*
X137133809Y-48244761D01*
X137086190Y-48197142D01*
X137038571Y-48101904D01*
X137038571Y-47816190D01*
X137086190Y-47720952D01*
X137133809Y-47673333D01*
X137229047Y-47625714D01*
X137419523Y-47625714D01*
X137514761Y-47673333D01*
X137990952Y-48292380D02*
X137990952Y-47625714D01*
X137990952Y-47292380D02*
X137943333Y-47340000D01*
X137990952Y-47387619D01*
X138038571Y-47340000D01*
X137990952Y-47292380D01*
X137990952Y-47387619D01*
X138610000Y-48292380D02*
X138514761Y-48244761D01*
X138467142Y-48197142D01*
X138419523Y-48101904D01*
X138419523Y-47816190D01*
X138467142Y-47720952D01*
X138514761Y-47673333D01*
X138610000Y-47625714D01*
X138752857Y-47625714D01*
X138848095Y-47673333D01*
X138895714Y-47720952D01*
X138943333Y-47816190D01*
X138943333Y-48101904D01*
X138895714Y-48197142D01*
X138848095Y-48244761D01*
X138752857Y-48292380D01*
X138610000Y-48292380D01*
%TO.C,D2*%
X130071904Y-104982380D02*
X130071904Y-103982380D01*
X130310000Y-103982380D01*
X130452857Y-104030000D01*
X130548095Y-104125238D01*
X130595714Y-104220476D01*
X130643333Y-104410952D01*
X130643333Y-104553809D01*
X130595714Y-104744285D01*
X130548095Y-104839523D01*
X130452857Y-104934761D01*
X130310000Y-104982380D01*
X130071904Y-104982380D01*
X131024285Y-104077619D02*
X131071904Y-104030000D01*
X131167142Y-103982380D01*
X131405238Y-103982380D01*
X131500476Y-104030000D01*
X131548095Y-104077619D01*
X131595714Y-104172857D01*
X131595714Y-104268095D01*
X131548095Y-104410952D01*
X130976666Y-104982380D01*
X131595714Y-104982380D01*
X126738095Y-105352380D02*
X126738095Y-104352380D01*
X127309523Y-105352380D02*
X126880952Y-104780952D01*
X127309523Y-104352380D02*
X126738095Y-104923809D01*
%TO.C,D1*%
X116982380Y-111928095D02*
X115982380Y-111928095D01*
X115982380Y-111690000D01*
X116030000Y-111547142D01*
X116125238Y-111451904D01*
X116220476Y-111404285D01*
X116410952Y-111356666D01*
X116553809Y-111356666D01*
X116744285Y-111404285D01*
X116839523Y-111451904D01*
X116934761Y-111547142D01*
X116982380Y-111690000D01*
X116982380Y-111928095D01*
X116982380Y-110404285D02*
X116982380Y-110975714D01*
X116982380Y-110690000D02*
X115982380Y-110690000D01*
X116125238Y-110785238D01*
X116220476Y-110880476D01*
X116268095Y-110975714D01*
X117352380Y-115261904D02*
X116352380Y-115261904D01*
X117352380Y-114690476D02*
X116780952Y-115119047D01*
X116352380Y-114690476D02*
X116923809Y-115261904D01*
%TO.C,C10*%
X152380952Y-91202380D02*
X151809523Y-91202380D01*
X152095238Y-91202380D02*
X152095238Y-90202380D01*
X152000000Y-90345238D01*
X151904761Y-90440476D01*
X151809523Y-90488095D01*
X153000000Y-90202380D02*
X153095238Y-90202380D01*
X153190476Y-90250000D01*
X153238095Y-90297619D01*
X153285714Y-90392857D01*
X153333333Y-90583333D01*
X153333333Y-90821428D01*
X153285714Y-91011904D01*
X153238095Y-91107142D01*
X153190476Y-91154761D01*
X153095238Y-91202380D01*
X153000000Y-91202380D01*
X152904761Y-91154761D01*
X152857142Y-91107142D01*
X152809523Y-91011904D01*
X152761904Y-90821428D01*
X152761904Y-90583333D01*
X152809523Y-90392857D01*
X152857142Y-90297619D01*
X152904761Y-90250000D01*
X153000000Y-90202380D01*
X153952380Y-90202380D02*
X154047619Y-90202380D01*
X154142857Y-90250000D01*
X154190476Y-90297619D01*
X154238095Y-90392857D01*
X154285714Y-90583333D01*
X154285714Y-90821428D01*
X154238095Y-91011904D01*
X154190476Y-91107142D01*
X154142857Y-91154761D01*
X154047619Y-91202380D01*
X153952380Y-91202380D01*
X153857142Y-91154761D01*
X153809523Y-91107142D01*
X153761904Y-91011904D01*
X153714285Y-90821428D01*
X153714285Y-90583333D01*
X153761904Y-90392857D01*
X153809523Y-90297619D01*
X153857142Y-90250000D01*
X153952380Y-90202380D01*
X154714285Y-90535714D02*
X154714285Y-91202380D01*
X154714285Y-90630952D02*
X154761904Y-90583333D01*
X154857142Y-90535714D01*
X155000000Y-90535714D01*
X155095238Y-90583333D01*
X155142857Y-90678571D01*
X155142857Y-91202380D01*
X152857142Y-87357142D02*
X152809523Y-87404761D01*
X152666666Y-87452380D01*
X152571428Y-87452380D01*
X152428571Y-87404761D01*
X152333333Y-87309523D01*
X152285714Y-87214285D01*
X152238095Y-87023809D01*
X152238095Y-86880952D01*
X152285714Y-86690476D01*
X152333333Y-86595238D01*
X152428571Y-86500000D01*
X152571428Y-86452380D01*
X152666666Y-86452380D01*
X152809523Y-86500000D01*
X152857142Y-86547619D01*
X153809523Y-87452380D02*
X153238095Y-87452380D01*
X153523809Y-87452380D02*
X153523809Y-86452380D01*
X153428571Y-86595238D01*
X153333333Y-86690476D01*
X153238095Y-86738095D01*
X154428571Y-86452380D02*
X154523809Y-86452380D01*
X154619047Y-86500000D01*
X154666666Y-86547619D01*
X154714285Y-86642857D01*
X154761904Y-86833333D01*
X154761904Y-87071428D01*
X154714285Y-87261904D01*
X154666666Y-87357142D01*
X154619047Y-87404761D01*
X154523809Y-87452380D01*
X154428571Y-87452380D01*
X154333333Y-87404761D01*
X154285714Y-87357142D01*
X154238095Y-87261904D01*
X154190476Y-87071428D01*
X154190476Y-86833333D01*
X154238095Y-86642857D01*
X154285714Y-86547619D01*
X154333333Y-86500000D01*
X154428571Y-86452380D01*
%TO.C,C9*%
X139957142Y-68046666D02*
X140004761Y-68094285D01*
X140052380Y-68237142D01*
X140052380Y-68332380D01*
X140004761Y-68475238D01*
X139909523Y-68570476D01*
X139814285Y-68618095D01*
X139623809Y-68665714D01*
X139480952Y-68665714D01*
X139290476Y-68618095D01*
X139195238Y-68570476D01*
X139100000Y-68475238D01*
X139052380Y-68332380D01*
X139052380Y-68237142D01*
X139100000Y-68094285D01*
X139147619Y-68046666D01*
X140052380Y-67570476D02*
X140052380Y-67380000D01*
X140004761Y-67284761D01*
X139957142Y-67237142D01*
X139814285Y-67141904D01*
X139623809Y-67094285D01*
X139242857Y-67094285D01*
X139147619Y-67141904D01*
X139100000Y-67189523D01*
X139052380Y-67284761D01*
X139052380Y-67475238D01*
X139100000Y-67570476D01*
X139147619Y-67618095D01*
X139242857Y-67665714D01*
X139480952Y-67665714D01*
X139576190Y-67618095D01*
X139623809Y-67570476D01*
X139671428Y-67475238D01*
X139671428Y-67284761D01*
X139623809Y-67189523D01*
X139576190Y-67141904D01*
X139480952Y-67094285D01*
X150261904Y-71952380D02*
X150880952Y-71952380D01*
X150547619Y-72333333D01*
X150690476Y-72333333D01*
X150785714Y-72380952D01*
X150833333Y-72428571D01*
X150880952Y-72523809D01*
X150880952Y-72761904D01*
X150833333Y-72857142D01*
X150785714Y-72904761D01*
X150690476Y-72952380D01*
X150404761Y-72952380D01*
X150309523Y-72904761D01*
X150261904Y-72857142D01*
X151214285Y-71952380D02*
X151833333Y-71952380D01*
X151500000Y-72333333D01*
X151642857Y-72333333D01*
X151738095Y-72380952D01*
X151785714Y-72428571D01*
X151833333Y-72523809D01*
X151833333Y-72761904D01*
X151785714Y-72857142D01*
X151738095Y-72904761D01*
X151642857Y-72952380D01*
X151357142Y-72952380D01*
X151261904Y-72904761D01*
X151214285Y-72857142D01*
X152452380Y-71952380D02*
X152547619Y-71952380D01*
X152642857Y-72000000D01*
X152690476Y-72047619D01*
X152738095Y-72142857D01*
X152785714Y-72333333D01*
X152785714Y-72571428D01*
X152738095Y-72761904D01*
X152690476Y-72857142D01*
X152642857Y-72904761D01*
X152547619Y-72952380D01*
X152452380Y-72952380D01*
X152357142Y-72904761D01*
X152309523Y-72857142D01*
X152261904Y-72761904D01*
X152214285Y-72571428D01*
X152214285Y-72333333D01*
X152261904Y-72142857D01*
X152309523Y-72047619D01*
X152357142Y-72000000D01*
X152452380Y-71952380D01*
X153642857Y-72285714D02*
X153642857Y-72952380D01*
X153214285Y-72285714D02*
X153214285Y-72809523D01*
X153261904Y-72904761D01*
X153357142Y-72952380D01*
X153500000Y-72952380D01*
X153595238Y-72904761D01*
X153642857Y-72857142D01*
%TO.C,C8*%
X111493333Y-68237142D02*
X111445714Y-68284761D01*
X111302857Y-68332380D01*
X111207619Y-68332380D01*
X111064761Y-68284761D01*
X110969523Y-68189523D01*
X110921904Y-68094285D01*
X110874285Y-67903809D01*
X110874285Y-67760952D01*
X110921904Y-67570476D01*
X110969523Y-67475238D01*
X111064761Y-67380000D01*
X111207619Y-67332380D01*
X111302857Y-67332380D01*
X111445714Y-67380000D01*
X111493333Y-67427619D01*
X112064761Y-67760952D02*
X111969523Y-67713333D01*
X111921904Y-67665714D01*
X111874285Y-67570476D01*
X111874285Y-67522857D01*
X111921904Y-67427619D01*
X111969523Y-67380000D01*
X112064761Y-67332380D01*
X112255238Y-67332380D01*
X112350476Y-67380000D01*
X112398095Y-67427619D01*
X112445714Y-67522857D01*
X112445714Y-67570476D01*
X112398095Y-67665714D01*
X112350476Y-67713333D01*
X112255238Y-67760952D01*
X112064761Y-67760952D01*
X111969523Y-67808571D01*
X111921904Y-67856190D01*
X111874285Y-67951428D01*
X111874285Y-68141904D01*
X111921904Y-68237142D01*
X111969523Y-68284761D01*
X112064761Y-68332380D01*
X112255238Y-68332380D01*
X112350476Y-68284761D01*
X112398095Y-68237142D01*
X112445714Y-68141904D01*
X112445714Y-67951428D01*
X112398095Y-67856190D01*
X112350476Y-67808571D01*
X112255238Y-67760952D01*
X110261904Y-71452380D02*
X110880952Y-71452380D01*
X110547619Y-71833333D01*
X110690476Y-71833333D01*
X110785714Y-71880952D01*
X110833333Y-71928571D01*
X110880952Y-72023809D01*
X110880952Y-72261904D01*
X110833333Y-72357142D01*
X110785714Y-72404761D01*
X110690476Y-72452380D01*
X110404761Y-72452380D01*
X110309523Y-72404761D01*
X110261904Y-72357142D01*
X111214285Y-71452380D02*
X111833333Y-71452380D01*
X111500000Y-71833333D01*
X111642857Y-71833333D01*
X111738095Y-71880952D01*
X111785714Y-71928571D01*
X111833333Y-72023809D01*
X111833333Y-72261904D01*
X111785714Y-72357142D01*
X111738095Y-72404761D01*
X111642857Y-72452380D01*
X111357142Y-72452380D01*
X111261904Y-72404761D01*
X111214285Y-72357142D01*
X112452380Y-71452380D02*
X112547619Y-71452380D01*
X112642857Y-71500000D01*
X112690476Y-71547619D01*
X112738095Y-71642857D01*
X112785714Y-71833333D01*
X112785714Y-72071428D01*
X112738095Y-72261904D01*
X112690476Y-72357142D01*
X112642857Y-72404761D01*
X112547619Y-72452380D01*
X112452380Y-72452380D01*
X112357142Y-72404761D01*
X112309523Y-72357142D01*
X112261904Y-72261904D01*
X112214285Y-72071428D01*
X112214285Y-71833333D01*
X112261904Y-71642857D01*
X112309523Y-71547619D01*
X112357142Y-71500000D01*
X112452380Y-71452380D01*
X113642857Y-71785714D02*
X113642857Y-72452380D01*
X113214285Y-71785714D02*
X113214285Y-72309523D01*
X113261904Y-72404761D01*
X113357142Y-72452380D01*
X113500000Y-72452380D01*
X113595238Y-72404761D01*
X113642857Y-72357142D01*
%TO.C,C7*%
X112083333Y-80607142D02*
X112035714Y-80654761D01*
X111892857Y-80702380D01*
X111797619Y-80702380D01*
X111654761Y-80654761D01*
X111559523Y-80559523D01*
X111511904Y-80464285D01*
X111464285Y-80273809D01*
X111464285Y-80130952D01*
X111511904Y-79940476D01*
X111559523Y-79845238D01*
X111654761Y-79750000D01*
X111797619Y-79702380D01*
X111892857Y-79702380D01*
X112035714Y-79750000D01*
X112083333Y-79797619D01*
X112416666Y-79702380D02*
X113083333Y-79702380D01*
X112654761Y-80702380D01*
X110845238Y-88107142D02*
X110892857Y-88154761D01*
X110845238Y-88202380D01*
X110797619Y-88154761D01*
X110845238Y-88107142D01*
X110845238Y-88202380D01*
X111750000Y-87535714D02*
X111750000Y-88202380D01*
X111511904Y-87154761D02*
X111273809Y-87869047D01*
X111892857Y-87869047D01*
X112178571Y-87202380D02*
X112845238Y-87202380D01*
X112416666Y-88202380D01*
X113654761Y-87535714D02*
X113654761Y-88202380D01*
X113226190Y-87535714D02*
X113226190Y-88059523D01*
X113273809Y-88154761D01*
X113369047Y-88202380D01*
X113511904Y-88202380D01*
X113607142Y-88154761D01*
X113654761Y-88107142D01*
%TO.C,C6*%
X141333333Y-97357142D02*
X141285714Y-97404761D01*
X141142857Y-97452380D01*
X141047619Y-97452380D01*
X140904761Y-97404761D01*
X140809523Y-97309523D01*
X140761904Y-97214285D01*
X140714285Y-97023809D01*
X140714285Y-96880952D01*
X140761904Y-96690476D01*
X140809523Y-96595238D01*
X140904761Y-96500000D01*
X141047619Y-96452380D01*
X141142857Y-96452380D01*
X141285714Y-96500000D01*
X141333333Y-96547619D01*
X142190476Y-96452380D02*
X142000000Y-96452380D01*
X141904761Y-96500000D01*
X141857142Y-96547619D01*
X141761904Y-96690476D01*
X141714285Y-96880952D01*
X141714285Y-97261904D01*
X141761904Y-97357142D01*
X141809523Y-97404761D01*
X141904761Y-97452380D01*
X142095238Y-97452380D01*
X142190476Y-97404761D01*
X142238095Y-97357142D01*
X142285714Y-97261904D01*
X142285714Y-97023809D01*
X142238095Y-96928571D01*
X142190476Y-96880952D01*
X142095238Y-96833333D01*
X141904761Y-96833333D01*
X141809523Y-96880952D01*
X141761904Y-96928571D01*
X141714285Y-97023809D01*
X138595238Y-89857142D02*
X138642857Y-89904761D01*
X138595238Y-89952380D01*
X138547619Y-89904761D01*
X138595238Y-89857142D01*
X138595238Y-89952380D01*
X139500000Y-89285714D02*
X139500000Y-89952380D01*
X139261904Y-88904761D02*
X139023809Y-89619047D01*
X139642857Y-89619047D01*
X139928571Y-88952380D02*
X140595238Y-88952380D01*
X140166666Y-89952380D01*
X141404761Y-89285714D02*
X141404761Y-89952380D01*
X140976190Y-89285714D02*
X140976190Y-89809523D01*
X141023809Y-89904761D01*
X141119047Y-89952380D01*
X141261904Y-89952380D01*
X141357142Y-89904761D01*
X141404761Y-89857142D01*
%TO.C,C5*%
X131333333Y-97357142D02*
X131285714Y-97404761D01*
X131142857Y-97452380D01*
X131047619Y-97452380D01*
X130904761Y-97404761D01*
X130809523Y-97309523D01*
X130761904Y-97214285D01*
X130714285Y-97023809D01*
X130714285Y-96880952D01*
X130761904Y-96690476D01*
X130809523Y-96595238D01*
X130904761Y-96500000D01*
X131047619Y-96452380D01*
X131142857Y-96452380D01*
X131285714Y-96500000D01*
X131333333Y-96547619D01*
X132238095Y-96452380D02*
X131761904Y-96452380D01*
X131714285Y-96928571D01*
X131761904Y-96880952D01*
X131857142Y-96833333D01*
X132095238Y-96833333D01*
X132190476Y-96880952D01*
X132238095Y-96928571D01*
X132285714Y-97023809D01*
X132285714Y-97261904D01*
X132238095Y-97357142D01*
X132190476Y-97404761D01*
X132095238Y-97452380D01*
X131857142Y-97452380D01*
X131761904Y-97404761D01*
X131714285Y-97357142D01*
X129595238Y-89857142D02*
X129642857Y-89904761D01*
X129595238Y-89952380D01*
X129547619Y-89904761D01*
X129595238Y-89857142D01*
X129595238Y-89952380D01*
X130500000Y-89285714D02*
X130500000Y-89952380D01*
X130261904Y-88904761D02*
X130023809Y-89619047D01*
X130642857Y-89619047D01*
X130928571Y-88952380D02*
X131595238Y-88952380D01*
X131166666Y-89952380D01*
X132404761Y-89285714D02*
X132404761Y-89952380D01*
X131976190Y-89285714D02*
X131976190Y-89809523D01*
X132023809Y-89904761D01*
X132119047Y-89952380D01*
X132261904Y-89952380D01*
X132357142Y-89904761D01*
X132404761Y-89857142D01*
%TO.C,C4*%
X115833333Y-94357142D02*
X115785714Y-94404761D01*
X115642857Y-94452380D01*
X115547619Y-94452380D01*
X115404761Y-94404761D01*
X115309523Y-94309523D01*
X115261904Y-94214285D01*
X115214285Y-94023809D01*
X115214285Y-93880952D01*
X115261904Y-93690476D01*
X115309523Y-93595238D01*
X115404761Y-93500000D01*
X115547619Y-93452380D01*
X115642857Y-93452380D01*
X115785714Y-93500000D01*
X115833333Y-93547619D01*
X116690476Y-93785714D02*
X116690476Y-94452380D01*
X116452380Y-93404761D02*
X116214285Y-94119047D01*
X116833333Y-94119047D01*
X118145238Y-88547142D02*
X118192857Y-88594761D01*
X118145238Y-88642380D01*
X118097619Y-88594761D01*
X118145238Y-88547142D01*
X118145238Y-88642380D01*
X119050000Y-87975714D02*
X119050000Y-88642380D01*
X118811904Y-87594761D02*
X118573809Y-88309047D01*
X119192857Y-88309047D01*
X119478571Y-87642380D02*
X120145238Y-87642380D01*
X119716666Y-88642380D01*
X120954761Y-87975714D02*
X120954761Y-88642380D01*
X120526190Y-87975714D02*
X120526190Y-88499523D01*
X120573809Y-88594761D01*
X120669047Y-88642380D01*
X120811904Y-88642380D01*
X120907142Y-88594761D01*
X120954761Y-88547142D01*
%TO.C,C2*%
X137833333Y-103357142D02*
X137785714Y-103404761D01*
X137642857Y-103452380D01*
X137547619Y-103452380D01*
X137404761Y-103404761D01*
X137309523Y-103309523D01*
X137261904Y-103214285D01*
X137214285Y-103023809D01*
X137214285Y-102880952D01*
X137261904Y-102690476D01*
X137309523Y-102595238D01*
X137404761Y-102500000D01*
X137547619Y-102452380D01*
X137642857Y-102452380D01*
X137785714Y-102500000D01*
X137833333Y-102547619D01*
X138214285Y-102547619D02*
X138261904Y-102500000D01*
X138357142Y-102452380D01*
X138595238Y-102452380D01*
X138690476Y-102500000D01*
X138738095Y-102547619D01*
X138785714Y-102642857D01*
X138785714Y-102738095D01*
X138738095Y-102880952D01*
X138166666Y-103452380D01*
X138785714Y-103452380D01*
X133095238Y-96357142D02*
X133142857Y-96404761D01*
X133095238Y-96452380D01*
X133047619Y-96404761D01*
X133095238Y-96357142D01*
X133095238Y-96452380D01*
X134000000Y-95785714D02*
X134000000Y-96452380D01*
X133761904Y-95404761D02*
X133523809Y-96119047D01*
X134142857Y-96119047D01*
X134428571Y-95452380D02*
X135095238Y-95452380D01*
X134666666Y-96452380D01*
X135904761Y-95785714D02*
X135904761Y-96452380D01*
X135476190Y-95785714D02*
X135476190Y-96309523D01*
X135523809Y-96404761D01*
X135619047Y-96452380D01*
X135761904Y-96452380D01*
X135857142Y-96404761D01*
X135904761Y-96357142D01*
%TO.C,C1*%
X129833333Y-102857142D02*
X129785714Y-102904761D01*
X129642857Y-102952380D01*
X129547619Y-102952380D01*
X129404761Y-102904761D01*
X129309523Y-102809523D01*
X129261904Y-102714285D01*
X129214285Y-102523809D01*
X129214285Y-102380952D01*
X129261904Y-102190476D01*
X129309523Y-102095238D01*
X129404761Y-102000000D01*
X129547619Y-101952380D01*
X129642857Y-101952380D01*
X129785714Y-102000000D01*
X129833333Y-102047619D01*
X130785714Y-102952380D02*
X130214285Y-102952380D01*
X130500000Y-102952380D02*
X130500000Y-101952380D01*
X130404761Y-102095238D01*
X130309523Y-102190476D01*
X130214285Y-102238095D01*
X124595238Y-96357142D02*
X124642857Y-96404761D01*
X124595238Y-96452380D01*
X124547619Y-96404761D01*
X124595238Y-96357142D01*
X124595238Y-96452380D01*
X125500000Y-95785714D02*
X125500000Y-96452380D01*
X125261904Y-95404761D02*
X125023809Y-96119047D01*
X125642857Y-96119047D01*
X125928571Y-95452380D02*
X126595238Y-95452380D01*
X126166666Y-96452380D01*
X127404761Y-95785714D02*
X127404761Y-96452380D01*
X126976190Y-95785714D02*
X126976190Y-96309523D01*
X127023809Y-96404761D01*
X127119047Y-96452380D01*
X127261904Y-96452380D01*
X127357142Y-96404761D01*
X127404761Y-96357142D01*
%TO.C,U1*%
X115612380Y-82541904D02*
X116421904Y-82541904D01*
X116517142Y-82494285D01*
X116564761Y-82446666D01*
X116612380Y-82351428D01*
X116612380Y-82160952D01*
X116564761Y-82065714D01*
X116517142Y-82018095D01*
X116421904Y-81970476D01*
X115612380Y-81970476D01*
X116612380Y-80970476D02*
X116612380Y-81541904D01*
X116612380Y-81256190D02*
X115612380Y-81256190D01*
X115755238Y-81351428D01*
X115850476Y-81446666D01*
X115898095Y-81541904D01*
X125142380Y-81232380D02*
X125713809Y-81232380D01*
X125428095Y-82232380D02*
X125428095Y-81232380D01*
X126047142Y-82232380D02*
X126047142Y-81232380D01*
X126428095Y-81232380D01*
X126523333Y-81280000D01*
X126570952Y-81327619D01*
X126618571Y-81422857D01*
X126618571Y-81565714D01*
X126570952Y-81660952D01*
X126523333Y-81708571D01*
X126428095Y-81756190D01*
X126047142Y-81756190D01*
X126999523Y-81946666D02*
X127475714Y-81946666D01*
X126904285Y-82232380D02*
X127237619Y-81232380D01*
X127570952Y-82232380D01*
X128332857Y-81232380D02*
X128142380Y-81232380D01*
X128047142Y-81280000D01*
X127999523Y-81327619D01*
X127904285Y-81470476D01*
X127856666Y-81660952D01*
X127856666Y-82041904D01*
X127904285Y-82137142D01*
X127951904Y-82184761D01*
X128047142Y-82232380D01*
X128237619Y-82232380D01*
X128332857Y-82184761D01*
X128380476Y-82137142D01*
X128428095Y-82041904D01*
X128428095Y-81803809D01*
X128380476Y-81708571D01*
X128332857Y-81660952D01*
X128237619Y-81613333D01*
X128047142Y-81613333D01*
X127951904Y-81660952D01*
X127904285Y-81708571D01*
X127856666Y-81803809D01*
X129047142Y-81232380D02*
X129142380Y-81232380D01*
X129237619Y-81280000D01*
X129285238Y-81327619D01*
X129332857Y-81422857D01*
X129380476Y-81613333D01*
X129380476Y-81851428D01*
X129332857Y-82041904D01*
X129285238Y-82137142D01*
X129237619Y-82184761D01*
X129142380Y-82232380D01*
X129047142Y-82232380D01*
X128951904Y-82184761D01*
X128904285Y-82137142D01*
X128856666Y-82041904D01*
X128809047Y-81851428D01*
X128809047Y-81613333D01*
X128856666Y-81422857D01*
X128904285Y-81327619D01*
X128951904Y-81280000D01*
X129047142Y-81232380D01*
X129761428Y-81327619D02*
X129809047Y-81280000D01*
X129904285Y-81232380D01*
X130142380Y-81232380D01*
X130237619Y-81280000D01*
X130285238Y-81327619D01*
X130332857Y-81422857D01*
X130332857Y-81518095D01*
X130285238Y-81660952D01*
X129713809Y-82232380D01*
X130332857Y-82232380D01*
X131285238Y-82232380D02*
X130713809Y-82232380D01*
X130999523Y-82232380D02*
X130999523Y-81232380D01*
X130904285Y-81375238D01*
X130809047Y-81470476D01*
X130713809Y-81518095D01*
X131666190Y-81946666D02*
X132142380Y-81946666D01*
X131570952Y-82232380D02*
X131904285Y-81232380D01*
X132237619Y-82232380D01*
X132999523Y-81565714D02*
X132999523Y-82232380D01*
X132761428Y-81184761D02*
X132523333Y-81899047D01*
X133142380Y-81899047D01*
X133523333Y-82232380D02*
X133523333Y-81232380D01*
X134094761Y-82232380D01*
X134094761Y-81232380D01*
%TO.C,C3*%
X119633333Y-103667142D02*
X119585714Y-103714761D01*
X119442857Y-103762380D01*
X119347619Y-103762380D01*
X119204761Y-103714761D01*
X119109523Y-103619523D01*
X119061904Y-103524285D01*
X119014285Y-103333809D01*
X119014285Y-103190952D01*
X119061904Y-103000476D01*
X119109523Y-102905238D01*
X119204761Y-102810000D01*
X119347619Y-102762380D01*
X119442857Y-102762380D01*
X119585714Y-102810000D01*
X119633333Y-102857619D01*
X119966666Y-102762380D02*
X120585714Y-102762380D01*
X120252380Y-103143333D01*
X120395238Y-103143333D01*
X120490476Y-103190952D01*
X120538095Y-103238571D01*
X120585714Y-103333809D01*
X120585714Y-103571904D01*
X120538095Y-103667142D01*
X120490476Y-103714761D01*
X120395238Y-103762380D01*
X120109523Y-103762380D01*
X120014285Y-103714761D01*
X119966666Y-103667142D01*
X119157142Y-96262380D02*
X118585714Y-96262380D01*
X118871428Y-96262380D02*
X118871428Y-95262380D01*
X118776190Y-95405238D01*
X118680952Y-95500476D01*
X118585714Y-95548095D01*
X119776190Y-95262380D02*
X119871428Y-95262380D01*
X119966666Y-95310000D01*
X120014285Y-95357619D01*
X120061904Y-95452857D01*
X120109523Y-95643333D01*
X120109523Y-95881428D01*
X120061904Y-96071904D01*
X120014285Y-96167142D01*
X119966666Y-96214761D01*
X119871428Y-96262380D01*
X119776190Y-96262380D01*
X119680952Y-96214761D01*
X119633333Y-96167142D01*
X119585714Y-96071904D01*
X119538095Y-95881428D01*
X119538095Y-95643333D01*
X119585714Y-95452857D01*
X119633333Y-95357619D01*
X119680952Y-95310000D01*
X119776190Y-95262380D01*
X120966666Y-95595714D02*
X120966666Y-96262380D01*
X120538095Y-95595714D02*
X120538095Y-96119523D01*
X120585714Y-96214761D01*
X120680952Y-96262380D01*
X120823809Y-96262380D01*
X120919047Y-96214761D01*
X120966666Y-96167142D01*
%TO.C,A1*%
X194246666Y-101334285D02*
X194246666Y-100858095D01*
X194532380Y-101429523D02*
X193532380Y-101096190D01*
X194532380Y-100762857D01*
X194532380Y-99905714D02*
X194532380Y-100477142D01*
X194532380Y-100191428D02*
X193532380Y-100191428D01*
X193675238Y-100286666D01*
X193770476Y-100381904D01*
X193818095Y-100477142D01*
X163809523Y-104166666D02*
X164285714Y-104166666D01*
X163714285Y-104452380D02*
X164047619Y-103452380D01*
X164380952Y-104452380D01*
X164714285Y-104452380D02*
X164714285Y-103785714D01*
X164714285Y-103976190D02*
X164761904Y-103880952D01*
X164809523Y-103833333D01*
X164904761Y-103785714D01*
X165000000Y-103785714D01*
X165761904Y-104452380D02*
X165761904Y-103452380D01*
X165761904Y-104404761D02*
X165666666Y-104452380D01*
X165476190Y-104452380D01*
X165380952Y-104404761D01*
X165333333Y-104357142D01*
X165285714Y-104261904D01*
X165285714Y-103976190D01*
X165333333Y-103880952D01*
X165380952Y-103833333D01*
X165476190Y-103785714D01*
X165666666Y-103785714D01*
X165761904Y-103833333D01*
X166666666Y-103785714D02*
X166666666Y-104452380D01*
X166238095Y-103785714D02*
X166238095Y-104309523D01*
X166285714Y-104404761D01*
X166380952Y-104452380D01*
X166523809Y-104452380D01*
X166619047Y-104404761D01*
X166666666Y-104357142D01*
X167142857Y-104452380D02*
X167142857Y-103785714D01*
X167142857Y-103452380D02*
X167095238Y-103500000D01*
X167142857Y-103547619D01*
X167190476Y-103500000D01*
X167142857Y-103452380D01*
X167142857Y-103547619D01*
X167619047Y-103785714D02*
X167619047Y-104452380D01*
X167619047Y-103880952D02*
X167666666Y-103833333D01*
X167761904Y-103785714D01*
X167904761Y-103785714D01*
X168000000Y-103833333D01*
X168047619Y-103928571D01*
X168047619Y-104452380D01*
X168666666Y-104452380D02*
X168571428Y-104404761D01*
X168523809Y-104357142D01*
X168476190Y-104261904D01*
X168476190Y-103976190D01*
X168523809Y-103880952D01*
X168571428Y-103833333D01*
X168666666Y-103785714D01*
X168809523Y-103785714D01*
X168904761Y-103833333D01*
X168952380Y-103880952D01*
X169000000Y-103976190D01*
X169000000Y-104261904D01*
X168952380Y-104357142D01*
X168904761Y-104404761D01*
X168809523Y-104452380D01*
X168666666Y-104452380D01*
X169190476Y-104547619D02*
X169952380Y-104547619D01*
X170190476Y-104452380D02*
X170190476Y-103452380D01*
X170761904Y-104452380D01*
X170761904Y-103452380D01*
X171666666Y-104452380D02*
X171666666Y-103928571D01*
X171619047Y-103833333D01*
X171523809Y-103785714D01*
X171333333Y-103785714D01*
X171238095Y-103833333D01*
X171666666Y-104404761D02*
X171571428Y-104452380D01*
X171333333Y-104452380D01*
X171238095Y-104404761D01*
X171190476Y-104309523D01*
X171190476Y-104214285D01*
X171238095Y-104119047D01*
X171333333Y-104071428D01*
X171571428Y-104071428D01*
X171666666Y-104023809D01*
X172142857Y-103785714D02*
X172142857Y-104452380D01*
X172142857Y-103880952D02*
X172190476Y-103833333D01*
X172285714Y-103785714D01*
X172428571Y-103785714D01*
X172523809Y-103833333D01*
X172571428Y-103928571D01*
X172571428Y-104452380D01*
X173190476Y-104452380D02*
X173095238Y-104404761D01*
X173047619Y-104357142D01*
X173000000Y-104261904D01*
X173000000Y-103976190D01*
X173047619Y-103880952D01*
X173095238Y-103833333D01*
X173190476Y-103785714D01*
X173333333Y-103785714D01*
X173428571Y-103833333D01*
X173476190Y-103880952D01*
X173523809Y-103976190D01*
X173523809Y-104261904D01*
X173476190Y-104357142D01*
X173428571Y-104404761D01*
X173333333Y-104452380D01*
X173190476Y-104452380D01*
X173714285Y-104547619D02*
X174476190Y-104547619D01*
X174714285Y-103928571D02*
X175047619Y-103928571D01*
X175190476Y-104452380D02*
X174714285Y-104452380D01*
X174714285Y-103452380D01*
X175190476Y-103452380D01*
X175523809Y-103785714D02*
X175761904Y-104452380D01*
X176000000Y-103785714D01*
X176761904Y-104404761D02*
X176666666Y-104452380D01*
X176476190Y-104452380D01*
X176380952Y-104404761D01*
X176333333Y-104309523D01*
X176333333Y-103928571D01*
X176380952Y-103833333D01*
X176476190Y-103785714D01*
X176666666Y-103785714D01*
X176761904Y-103833333D01*
X176809523Y-103928571D01*
X176809523Y-104023809D01*
X176333333Y-104119047D01*
X177238095Y-104452380D02*
X177238095Y-103785714D01*
X177238095Y-103976190D02*
X177285714Y-103880952D01*
X177333333Y-103833333D01*
X177428571Y-103785714D01*
X177523809Y-103785714D01*
X177761904Y-103785714D02*
X178000000Y-104452380D01*
X178238095Y-103785714D02*
X178000000Y-104452380D01*
X177904761Y-104690476D01*
X177857142Y-104738095D01*
X177761904Y-104785714D01*
%TD*%
M02*
