M48
; DRILL file {KiCad (6.0.5)} date Wed Feb  1 20:40:13 2023
; FORMAT={-:-/ absolute / inch / decimal}
; #@! TF.CreationDate,2023-02-01T20:40:13-08:00
; #@! TF.GenerationSoftware,Kicad,Pcbnew,(6.0.5)
; #@! TF.FileFunction,Plated,1,2,PTH
FMAT,2
INCH
; #@! TA.AperFunction,Plated,PTH,ViaDrill
T1C0.0157
; #@! TA.AperFunction,Plated,PTH,ComponentDrill
T2C0.0197
; #@! TA.AperFunction,Plated,PTH,ComponentDrill
T3C0.0315
; #@! TA.AperFunction,Plated,PTH,ComponentDrill
T4C0.0374
; #@! TA.AperFunction,Plated,PTH,ComponentDrill
T5C0.0394
; #@! TA.AperFunction,Plated,PTH,ComponentDrill
T6C0.0433
; #@! TA.AperFunction,Plated,PTH,ComponentDrill
T7C0.1260
; #@! TA.AperFunction,Plated,PTH,ComponentDrill
T8C0.1378
%
G90
G05
T1
X4.5669Y-4.6063
X4.7087Y-4.1102
X4.71Y-4.04
X4.7165Y-4.753
X4.7811Y-3.13
X4.811Y-4.1693
X4.8519Y-4.1219
X5.02Y-4.0187
X5.09Y-4.11
X5.5748Y-3.1496
X5.5827Y-3.2756
X5.917Y-3.4656
X5.9449Y-3.437
X6.0197Y-3.5157
X6.0503Y-3.4755
T2
X3.4793Y-4.9748
X3.5096Y-4.9017
X3.5096Y-5.0479
X3.5827Y-4.8715
X3.5827Y-5.0781
X3.6558Y-4.9017
X3.6558Y-5.0479
X3.686Y-4.9748
X4.188Y-2.0472
X4.2183Y-1.9742
X4.2183Y-2.1203
X4.2913Y-1.9439
X4.2913Y-2.1506
X4.3644Y-1.9742
X4.3644Y-2.1203
X4.3947Y-2.0472
X6.2352Y-4.9764
X6.2655Y-4.9033
X6.2655Y-5.0495
X6.3386Y-4.873
X6.3386Y-5.0797
X6.4117Y-4.9033
X6.4117Y-5.0495
X6.4419Y-4.9764
X7.81Y-2.0472
X7.8403Y-1.9742
X7.8403Y-2.1203
X7.9134Y-1.9439
X7.9134Y-2.1506
X7.9865Y-1.9742
X7.9865Y-2.1203
X8.0167Y-2.0472
T3
X4.6559Y-3.0717
X4.6559Y-3.3677
X4.6616Y-3.59
X4.6713Y-3.84
X4.75Y-3.84
X4.7559Y-3.0717
X4.7559Y-3.3677
X4.76Y-3.59
X4.8559Y-3.0717
X4.8559Y-3.3677
X4.95Y-3.72
X4.95Y-3.8184
X4.9559Y-3.0717
X4.9559Y-3.3677
X4.9685Y-2.874
X5.0559Y-3.0717
X5.0559Y-3.3677
X5.0669Y-2.874
X5.15Y-3.54
X5.15Y-3.6384
X5.1559Y-3.0717
X5.1559Y-3.3677
X5.248Y-2.8465
X5.2559Y-3.0717
X5.2559Y-3.3677
X5.33Y-3.73
X5.33Y-3.8284
X5.3559Y-3.0717
X5.3559Y-3.3677
X5.4559Y-3.0717
X5.4559Y-3.3677
X5.5059Y-3.54
X5.5059Y-3.6384
X5.5559Y-3.0717
X5.5559Y-3.3677
X5.648Y-2.8465
X5.6614Y-4.4331
X5.6772Y-4.5827
X5.6772Y-4.9827
X5.7165Y-2.315
X5.7165Y-2.715
X5.7323Y-3.0787
X5.7323Y-3.3386
X5.7516Y-3.9862
X5.811Y-3.0787
X5.811Y-3.3386
X5.811Y-3.7953
X5.874Y-4.5764
X5.874Y-4.9764
X6.0614Y-4.4331
X6.1516Y-3.9862
X6.211Y-3.7953
X6.2197Y-4.4252
X6.2197Y-4.7252
X6.3197Y-4.4252
X6.3197Y-4.7252
X6.3425Y-3.7614
X6.3425Y-4.1614
X6.4197Y-4.4252
X6.4197Y-4.7252
X6.4685Y-3.7638
X6.4685Y-4.1638
X6.5197Y-4.4252
X6.5197Y-4.7252
X7.0787Y-3.7575
X7.0787Y-4.1575
X7.2165Y-3.7598
X7.2165Y-4.1598
T4
X3.822Y-2.015
X3.822Y-2.1134
X3.822Y-2.2118
X3.822Y-2.3102
X4.9094Y-2.0374
X5.0079Y-2.0374
X5.1063Y-2.0374
X5.2047Y-2.0374
X5.5709Y-2.0354
X5.6693Y-2.0354
X5.7677Y-2.0354
X5.8661Y-2.0354
X5.9646Y-2.0354
X6.3189Y-2.0374
X6.4173Y-2.0374
X6.5157Y-2.0374
X6.6142Y-2.0374
X6.7126Y-2.0374
X7.1457Y-2.0374
X7.2441Y-2.0374
X7.3425Y-2.0374
X7.4409Y-2.0374
X7.5394Y-2.0374
X7.8346Y-2.4606
X7.8346Y-2.5591
X7.8346Y-2.6575
X7.8346Y-2.7559
X7.8346Y-3.248
X7.8346Y-3.3465
X7.8346Y-3.4449
X7.8346Y-3.5433
T5
X3.5362Y-4.1327
X3.5812Y-4.2107
X3.5813Y-4.0546
X3.6263Y-4.1326
X3.6264Y-3.9765
X3.6713Y-4.2106
X3.6714Y-4.0545
X3.6715Y-3.8984
X3.7163Y-4.1326
X3.7164Y-3.9765
X3.7166Y-3.8204
X3.7614Y-4.0545
X3.7615Y-3.8984
X3.8065Y-3.9764
X3.8516Y-3.8983
X4.3701Y-5.0551
X4.3701Y-5.1551
X4.4701Y-5.0551
X4.4701Y-5.1551
X4.5701Y-5.0551
X4.5701Y-5.1551
X4.6701Y-5.0551
X4.6701Y-5.1551
X4.7701Y-5.0551
X4.7701Y-5.1551
X4.7756Y-2.4449
X4.8701Y-5.0551
X4.8701Y-5.1551
X4.9701Y-5.0551
X4.9701Y-5.1551
X4.9724Y-2.4449
X4.99Y-4.14
X4.99Y-4.3369
X5.0701Y-5.0551
X5.0701Y-5.1551
X5.1701Y-5.0551
X5.1701Y-5.1551
X5.2323Y-2.4488
X5.2701Y-5.0551
X5.2701Y-5.1551
X5.4291Y-2.4488
X6.0409Y-3.6614
X6.0409Y-4.2614
X6.1409Y-3.6614
X6.1409Y-4.2614
X6.2409Y-3.6614
X6.2409Y-4.2614
X6.3409Y-3.6614
X6.3409Y-4.2614
X6.4409Y-3.6614
X6.4409Y-4.2614
X6.5409Y-3.6614
X6.5409Y-4.2614
X6.5685Y-2.3953
X6.6409Y-3.6614
X6.6409Y-4.2614
X6.6685Y-2.3953
X6.7409Y-3.6614
X6.7409Y-4.2614
X6.7685Y-2.3953
X6.7685Y-3.1953
X6.8409Y-3.6614
X6.8409Y-4.2614
X6.8685Y-2.3953
X6.8685Y-3.1953
X6.9409Y-3.6614
X6.9409Y-4.2614
X6.9685Y-2.3953
X6.9685Y-3.1953
X7.0409Y-3.6614
X7.0409Y-4.2614
X7.0685Y-2.3953
X7.0685Y-3.1953
X7.1409Y-3.6614
X7.1409Y-4.2614
X7.1685Y-2.3953
X7.1685Y-3.1953
X7.2409Y-3.6614
X7.2409Y-4.2614
X7.2685Y-2.3953
X7.2685Y-3.1953
X7.3409Y-3.6614
X7.3409Y-4.2614
X7.3685Y-2.3953
X7.4409Y-3.6614
X7.4409Y-4.2614
T6
X4.685Y-4.2276
X4.685Y-4.5276
X5.5039Y-4.7717
X5.5039Y-5.0717
T7
X3.4617Y-4.4617
X3.9538Y-3.6094
T8
X3.5827Y-4.9748
X4.2913Y-2.0472
X6.3386Y-4.9764
X7.9134Y-2.0472
T0
M30
