M48
; DRILL file {KiCad (6.0.5)} date Wed Feb  1 20:45:21 2023
; FORMAT={-:-/ absolute / inch / decimal}
; #@! TF.CreationDate,2023-02-01T20:45:21-08:00
; #@! TF.GenerationSoftware,Kicad,Pcbnew,(6.0.5)
; #@! TF.FileFunction,Plated,1,2,PTH
FMAT,2
INCH
; #@! TA.AperFunction,Plated,PTH,ViaDrill
T1C0.0157
; #@! TA.AperFunction,Plated,PTH,ComponentDrill
T2C0.0197
; #@! TA.AperFunction,Plated,PTH,ComponentDrill
T3C0.0315
; #@! TA.AperFunction,Plated,PTH,ComponentDrill
T4C0.0374
; #@! TA.AperFunction,Plated,PTH,ComponentDrill
T5C0.0394
; #@! TA.AperFunction,Plated,PTH,ComponentDrill
T6C0.0512
; #@! TA.AperFunction,Plated,PTH,ComponentDrill
T7C0.1378
%
G90
G05
T1
X5.7142Y-4.2063
T2
X4.2341Y-3.781
X4.2644Y-3.7079
X4.2644Y-3.8541
X4.3375Y-3.6777
X4.3375Y-3.8844
X4.4106Y-3.7079
X4.4106Y-3.8541
X4.4408Y-3.781
T3
X5.0173Y-4.0331
X5.1189Y-3.8362
X5.3173Y-4.0331
X5.4189Y-3.8362
T4
X4.8917Y-4.3055
X4.9902Y-4.3055
X5.0886Y-4.3055
X5.187Y-4.3055
X5.561Y-4.3055
X5.6594Y-4.3055
X5.7579Y-4.3055
X5.8563Y-4.3055
X6.2748Y-3.9121
X6.2748Y-4.0106
X6.2748Y-4.109
X6.2748Y-4.2074
X6.2748Y-4.3058
T5
X5.16Y-3.52
X5.16Y-3.62
X5.26Y-3.52
X5.26Y-3.62
X5.36Y-3.52
X5.36Y-3.62
X5.46Y-3.52
X5.46Y-3.62
X5.56Y-3.52
X5.56Y-3.62
X5.66Y-3.52
X5.66Y-3.62
X5.76Y-3.52
X5.76Y-3.62
X5.86Y-3.52
X5.86Y-3.62
X5.96Y-3.52
X5.96Y-3.62
X6.06Y-3.52
X6.06Y-3.62
X6.16Y-3.52
X6.16Y-3.62
X6.26Y-3.52
X6.26Y-3.62
X6.36Y-3.52
X6.36Y-3.62
T6
X4.319Y-4.2011
X4.5158Y-4.2011
T7
X4.3375Y-3.781
T0
M30
